<svg xmlns="http://www.w3.org/2000/svg" viewBox="0 0 313.28 401"><defs><style>.cls-2{fill:#b64e30}</style></defs><g id="レイヤー_2" data-name="レイヤー 2"><g opacity=".1" id="装飾"><path class="cls-2" d="M10.78 397.5c.34-.05 1.16-.24 1.58.28A3.24 3.24 0 0 0 14.3 399c.49-.1 2.24-.33 2.52 0a5.8 5.8 0 0 1 .84 1.45c0 .28.23.56.51.56a5 5 0 0 0 1.63-.37c.42-.19.8-1.78 1.92-2.62s3.82-2.29 4.38-2.8 1.63-.28 2.71-.79a21.6 21.6 0 0 0 2.56-1.35 1.82 1.82 0 0 1 2.05.51c.59.56.94 1.16 2 .79s1.66-1.12 2.24-1.12a2.09 2.09 0 0 0 2-.65 6.32 6.32 0 0 0 .95-2.57c.24-.65.85-1 1.92-1.08A1.82 1.82 0 0 0 44 387c.07-.7 1.05-.79 1.31-1.73a3.74 3.74 0 0 1 1.63-2.56 1.87 1.87 0 0 0 1.06-1.88c-.12-.51 3.14-2.89 3.54-3s.28.79 1.21.65.8-.79 1.48-1.63 1.51-.24 1.63-.94-.07-.7-.26-1.49-.39-1-.14-.7.61.32.86 1.12.42.7 1.19.56 1.73-.51 1.43-1.07-.77-1.22 0-1.55 1.65-.88 2.14-1.16a5.17 5.17 0 0 1 2.22-.94 2.81 2.81 0 0 1 2 .47c.54.42.75 1 1.64 1s1.25-.56 1.88-.79a4.85 4.85 0 0 0 1.85-1.26c.74-.71 1.53-2.53 1.82-2.71s.39.18.67-.14.12-.89.28-1.07 1.56-1.45 2.08-2.06A16.75 16.75 0 0 1 77 362.4a9.53 9.53 0 0 1 2.4-2.06c.75-.28 1.85-.37 2.41-.93a16.09 16.09 0 0 0 1.33-1.87c.39-.47.67-.84.6-1.12s.07-.23.21-.28a7.07 7.07 0 0 0 1.24-.93c.4-.42.74-.24.79 0s.17.61.82.19.14-.52 0-1.17a3.45 3.45 0 0 1-.12-2 1.57 1.57 0 0 0 .12-1c-.07-.24-.19-.52 0-.66s.38-.56.12-.51-.4-.19-.54-.38-.07-.69-1.14-.84a2.31 2.31 0 0 1-2.12-.93 2.08 2.08 0 0 1-.47-2c.21-.89 1.14-2-.47-2.38-1.56-.19-.88 0-1.16-.47s-1.26-.51-1.56-.46-.26.51.21.37.88.28.32.28a16.08 16.08 0 0 0-4 .79 6.39 6.39 0 0 1-2.09.7c-.52.1-2.43.52-3.15 1.5s-.38.88-.84 1.31a2.34 2.34 0 0 0-1 1.67c-.07.89.28 1.22.16 1.73a7 7 0 0 0-.23 1.87c.14.28-.91.61-1.59.28s-.74-.52-.84-.89-.39-.14-.6 0-.86-.28-1.61-.19-1.1.05-1.05-.37 1-.32.56-1.07-.12-1.07-.42-1.63-.54-.05-.73-.42a1.71 1.71 0 0 1 .07-1.5c.35-.37.66.09.87.52s.56 0 .21-.56-.4-.61-.33-1.31-.16-.8-.82-1.26a5.82 5.82 0 0 1-1.07-1.31c-.3-.56-.42-.84-1.1-.93s-.81.23-.86-.47-.37-1.87-.07-2.38a1 1 0 0 0 .26-1.12c-.19-.28.49-.23.14-.79s-.7-.57-.82-.94-.18.14-.26.28-.55-.05-.83-.32-.21-1.31.35-1.5a1.21 1.21 0 0 1 1.56.7c.35.7 1.14 1.26 1 .93a5.72 5.72 0 0 0-.84-1.63c-.47-.51-1.1-.88-.8-1.63s1-1.17 1.29-1 .74.42.86.14-.21-.7.07-1.26.84-.37 1.37-1.17 1-.74 1-1.12a16.34 16.34 0 0 1 .84-1.91 1.91 1.91 0 0 1 1.63-1.49c.7 0 1.07.13 1.38-.38a2.86 2.86 0 0 0 .75-1.49.7.7 0 0 0-.56-.8c-.47-.14-.75-.05-.5-.32s.38-.38.52-.8a3.56 3.56 0 0 0 .26-2 11.55 11.55 0 0 1 0-4.11c.28-.7 0-1.92.36-2.39a11.46 11.46 0 0 1 1.37-1c.54-.27.3-.37.44-.93a8.36 8.36 0 0 1 .38-1.63c.16-.33.53-.42.72-.8s.28-2.38.63-3.17a3.36 3.36 0 0 1 2.07-1.91c.75-.1 1.76-1.45 2.2-2.24s1-.85 1.26-.56.39.83 1 .51 2.26-1.78 1.8-2.15-.77-.37-.5-.84.8-1.07.8-1.3-.12-1.78-.19-2.57.07-1.55-.21-1.5-.11.66-.58.24-1.91-1.73-2-2.43.67.14 1.07.09.3-1 .3-1 .59 1 .68.79a3.11 3.11 0 0 0 .07-1.87 3.52 3.52 0 0 1-.23-2.19 2.44 2.44 0 0 1 1.89-1c.83 0 1 1.26 1.72 1.35s2 .05 2.36-.37a1.64 1.64 0 0 0 .34-1.36 10.55 10.55 0 0 1-.09-2.47c.09-.51.49-1.21.84-1.17a10.79 10.79 0 0 0 2.43-.19 3.86 3.86 0 0 1 1.63-.27 6 6 0 0 0 2.29-.33c1-.28 2.44-1.64 1.14-1.91s-2.08 0-2.35-.61-1.36-1.68-1.92-1.45-.25-.84-.79-1.45.54-1.54 1.07-1.49.82 1.45 1.38 1.21-.42-.84 0-1.12 1.19 1 2.68 1.36 3 1.07 3.76.14 1.14-1.27.3-2.2.28-1.07.6-1.3 1.19.27 1.87 1 1.4 2.06 1.94 1.82 1.63-.84 1.63-1.77.14-2.2-.72-3-.82-1.86 0-.93a9.36 9.36 0 0 1 1.91 3.83c0 .7.81.28 2.14 1.73a13.12 13.12 0 0 1 2 2.71 16.46 16.46 0 0 1 2.19 2.33 14.49 14.49 0 0 0 3.11 3.36c.63.32 2.09 2.48 3.45 3.13s1.56.55 2 .84 2.31.56 2.8 1.16.3 1 .86 1.5.68 1.4 1.42 1.21.82-.6 1-.51.67 1 1.07.51a9.14 9.14 0 0 0 .65-2.89c.1-.47-.44-1.17-.58-1.82s.77-1.17.49-1.63-.12-.8-.4-.75-.67-.56-.67-.75.18-.28.51-.37-.33 0-.8-.56a3.47 3.47 0 0 1-.72-2.29c.12-.51-.28-.84-.84-1.49s-1.54-3-2.7-3.83-1.89-1.78-2.29-1.92a6.67 6.67 0 0 0-2.19-.37c-.72-.09-1.19-.8-2-1.45s-3.24-3-3.82-3.59a14 14 0 0 1-2-2.66 21.63 21.63 0 0 1-1.28-2.43 2 2 0 0 0-.84-1.12 4.7 4.7 0 0 1-1.94-2.71c-.21-1.07-.39-2.8.19-3.27s.77-.28.77-1.21.07-1.91-.28-2.06-1.07-.23-.56-.37a16.47 16.47 0 0 0 2-.84c.73-.37 2.08-.09.61-1.44a7.17 7.17 0 0 1-2.12-3.13 3.87 3.87 0 0 0-2.71-1.78c-1.19-.14-2.15-2.38-3.29-3.12s-.74-1.5-1.24-1.73a11 11 0 0 1-3.1-1.73c-.84-.7-1.63-.14-2.3-.75s-.61-1.77-1.31-1.72-1 1.16-1.47 0a11.56 11.56 0 0 0-1.1-2.9c-.68-1.17-.79-1.82-.14-1.82s1.31-.84.75-1.26-1.19 0-1.56 0-2.22.28-3.08-.93-1.1-2.2-.49-2.29 1 .28 1.24 0a1 1 0 0 0 .18-1.21c-.28-.61-.28-.89.33-1s-.73-.61-.21-1 3.54 2.06 3.8 2a13.31 13.31 0 0 0 2-2.66c.16-.33-.12-.28-.42 0s-.87-.37-.87-.93a4 4 0 0 1 1.43-2.34 4.93 4.93 0 0 0 1.84-2.24c.4-1.12.45-3.26 1.75-3.73s2.43-.14 3.17-.93 3.13-2.43 4.62-2.15 1.84 1.12 3.66.93 4-1 5.06-.23 3.46 3.36 4.69 3.45 3.74-.18 4.27.19.86.79 1.26.65 1.12.05 1 .28 0 1.13.21 1.22.84-.14.54-.42-.45-1 .32-.66 1.35.94.8 1.08-1.08.7-.52.84.86-.28 1.36-.28a3.08 3.08 0 0 1 2.28.79 2.28 2.28 0 0 0 1.75.94c.42-.1 2.12-.52 3.2-.89a4.85 4.85 0 0 1 3.19.09c.86.51 1.7.93 1.75 1.26s.28.61.63.28.47-1-.35-1.63-1.63.14-2.05-.75a9.48 9.48 0 0 1-.19-4.53c.28-.42.68-.75.4-1.12s-.59-.79-.19-.65.68.51 1.61.42 1.45-.7 1.07-1a3.07 3.07 0 0 1-1.28-2.42c0-1.5-.14-1.64.49-1.87s1.68-.56 1.17-1.4a3.39 3.39 0 0 1-.17-2.15c0-.56 1.15-.7 1.7-.7s.4.18 1.08.18a12.17 12.17 0 0 0 1.91 0c.73 0 .61.84 1.19 1.36s.44 1.07 1.33 1.07a10.4 10.4 0 0 0 3.85-.79c.89-.42 1.28-1.12 1.78-1.12s.37.65 1.6 0a31.65 31.65 0 0 0 3.5-1.5c.49-.42.16-.79.49-1s.68.28.56-.37-.21-.33-.7-.61-1.21-.23-1.26-1 0-.14.52.1 1.07-.1 1.44 0 .75.28 1.66 0 2.58-1.35 2.66-2.61.13-1.78-.29-2.29.29-1.26-.39-1.72a13.48 13.48 0 0 1-2-1.55 5 5 0 0 1-1.26-2.57c-.28-1.3-.1-2 .35-2.42s.84-1.59 2-1.36 1.47.66 1.61 1.36.42.93 1.23.65.94-.56.14-1.77-.42-1.64.4-2.24 2-.75 2.29-.33 1.09.61 1.88.84a13.2 13.2 0 0 0 2.71.8 6.37 6.37 0 0 1 1.91.18c.35.09.93-.32 1.89-.7s1.36-2.29.68-3.27-.26-.55.28-.28 1.21-.23 1.84-.56a35.09 35.09 0 0 1 6.37-.28c1.05.14 1.05-.09.51-.93a5.11 5.11 0 0 0-1.35-1.73c-.4-.14-.59-.28-.52-.42s-.74-1.26-.84-1.87a7.43 7.43 0 0 0-1.07-3.45c-.88-1.07-1.91-3.17-2.35-3.64s-1.31-1.21-1.38-2-.12-1.4.28-1.26a3.11 3.11 0 0 0 1.61.05c.49-.19 1-1.26 1-.8a3.66 3.66 0 0 0 1.21 2.25c.82.56 1.4 0 1.75-.14s1.08 0 1.1.32a.52.52 0 0 0 .58.38c.28-.1.47-.66.68-.85a9.54 9.54 0 0 1 2.19-.79 5.24 5.24 0 0 1 2.1-.28c.44 0 .21.75-.16.7s.07.84.56.37.48-.79.79-.93 1.05.8 1.56.93 2 0 2.66.71 2.24 1.77 2.43 2.56.28 1 .76 1.22a6.06 6.06 0 0 1 2.11 1.07c.23.42.23.7.6.89s1.35-.05 1.94.37 1.91 1.08 1.16.24-1.09-1.36-1.07-1.87.4-1.73 1.49-1.22a8.82 8.82 0 0 1 2 1.08c.31.28 1.08 0 .47-1s-.56-1.54-.16-2a25.9 25.9 0 0 0 2.91-2c.91-.94 3.08-.8 4.06-1.22s3.43-1.58 3.94-1.87a3.15 3.15 0 0 1 1.85 0c.46.1 2.28-.79 2.89-.09s1 1.17 1.31.65a10.09 10.09 0 0 0 .13-4.2 6.73 6.73 0 0 0-.7-1.82c-.21-.37.7-.37 1.08-.51s.84-.7 1.23-.66.56.24 1 .15 1.75-.42 2.24-.19-.89-.94-2-1.82a8 8 0 0 1-2.56-3.83c-.31-1.54-1.45-4.34-2.41-4.76s-1.47.28-1.86-.66a23.14 23.14 0 0 0-2.13-4.62c-.86-1.12-.93-1.58-.28-1.58s1.56 1.07 2.59 1a12.32 12.32 0 0 1 2.45 0c.3 0 .3.61.86.51s.68-.65 1.15-.56.09.8.7.84 1.82.38 2.68.42 1 .14 1-.28a2.39 2.39 0 0 1 .6-2 4.2 4.2 0 0 0 1.22-2.71 5.43 5.43 0 0 1-.56-2.1c0-.94-1-.75-1.7-1.59s-.12-2-1-2.57-.75-2.7.1-3.5 2.93-1.26 3.77-1.4 2.5 1 3.36 1.07 4 0 4.36.42a3.21 3.21 0 0 0 2.29.94 2.6 2.6 0 0 0 2.52.56c.75-.14 4.55-.14 5.88-.52a30.47 30.47 0 0 1 3.54-.27c.54 0 2.43-.29 2.92-.29s1.28-1 1.26-1.11 2.17-.24 2.7-.24.68.24 1.36 0 2-.74 2.47-.93 2.08.66 2.68.33a6.08 6.08 0 0 0 2-2.1c.18-.42 1.46-.52 1.82-1.22s0-1.21.18-1.49.91-.23 1.17-.51.18-.85.6-1.08 1 0 1.22-.14.49-.79.77-.84-.35-.51-.28-.93.58-.8.32-1.12c-.21-.47-1-1-.28-1.59s1.7 0 1.82-1.21.68-2.2.45-2.57.32-.33.39.14.51.37.8.56.09.75.56.47.39-.94.72-.94.74.14.74-.23a4.55 4.55 0 0 1 .49-2c.4-.6 0-2.24 0-2.24a1.34 1.34 0 0 0 1.65-.23 3.15 3.15 0 0 1 2.34-1.12c.39.14.39-.28 1.42-1.5a3.16 3.16 0 0 0 .79-3.22 3.42 3.42 0 0 1 .35-2.47 5.41 5.41 0 0 0 .42-2.29c0-.88.19-1.17.77-1.31s1.1-.74.44-1.26-.13-.84.21-1.16.68.6 1.4.6.63-.65.82-1.16.93-.14 1.35-.56.21-1 .56-1 .61-.42-.16-1.22a1.73 1.73 0 0 1 .09-2.71 2.51 2.51 0 0 1 1.94-.42c.28.15 1.24-.09 1.07-1.21s-.37-1.49-.77-1.49-.56.69-1.09.47a6.4 6.4 0 0 1-1.36-.47c-.23-.29.33 0 .65-.42s.85-2 2.38-2.15 1.82.28 2.13-.56 1.14-1.87 1.35-2.38-.42-1 0-1.5a16.93 16.93 0 0 1 4.36-2.28c1.05-.14 1.05-.61 1-1.36s1.12-1.35.77-1.82a5.27 5.27 0 0 1-.54-1.49c-.07-.28.82-2.38 2.15-2.57s1.37.14 1.63-1.35.21-2.66 0-2.43-.49 1.26-1.14.79c-.21-.13-1.17-.09-1.1-1a13.46 13.46 0 0 1 .33-1.78 3.47 3.47 0 0 1 .61-2.28c.56-.61.83-1-.12-2.06s-1-1.35-.61-1.82a5.11 5.11 0 0 0 1.33-2.43 7.77 7.77 0 0 0-.65-3.92c-.54-1-.07-1.91-.56-2s-.58.56-1 .14-.35-1.35-1-1.35-1-.19-.86-.56.11-.93.79-1.07 1.63.28 1.28-.56a11.71 11.71 0 0 1-1.4-5c0-2.52.68-2.89 1-3.17s.54-.7-.07-.84a3.37 3.37 0 0 1-1.82-2.19c-.16-.94.12-1.78-.42-1.78s-2.5-.61-2.87-1.31 0-1.4-.65-1.63-.82 0-.91-1a2.92 2.92 0 0 1 .49-2.52 2.36 2.36 0 0 0-.14-2.57c-.45-.75-.66-.46-.26-1.12s.89-1.63-1.17-1.86-2.91-.47-3 .37-.93 1.63-1.54 1.63-1.17-1.12-1.35-1.91a1 1 0 0 0-1.14-.8c-.42.1-.71-.14-1.5-.93s-1.21-1-1.3-1.54.48-.28.16-1.07-.37-1-1-1-2.85-1.82-3.38-1.73-.77-.09-1.1-.65-.46-1.13-.93-1.36a4 4 0 0 1-1.84-1.26 1.64 1.64 0 0 1 .08-2.52c1-.7 1.24-.7.57-1.31-.68-.46-1.43-.27-2.11-.46s-.93-.42-1.63.28-1.54.93-1.7 1.26-1.35-.14-1.94 1-1.77 2.38-1.56 4.2-.14 2.57 1 3.26 2.68.94 2.82 2 .23 5-.59 5.78-1.37 1.08-1.72 1.87-1.68 2.34-1.75 3.13-.22 2.61-1.22 3.64-1.12 1.82-1.72 2.75-1.43 1.31-1.55 2.72a4.69 4.69 0 0 1-1.35 3.07c-.6.56-.47 2.25-1.35 3a4.2 4.2 0 0 0-1.75 2.62 4.07 4.07 0 0 1-2 3.69 9.75 9.75 0 0 0-3.3 2.89 6.88 6.88 0 0 1-2.65 2.52c-.94.23-1.19 1.45-.89 2.43s-.58 2.42-1.4 2.29-1-.94-1.24-.66a24 24 0 0 1-2.38 2.1c-1.07.75-2.07 1.63-2.21 2.71s-.28 3-1.84 4.11-3-.24-4.53 1.07-3.26 2.47-4.87 2.62-2.59.46-2.9-.15-.35-1.4-1.12-1-.74 1.36-1.14 1.64a.37.37 0 0 0 .35.65 1.6 1.6 0 0 1 2 .66c.4.88 2.43 6.53 1.64 7.6s-1.29 1.69-1.29 1.69-4.2 2.85-4.81 3.07-.55.57-.74 1.22-.4 1.21-3.38 2.34-3.46.69-4 1a7 7 0 0 1-2.1.89c-1 .14-2.38-.42-3 .09a8.52 8.52 0 0 0-2 3.22c-.29 1-1.73 1.92-2.59 2.76a1.45 1.45 0 0 0-.61 1.86c.14.71.61.42-.53 1.5s-2.46 2.57-2 3a15 15 0 0 1 2.22 3.6c0 .46.4 1.35.75 1 .32-.18.32-1 .56-1.25s1.21.56 1.89.56.74-.29 1.14.37a2 2 0 0 0 1.63.93c.75 0 2.21.84 1.75 1.4s-.58 1 .07 1.5 1.75 1.21 1 1.21-1.47-.14-2 .23-1.54.47-1.61-.14-.09-1.63-.48-1.16a2.54 2.54 0 0 1-1.19 1c-.45 0-1.17-.23-.61-.65s.91-.37.84-1-.33-1-.31-1.59-.53-.93-.76-.37-1.15.65-1.15 1.45.56.83-.33.83a2.41 2.41 0 0 1-1.51-.56c-.31-.09-.75-.23-.86.24-.12.32-.12.14-.61.74s-1.52.29-2.19.38a2.87 2.87 0 0 0-1.8 1.87c-.28.89-.7 1.82-1.21 2s-.56.23-.7.79a1.63 1.63 0 0 1-1.42 1c-.47 0-.49.89-.87 1.21-.88 1-1.38 1.36-2 1.36s-2.92-.33-3.74.23a17 17 0 0 1-3.61 1.92c-.75.09-3 2.66-4.72 2.7s-4.62-1-5.41-.69-1.63.56-2 .32-1 .24-.68.37.6.51 0 1.08a29.56 29.56 0 0 1-3.06 2.28 1.78 1.78 0 0 1-2-.37c-.67-.42-2.4-.7-3-1.21a1.41 1.41 0 0 0-1.68-.14c-.56.28-1.43 1.21-2.66.37s-1.07-1.87-.72-2.29.11-1.35-.56-2.28a11 11 0 0 0-2.59-2.2 15 15 0 0 0-2.71-1.35 11.17 11.17 0 0 1-2.78-.52c-.6-.42-1.16-1.49-.95-1.82s.74.28 1.12.47.77-.14 1.47-.28 1 .14.68-.7-.82-1.21-.47-1.63 1-.8 1-1.5-.28-1.44.26-1.77.21-.52.33-1.63 1.14-.8.68-1.45-.87-1.49-.21-1.91 1-.38 1.09-1 .68-1.73 1.24-1.83a7 7 0 0 0 2.14-1.21 2 2 0 0 1 1.24-.61 1.22 1.22 0 0 0 .58-2.14c-1-.71-2.43-1.27-3.38-1.87s-.68-1.26-1.26-1-3.08-.28-3.87-.42a13.91 13.91 0 0 1-3.27-1c-.58-.42-.79-1-1.35-1.17a2.1 2.1 0 0 0-1.29-.09c-.65.09-1.09 0-1.39.09s-.54.42 0 .75a4 4 0 0 1 1.28 2.43c.13 1.07-.05 1.77.13 2.05s-.46-.18-.74-.7-.07-1.91-.75-2.57-2.82-1.54-2.63-2.14.49-1.4 1.14-1.5 1.1-.84.63-1.21-1 .46-1.49 0-1.21-.75-2.66-1.63a10.32 10.32 0 0 0-4.18-1c-1.14 0-1.56 0-1.56.56s-1.3.56-1.89.47-.67-.29-1.44.32-1.08 0-1.36.56-1.39.47-1.75.47a3.19 3.19 0 0 1-1.35-.14 18.78 18.78 0 0 0-5.41 0c-1.23.42-3.27.61-4.15 1.31s-1.07 1.07-1.49 1.21-1.57 0-1.87-.56a3.07 3.07 0 0 0-.84-1 3 3 0 0 1-2-.05c-1.07-.46-.89-.79-1.54-.88a3.39 3.39 0 0 1-2.18-1.07c-.72-.69-1.12-1.4-1.5-1.4s-1.14-.56-1.79-.56-.61.61-.3 1.12a2.81 2.81 0 0 1 .3 2.29c-.3.66-.61 1.73-1 1.78a.36.36 0 0 0-.09.69c.37.1.65.1-.31 1.22a4.49 4.49 0 0 0-1.35 2.66c0 .79-.26 2.2.49 2.62a23.56 23.56 0 0 1 2.31 1.91 19.13 19.13 0 0 0 1.66 1.45c.27 0 .58.51.37.65s-.37.7.11.84a5.08 5.08 0 0 0 1.15.14s.28-.23.63.79-.07 1.64.21 2.71 1 2 .44 2.71a22.5 22.5 0 0 1-2.64 2.62c-.6.41-2.49 1.72-2.21 2.79a5.82 5.82 0 0 1 .07 2.62c-.09.23-.24.51 0 .79s0 .94.12 1.26a7.54 7.54 0 0 0-.07 1.5 1.92 1.92 0 0 0 .74 1.21c.49.23.61.42 1.14 1.17a5.37 5.37 0 0 1 1.19 3.69 2.7 2.7 0 0 0 1.15 2.7c.74.79.21 1.26 1 2s1.65 2.43 1.39 2.9a2.38 2.38 0 0 0 0 1.58c.18.42-.56 2 1.4 2.29.77.14 3.84 1 4.52 1.26s2.38 1.72 3.38.56a12.37 12.37 0 0 0 1.7-2.89 3.64 3.64 0 0 1 2.74-1c1 0 3.28 1.3 4.71 1.77s4.54 1.22 5.08 1.68a6 6 0 0 0 2.85 2.61c2.42 1.22 4.83 2.2 5.57 2.58s1.56-.15 2 0 1.7.89 1.7.89a9.44 9.44 0 0 1 1.73.28c.14.19 1.56.65 2 1.35a7.45 7.45 0 0 1 .56 3 5.82 5.82 0 0 1-.21 2.71c-.47.79-1.15 1.12-1.15 2.29a4.39 4.39 0 0 1-.64 3c-.71 1.07-1.5 2-1.94 2.85a7.69 7.69 0 0 1-1.75 1.91c-.47.61-.28.79-.59 1.07s-.88.1-1.28.8-.28 2-.65 2.52-.94.42-.86 1.54-.75 1.31-1 .37-.28-2-1.63-1.77a8.53 8.53 0 0 0-2.5.42c-.47.19-.68 1.22-.68 1.63a9.39 9.39 0 0 1-2.82 2.9 2.24 2.24 0 0 1-2 0c-.67-.28-1.42 0-1.28-.75s.67-1.58.05-2a5.51 5.51 0 0 0-1.47-.84c-.28-.09-.63.7-.28.89.35.38.67.6.58 1.17s.42.79-.12 1.07a4.67 4.67 0 0 0-1.7 1.77c-.12.33-.68-.23-.79.15s-.17.51.11.69.17 1.22-.95 2.06-1.12.14-1.4-.14-.82-.47-.82 0-.14 1.49-.14 1.92-.18 1.58-.67 1.91a1.39 1.39 0 0 0-.63 1.31c0 .47 0 1.12-.61 1s-.46-.38-.86-.28a2.61 2.61 0 0 1-2-.52c-.68-.51-.4-1.11-.75-1a4.63 4.63 0 0 0-1.63 1 8.49 8.49 0 0 1-2.24 1.73c-.61.19-.61.94-1 .94s-1.28-.75-2.21-.15-1.24.71-.82 1.13 0 1.12-.28 1.44a1.77 1.77 0 0 0-.65 1.12c.07.19-1.36 1.49-2 1.36s-2.12-.7-2.12-1.22a1.18 1.18 0 0 0-.8-1.21c-.53-.14-2.1-.37-2.17-1s-.25-1-.53-.93.13.84-.28.84h-1.61c-.3 0-.7-.47-1.1 0s-1 2.19-1.61 2.33-.56-.47-.88-1.26 0-1.45-.68-1.12-.84.61-.45.84.75.37.75 1.35-.23 1-.67 1.54-.19 1.08-.68 1.08-.4-.33-.65-.84a4 4 0 0 0-1.57-1.78c-.56-.14-1.14.42-1.75.42s-1.51-.37-1.44.65.14.94-.21 1.36-1 .33-.86.84.11.79-.26 1.07-.68.14-.42.56.95 1.36 1.28 1.45.28.42.33.7 0 .7.23.94a1.39 1.39 0 0 1 .47 1.21c0 .61.32 2.47-.19 2.89s-2.31 1.64-2.8 1.45a1.73 1.73 0 0 0-1.23-.28 2.37 2.37 0 0 0-1.15 1.63 4.78 4.78 0 0 1-2.24 3 5.58 5.58 0 0 1-3.1 1.21c-.4.24-1 1.31-2 1.64s-1.54 1.07-1.68.79-.14-1.21-.58-.51-.92 1.31-.63 1.63-.12.93-.5 1.45-.72 1.26-1.53 1.26-.21-.84-.8 0c-.09.18-.58.65-1 1.31s-.65 1.49-.25 1.72 1 .14.93.56-.47.33-.18.56a1.54 1.54 0 0 1 .21 1.54 6.35 6.35 0 0 1-1.57 2.43c-1.07.94-1.3 1.17-1.82.65a5.05 5.05 0 0 0-2.58-1.21c-.89 0-4.39.38-5.3 0s-3-1.5-3-2.29-.55-.7-1 0a6.93 6.93 0 0 1-1.94 2.61c-.69.42-.77-.19-1.16-.14s-.89.28-.49.51-.47 1.78-1.26 2.43-.91 0-1.17.28a12.4 12.4 0 0 1-2.56 1.76 11.12 11.12 0 0 0-3 3.25 5.1 5.1 0 0 1-3.39.19c-.6-.46-1.47-2.75-2.24-4.06s-2.23-3.54-2.7-4.2-.4-.93-1.28-.7-3.24 0-3.74-.42-1.53 0-1.42.51a28.23 28.23 0 0 0 2.19 2.34 1.62 1.62 0 0 1 .35 1.91 33.93 33.93 0 0 0-1 5.19c-.21 1.58-.61 2.38-.33 3.07s.58 1.59.23 1.78-.18.84.08 1.07a2.29 2.29 0 0 1 .69 1.59 6.33 6.33 0 0 0 .68 2.33c.4.84 2.89 5.18 2.68 5.56s.21.56.28.84-.67.52-.28.79.58-.27 1 .28a22.9 22.9 0 0 0 1.61 2.52 6.6 6.6 0 0 1 1 2.76 16.54 16.54 0 0 0 1.92 4.43 11.12 11.12 0 0 1 1 2c.28.52.67.14 1.07.1a17.75 17.75 0 0 1 2 .79c.75.28 1.42.47 1 .56a5 5 0 0 1-1.43-.14c-.42-.14-1.16-.75-1.45-.28s0 .7-.3.89-.42.37 0 .88.59.29.59 1.36.06 1.91.46 2.05.68-.65.68-.65a.55.55 0 0 1 .56.56 7.65 7.65 0 0 0 .39 2.29c.21.65 0 1.63.3 2.24s.66.32.4 1.4-1.07.23-.81 1.3.41 1-.17 1.17-1.19.24-1 1.54.8 1.17 1 2.24 0 1.64.75 2.38 1.16 1.36 1.81.84.56-.93.89-1.44 1.42 0 .88.88-.69.85-.6 1.64-.09 1.4.33 1.77.42 1.78.86 2.05 1.59.29 1.7.8a1.36 1.36 0 0 1-.18 1 12.49 12.49 0 0 1-.85 2.24c-.32.47.1 1.26.24 1.5s0 2.56-.54 2.61-1.1-.56-1.44-.65-.73.28-1 .74-.14.47.12.75a.92.92 0 0 1-.38 1.21c-.42.28-1 0-1.51.24s-1.21 1.26-1.4 1.07-1.14.14-.77.46c.3.47-.65 1.22-1 1.22s-.59.61-.31.75.05 1.07-.21.84-.28-1-.56-.84-2 1-2.17.46a.72.72 0 0 0-.95-.32c-.17.14.06.6-.05 1.35s-.21.93-.21.93-.87.71-1.14.57-1-.1-1 .46a1.87 1.87 0 0 0 .19.79c0 .15-.54 1.73-.79 1.73s-.26-.65-.47-.56-.35.61-.68.56-.25-.51-.46-.42-.38.7-.61.33a1 1 0 0 1 0-1.26c.32-.38.4-.7-.82-.65s-2.26-.52-2.45.37c-.18.7-.39 1.35-.86 1.12s-.84-.93-1.05-.93a1 1 0 0 0-.75 1 2.78 2.78 0 0 1-1.42 2.33 2.13 2.13 0 0 0-1.37 1.68c-.16.61-.07.84-.73 1.26a9.81 9.81 0 0 0-2.12 1.64c-.68.79-.72 1.3-1.12 1.3a18.34 18.34 0 0 1-1.89-.79 13.29 13.29 0 0 0-3.59-.09c-.56.09-.44.23-.3.51s2.54.28 2.54.28a15.56 15.56 0 0 0 0 3.13c.26.23.75 1 .47 1.45a2.08 2.08 0 0 0-.38.84 4.1 4.1 0 0 1 .45.84c0 .28-.45.09-1 0s-.42-1-1-.93-.86.23-.95-.09a.75.75 0 0 0-.68-.47c-.28 0-1 .42-1-.24a9.08 9.08 0 0 0 0-2h-2.58v3.09s.84 1.21 1.12 1.59.11 1.49.11 1.49h-1.23v1.5l-.8.28v1.31h2.57l.75-1.78v-2h.86v1.63h.56v-1.73h.72v1.82h.38v2.1h-.89v1.64h.61v-.7h.53v1.16l1.1.33-.09.79-1.19-.56-2.4 1.36H16v1.26h-1.89s-.46-.42-.67-.42-.07.65-.07.65a2.78 2.78 0 0 1-1-.09 1.73 1.73 0 0 0-.67.09l.21.61-.57 1a14 14 0 0 0 .89 1.35c.19.05 1.43 2.05 1.91 2.47s4.6 1.59 5.33 2.8a8.35 8.35 0 0 0 2.47 2.71c.58.28 2 1.92 2.77 2.05s2.34 0 1.89.19a7.1 7.1 0 0 1-2.52.52c-.79 0-1.56.27-1.54.56s.26 1-.21.79-2.38-1.54-2.8-2.62.31-2.09 0-2.94a3.19 3.19 0 0 0-2-2.19 19.12 19.12 0 0 0-2.78-.93 14.35 14.35 0 0 1-2.91-1.92 6.43 6.43 0 0 0-2.31-1c-.75-.18-1.82-1.72-2.1-1.82a6.24 6.24 0 0 0-2.71 1.45 4 4 0 0 0-.67 1.63s-1.5.52-1.5 1.27-.23 3.21-.84 3.59-2.21 1.12-1.65 1.82 1 2.56 1.68 3.36 1.42 1.07 1.42 1.49v3.78s1.33.24 1.56 0 .87 0 .87 0 1.14 2.2.95 2.57 0 .7-.61.7a.68.68 0 0 0-.67.65V354h.82s.06 1 .53 1-.07.51-.53.61-.61.42-.28.61l.74.27s.49.8.35 1.22-1.23.6-1.65.6a1 1 0 0 0-.68.29s.42.84.16 1-.61.27-.49.51.33.56.49.47.4.79.4.79-.28.23-.21.37.75.19.75.19v-1.4c0-.51-.19-1.45 0-1.45a9.42 9.42 0 0 0 1.73-.33c.37-.13 1.16-.23 1.35.19s-.3.52-1.05.52a7.41 7.41 0 0 0-1.57.23l.27 2.31s1.68.33 1.84.33 3.2-.14 3.6-.14a23.19 23.19 0 0 0 2.3-.47l.38.93-1.82.19a3.53 3.53 0 0 1 .46.7c.1.38 0 1.07 0 .8s-.25-.71-.51-.71h-1.05l-2.28.37-.4.7-3.73 1 1.21 4.94-.67.75s-.19.7.09.7a5.56 5.56 0 0 1 .6-.14l.19 1.49-.4.1.29.84s.39-.14.46 0a5.87 5.87 0 0 1 0 .84l1.35-.56s-.51-2-.51-2.34a8.57 8.57 0 0 0-.24-1.21c0-.47 2.94-.89 2.94-.89l.12 1-.89.19.15.93 1.23-.28.18.42 1.82-.7.85-.28a4.05 4.05 0 0 1 .6.56c.07.23.19 1.63.19 1.63s-.79.37-.79.24-.14-1.07-.14-1.07L12.2 374l.31 1.68c.37.37.06.79 0 1s-1 1-1.08 1.4-.49 2.19-.49 2.19l1.47.51a13 13 0 0 1-1 2.57c-.47.56-.47 1.26-.68 1.59a2.15 2.15 0 0 0-.56 1.63 17.29 17.29 0 0 1-.07 2.43v2.34c0 .34-.18 1.17-.53 1.17s-.49.84-.21 1.07.28 1.35 0 2a1.67 1.67 0 0 0 .53 1.73 1 1 0 0 0 .89.19z"/><path class="cls-2" d="M61 372.57a3.14 3.14 0 0 0-.89.7c-.28.47-.56.66-.28 1.08s.79.51 1.56.13 1.08-.7 1.26-.74.49-.66-.07-.79-1.07-.71-1.58-.38zm16.7-9.06c.32.14.21 1-.21 1.07a.74.74 0 0 0-.59.52c-.09.24-.39.56-.46.24s.58-.61.39-.89-.6-.33-.42-.7.33-.66.7-.7.59.46.59.46zm-.08 2.43c-.25.51 0 .56-.43.38s-.29-.52.11-.71.4.28.32.33zm49.17-88.83c-.6.42-1 .46-.6.88s.26 1.5.7 1.73 1.19.23 1.82.42a4.05 4.05 0 0 1 1.82 1.17c.21.42.67 1.35.88.88a1.45 1.45 0 0 0-.21-1.68 19 19 0 0 1-1.2-1.91 8.21 8.21 0 0 1-.75-1.36c-.14-.46-1.96-.51-2.46-.13zm184.32-213.3c-.3.14-.37.56 0 .56a1.82 1.82 0 0 1 1.26.56c.21.37 1 .66.89.14A8.4 8.4 0 0 0 313 64c-.07-.28-.56 0-.95-.19a1.07 1.07 0 0 0-.94 0zM207 104.75c-.81.37-.95-.42-.46-.65s1 0 1.23-.28.61-.7 1.08-.52a9.94 9.94 0 0 0 1.23.75c.3.14.8.61.12.7s-.56.56-1.17.7a1.07 1.07 0 0 1-1.14-.46.9.9 0 0 0-.89-.24zm-30.43 15.73a8.25 8.25 0 0 1 .21-1.63c.14-.93.07-1.73.35-1.87s.51.47.91.28.63.75.37 1.31a1.63 1.63 0 0 1-.81 1.07c-.47.15-.47.33-.56.71s-.4.51-.47.13zm-6.64-21.7c.21.42.95.18 1.28-.14s.7-1 .84-.7a7.15 7.15 0 0 1 .13 2.71 3.6 3.6 0 0 0 .61 2.51c.4.52 1.08.89 1 1.5a1.27 1.27 0 0 0 .28 1.31 13.45 13.45 0 0 0 2.73 2c.54.28 1.26 0 1.08.56s-.8 1.59-.5 1.87.82.42.92 1.26-.17.93-.29 1.54.21 2.19-.25 1.82-.31-1-.68-1.4a6.4 6.4 0 0 0-2.87-1.59 9.37 9.37 0 0 1-2.64-1.4c-.86-.51-1.35-1.59-2.14-1.35s-2.12 1.21-2.12 2 0 1.58-.19 1.49a12.22 12.22 0 0 0-1.84-1.07c-.4 0-.58 0-.75-.75s-.21-1.31-.47-1.31-.42.38-.69.38-1.15-.66-1.15-.66-.07.85-.51.43-.56-1.27-1-1.69 0-.74 0-1.07a4.52 4.52 0 0 0 .07-1.45c-.16-.6-.14-.93.14-1.21s.47-1.12.12-1.4.19-.24.68-.28a1.46 1.46 0 0 0 .93-1.31c-.09-.47 0-.84.56-.93s1.16-.7 1.16-.33.19.84.61.84.75-.56 1.08-.65.49.33.67-.14.12-1.4.75-1.64a4 4 0 0 1 2.45.25z"/><path class="cls-2" d="M173 102.28c-.16-.47-.16-.75.31-.89s.74.14.46.37-.51 1.08-.77.52zm-13.78 11.15c-.12-.14.16-.37-.05-.56s.26-.65.54-.27 0 1.4-.49.83zm10.92-32.9a4.86 4.86 0 0 1 3 1.07c.46.56 1.42.7 1.7.89s.21.88.07 1.35a8.52 8.52 0 0 0 0 2.85c.14.32.51.74 0 1s-1.31 2-1.7 2.43-.47.75-1 .65 0-.14 0-.56-.81-.56-.81-.42-.23.29-.49.29-.33-.57-.86-.52-1 0-2-1.64-1.42-4.1-.84-5 1.07-1.78 1.7-1.87a3.29 3.29 0 0 0 1.23-.52zM102.4 111a8.14 8.14 0 0 0-3.76 1.86 2.88 2.88 0 0 0-.14 3.69c1.07 1.73 1.57 2.52 1.29 3.74s-.4 2.61.11 3.27 1.24 0 1.42-.89a8.31 8.31 0 0 1 2.13-3.55c1-.84 2.77-2.71 2.89-4.2a3.91 3.91 0 0 0-3.94-3.92zm1.6 71.85c-.44.09-1.26-.6-1-.89s1 0 1.26 0 .24.75-.26.89zm-13.68 8.26c-.28.24-.63.61-1 .61s-.28.47.18.61.84.42 1-.14.05-1.35-.18-1.08zm-.89 3.13c.28-.28.61.89.11.89s-.54-.56-.11-.89zM4.11 350.07c-.49-.05-.84.37-1.24.23s-.49-.51-1.07-.37-.43.65-.19 1.12a1.53 1.53 0 0 0 1.39.75 4.28 4.28 0 0 0 1.45-.8.58.58 0 0 0-.34-.93zm5.73 33.56c.21-.13.43.33 0 .47s-.34-.19 0-.47zm196.38-212.22a.27.27 0 0 0 .21.33 1.91 1.91 0 0 1 .67.75c.08.28.49.42.56 0s-.07-.93-.3-1-.47.1-.77-.05-.35-.12-.37-.03zm-16.03 6.82c.26 0 .38.52.05.52s-.24-.52-.05-.52zm-1.02 1.63c.18 0 .42.61 0 .61s-.42-.47 0-.61zm-52.27 127.4l-2.13.28a4.94 4.94 0 0 0 .31 1.59c.32.79-.1 3.92-1 4.43a1.71 1.71 0 0 0-.77 1.63s.56.71.91 1.08a1.54 1.54 0 0 0 1 .19 1.32 1.32 0 0 0 1.24 1.07c1 0 .68-1.26.68-1.63s0-.8.67-.93 1.47-.38 1.12-1c-.33-.76-.79-2.85-.44-3.51s.21-.14.37-.7-.37-.65-.58-1.58-.71-.92-1.38-.92zm16.33-15.08c0-.42.88.19.88.7s.93 1.64.37 1.92-1.25-1.8-1.25-2.62zm5.31-5.55a2.46 2.46 0 0 1-.58.84 1.07 1.07 0 0 0 .79 1.77c1.35.24 1.24-.74 1.82-.89s.56-.79 0-1-.68-1.12-.68-1.12 0 .79-.46.79a1.69 1.69 0 0 1-.89-.39zm-11.41-7.43c-.69.38-2.24.66-2.12 1.22s.21 3.87-.46 3.55-2.71-2.06-2.8-3a11.88 11.88 0 0 0-.38-2.84 12.75 12.75 0 0 1-.77-2.72c-.11-.93.14-.65.68-.65a3.66 3.66 0 0 1 1.35.43s.56-.43 1-.71 2.82 1.59 3.38 1.73 1 .33.68.94.36 1.59-.56 2.05zm1.15-22.12c-.35.14-4.83 3.22-4.83 3.22l-2.29-1.36-1.91 1s-1.14-.37-1.47-.13a1.82 1.82 0 0 0-.09 1.63c.21.28.88 1.77 1.14 2.33a7.26 7.26 0 0 1 .42 2.94c-.21.56-.68.66-.68 1a3.63 3.63 0 0 0 .33 1.08h3.4s-.25 1.35.43 1.44 0-.79.25-1.21 1.24 0 1.24 0 .12 1.31-.23 1.58.67.47.81-.23a4 4 0 0 1 .54-1.35l1.91-1.68 3.6-3.74.34-1.68-1.44-1v-.55a2.1 2.1 0 0 0 .89.79 3.11 3.11 0 0 0 1.23.28l.21.37h.47l.07.7.44-.05v-1.56a7.64 7.64 0 0 0 1.52-.42c.11-.18 1.14-1.11 1.14-1.11s1.47-.43 1.56-.66.26-.28.4-.28.63.84 1.23.79 1.06-1.35 1.19-1.44.7.09 1 0-.33-.74-.56-.93-.12-.57 0-.84-.25-.66-.28-1.17.61-.14.77.14.33-.84-.21-1.08-.81.15-.83-.6 0-2.24-.38-2.24-1.7-.19-1.7-.19l-.89.47-.28-.94a.56.56 0 0 1 .47-.6 6.39 6.39 0 0 0 1.42-.8 2.15 2.15 0 0 0-.37-1.21c-.35-.51-.38-1.59-.49-1.63s-.68.56-.93.79-1.1.7-1.17.94a1.66 1.66 0 0 1-1 1 6 6 0 0 0-2.85 1c-.93.79-1.25 1.07-1 1.54s-1 2.38-1.22 2.57a2.09 2.09 0 0 0-.39 1.58c.11.52-.24 1.5-.08 1.64a6.6 6.6 0 0 1 .31 1.77s-.23 0-.23-.14a10.84 10.84 0 0 0-.36-1.35zm10.54-13.03c-.21-.37-1.19-1.91-.75-2.15a9.31 9.31 0 0 0 2.32-1.49c.41-.42.46-1.59.67-1.59h.94a3.62 3.62 0 0 1 1.91-.38 4.44 4.44 0 0 1 1 .42s-1.29 2.94-1.4 3.5a5.27 5.27 0 0 1-.75 1.87c-.28.19-.28.42-.35.84s-.11 2.57-.49 2.52-1.74-1.07-2-.88-.6-.7-.6-.7.21-1.22 0-1.22-.4.84-.59 1.08-.84.14-.81-.24 0-.93.18-1a6.37 6.37 0 0 1 .92-.23zm-33.31 49.35c-.42 0-.33.79.12.79s.14-.79-.12-.79zm-3.8 59.33a17.15 17.15 0 0 1-3.12 2.06 11.34 11.34 0 0 0-2.71 1.4c-.51.37-3.22 1.3-4.06 2.28s-1.19 2.15-.93 2.19.6 1.31 1.16 1 2.64-2.8 3.25-3 2.45-1 2.89-1.63.63-1.3 1-1.49 1.59-.89 2.26-1.45 1.47-1.08 1.1-1.21a1.93 1.93 0 0 0-.84-.15zm-26.05 10.65c.46-.05.35.65-.16.74s-.5-.52.16-.74zM66.27 71.05a15.58 15.58 0 0 1-5.83-1.4c-2.5-.94-4.62-1.22-6.18 0s-2 2-2.27 3a15 15 0 0 1-1.45 3.55c-.48.79.33 3.27 1.22 4.57s1.49 2.48 2.87 2.72a54.94 54.94 0 0 0 7.69 0c1.22 0 7.26-.7 8.14-.6s3.57 2.28 4.46 2.47a8 8 0 0 0 2.92-.19A4.8 4.8 0 0 1 80.71 84c2.14-.13 5.34-.28 5.26-1.11a10.57 10.57 0 0 1 1-3.36c.33-.8.33-3.51-1.17-4.3s-2.89-.89-3.38-1.82-.32-1.45-1.72-2.29-2.48-2.61-4.37-2.43a7.47 7.47 0 0 0-4.19 1.22 4.21 4.21 0 0 1-2.69 1.12c-.88 0-1.63-.28-2.12-.28a3 3 0 0 0-1.06.3zM79.73 114c.39.14.67.79-.12.88s-.81.61-.14.84A5 5 0 0 0 82 116c.89-.23 1.38-.42.33-1.35s-1.89-2-2.57-2.2-1.14.42-1.74 1.13-.7 1.21-.33 1.3.75-.14 1.08-.65a.73.73 0 0 1 .96-.23z"/></g></g></svg>