<svg xmlns="http://www.w3.org/2000/svg" viewBox="0 0 647.37 1612.44"><defs><style>.cls-1{opacity:.1}.cls-2{fill:#b64e30}</style></defs><g id="レイヤー_2" data-name="レイヤー 2"><g id="装飾"><g class="cls-1"><path class="cls-2" d="M646.26 138.43c-.72-2-2-5-23.82-12.56a244.23 244.23 0 0 0-30.09-8.49c-12.42-2.4-27.92-6.65-55-6-20.5.51-43-.9-87.86-4a52.72 52.72 0 0 1-22.13-6.35c-3.29-1.87-13.91-8.15-14-15.82-.09-10.85 22.87-18.13 28.28-19.87 19.38-6.23 27.72-1.82 54.57-7.41 10.92-2.28 24.58-5.12 24.69-9.26.14-5.68-25.3-10.61-41.83-13.82a595.88 595.88 0 0 0-76.6-8c-16.07-.52-32.17-.07-48.22-1.06-13.57-.83-29.92-2.08-41.19-9.07-1.06-.72-3.18-1.72-3.27-3.34-.16-2.75 5.62-5 8.07-6 10.84-4.27 25.23-4 36.07-3 22.78 1.72 27.46 3.5 27.51 4.81.09 2-10.85 3.76-15 4.4-16.17 2.54-34.08 1.92-34.44-.4-.16-1.05 3.26-2.54 6.12-2.94a16.39 16.39 0 0 1 6.11.54c7 1.35 14.38-1.09 14.37-1.8s-35.23-3.24-36.95 2.56a2.6 2.6 0 0 0 .7 2.18c3.18 4.58 12.06 5.13 24.78 5.34 17.54.29 26.3.44 35.4-.53 10.95-1.18 32.49-3.48 32.83-8 .24-3.12-9.62-6.48-15.45-7.75-4.11-.89-7-.9-11.91-1.06-12.21-.41-8.63-.8-22.85-1.34-58.24-2.2-102.79 4.91-115.5 13.24-1.36.89-5 3.29-4.83 6.27.2 3.26 4.88 5.7 9.33 7.49 14.11 5.67 29.23 6.13 38 6.14 18.67 0 22.79-1.89 44.7-1.52 3.72.06 1.83.08 13.72.46 21.24.68 32 1 39.93.88 10.9-.18 21.8-.73 32.69-.33 8.63.31 17.21 1 26.9 2.08 6.46.72 14.28 2.65 15.53 8 1.17 4.94-4.47 9.2-10.08 11.12-6.29 2.15-11.34 3.84-16.66 5.52-15.47 4.88-13.3 5.38-33.09 9.61-16.77 3.59-23.19 2.48-39.83 7.31a66.44 66.44 0 0 0-13.84 5.56c-7 3.79-18.4 9.68-6.91 16.34 16.12 9.36 36.64 10.8 36.64 10.8 25.9 1.67 48.25 2.43 52.38 2.58 15.76.55 12.44.65 29.58 1.29 25.3.94 44.3 1.15 71.18 3.41 0 0 33.46 2.82 42.6 16a21.89 21.89 0 0 1 2.8 5.6c-.12.69-.24 1.28-.36 1.76-3.24 13.54-16.22 20.53-19.79 22.44-3 1.59-8.42 4.11-27.52 6.81a335.55 335.55 0 0 1-40.07 3.21c-3-.23-38.75-3.09-40.07-12.42-.93-6.54 15.46-13.07 16.9-13.63 9.1-3.54 18.94-2.89 38.62-1.6a42.9 42.9 0 0 1 12.07 2.8c2.91 1.15 7.72 3.05 7.72 5.61 0 .69-.34 1.86-3.86 4a37.73 37.73 0 0 1-13.85 4.87c-8.06 1.11-23.3 1.51-25.25-3.26-2.15-5.26 9-5.83 12.82-6.66a32.9 32.9 0 0 0-18.24-.69c-5.53 1.47-13.47 5.35-12.93 8.95.66 4.4 13.71 6.23 17.86 6.81 10.72 1.5 14.61-.46 31.38-2 20.62-1.91 23.33-1.54 37.76-5.94 6.88-2.09 13.28-4 13.28-6.67 0-4.23-16.5-7.42-25.83-9.22a231.71 231.71 0 0 0-39.69-4.22c-31.71-.47-55 4.32-63.87 6.45-16.64 4-36.2 8.65-36.12 14.73.07 5.47 16 9.56 27.68 12.56 15.6 4 28 4.66 44.31 5.53a356.18 356.18 0 0 0 40.55-.4c17.61-1.28 16.1-2.53 61.8-9.62 14.56-2.26 28.75-6 43.23-8.6 13.53-2.46 21.45-3.12 25.56-9.66.31-.56 3.73-6.18 1.78-11.75zM388 4.37c5.59.2 6.07 0 9.08.31s6.56.69 9 2.39c8.21 5.79-20.48 8.52-24.1 8.83a43.33 43.33 0 0 0 13.14-3.2c.92-.38 2.48-1.08 2.58-2.14.05-.52-.25-1.16-1.61-2.14-2.18-1.55-4.68-2.23-9.48-3.14-3.91-.73-6-1-6-1.13s2.71.06 7.39.22zM279.9 29.26c-6.2-.19-11.66-.36-17.06-3.2-2.63-1.39-6.43-3.39-6.7-6.56-.33-4 5.23-7.06 6.27-7.64 1.73-.95 4.27-1.51 9.29-2.61 2.28-.49 7.68-2.54 9.95-1.48-4.16 2.14-10.84 3.12-13.09 7-1.91 3.32-.26 7.13 3.49 9 4.95 2.41 10.58 3.14 15.83 4.87-1.76 1.18-5.7.69-7.98.62zm36.37-1.07c-10.64-.23-16-.35-17.06-.53-1.57-.27-16.58-2.78-18-9.89-.85-4.18 3.42-7.88 4.18-8.54 3.64-3.15 8.39-3.8 17.9-5.09 5.89-.79 9.41-.81 9.46-.52.11.55-13.27.54-17.06 6.67a7.64 7.64 0 0 0-.32 7.22c4.42 9.15 28.18 9.34 28 10.42-.09.4-3.51.34-7.1.26zm171.52 10.16c5.53 1.25 19.62 4.44 19.43 7.21-.13 1.72-5.69 2.6-13.35 3.81-11.6 1.84-18.87 1.42-18.87 1.38a34.89 34.89 0 0 0 14.06-3.09c4.49-2.1 4.49-3.46 4.46-3.77-.08-.85-1.09-1.37-3.09-2.4-2.4-1.24-3.92-1.52-7.13-3-1.94-.91-1.95-1.07-1.94-1.11.14-.46 5.39.73 6.43.97zm-18.72 9.54c1.22-1.15 3.61-3.4 3.14-6a5.72 5.72 0 0 0-1.93-3 15 15 0 0 0-7.73-3.81s21 3 21 7.79c0 .78-.57 1.32-1.71 2.4-3 2.83-5.64 2.42-13 4.72-2.3.72-4.52 1.52-4.64 1.32s2.46-1.15 4.87-3.42zm-79 56.36a126.92 126.92 0 0 1-13.22-2.67C374.67 101 357 95.75 357 89.1s17.58-12 22.65-13.62a74.6 74.6 0 0 1 8.17-2 39 39 0 0 0-6.82 3.45c-2.76 1.82-6.29 4.13-7.4 7.68a8.64 8.64 0 0 0 .32 5.48c3.52 10.34 22.65 13.64 22.31 14.74-.1.39-2.54.05-6.18-.58zm6.59-4.68c-5.44-3.29-8.17-6.39-9-10.15-3-13.44 27.63-20.32 28-18.39.12.57-3.81.74-8.83 3.88-1.26.79-11.48 7.33-10.59 14.19.61 4.77 6.74 6.7 14.81 11.47 6.67 4 14.28 5.83 21.87 7.25-12.15-1.54-25.57-1.77-36.28-8.25zm151.13 55.22a3.91 3.91 0 0 0 .53-2.78c-.59-2.5-4.21-3.52-3.91-4s2.85.19 4 .47a12.31 12.31 0 0 1 3.44 1.13c.34.19 2.74 1.54 2.9 3 .34 3.25-11.41 6.12-11.59 5.81s3.21-1.02 4.61-3.63zm-19.31-8.41c.34-.54 4.31.71 5.12 1 4.32 1.37 6.51 2 7.24 3.42 2.81 5.42-7.17 9.42-12 10.29-.53.09-1.29.05-1.37-.39 1-.77 2.18-1.45 3.16-2.27 1.32-1.12 3.24-2.76 3.25-4.83 0-1.37-.85-2.39-1.86-3.68-1.8-2.31-3.82-3.15-3.56-3.54zm-96.67 21.09c-4.82-1.26-6.2-1.27-8.26-2.33-.55-.29-5.42-2.86-5.47-5.88-.09-5.87 18.12-10.62 18.43-10.13.09.13-1.18.63-3.36 2.46a13.13 13.13 0 0 0-2.75 2.81 7.07 7.07 0 0 0-.73 5.13c.9 5.56 7.69 9.34 8.69 9.89-1.47-.49-3.74-1.2-6.57-1.95zm24.31 5.07c-5.65-1.42-8.56-2.15-11.27-4.27-3.48-2.73-5.83-7.15-5.33-11.22.84-6.84 9.79-13.16 21.75-13.36a41.39 41.39 0 0 0-10 5.9c-3.47 2.81-4.29 4.56-4.71 5.84a7.46 7.46 0 0 0-.16 3.69c.4 2.11 1.58 4.56 5 7.43 6.55 5.5 14.3 6.73 14.07 7.33s-4.87-.21-9.37-1.34zM590 157.2c-5.69 2.36-15.47 5.1-15.48 5.1 6.91-2.14 13.72-9.28 16.85-14.56 3.61-6.09 3.68-13-1.73-18.35-.89-.88-10.42-6.73-14.36-8.19a76 76 0 0 1 21 7.43c4.78 2.53 11.9 5.58 12.88 10.76 1.44 7.61-12.67 15.1-19.16 17.81zm37.93-11c-8.61 4.34-19.51 7.91-20 7s11.22-3.38 13.21-10.49a9.72 9.72 0 0 0-1-6.94c-2.41-4.74-7.54-6.56-8.63-6.93 2.57.78 4.64 1.55 6.06 2.12a45 45 0 0 1 12.55 7.21c2.12 1.79 2.59 2.62 2.58 3.47 0 2.01-2.7 3.49-4.79 4.54zm-28.39 93.39a66.48 66.48 0 0 0-15.41-7.75 119.83 119.83 0 0 0-27.52-5.78 247.27 247.27 0 0 0-42.33-.66c-13.47.9-27.64 2.14-40.73 5.52-5.35 1.38-12.67 5.86-10.06 12.17 1.26 3 4.69 4.6 7.91 5.57a67.63 67.63 0 0 0 17.36 3c13.5-.64 58.57-1.46 68.09-5 2.22-.82 8.95-2.77 9.24-5.7.23-2.4-4.26-4.05-6-4.9a45.85 45.85 0 0 0-12.71-4.15 82.71 82.71 0 0 0-10.44-.8c-13.35-.15-28.16 3-28.14 5.84 0 .88 1.46 1.47 4.36 2.67a41.36 41.36 0 0 0 15.82 3c7.15 0 18.47-1.12 18.61-3.32.07-1.16-2.92-2.6-5.58-2.67-2.35-.06-3.53 1-5.56 1.7-5.45 1.94-12.24-.2-12.35-1.63s7.21-3.93 14.24-3.92c7.61 0 15.91 2.86 16 5.65.22 5.11-8.89 6.06-12.52 6.52a106.22 106.22 0 0 1-23.24 0c-5.38-.51-8.12-.78-10.57-1.63-2.27-.79-9.05-3.15-9.14-6.67-.08-3.08 5-5.76 7.73-6.71.7-.25 4.53-2 12.57-2.45 0 0 32-2.7 55.91 13 2.6 1.7 4.41 3.49 4.22 5.33-.23 2.14-2.48 3.46-4.51 4.35-11.92 5.25-24.93 7.61-37.9 8.84-6.55.62-13.13 1-19.7 1.26-5.67.25-11.35 1.35-17.08 1.63q-3 .15-5.9.19c-3.73.07-4.84 0-13.6.11-7.45.1-13.43.24-15.3.29-1.51 0-19.16.54-32.45 2.38-21.64 3-49.16 11.93-48.6 19 .06.73.46 2.05 5.39 4.84 12.25 6.94 24.69 7.27 29.21 7.34 36.27.55 39 .56 44.63 1.09 12.09 1.14 31.16 3.08 33 11a7 7 0 0 1-.55 4.33c-3.69 8.88-20.23 9.81-26.61 10.09-48.11 2.17-74.55 1.29-74.55 1.29-1.53-.13-34-2.82-47.39 5.83-1.41.92-5.43 3.52-5.31 6.82.13 3.66 5 6.71 7.34 7.27 23.61 5.71 49.19 1.13 72.26 8.64 3 1 6.35 2.52 7.37 5.47 1.47 4.24-5.68 9.18-7.79 10.7-7.78 5.61-16 6.86-19.73 7.38-23.53 3.31-33.16 4.06-56.23 5.19 0 0-15.79.77-24.88-5.46-2.75-1.89-3.09-3.44-3.13-4.18-.08-1.55.93-3.52 5.41-6.31 6.81-4.23 14-5.61 19-6.27 9.93-1.31 21.17-2.8 30.37 3.58a24.21 24.21 0 0 1 2.78 2.24 2.83 2.83 0 0 1 .7 2.47c-.2.67-1.14 2.38-15.53 3.58-2.81.24-4.69.39-7.42.45-6.17.13-14 .3-14.72-2.12-.36-1.15 1-2.52 1.5-3 1.49-1.51 3.46-1.77 5.33-2a14.38 14.38 0 0 1 3.71 0c1.78.23 3.68.47 4.18 1.57s-1 2.23-.66 3c1 2.12 13.92.07 14.1-2.82.13-1.89-5.27-3.59-6.24-3.9-3.49-1.1-7.48-.72-15.32.09a29.53 29.53 0 0 0-9.73 2.24c-1.73.78-4.67 2.09-4.64 3.81 0 1.32 1.76 2.29 3.52 3.25a23.33 23.33 0 0 0 7.61 2.58c10.91 1.3 26.15.51 27.35.45a108.88 108.88 0 0 0 15.77-1.79c7.78-1.5 10.42-3 10.9-4.93.14-.6.19-1.65-.93-3.37-3.74-5.72-12.74-7-15.3-7.39a229.76 229.76 0 0 0-40.3-1.57c-14.34.64-30.24 1.81-43 9.15-2.4 1.38-8.66 5.06-8.07 8.55.1.59.49 1.76 4.08 4a34.08 34.08 0 0 0 10.9 4.5c14.26 2.59 28.87 2.53 43.37 2.46 32.6-.16 65.22-.32 97.75-2.46 9.53-.63 19.58-1.61 27.48-6.69.4-.25.8-.52 1.19-.8 4.66-3.34 8.35-9.06 6.6-14.41s-8.16-8-13.85-9.59a216.94 216.94 0 0 0-62.52-8c-5.41.1-10.66-.1-16-.11-2.46 0-5.06-.2-7.07-1.57-5.16-3.51-.61-7.7 3.5-9 10.5-3.39 20.92-2.41 31.73-1.74 11.52.72 23.07.94 34.62.93 20.82 0 17.49-1 52.13-1.67 21-.43 35.82-.16 46.79-9.38 2.6-2.19 4.17-4.22 4.14-6.52-.09-9.09-25-15.89-31.07-17.54a72 72 0 0 0-12.43-2.72c-13-1.5-21.3-1.55-21.3-1.55-24.06-.13-31 2.29-43.94-1.8-4-1.27-10-3.6-10.81-8a7.23 7.23 0 0 1 .73-4.44c4-8.54 23.95-9.86 30.24-10.22 23.92-1.38 48-1.54 71.79-4 4.37-.46 8.75-.89 13.13-1.16 9.63-.59 19.37-.36 28.88-2.1 8.29-1.52 17.22-3.5 23.65-9.13a7.07 7.07 0 0 0 2.62-3.87c.43-2.86-2.07-5.24-4.45-6.88zm-121.29 6.7c-1-.26-10.11-2.49-10.38-6.28s8.67-7.57 13.52-8.58a18.58 18.58 0 0 1 3.4-.47c.09.18-2.11.7-4.32 1.88-1.87 1-5.94 3.15-6.08 6.07-.15 3.29 4.77 6.08 7.6 7.09 2 .72 3.76.79 3.74.93s-3.73.28-7.48-.64zm20.25-16.43c-2.58 1.19-5.93 3.73-6.21 6-.43 3.47 6 8.24 16.4 10.48a39 39 0 0 1-15.4.44c-3.13-.55-6.37-1.59-8.41-4-4.49-5.23 1.05-10.16 6-12.06a36.75 36.75 0 0 1 12.12-2.15 15.19 15.19 0 0 0-4.5 1.29zM378.56 359c3.69 1 5.54 1.49 7.21 2.79.82.64 3.48 2.71 3 4.71-.27 1.15-1.49 1.74-3.94 2.91a25 25 0 0 1-6.71 2.09 19 19 0 0 1-5.11.37 14.15 14.15 0 0 0 5.59-1.28c.67-.33 3.92-1.94 4-4.34a3.69 3.69 0 0 0-.83-2.19c-2.55-3.86-6.83-5.2-6.65-5.63s2.41.28 3.44.57zm-67.44 21.6c-.09.33-6.2-.4-10.78-3-.81-.45-1.66-1-3.36-2.17-2.67-1.79-2.94-2.14-3.1-2.53-.87-2 1.23-4.6 1.81-5.32 1.6-2 3.49-2.83 7.14-4.44 2.33-1 5.6-2.26 5.79-1.9s-.92.78-3.07 2.54-3.16 2.61-3.71 3.81a6.92 6.92 0 0 0-.46 3.81 9.71 9.71 0 0 0 2.78 5.6c3.03 3.12 7.03 3.35 6.96 3.6zm6.49-.65A10.87 10.87 0 0 1 311 377c-7.27-7.1.44-15.91 8.4-17.66 2.16-.47 4.42-.4 4.5-.05s-2.17.86-5.58 2.88c-2 1.19-1.13 1-4.16 2.95-1.39.91-3 4.15-2.17 7.24.56 2.16 2.08 3.42 3.56 4.64a37.85 37.85 0 0 0 4.22 2.58 5.39 5.39 0 0 1-2.16.42zm136.32-30.05a43.11 43.11 0 0 1 7.05 2.68 54.88 54.88 0 0 1 5.74 2.77c2.9 1.87 6 4.76 5 8.46-.94 3.48-4.49 6.14-7.4 8.1-4 2.73-7.86 3.65-11.47 4.61a37.58 37.58 0 0 1-10.93 1.62s-.56 0-5.8-.22c2-.46 4.89-1.13 8.35-2 4.68-1.21 7.06-1.83 8.81-2.69s6-3 8.34-7.4c1.45-2.69 1.46-4.15 1.39-4.7a7.14 7.14 0 0 0-2.55-4.26c-5.6-5.27-12.47-7-12.28-7.62.08-.42 3.13-.01 5.75.65zm-37.32-3.36c0-.09.27-.37 5.55.19 8.7.92 13 1.38 17.91 3.2s12.31 4.61 12.7 9.16c.34 3.86-4.57 7.08-9.12 10.07-7.12 4.67-14.26 6.16-23.47 8.08a49.58 49.58 0 0 1-6.18.89c-2.61.22-6.39.36-6.44 0s5-.79 11.6-2.91c3.91-1.26 7.19-2.31 10.66-4.71 1.17-.81 10.34-7.15 8.81-13.22-.61-2.44-2.7-3.9-4.17-4.93-2.71-1.9-4.59-1.72-12.75-4-5.06-1.46-5.12-1.75-5.1-1.82zm-59.18-4c-5.17-1-6.13-1.89-6.53-2.34a5.79 5.79 0 0 1-1.41-4.54c.58-3.53 6.16-6.52 13.91-6.72a12 12 0 0 0-4.87 3c-1.18 1.23-2.88 2.95-2.58 4.94s2.25 3.12 4.09 4.25c2.39 1.47 4.23 1.74 4.17 2s-3.88-.03-6.78-.58zm17.32-13.61c-2.46 1.17-5.52 3.88-5.44 7.07.09 3.58 4.12 7.28 9.74 7.39-.47.12-7.75 1.83-12-2.51-.55-.57-2.91-2.82-2.44-5.84a8.71 8.71 0 0 1 4.13-5.7c4.29-2.83 9.27-1.68 10.31-1.41a10.43 10.43 0 0 0-4.3 1.01zm162.6-23.79c4.41 2.38 8.16 4.41 8.15 7.14 0 4.57-10.62 7.59-12.49 8.12-7.32 2.08-14.22 1.47-14.37.51-.12-.77 4.13-1.4 9.48-5.42 3.17-2.39 3.62-3.63 3.69-4.5.19-2.12-1.64-3.86-3.5-5.59-4.09-3.79-7.82-4.67-7.68-5.12.22-.64 8.43.4 16.72 4.87zm-39.56-7.68c.34-1.1 10.63-.29 18.8 5.3 4.33 3 4.58 4.88 4.62 5.45.19 2.95-3 5.27-5.26 6.88-6.93 5-15.46 5.62-15.74 4.77-.17-.49 2.48-1.06 6-4.06 2.63-2.23 5.94-5 5.53-7.86-.27-1.85-3.41-3.81-9.66-7.67-3.64-2.27-4.38-2.49-4.29-2.8zM404 288.91c-4-1.37-8.52-3-9-6.08-.57-3.31 4.9-7.12 5.18-7.31a19.9 19.9 0 0 1 5.35-2.37c2.6-.91 6.94-2.16 7.21-1.57.37.81-8 2.95-8.92 8.13a7.84 7.84 0 0 0 .36 4c1.41 3.88 6 6.51 11.52 7a34.16 34.16 0 0 1-11.7-1.8zm28.45-18.85l-.44.22c-4.45 2.28-10.82 5.47-9.66 10.65 1 4.45 6.5 7.82 10.95 9.62a40.16 40.16 0 0 0 5.27 1c-1.55 0-4.25 0-8.18-.29-6.76-.51-17-2-18.45-9.19-1-4.85 2.68-8.3 7.4-10.36a36.25 36.25 0 0 1 8.34-2.44c1.24-.22 2.49-.34 3.74-.51.71-.1 3.48 0 3.89-.21zm154.65-16.44a34 34 0 0 1-12.38 2.38 24.75 24.75 0 0 0 7.85-3.88 7.4 7.4 0 0 0 2.32-2.32c1.65-3.09-.69-7.14-1.35-8.28C578.2 232.28 562 230.7 562.2 230c.13-.53 9.89.16 21.8 4.93 7 2.8 14.38 5.78 14.37 9.87-.01 4.32-8.37 7.66-11.27 8.82zM253.87 427.34c-15.89-3.39-48.66-8-83.16-2.48A120.2 120.2 0 0 1 146 426c-6.11-.33-23.82-1.28-25.67-7.08-.84-2.63 1.9-5.25 3.49-6.79 8-7.68 24-7.71 28.9-7.72 1.55 0 4.53 0 8.75-.32 2.48-.21 5.22-.6 9.78-1.43 4.15-.75 15.11-2.74 18.65-9.38a9.87 9.87 0 0 0 0-9.55c-2-3.31-7.65-7.64-41.15-9-28.3-1.17-41.87-.2-60-5.81-4.27-1.32-9-3.57-10-7.75-2-8 9.76-12 18.34-12.21 24.92-.71 36.82-1.2 65-1.85 26.28-.6 64.19-7.3 69.16-22.16 2.5-7.5-4.15-14.76-4.45-15.08-2.69-2.85-8.18-6.82-30.5-9-9.92-1-15-.82-45.75 0-22.83.61-32 .84-41.94 6-3.59 1.88-9.66 5.14-10.16 10.05-.86 8.32 15 14.74 15.8 15.08 5.37 2.12 18.08 1.27 43.29-.5 4.58-.33 10.91-.84 15.88-4.53 1.46-1.08 5.69-4.22 5.09-8.54-.46-3.3-3.47-5.4-4.45-6a30.39 30.39 0 0 0-8.26-2.51c-10.57-1.63-22.28 2.18-22.24 5 0 1.31 2.52 2.27 4.45 3 7.46 2.87 14.17.56 14.61 1.51.64 1.37-11.71 9.34-25.41 7.54-2.21-.29-11.51-1.51-13.35-6.53-.85-2.35.25-4.6 1.07-5.89a96.34 96.34 0 0 1 13.55-4.17 109.67 109.67 0 0 1 19.7-2.51c10.2-.57 15.3-.86 21 .9 3.28 1 10.7 3.33 12.05 8.15 1.73 6.19-7.78 12.21-10 13.59a29.71 29.71 0 0 1-10.87 4.49c-45.07 8.27-91.76-3.16-137.35 1.81-8.41.92-17.08 2.53-23.89 7.36S-2 357.89 1 365.49c1.6 4.08 5 7.26 8.74 9.79 34.28 23.4 85.65-2.4 122.73 16.65 2.61 6.35-7.62 10-14.71 9.51-22.63-1.49-47.53-5.38-66.21 7-2.33 1.54-4.56 3.39-5.68 5.87-3.77 8.34 6.62 16.06 15.63 18.83C118 450.48 181 422.22 238.32 437c3 .76 6.1 1.8 7.81 4.24 3.64 5.21-6.75 13.63-7.94 14.58l-.1.08c-11.75 9.26-75.23 11.78-78.37-.3-.94-3.65 4-7.25 5.4-8.29 1.76-1.28 6.72-4.4 32.09-3.52 11.66.4 17.5.65 18.11 2.51.75 2.32-6.27 6.26-13 7.29-4.59.7-10.77.32-11.44-1.51-.42-1.13 1.37-2.55 2.86-3.52-7.87-4-16.35-3.86-20.34-.5-1.89 1.6-3.44 4.49-2.22 6.79 1.93 3.62 9.76 3.95 17.16 4.27 6.21.27 5.67-.41 27.32-2.76 4.53-.5 9.19-1 13.66-3.71 2-1.24 5.3-3.25 5-5.47-.59-4.47-15.28-6.92-23.35-7.54-.23 0-4.52 0-13.1-.12-10.87-.09-14.06-.1-18.11 0 0 0-6.06.14-11.84.49-13.32.83-48.22 5.58-49.16 14.33-.24 2.27 1.87 4.08 4.45 6.29 7.4 6.34 18 7.37 22.87 7.79 34.21 2.95 67.93.46 82.6-.75a110 110 0 0 0 30.94-6.48 90.07 90.07 0 0 0 8.59-3.76c2.58-1.37 17.56-9.31 17.13-15.78-.54-7.87-19.13-11.65-31.47-14.31zM114.21 313.86c-.76 2.2-.15 5.29 0 6a10.17 10.17 0 0 0 2 4.95c3 3.58 9 3.86 8.91 4.1s-11.26 1.34-16.4-4.65a9.9 9.9 0 0 1-.28-12.28c5.51-7.8 20.26-6.84 20.5-6.19s-12.67 2.13-14.73 8.07zm98.55-7.61c6.53 1.66 12.11 5.67 12.21 11.37.12 6.21-6.57 12.42-16.68 15.91.93-.75 11.16-9.22 9.49-17.28a14.45 14.45 0 0 0-1.82-4.4 18.3 18.3 0 0 0-8.32-6.41 25.52 25.52 0 0 1 5.12.81zM194 329.57c1.33-1.21 7.65-7 5.95-13.46-1-3.88-4.52-6.49-6.46-7.95-3.87-2.89-7.25-3.58-7.11-3.85.29-.56 16.14.37 21.14 8.43 3.12 5 1 11.17-2.14 15-3.55 4.34-8.67 6-10.58 6.65-3.78 1.21-8.49 1.78-8.92 1s4.06-2.08 8.12-5.82zM24.93 376.22c-1.53-.64-15-6.19-14.66-16.73.22-6.39 4.92-11.74 11.63-15.07 1.81-.9 20.29-6.83 21.24-4.22.19.52-3.48 1.34-8.27 3.7-4 2-8.27 4.06-11 7.91A14.67 14.67 0 0 0 21.52 362a16.32 16.32 0 0 0 4.77 10.56c4.2 4.14 9.74 5.21 9.46 5.78s-5.75.02-10.82-2.12zm28.52 1.61c-5.12-.69-8.89-2.88-12.88-5.25a27.8 27.8 0 0 1-4.6-3.05c-.89-.81-6.9-6.5-5.24-13.19 2.22-9 16.45-12.3 20.35-13.2s9.22-2.09 13.09-.71c-3.29 1.14-7 1.47-10.22 3-5.43 2.6-9.68 7.91-10.31 13.94-.61 5.79 2.17 12.81 8.38 15.79 4 1.93 8.75 1.8 8.69 2.3s-3.58.85-7.26.37zm12.24-3.51c-1.68-.87-7.63-4.07-9.6-10.17a14.55 14.55 0 0 1 6.52-16.66c2.15-1.29 4.42-1.81 9-2.84 7.61-1.73 14.24-1.8 14.3-1.51s-3.06.29-7 1.79c-1.51.57-5.17 1.61-7.37 4.42A15.93 15.93 0 0 0 68 361.5a13.29 13.29 0 0 0 2.28 6.11c3.37 4.81 9.39 6.78 11.81 7.58 3.92 1.28 6.22 1.22 6.19 1.5-.11.66-12.65 2.8-22.59-2.37zm95.49 8.27c.43-1.07 2.35-1.7 3.94-1.77 4.82-.23 9.92 1.57 12.19 4.95 2.76 4.1-.44 8-4.95 10.22a9.25 9.25 0 0 1-5.87 1.2c-4.79-1-.14-9.07-3.78-12.07-.66-.54-1.44-1.08-1.59-1.82a1.21 1.21 0 0 1 .06-.71zm-25 .52a4.82 4.82 0 0 1 2.92-1.11c7-1.08 16 2.25 18.34 7.82 3.39 8-8.75 11-16.48 11.06-1 0-2.3-.17-2.52-.95a1 1 0 0 1 .29-.91 6.13 6.13 0 0 1 .93-.82 6.51 6.51 0 0 0 2.65-6.31c-.47-2.45-7.93-6.73-6.08-8.78zM79.5 406.35c-1.24.65-3 1.64-4 2.26-1.73 1.15-5.07 4.19-5.24 8.05-.16 3.52 2.39 6.13 4.13 7.91 4.23 4.33 9.51 5.79 9.06 6.66-.34.65-3.41.21-4.63 0A38.64 38.64 0 0 1 66 426.62c-3.16-1.75-6.43-4-7.61-7.06-2-5.1 2.49-8.53 7.7-10.83 8.6-3.78 17.28-4.94 17.49-4.43.05.19-1.06.47-4.08 2.05zm26.69 23.12c4.12 1.89 8.34 2 8.26 2.52s-3.82.6-6.67.37c-12-1-26-10.07-24-17.46.78-3 4-4.92 6.09-6.16 5.87-3.49 13.06-3.51 17.15-3.52 2.5 0 3.51.27 8.1.25a9.88 9.88 0 0 1 2.77.18c0 .4-10.81-.54-17.06 4.35a11 11 0 0 0-4.13 6.66c-.81 5.65 4.67 10.61 9.49 12.81zm50.23 35.59a.71.71 0 0 1-.6.11C144.46 464 143 464 143 464c-6.67-1.62-10-2.45-11.91-3.56-2-1.21-4.62-2.76-4.76-5-.18-2.82 3.55-5 5.4-6 1.28-.74 3.36-1.75 13.6-3.64 6.16-1.14 8.67-1.38 8.73-1.2.11.34-8.5.75-13.12 5.59-.42.44-4.36 4.58-2.54 7.54 2.63 4.29 17.22 6 17.87 6.94.28.24.15.39.15.39zm7.75-20.76c.09.25-3.23.6-6.35 2.77a10.73 10.73 0 0 0-4.1 4.94c-.23.62-1.29 3.5.12 5.89 3 5.16 15.54 4.84 15.41 5.75-.07.5-3.83.84-7.43.24a20.73 20.73 0 0 1-3.74-1c-6.84-2.4-10.26-3.6-11.36-5.7-1.5-2.88.41-6.38 2.47-8.29 1.85-1.7 4.07-2.36 7.36-3.34 3.94-1.17 7.53-1.56 7.62-1.26zm111.56 2.58c-1 2.3-3.94 3.9-9.74 7.1a41.66 41.66 0 0 1-8.57 4c-6 1.82-12.11 1.92-12.39 1.13-.23-.64 3.45-1.31 8.1-4.72a15.07 15.07 0 0 0 4.29-4.14 11.61 11.61 0 0 0 1.66-6 15.37 15.37 0 0 0-.71-5.85c-2.78-6.7-17.21-8-16.92-9.05.25-.84 10.36 0 21 2.83 7.35 2 9.57 3.52 11 5.1.24.21 4.39 4.89 2.28 9.6zm333.46 90.8c-19.46 4.82-59.71 11.93-102.58 7a153.63 153.63 0 0 0-30.58-.18c-7.53.69-29.36 2.68-31.37 9.72-.91 3.19 2.58 6.21 4.63 8 10.24 8.83 30 8.09 36 7.87 1.91-.07 5.59-.27 10.82 0 3.08.13 6.48.47 12.15 1.24 5.15.71 18.79 2.56 23.47 10.34a11.58 11.58 0 0 1 .45 11.45c-2.29 4.07-9.1 9.53-50.41 12.8-34.89 2.77-51.69 2.26-73.89 9.86-5.22 1.79-10.89 4.71-12 9.78-2.14 9.7 12.62 13.86 23.23 13.74 30.81-.35 45.53-.33 80.39-.91 32.5-.65 79.66 5.61 86.5 23.13 3.45 8.87-4.43 17.9-4.78 18.29-3.19 3.55-9.79 8.57-37.25 12.32-12.21 1.66-18.51 1.7-56.5 2.2-28.23.36-39.57.53-52.08-5.22-4.53-2.08-12.17-5.7-13-11.56-1.45-9.93 17.78-18.39 18.81-18.83 6.53-2.8 22.27-2.4 53.49-1.48 5.67.17 13.52.48 19.83 4.66 1.85 1.22 7.22 4.78 6.68 10-.42 4-4 6.64-5.22 7.45a38.2 38.2 0 0 1-10.08 3.41c-13 2.47-27.61-1.54-27.7-5 0-1.57 3-2.85 5.35-3.83 9.08-3.79 17.48-1.34 18-2.51.72-1.67-14.9-10.63-31.74-7.81-2.72.45-14.14 2.37-16.18 8.47-.95 2.85.52 5.5 1.6 7a121 121 0 0 0 16.92 4.34 138.81 138.81 0 0 0 24.45 2.06c12.63.2 18.94.3 25.88-2.09 4-1.38 13.06-4.5 14.5-10.34 1.85-7.51-10.18-14.26-12.94-15.81a37.23 37.23 0 0 0-13.61-4.93c-56.05-7.75-113.18 8.21-169.73 4.43-10.42-.69-21.21-2.2-29.84-7.67s-14.47-15.84-11.14-25.07c1.79-5 5.89-9 10.34-12.16 41.25-29.7 105.89-1.24 150.8-25.86 2.93-7.73-9.87-11.6-18.61-10.7-27.87 2.88-58.45 8.75-82.1-5.15-2.94-1.73-5.79-3.84-7.29-6.76-5-9.81 7.43-19.57 18.43-23.33 69-23.54 148.11 7.3 218.24-13.19 3.61-1.06 7.46-2.45 9.45-5.45 4.25-6.42-9-16-10.49-17.1l-.12-.09c-14.94-10.53-93.46-10.5-96.77 4.13-1 4.42 5.24 8.49 7.06 9.68 2.22 1.45 8.49 5 39.79 2.67 14.38-1 21.58-1.61 22.25-3.88.82-2.81-8-7.2-16.43-8.11-5.69-.62-13.31.13-14.06 2.36-.46 1.37 1.82 3 3.7 4.08-9.53 5.21-20 5.41-25.09 1.58-2.41-1.82-4.47-5.21-3.06-8 2.21-4.43 11.86-5.21 21-5.95 7.66-.61 7 .23 33.87 2 5.62.38 11.4.72 17 3.79 2.56 1.39 6.69 3.64 6.43 6.31-.52 5.39-18.55 9-28.49 10.16-.28 0-5.58.28-16.18.78-13.41.64-17.35.79-22.36.87 0 0-7.49.13-14.64 0-16.49-.35-59.82-4.36-61.39-14.81-.41-2.71 2.12-5 5.2-7.75 8.85-7.95 21.92-9.7 27.89-10.44 42.1-5.18 83.88-3.82 102-3.07 8.15.34 22.25 1 38.51 6.28 4.67 1.51 8.36 3 10.78 4.08 3.26 1.52 22.13 10.32 21.9 18.09-.19 9.41-22.97 14.87-38.09 18.62zM442 680.41c-1-2.6-.43-6.33-.28-7.23a12 12 0 0 1 2.21-6c3.52-4.43 10.92-5 10.81-5.34s-14-1.06-20 6.37c-3.91 4.77-2.89 10.77.23 14.72 7.16 9.09 25.35 7.23 25.6 6.44s-15.75-1.93-18.57-8.96zm122.07 4.38c8-2.3 14.69-7.38 14.56-14.21-.15-7.45-8.69-14.57-21.35-18.27 1.18.85 14.22 10.52 12.53 20.26a16.8 16.8 0 0 1-2 5.35c-2.9 4.64-7.73 7.1-10 8.08a31.58 31.58 0 0 0 6.26-1.21zm-24.21-27c1.69 1.39 9.77 8 8 15.85-1.08 4.69-5.28 8-7.61 9.84-4.64 3.65-8.78 4.63-8.6 5 .39.67 19.92-1.22 25.71-11.12 3.62-6.17.69-13.43-3.34-17.86-4.58-5-11-6.82-13.37-7.46-4.73-1.27-10.57-1.73-11.06-.74s5.03 2.16 10.27 6.44zM328.83 610c-1.86.85-18.29 8.14-17.33 20.76.58 7.65 6.63 13.84 15.07 17.51 2.28 1 25.38 7.21 26.43 4 .21-.63-4.36-1.44-10.39-4-5.08-2.18-10.4-4.47-13.91-9a17.14 17.14 0 0 1-3.41-12.09 19.23 19.23 0 0 1 5.39-12.88c5-5.16 11.79-6.72 11.41-7.38s-7.09.23-13.26 3.08zm35.17-3.33c-6.3 1.06-10.85 3.87-15.67 6.9a34.58 34.58 0 0 0-5.54 3.88c-1 1-8.21 8.12-5.85 16.06 3.16 10.7 20.89 14 25.75 14.84s11.48 2.07 16.2.22c-4.12-1.21-8.68-1.42-12.76-3.13-6.83-2.86-12.33-9-13.39-16.21-1-6.91 2.09-15.46 9.62-19.33 4.88-2.51 10.72-2.59 10.62-3.18s-4.48-.82-8.98-.05zm15.27 3.61c-2 1.12-9.23 5.24-11.37 12.65s1.49 15.73 8.83 19.65c2.71 1.45 5.53 2 11.19 3 9.47 1.71 17.67 1.47 17.72 1.12s-3.79-.2-8.68-1.81c-1.88-.61-6.45-1.68-9.3-4.94-3.79-4.33-5.52-9.36-5-14.39a15.6 15.6 0 0 1 2.53-7.44c3.94-5.93 11.28-8.58 14.23-9.65 4.79-1.73 7.63-1.76 7.58-2.1-.12-.81-15.7-2.77-27.75 3.91zm117.56-14.51c.58 1.26 3 1.93 4.94 1.94 6 0 12.19-2.37 14.83-6.52 3.21-5.06-.91-9.54-6.6-12-2.21-1-4.84-1.77-7.3-1.16-5.87 1.47.25 10.88-4.11 14.66-.78.68-1.73 1.36-1.87 2.26a1.41 1.41 0 0 0 .09.82zm-30.85.58a6.16 6.16 0 0 0 3.6 1.26c8.68.95 19.63-3.48 22.29-10.26 3.81-9.72-11.32-12.74-20.87-12.46-1.25 0-2.83.31-3.06 1.25a1.16 1.16 0 0 0 .39 1.08 7.38 7.38 0 0 0 1.2.93 7.73 7.73 0 0 1 3.56 7.45c-.49 2.9-9.5 8.4-7.09 10.75zm-71.14-25.13c-1.56-.72-3.81-1.81-5-2.52-2.19-1.29-6.45-4.77-6.85-9.39-.36-4.22 2.67-7.46 4.73-9.68 5-5.4 11.47-7.4 10.88-8.42-.45-.76-4.22-.09-5.72.18a48.34 48.34 0 0 0-15.69 6.19c-3.82 2.25-7.76 5.15-9.07 8.82-2.21 6.22 3.47 10.11 10 12.61 10.79 4.12 21.58 5.1 21.81 4.47.07-.22-1.31-.48-5.11-2.26zm31.88-29c5-2.46 10.21-2.83 10.08-3.41s-4.74-.54-8.25-.13c-14.76 1.74-31.6 13.33-28.88 22.1 1.11 3.57 5.18 5.7 7.81 7.08 7.42 3.91 16.3 3.58 21.35 3.39 3.09-.11 4.32-.49 10-.69a12.33 12.33 0 0 0 3.4-.34c0-.48-13.32 1.16-21.27-4.39-.69-.48-4.6-3.29-5.41-7.79-1.24-6.73 5.3-12.94 11.15-15.82zm60.37-45.07c-.16-.16-.48-.14-.74-.11-14 1.93-15.73 2.08-15.73 2.08-8.16 2.27-12.29 3.42-14.54 4.85-2.45 1.55-5.58 3.53-5.65 6.25-.09 3.39 4.62 5.79 6.95 7 1.62.83 4.24 1.94 17 3.71 7.65 1.07 10.77 1.24 10.83 1 .12-.41-10.53-.48-16.46-6.06-.54-.5-5.61-5.27-3.5-8.92 3.06-5.26 21-8 21.75-9.18.24-.45.07-.62.07-.62zm10.55 24.51c.1-.3-4-.56-8-3a12.92 12.92 0 0 1-5.29-5.72c-.31-.73-1.75-4.14-.13-7.08 3.49-6.32 19-6.54 18.77-7.63-.11-.6-4.77-.82-9.19.08a27.06 27.06 0 0 0-4.57 1.37c-8.34 3.21-12.51 4.81-13.76 7.38-1.73 3.53.79 7.63 3.44 9.82 2.36 2 5.13 2.64 9.23 3.65 4.92 1.21 9.37 1.47 9.48 1.13zm137.66-8.45c-1.39-2.72-5-4.49-12.36-8.05-4.31-2.09-6.86-3.33-10.78-4.33-7.42-1.89-15-1.73-15.35-.76-.25.77 4.33 1.41 10.22 5.26a18.48 18.48 0 0 1 5.49 4.76 13.68 13.68 0 0 1 2.35 7.15 18 18 0 0 1-.61 7c-3.13 8.17-20.89 10.46-20.47 11.66.34 1 12.79-.44 25.76-4.4 9-2.74 11.65-4.68 13.37-6.64.28-.31 5.19-6.12 2.36-11.65z"/></g><g class="cls-1"><path class="cls-2" d="M422.73 912.12c-.68-1.93-1.89-4.74-22.64-11.93a230.43 230.43 0 0 0-28.6-8.07c-11.81-2.29-26.54-6.33-52.26-5.69-19.48.49-40.84-.86-83.53-3.81a50 50 0 0 1-21-6c-3.13-1.78-13.22-7.75-13.28-15-.09-10.31 21.74-17.24 26.88-18.89 18.43-5.92 26.36-1.73 51.88-7 10.38-2.16 23.37-4.86 23.47-8.8.14-5.4-24.05-10.09-39.77-13.13a566 566 0 0 0-72.88-7.74c-15.27-.49-30.58-.06-45.83-1-12.91-.8-28.45-2-39.16-8.63-1.06-.65-3.08-1.67-3.17-3.19-.15-2.61 5.35-4.78 7.68-5.7 10.3-4.06 24-3.82 34.28-2.81 21.66 1.63 26.11 3.32 26.16 4.57.08 2-10.32 3.57-14.22 4.19-15.37 2.41-32.4 1.82-32.74-.38-.16-1 3.09-2.42 5.81-2.8a15.71 15.71 0 0 1 5.81.51c6.62 1.29 13.68-1 13.66-1.71 0-.82-33.49-3.08-35.12 2.44a2.45 2.45 0 0 0 .66 2.06c3 4.36 11.47 4.88 23.56 5.08 16.67.28 25 .42 33.65-.5 10.41-1.12 30.88-3.31 31.21-7.62.23-3-9.14-6.17-14.68-7.37-3.92-.84-6.68-.86-11.33-1-11.6-.39-8.21-.76-21.72-1.27-55.41-2.11-97.75 4.65-109.84 12.57-1.29.84-4.77 3.12-4.59 6 .19 3.09 4.64 5.41 8.87 7.12 13.42 5.39 27.79 5.82 36.11 5.84 17.75 0 21.66-1.81 42.49-1.46 3.54.06 1.74.08 13 .44 20.19.65 30.45 1 38 .84 10.36-.17 20.73-.7 31.08-.32 8.2.31 16.36 1 25.57 2 6.14.68 13.58 2.53 14.77 7.58 1.1 4.69-4.26 8.74-9.59 10.57-6 2-10.78 3.65-15.84 5.25-14.7 4.64-12.64 5.12-31.45 9.14-16 3.41-22.05 2.35-37.87 6.94a64.2 64.2 0 0 0-13.15 5.29c-6.63 3.6-17.5 9.2-6.58 15.54 15.33 8.89 34.84 10.25 34.84 10.25 24.62 1.59 45.87 2.32 49.79 2.46 15 .52 11.83.62 28.12 1.23 24 .89 42.11 1.09 67.67 3.24 0 0 31.81 2.68 40.49 15.19a21 21 0 0 1 2.67 5.33c-.11.65-.23 1.21-.34 1.67-3.09 12.87-15.42 19.51-18.82 21.33-2.83 1.52-8 3.9-26.16 6.48a319.32 319.32 0 0 1-38.09 3c-2.85-.21-36.84-2.93-38.09-11.8-.88-6.21 14.69-12.42 16.06-13 8.65-3.36 18-2.75 36.71-1.52a40.8 40.8 0 0 1 11.48 2.67c2.77 1.09 7.34 2.89 7.34 5.33 0 .65-.32 1.77-3.67 3.81a36.14 36.14 0 0 1-13.16 4.63c-7.67 1-22.16 1.43-24-3.1-2.05-5 8.59-5.54 12.18-6.34a31.33 31.33 0 0 0-17.33-.65c-5.26 1.4-12.81 5.09-12.3 8.51.63 4.18 13 5.92 17 6.47 10.18 1.43 13.88-.43 29.83-1.9 19.59-1.81 22.17-1.47 35.89-5.64 6.55-2 12.63-3.84 12.62-6.35 0-4-15.68-7.05-24.55-8.76a222.08 222.08 0 0 0-37.73-4c-30.15-.44-52.25 4.11-60.72 6.14-15.81 3.78-34.41 8.22-34.34 14 .07 5.2 15.21 9.09 26.32 11.94 14.83 3.81 26.6 4.43 42.12 5.26a336.85 336.85 0 0 0 38.55-.38c16.74-1.22 15.31-2.41 58.75-9.15 13.84-2.14 27.33-5.67 41.09-8.17 12.86-2.34 20.39-3 24.31-9.18.31-.51 3.57-5.85 1.71-11.15zM177.25 784.68c5.31.19 5.77 0 8.63.3s6.24.65 8.54 2.27c7.79 5.5-19.48 8.1-22.91 8.39a41.12 41.12 0 0 0 12.49-3c.87-.36 2.35-1 2.44-2 .05-.5-.23-1.11-1.53-2-2.07-1.49-4.44-2.13-9-3-3.72-.7-5.69-.94-5.67-1.08s2.53-.03 7.01.12zM74.46 808.34c-5.89-.18-11.09-.34-16.21-3-2.5-1.32-6.12-3.23-6.37-6.24-.32-3.8 5-6.71 6-7.26 1.64-.9 4.06-1.44 8.83-2.48 2.16-.47 7.29-2.42 9.46-1.41-4 2-10.31 3-12.45 6.68-1.81 3.15-.25 6.77 3.32 8.51 4.7 2.29 10 3 15 4.62-1.67 1.11-5.41.65-7.58.58zm34.58-1c-10.12-.23-15.18-.34-16.22-.51-1.49-.25-15.76-2.64-17.13-9.4-.81-4 3.25-7.49 4-8.12 3.46-3 8-3.61 17-4.83 5.6-.76 9-.77 9-.51.1.53-12.62.53-16.22 6.35a7.26 7.26 0 0 0-.3 6.86c4.2 8.7 26.79 8.88 26.62 9.9-.09.38-3.34.32-6.79.25zm163 9.65c5.26 1.19 18.65 4.22 18.46 6.86-.11 1.63-5.41 2.47-12.68 3.62-11 1.75-17.93 1.35-17.93 1.31a33.1 33.1 0 0 0 13.36-2.94c4.28-2 4.27-3.29 4.24-3.58-.08-.81-1-1.3-2.93-2.28-2.28-1.18-3.73-1.44-6.78-2.87-1.84-.85-1.85-1-1.84-1.05.17-.43 5.16.7 6.15.94zm-17.8 9.08c1.16-1.1 3.43-3.24 3-5.72a5.46 5.46 0 0 0-1.83-2.86 14.16 14.16 0 0 0-7.35-3.61s20 2.84 20 7.4c0 .75-.54 1.26-1.63 2.28-2.86 2.69-5.36 2.31-12.35 4.49-2.18.68-4.29 1.45-4.41 1.25s2.33-1.09 4.62-3.24zm-75.12 53.57a120 120 0 0 1-12.57-2.54c-2-.6-18.88-5.54-18.88-11.86s16.71-11.46 21.53-13a71.23 71.23 0 0 1 7.76-1.92 36.85 36.85 0 0 0-6.42 3.3c-2.63 1.73-6 3.92-7 7.3a8.2 8.2 0 0 0 .31 5.21c3.34 9.83 21.53 13 21.2 14-.05.43-2.41.1-5.88-.5zm6.27-4.45c-5.17-3.13-7.77-6.07-8.57-9.65-2.86-12.77 26.26-19.32 26.66-17.48.11.54-3.63.7-8.39 3.68-1.21.76-10.92 7-10.08 13.5.59 4.53 6.42 6.37 14.08 10.91 6.35 3.75 13.58 5.53 20.8 6.88-11.52-1.47-24.27-1.69-34.45-7.85zm143.66 52.5a3.7 3.7 0 0 0 .51-2.65c-.56-2.37-4-3.34-3.72-3.83s2.71.18 3.84.45a12 12 0 0 1 3.28 1.07c.32.18 2.6 1.47 2.75 2.86.32 3.09-10.84 5.82-11 5.52s3.07-.95 4.39-3.43zm-18.35-8c.33-.52 4.1.68 4.86.92 4.12 1.3 6.19 1.91 6.89 3.25 2.67 5.16-6.82 9-11.39 9.78-.51.1-1.23.06-1.3-.37 1-.73 2.07-1.37 3-2.16 1.26-1.06 3.09-2.62 3.09-4.59 0-1.3-.8-2.27-1.77-3.49-1.65-2.18-3.57-2.98-3.33-3.35zm-91.9 20.05c-4.58-1.2-5.89-1.2-7.85-2.21-.53-.28-5.15-2.72-5.2-5.59-.09-5.59 17.23-10.1 17.52-9.64.08.13-1.12.61-3.19 2.35a11.65 11.65 0 0 0-2.61 2.67 6.6 6.6 0 0 0-.7 4.87c.86 5.29 7.31 8.88 8.26 9.4-1.33-.47-3.48-1.15-6.18-1.86zm23.2 4.81c-5.37-1.35-8.14-2-10.71-4.06-3.31-2.6-5.54-6.8-5.07-10.66.8-6.5 9.31-12.52 20.68-12.71a39.41 39.41 0 0 0-9.52 5.62c-3.3 2.66-4.08 4.32-4.47 5.54a6.88 6.88 0 0 0-.15 3.51c.37 2 1.5 4.34 4.74 7.06 6.22 5.23 13.59 6.4 13.37 7s-4.63-.22-8.87-1.3zM369.23 930c-5.4 2.24-14.71 4.84-14.71 4.84 6.57-2 13-8.82 16-13.84 3.43-5.78 3.5-12.32-1.64-17.44-.84-.83-9.91-6.4-13.65-7.79a72.35 72.35 0 0 1 20 7.07c4.55 2.4 11.31 5.3 12.24 10.23 1.36 7.17-12.05 14.32-18.24 16.93zm36.06-10.48c-8.18 4.13-18.55 7.52-19 6.67s10.67-3.22 12.56-10a9.34 9.34 0 0 0-.91-6.6c-2.3-4.5-7.18-6.24-8.22-6.58 2.45.74 4.42 1.47 5.77 2a43 43 0 0 1 11.93 6.86c2 1.7 2.46 2.49 2.45 3.3-.02 1.91-2.62 3.32-4.58 4.32zm-26.97 88.77a62.68 62.68 0 0 0-14.65-7.36 113.53 113.53 0 0 0-26.16-5.5 235.13 235.13 0 0 0-40.24-.63c-12.81.85-26.28 2-38.72 5.25-5.08 1.31-12 5.57-9.56 11.56 1.19 2.89 4.46 4.38 7.52 5.3a63.37 63.37 0 0 0 16.5 2.81c12.83-.6 55.68-1.38 64.72-4.74 2.12-.78 8.52-2.63 8.79-5.41.22-2.29-4-3.86-5.69-4.66a43.55 43.55 0 0 0-12.08-3.95 78 78 0 0 0-9.93-.76c-12.69-.14-26.77 2.85-26.75 5.55 0 .83 1.39 1.4 4.14 2.54a39.38 39.38 0 0 0 15 2.86c6.8 0 17.56-1.07 17.69-3.16.07-1.09-2.77-2.47-5.3-2.53-2.24-.06-3.36.93-5.28 1.62-5.19 1.84-11.64-.2-11.74-1.55s6.85-3.74 13.53-3.73c7.24 0 15.12 2.71 15.24 5.36.2 4.87-8.46 5.77-11.91 6.2a100.71 100.71 0 0 1-22.09 0c-5.12-.48-7.73-.73-10.05-1.54-2.16-.75-8.61-3-8.69-6.34-.08-2.93 4.76-5.48 7.35-6.38.67-.24 4.3-1.93 11.95-2.33 0 0 30.45-2.57 53.14 12.32 2.48 1.62 4.2 3.31 4 5.06-.22 2-2.36 3.29-4.29 4.14-11.33 5-23.7 7.24-36 8.41-6.23.59-12.49.91-18.74 1.19-5.38.24-10.78 1.29-16.24 1.55-1.86.09-3.73.15-5.6.18-3.55.07-4.6 0-12.93.11-7.08.09-12.77.23-14.55.27-1.43 0-18.21.52-30.84 2.26-20.58 2.84-46.73 11.34-46.21 18.09.06.7.45 2 5.13 4.61 11.65 6.6 23.47 6.91 27.77 7 34.48.52 37.07.54 42.42 1 11.49 1.09 29.63 2.93 31.36 10.44a6.84 6.84 0 0 1-.52 4.11c-3.52 8.45-19.24 9.33-25.31 9.6-45.73 2.06-70.86 1.22-70.86 1.22-1.45-.12-32.35-2.68-45.05 5.54-1.35.88-5.16 3.35-5 6.49.12 3.48 4.78 6.37 7 6.91 22.45 5.43 46.76 1.07 68.69 8.21 2.89 1 6 2.4 7 5.2 1.4 4-5.4 8.73-7.41 10.18a41.22 41.22 0 0 1-18.76 7c-22.37 3.14-31.52 3.86-53.45 4.93 0 0-15 .73-23.65-5.19-2.62-1.79-2.94-3.26-3-4-.08-1.48.89-3.35 5.15-6a44.88 44.88 0 0 1 18.07-6c9.44-1.25 20.12-2.66 28.87 3.41a22.49 22.49 0 0 1 2.65 2.13 2.7 2.7 0 0 1 .66 2.34c-.19.63-1.08 2.27-14.77 3.41-2.67.22-4.45.37-7 .42-5.86.13-13.28.28-14-2-.34-1.1 1-2.4 1.44-2.89 1.41-1.43 3.28-1.68 5.06-1.91a13.45 13.45 0 0 1 3.53 0c1.69.21 3.49.44 4 1.49s-1 2.12-.63 2.89c.93 2 13.24.07 13.41-2.68.12-1.8-5-3.42-5.93-3.71-3.32-1-7.12-.68-14.57.09a28 28 0 0 0-9.25 2.13c-1.65.73-4.44 2-4.41 3.62 0 1.25 1.67 2.18 3.34 3.09a22.07 22.07 0 0 0 7.24 2.45c10.38 1.24 24.86.49 26 .43a104.69 104.69 0 0 0 15-1.71c7.4-1.42 9.9-2.81 10.36-4.68.14-.57.18-1.57-.88-3.2-3.55-5.44-12.11-6.7-14.55-7a218.23 218.23 0 0 0-38.3-1.49c-13.64.61-28.76 1.72-40.87 8.69-2.28 1.31-8.23 4.81-7.66 8.14.09.56.46 1.67 3.88 3.8a32.46 32.46 0 0 0 10.36 4.28c13.55 2.45 27.44 2.4 41.23 2.33 31-.15 62-.3 92.92-2.34 9.06-.59 18.61-1.53 26.12-6.35.38-.25.76-.5 1.13-.77 4.43-3.17 7.94-8.61 6.28-13.69s-7.76-7.61-13.17-9.12a206.25 206.25 0 0 0-59.43-7.59c-5.14.1-10.13-.1-15.25-.1-2.33 0-4.81-.19-6.72-1.49-4.91-3.34-.58-7.32 3.33-8.58 10-3.22 19.89-2.29 30.16-1.65 10.95.69 21.94.89 32.91.88 19.79 0 16.62-.92 49.56-1.59 20-.4 34.05-.15 44.48-8.92 2.47-2.07 4-4 3.94-6.19-.09-8.64-23.79-15.11-29.54-16.68a69.49 69.49 0 0 0-11.86-2.51c-12.31-1.43-20.25-1.47-20.25-1.47-22.87-.13-29.44 2.17-41.77-1.72-3.82-1.21-9.47-3.42-10.28-7.62a7 7 0 0 1 .7-4.22c3.83-8.12 22.77-9.37 28.75-9.72 22.74-1.31 45.61-1.47 68.25-3.84 4.15-.43 8.31-.85 12.48-1.1 9.15-.57 18.41-.35 27.45-2 7.88-1.44 16.37-3.33 22.48-8.67a6.73 6.73 0 0 0 2.49-3.69c.4-2.62-2.01-4.88-4.28-6.44zM263 1014.66c-1-.24-9.61-2.37-9.87-6s8.24-7.2 12.86-8.16a16.77 16.77 0 0 1 3.22-.44c.09.17-2 .66-4.1 1.78-1.78.94-5.65 3-5.78 5.77-.15 3.13 4.53 5.79 7.22 6.74 1.93.68 3.58.75 3.56.89s-3.52.3-7.11-.58zM282.27 999c-2.45 1.13-5.64 3.54-5.91 5.72-.4 3.3 5.71 7.84 15.6 10a37.06 37.06 0 0 1-14.65.41c-3-.52-6.05-1.51-8-3.76-4.27-5 1-9.66 5.66-11.47a35.07 35.07 0 0 1 11.58-2.09 14 14 0 0 0-4.28 1.19zm-114 122.75c3.51 1 5.27 1.42 6.85 2.66.78.6 3.31 2.58 2.87 4.47-.26 1.1-1.42 1.66-3.75 2.77a23.86 23.86 0 0 1-6.38 2 18 18 0 0 1-4.86.35 13.36 13.36 0 0 0 5.32-1.22c.64-.32 3.72-1.84 3.78-4.12a3.49 3.49 0 0 0-.79-2.08c-2.42-3.67-6.49-4.95-6.32-5.36s2.28.31 3.26.57zm-64.11 20.55c-.09.31-5.89-.38-10.25-2.83-.77-.44-1.58-1-3.2-2.07-2.53-1.7-2.78-2-2.94-2.4-.83-1.91 1.17-4.38 1.72-5.06 1.53-1.88 3.32-2.69 6.79-4.22 2.22-1 5.32-2.15 5.5-1.81s-.88.74-2.91 2.41-3 2.49-3.53 3.63a6.59 6.59 0 0 0-.44 3.62 9.14 9.14 0 0 0 2.65 5.32c2.85 2.99 6.65 3.21 6.59 3.45zm6.17-.62a10.21 10.21 0 0 1-6.31-2.79c-6.92-6.74.41-15.12 8-16.78 2-.45 4.2-.39 4.28-.05s-2.06.82-5.31 2.74c-1.92 1.13-1.07.92-4 2.8-1.32.87-2.84 3.95-2.07 6.89.54 2 2 3.24 3.4 4.4a34.67 34.67 0 0 0 4 2.46 5.05 5.05 0 0 1-2.01.37zm129.59-28.56a39.92 39.92 0 0 1 6.7 2.55 51.52 51.52 0 0 1 5.46 2.62c2.75 1.78 5.66 4.53 4.72 8-.9 3.31-4.27 5.85-7 7.71-3.86 2.59-7.48 3.47-10.91 4.37a35.14 35.14 0 0 1-10.39 1.55s-.53 0-5.51-.21c1.91-.43 4.65-1.07 7.93-1.92 4.46-1.15 6.72-1.74 8.38-2.56s5.69-2.86 7.93-7c1.38-2.56 1.39-4 1.33-4.47a6.86 6.86 0 0 0-2.43-4c-5.33-5-11.86-6.66-11.68-7.24.06-.39 2.96.01 5.45.64zm-35.48-3.2c0-.08.25-.36 5.28.18 8.27.87 12.4 1.31 17 3s11.69 4.38 12.07 8.71c.32 3.67-4.35 6.73-8.67 9.57-6.77 4.44-13.56 5.86-22.31 7.69a52.1 52.1 0 0 1-5.88.84c-2.48.21-6.08.34-6.12 0s4.72-.75 11-2.77c3.72-1.19 6.84-2.2 10.14-4.47 1.12-.78 9.83-6.8 8.38-12.57-.59-2.32-2.58-3.71-4-4.69-2.58-1.81-4.36-1.63-12.12-3.84-4.75-1.27-4.81-1.57-4.79-1.57zm-56.26-3.79c-4.91-.92-5.83-1.8-6.21-2.22a5.54 5.54 0 0 1-1.34-4.32c.56-3.36 5.86-6.2 13.23-6.39a11.3 11.3 0 0 0-4.63 2.87c-1.13 1.17-2.74 2.8-2.45 4.7s2.13 3 3.88 4c2.27 1.39 4 1.65 4 1.91s-3.74.01-6.5-.51zm16.47-12.94c-2.34 1.11-5.25 3.69-5.17 6.72.08 3.4 3.91 6.92 9.25 7-.44.11-7.36 1.74-11.4-2.39-.52-.54-2.77-2.68-2.32-5.55a8.28 8.28 0 0 1 3.92-5.42c4.08-2.69 8.82-1.59 9.8-1.34a9.91 9.91 0 0 0-4.1 1.02zm154.57-22.62c4.2 2.27 7.76 4.19 7.74 6.79 0 4.35-10.09 7.21-11.86 7.72-7 2-13.52 1.39-13.67.48-.11-.73 3.93-1.32 9-5.15 3-2.27 3.43-3.45 3.51-4.28.17-2-1.57-3.67-3.33-5.31-3.89-3.6-7.44-4.44-7.3-4.87.2-.57 8.01.41 15.89 4.66zm-37.61-7.3c.32-1 10.11-.27 17.88 5 4.11 2.81 4.35 4.64 4.38 5.18.18 2.81-2.86 5-5 6.54-6.59 4.76-14.7 5.34-15 4.53-.15-.46 2.36-1 5.72-3.85 2.5-2.12 5.65-4.79 5.25-7.48-.26-1.75-3.23-3.62-9.18-7.28-3.45-2.06-4.16-2.3-4.07-2.6zm-89.12-8.13c-3.78-1.31-8.11-2.83-8.61-5.78-.54-3.16 4.66-6.78 4.92-7a19.33 19.33 0 0 1 5.09-2.25c2.47-.86 6.59-2 6.85-1.49.35.77-7.58 2.8-8.47 7.73a7.36 7.36 0 0 0 .34 3.82c1.34 3.69 5.68 6.19 10.94 6.68a32.84 32.84 0 0 1-11.08-1.67zm27-17.93l-.42.22c-4.23 2.16-10.29 5.19-9.19 10.12.95 4.23 6.19 7.43 10.41 9.14a37.53 37.53 0 0 0 5 1c-1.47 0-4 0-7.77-.27-6.43-.49-16.15-1.93-17.54-8.74-.94-4.61 2.55-7.89 7-9.85a34.47 34.47 0 0 1 7.93-2.32c1.18-.21 2.37-.32 3.55-.48a35.83 35.83 0 0 0 3.7-.21c-.84.5-1.74.97-2.65 1.43zm147-15.63a32.16 32.16 0 0 1-11.76 2.27 23.6 23.6 0 0 0 7.46-3.69 7.27 7.27 0 0 0 2.21-2.2c1.56-3-.66-6.79-1.29-7.88-5.08-8.78-20.43-10.29-20.28-10.94s9.4.14 20.71 4.68c6.62 2.66 13.68 5.49 13.67 9.38-.02 4.15-7.95 7.32-10.72 8.42zm147.83 207.96c-18.5 4.59-56.76 11.35-97.52 6.63a145.64 145.64 0 0 0-29.06-.17c-7.17.65-27.92 2.55-29.83 9.24-.86 3 2.46 5.9 4.41 7.58 9.73 8.39 28.55 7.69 34.27 7.48 1.81-.07 5.31-.25 10.28 0 2.93.12 6.16.45 11.55 1.18 4.9.67 17.86 2.44 22.32 9.83a11 11 0 0 1 .42 10.88c-2.18 3.87-8.64 9.06-47.91 12.18-33.18 2.62-49.15 2.14-70.25 9.37-5 1.69-10.35 4.47-11.42 9.29-2 9.22 12 13.18 22.09 13.07 29.28-.34 43.27-.32 76.42-.87 30.87-.52 75.68 5.39 82.17 22.09 3.28 8.42-4.21 17-4.55 17.38-3 3.37-9.3 8.15-35.41 11.71-11.6 1.58-17.6 1.62-53.71 2.09-26.83.35-37.62.51-49.5-5-4.31-2-11.57-5.42-12.39-11-1.37-9.44 16.91-17.48 17.88-17.9 6.21-2.66 21.18-2.28 50.86-1.41 5.39.16 12.85.46 18.85 4.43 1.75 1.16 6.86 4.55 6.34 9.5-.39 3.78-3.83 6.32-4.95 7.08a36.5 36.5 0 0 1-9.59 3.24c-12.33 2.35-26.25-1.46-26.33-4.71 0-1.49 2.86-2.71 5.09-3.64 8.63-3.61 16.61-1.28 17.09-2.38.68-1.6-14.17-10.11-30.18-7.43-2.58.43-13.44 2.25-15.37 8-.9 2.71.49 5.23 1.52 6.66a115.35 115.35 0 0 0 16.08 4.13 132.55 132.55 0 0 0 23.24 2c12 .19 18 .29 24.61-2 3.8-1.31 12.41-4.28 13.78-9.83 1.76-7.14-9.67-13.55-12.3-15a35.72 35.72 0 0 0-12.94-4.69c-53.28-7.37-107.6 7.81-161.35 4.22-9.91-.66-20.16-2.1-28.36-7.29s-13.71-15.1-10.54-23.9c1.7-4.72 5.6-8.51 9.83-11.56 39.21-28.22 100.66-1.18 143.36-24.58 2.78-7.35-9.39-11-17.69-10.17-26.5 2.74-55.57 8.32-78.06-4.9-2.79-1.64-5.49-3.64-6.92-6.42-4.8-9.33 7.06-18.61 17.52-22.18 65.63-22.38 140.79 6.94 207.47-12.54 3.43-1 7.09-2.32 9-5.18 4-6.11-8.53-15.23-10-16.26l-.12-.08c-14.2-10-88.85-10-92 3.92-1 4.2 5 8.08 6.7 9.21 2.12 1.38 8.08 4.7 37.83 2.54 13.68-1 20.52-1.54 21.15-3.69.79-2.68-7.64-6.85-15.61-7.71-5.41-.59-12.65.12-13.36 2.24-.44 1.31 1.72 2.84 3.51 3.88-9.06 5-19 5.15-23.85 1.5-2.29-1.73-4.25-4.95-2.91-7.63 2.1-4.21 11.28-5 19.95-5.65 7.29-.59 6.68.21 32.2 1.9 5.34.35 10.84.68 16.2 3.6 2.44 1.32 6.37 3.46 6.12 6-.49 5.12-17.63 8.58-27.08 9.65-.27 0-5.31.27-15.38.75-12.75.6-16.5.75-21.26.83 0 0-7.12.11-13.92 0-15.67-.33-56.86-4.15-58.36-14.08-.38-2.57 2-4.73 4.95-7.36 8.41-7.57 20.84-9.23 26.51-9.93 40-4.93 79.73-3.63 97-2.92a132.17 132.17 0 0 1 36.61 6c4.44 1.44 8 2.88 10.25 3.89 3.1 1.44 21 9.8 20.82 17.19-.24 8.95-21.9 14.16-36.27 17.7zm-158.93 135.69c-1-2.47-.41-6-.27-6.87a11.34 11.34 0 0 1 2.1-5.73c3.35-4.21 10.38-4.81 10.28-5.08s-13.28-1-19.06 6c-3.71 4.53-2.74 10.24.22 14 6.81 8.63 24.1 6.87 24.34 6.12s-14.93-1.76-17.61-8.44zm116 4.17c7.6-2.2 14-7 13.84-13.52-.14-7.08-8.26-13.85-20.29-17.36 1.12.81 13.51 10 11.91 19.25a16.34 16.34 0 0 1-1.95 5.1c-2.76 4.41-7.35 6.74-9.48 7.68a31.46 31.46 0 0 0 6.01-1.15zm-23-25.72c1.62 1.32 9.3 7.6 7.58 15.06-1 4.47-5 7.61-7.23 9.36-4.41 3.47-8.35 4.41-8.18 4.71.37.63 18.94-1.16 24.45-10.57 3.43-5.87.65-12.78-3.18-17-4.36-4.78-10.44-6.49-12.71-7.1-4.5-1.21-10.05-1.64-10.52-.7s4.84 2.17 9.81 6.24zm-200.59-45.42c-1.77.8-17.38 7.74-16.47 19.73.55 7.27 6.3 13.16 14.33 16.65 2.16.94 24.12 6.85 25.12 3.83.2-.6-4.15-1.37-9.88-3.83-4.83-2.08-9.89-4.25-13.22-8.52a16.35 16.35 0 0 1-3.25-11.49 18.36 18.36 0 0 1 5.13-12.25c4.75-4.91 11.21-6.39 10.85-7s-6.72.21-12.61 2.88zm33.42-3.13c-6 1-10.32 3.68-14.9 6.56a32.29 32.29 0 0 0-5.26 3.69c-1 1-7.81 7.72-5.57 15.27 3 10.16 19.86 13.26 24.48 14.11s10.91 2 15.4.2c-3.91-1.15-8.24-1.35-12.13-3-6.49-2.71-11.72-8.57-12.73-15.41-1-6.57 2-14.69 9.15-18.37 4.64-2.39 10.19-2.46 10.1-3s-4.25-.78-8.54-.05zm14.52 3.43c-1.93 1.07-8.78 5-10.82 12s1.42 15 8.4 18.68c2.57 1.37 5.26 1.86 10.63 2.83 9 1.62 16.8 1.39 16.85 1.06s-3.6-.19-8.25-1.71c-1.79-.59-6.13-1.61-8.84-4.7-3.6-4.12-5.25-8.9-4.73-13.68a14.78 14.78 0 0 1 2.4-7.07c3.75-5.64 10.72-8.16 13.53-9.18 4.55-1.64 7.25-1.67 7.2-2-.11-.72-14.92-2.58-26.37 3.77zm111.75-13.79c.55 1.2 2.83 1.83 4.7 1.84 5.67 0 11.58-2.25 14.09-6.2 3.06-4.8-.86-9.06-6.27-11.42-2.1-.92-4.6-1.69-6.94-1.1-5.58 1.39.24 10.34-3.9 13.93-.75.65-1.65 1.29-1.79 2.14a1.38 1.38 0 0 0 .11.81zm-29.32.55a5.81 5.81 0 0 0 3.42 1.19c8.24.91 18.66-3.3 21.19-9.75 3.62-9.24-10.76-12.11-19.84-11.85-1.19 0-2.69.3-2.91 1.2a1.09 1.09 0 0 0 .37 1 8.31 8.31 0 0 0 1.13.88 7.31 7.31 0 0 1 3.39 7.08c-.45 2.78-9.01 7.99-6.75 10.25zm-67.63-23.89c-1.49-.69-3.62-1.72-4.76-2.4-2.09-1.22-6.14-4.53-6.52-8.92-.34-4 2.53-7.1 4.5-9.21 4.78-5.13 10.9-7 10.34-8-.42-.72-4-.08-5.44.17a46.23 46.23 0 0 0-14.92 5.89c-3.63 2.13-7.37 4.89-8.61 8.38-2.11 5.91 3.3 9.62 9.52 12 10.26 3.92 20.51 4.85 20.73 4.25.09-.22-1.23-.5-4.84-2.16zm30.3-27.57c4.75-2.33 9.7-2.69 9.59-3.24s-4.51-.52-7.85-.12c-14 1.65-30 12.66-27.45 21 1.05 3.4 4.92 5.42 7.42 6.74 7.05 3.71 15.49 3.4 20.3 3.22 2.94-.11 4.1-.47 9.5-.65a11.85 11.85 0 0 0 3.24-.33c0-.46-12.66 1.1-20.23-4.18-.65-.45-4.37-3.13-5.14-7.4-1.15-6.4 5.06-12.3 10.62-15.04zm57.39-42.86a.86.86 0 0 0-.7-.09c-13.28 1.83-14.95 2-14.95 2-7.76 2.15-11.68 3.25-13.83 4.61-2.32 1.47-5.3 3.36-5.37 6-.08 3.21 4.4 5.49 6.61 6.62 1.53.78 4 1.84 16.14 3.53 7.27 1 10.23 1.17 10.3 1 .11-.39-10-.47-15.66-5.77-.5-.48-5.32-5-3.31-8.47 2.9-5 20-7.61 20.67-8.73.26-.52.1-.7.1-.7zm10 23.31c.1-.29-3.82-.54-7.58-2.86a12.39 12.39 0 0 1-5-5.44c-.3-.7-1.67-3.94-.13-6.73 3.32-6 18-6.22 17.85-7.26-.11-.56-4.54-.77-8.75.08a25.61 25.61 0 0 0-4.33 1.3c-7.93 3-11.9 4.58-13.09 7-1.64 3.36.76 7.25 3.27 9.33 2.25 1.86 4.88 2.51 8.78 3.47 4.68 1.19 8.91 1.42 9.01 1.12zm130.87-8c-1.33-2.58-4.8-4.27-11.75-7.65a49.37 49.37 0 0 0-10.25-4.11c-7.06-1.81-14.3-1.65-14.6-.73-.23.74 4.12 1.34 9.72 5a17.51 17.51 0 0 1 5.22 4.53 13 13 0 0 1 2.23 6.8 16.8 16.8 0 0 1-.58 6.69c-3 7.77-19.85 9.94-19.46 11.08.33 1 12.16-.42 24.49-4.18 8.55-2.6 11.08-4.45 12.71-6.32.31-.35 4.99-5.88 2.3-11.14zm-157.74 358.01c-.59-2.43-1.65-5.94-19.72-15a155 155 0 0 0-24.9-10.11c-10.29-2.86-23.11-7.93-45.51-7.12-17 .61-35.57-1.08-72.74-4.78a33.85 33.85 0 0 1-18.32-7.56c-2.72-2.23-11.51-9.7-11.57-18.85-.07-12.91 18.94-21.59 23.42-23.66 16-7.43 22.95-2.18 45.17-8.84 9.05-2.71 20.35-6.1 20.44-11 .12-6.76-20.94-12.64-34.63-16.46-5.51-1.53-34.87-8.23-63.41-9.54-13.3-.62-26.63-.08-39.92-1.26-11.24-1-24.77-2.48-34.1-10.8-.92-.83-2.68-2.1-2.76-4-.13-3.28 4.66-6 6.69-7.15 9-5.09 20.88-4.79 29.85-3.53 18.87 2 22.74 4.17 22.79 5.73.06 2.44-9 4.48-12.39 5.25-13.39 3-28.21 2.29-28.51-.47-.14-1.25 2.69-3 5.06-3.5a9.56 9.56 0 0 1 5.06.63c5.76 1.61 11.91-1.3 11.89-2.14 0-1-29.16-3.86-30.58 3a4.07 4.07 0 0 0 .57 2.59c2.64 5.46 10 6.11 20.52 6.37 14.52.35 21.78.52 29.31-.64 9.06-1.4 26.89-4.15 27.18-9.55.19-3.71-8-7.72-12.79-9.23-3.41-1.06-5.82-1.07-9.86-1.27-10.11-.48-7.15-.94-18.92-1.59-48.25-2.64-85.13 5.83-95.65 15.75-1.13 1.06-4.15 3.92-4 7.47.16 3.88 4 6.79 7.73 8.92 11.68 6.76 24.19 7.3 31.44 7.32 15.45.05 18.87-2.26 37-1.82 3.08.08 1.52.1 11.36.55 17.58.81 26.51 1.21 33.06 1.06 9-.22 18-.88 27.06-.41a207.32 207.32 0 0 1 22.27 2.48c5.35.86 11.82 3.17 12.86 9.5 1 5.88-3.71 11-8.35 13.24-5.21 2.57-9.39 4.58-13.8 6.58-12.8 5.82-11 6.42-27.39 11.46-13.88 4.27-19.2 2.94-33 8.7a47.2 47.2 0 0 0-11.46 6.63c-5.77 4.51-15.23 11.52-5.72 19.47 13.35 11.14 30.33 12.85 30.33 12.85 21.45 2 40 2.9 43.37 3.08 13.05.65 10.3.77 24.48 1.53 20.95 1.12 36.68 1.38 58.93 4.07 0 0 27.71 3.36 35.27 19a32.35 32.35 0 0 1 2.32 6.68c-.1.81-.2 1.52-.3 2.1a42 42 0 0 1-16.39 26.73c-2.46 1.9-7 4.89-22.78 8.11a193.8 193.8 0 0 1-33.17 3.82c-2.48-.27-32.08-3.68-33.17-14.8-.77-7.78 12.79-15.56 14-16.23 7.53-4.22 15.68-3.45 32-1.91a26.54 26.54 0 0 1 10 3.35c2.42 1.36 6.4 3.62 6.4 6.68 0 .81-.28 2.21-3.2 4.77a25.36 25.36 0 0 1-11.46 5.8c-6.68 1.32-19.3 1.8-20.91-3.88-1.78-6.27 7.48-6.94 10.61-7.94a19.47 19.47 0 0 0-15.1-.82c-4.57 1.76-11.15 6.38-10.7 10.66.55 5.24 11.35 7.42 14.79 8.12 8.87 1.79 12.09-.55 26-2.39 17.07-2.27 19.32-1.83 31.26-7.07 5.7-2.49 11-4.81 11-8 0-5-13.65-8.83-21.38-11a136 136 0 0 0-32.86-5c-26.25-.56-45.5 5.15-52.87 7.68-13.77 4.74-30 10.31-29.91 17.56.06 6.51 13.24 11.38 22.92 14.95 12.92 4.78 23.17 5.56 36.68 6.59a204 204 0 0 0 33.58-.48c14.57-1.52 13.33-3 51.15-11.45 12.06-2.69 23.81-7.11 35.79-10.25 11.2-2.93 17.76-3.71 21.17-11.51.21-.48 3.06-7.14 1.42-13.82zm-213.77-159.7c4.62.24 5 0 7.51.37s5.44.82 7.43 2.85c6.79 6.89-17 10.15-19.95 10.51a27.28 27.28 0 0 0 10.88-3.81c.76-.45 2-1.29 2.13-2.55 0-.62-.21-1.39-1.33-2.54-1.81-1.86-3.87-2.67-7.85-3.74-3.24-.88-5-1.19-4.94-1.35s2.22.06 6.12.26zm-89.52 29.65c-5.13-.23-9.65-.43-14.12-3.82-2.18-1.65-5.33-4-5.55-7.81-.27-4.77 4.33-8.41 5.19-9.1 1.43-1.13 3.54-1.8 7.69-3.11 1.89-.59 6.36-3 8.24-1.76-3.44 2.55-9 3.71-10.84 8.36a9.1 9.1 0 0 0 2.9 10.67c4.09 2.86 8.75 3.74 13.1 5.79-1.46 1.45-4.68.86-6.61.78zm30.11-1.27c-8.81-.28-13.22-.42-14.12-.64-1.3-.31-13.73-3.31-14.92-11.77-.71-5 2.83-9.4 3.46-10.19 3-3.75 6.94-4.52 14.82-6.05 4.87-.95 7.78-1 7.83-.63.09.66-11 .65-14.12 8a12.67 12.67 0 0 0-.27 8.59c3.66 10.9 23.33 11.13 23.18 12.41-.04.45-2.89.37-5.86.28zm142 12.09c4.58 1.5 16.24 5.29 16.08 8.6-.1 2-4.71 3.1-11 4.54-9.6 2.19-15.61 1.69-15.61 1.63a21.25 21.25 0 0 0 11.63-3.67c3.73-2.5 3.72-4.13 3.69-4.49-.06-1-.89-1.63-2.55-2.86-2-1.48-3.24-1.81-5.9-3.59-1.61-1.08-1.62-1.27-1.61-1.33.09-.52 4.4.89 5.27 1.17zm-15.5 11.38c1-1.37 3-4 2.59-7.16a7.39 7.39 0 0 0-1.6-3.58 11.09 11.09 0 0 0-6.39-4.54c0-.06 17.4 3.57 17.41 9.28 0 .93-.47 1.58-1.42 2.86-2.48 3.37-4.66 2.89-10.75 5.62-1.9.86-3.74 1.82-3.84 1.57s2-1.35 4-4.05zm-65.42 67.13c-5.6-1.4-8.4-2.1-10.95-3.18-1.78-.75-16.44-7-16.44-14.86s14.55-14.36 18.75-16.23a45.64 45.64 0 0 1 6.76-2.4 29.29 29.29 0 0 0-5.59 4.13c-2.29 2.16-5.22 4.92-6.13 9.15a14.57 14.57 0 0 0 .26 6.53c2.91 12.31 18.75 16.25 18.47 17.56-.1.47-2.11.06-5.13-.7zm5.45-5.57c-4.5-3.93-6.76-7.61-7.46-12.1-2.48-16 22.88-24.2 23.22-21.9.1.68-3.16.88-7.31 4.62-1 .94-9.5 8.73-8.77 16.91.51 5.68 5.59 8 12.26 13.67 5.52 4.7 11.83 6.93 18.11 8.62-10.07-1.85-21.18-2.1-30.05-9.85zm125.12 65.78a6.4 6.4 0 0 0 .44-3.31c-.49-3-3.49-4.19-3.24-4.8s2.36.22 3.34.56a8.05 8.05 0 0 1 2.85 1.35c.29.22 2.28 1.83 2.4 3.58.29 3.87-9.44 7.29-9.59 6.92-.03-.2 2.64-1.19 3.8-4.3zm-16-10c.29-.64 3.57.85 4.24 1.16 3.58 1.63 5.39 2.39 6 4.07 2.32 6.46-5.94 11.23-9.92 12.26-.44.11-1.07.07-1.14-.47.87-.91 1.81-1.71 2.62-2.7 1.09-1.33 2.69-3.28 2.69-5.75a8.92 8.92 0 0 0-1.54-4.39c-1.48-2.73-3.15-3.73-2.94-4.2zm-80 25.13c-4-1.5-5.14-1.51-6.84-2.78-.46-.34-4.49-3.4-4.53-7-.08-7 15-12.65 15.26-12.07.07.15-1 .75-2.78 2.94a13.88 13.88 0 0 0-2.28 3.34 11.71 11.71 0 0 0-.61 6.11c.75 6.62 6.37 11.13 7.2 11.78-1.25-.6-3.09-1.45-5.43-2.34zm20.12 6c-4.68-1.69-7.09-2.57-9.33-5.09a18.84 18.84 0 0 1-4.41-13.36c.69-8.15 8.1-15.68 18-15.92a35.31 35.31 0 0 0-8.29 7c-2.87 3.34-3.55 5.43-3.89 7a12.61 12.61 0 0 0-.13 4.4 16.89 16.89 0 0 0 4.13 8.85c5.41 6.56 11.83 8 11.65 8.73-.16.55-4.02-.24-7.74-1.55zm110.83-18.27a116.7 116.7 0 0 1-12.81 6.07c5.72-2.55 11.35-11.06 14-17.35 3-7.25 3-15.44-1.44-21.85-.73-1-8.62-8-11.88-9.77a51.64 51.64 0 0 1 17.4 8.86c4 3 9.85 6.65 10.66 12.82 1.13 9.05-10.55 18.01-15.94 21.24zm31.4-13.14c-7.12 5.18-16.15 9.43-16.53 8.36s9.29-4 10.94-12.5a16.14 16.14 0 0 0-.8-8.27 14.41 14.41 0 0 0-7.15-8.25 53.39 53.39 0 0 1 5 2.52A36.92 36.92 0 0 1 368 1564c1.75 2.14 2.14 3.13 2.13 4.14.01 2.4-2.25 4.17-3.96 5.41z"/></g></g></g></svg>