<svg xmlns="http://www.w3.org/2000/svg" viewBox="0 0 36.91 30"><path d="M11.61 30c13.93 0 21.55-11.54 21.55-21.55v-1a15.44 15.44 0 0 0 3.77-3.92 15 15 0 0 1-4.35 1.19A7.52 7.52 0 0 0 35.89.55a15.09 15.09 0 0 1-4.8 1.84A7.58 7.58 0 0 0 18.18 9.3 21.52 21.52 0 0 1 2.57 1.39 7.57 7.57 0 0 0 4.91 11.5a7.52 7.52 0 0 1-3.43-.95v.1a7.57 7.57 0 0 0 6.08 7.42 7.78 7.78 0 0 1-2 .27 7.35 7.35 0 0 1-1.42-.14 7.57 7.57 0 0 0 7.07 5.26 15.2 15.2 0 0 1-9.4 3.24A15.44 15.44 0 0 1 0 26.6 21.41 21.41 0 0 0 11.61 30" fill="#fff" data-name="レイヤー 2"/></svg>