<svg xmlns="http://www.w3.org/2000/svg" viewBox="0 0 135 50"><path d="M96.59 26.16a5 5 0 0 1-.74-4 15.2 15.2 0 0 0-4.18-6.48l-3.14-2.21a14.69 14.69 0 0 0-7.63-1.67h-1.29a11.28 11.28 0 0 0-4.55 1c2 2.65 2.11 4.55 1.89 5.8-.39 2.15-1.94 2.61-2.64 5.56-.54 2.28.06 3.36-.73 4-1.06.84-2.77-.57-5.23-1.25-5-1.37-6.83 1.93-12 1.31-3.63-.42-8.12-2.65-8.6-5.68-.21-1.25.77-3.07 2.72-6.7a12.23 12.23 0 0 1 2.44-3.64c1.13-1 2.56-1.49 5.44-2.29 4-1.1 4.46-1.1 5-.91 2.15.71 3.14 3.13 3.85 4.89.18.44 1 2.43.45 2.83s-1.54-1.19-3.3-1.17-2.66 1.49-3 1.17.22-1.8 1.15-2.19a2.71 2.71 0 0 1 .7-.19 2.53 2.53 0 0 0 1.22-.15 1.88 1.88 0 0 0 .28-.24 1.44 1.44 0 0 0 0-1.36c-.26-.72-1.88-1.58-3.23-1.55-2.08.05-4.11 2.25-5.1 5.46a5.14 5.14 0 0 0-3.5 3 5.07 5.07 0 0 0 1.72 5.24c2 1.65 5.21.89 11.64-.64 3.22-.76 3.77-1.14 4.11-1.47 2.36-2.27 2.43-6.26 2.35-9.3 0-1.33-.15-2.66-.29-4a16 16 0 0 0-12.15-5.39 12.31 12.31 0 0 0-5 1.09A17.71 17.71 0 0 0 43.48 0a17.38 17.38 0 0 0-10.11 3.07A12.39 12.39 0 0 0 24.91.3c-4.81.35-9.12 3.83-11 8.88-.93 0-8.46.33-12 6.12C-1 19.94.1 25.74 1 26.44a7.81 7.81 0 0 0 1.3.81 8.23 8.23 0 0 0 .77.31 13.45 13.45 0 0 1 2.25-3.77c3.81-4.53 7.78-2.86 12.68-7.32 2.34-2.11 3.17-4 5.21-4 1.53 0 1.81 1.12 3.82 1.83 3.21 1.14 4.72-.88 8.18-.44 2.75.36 6.38 2.24 6.88 4.81.65 3.36-4.58 5.16-4.24 9.21.3 3.61 4.64 4.55 4.24 7-.36 2.11-3.76 1.89-10.9 5.53-4.44 2.27-5.13 3.38-7.31 3.21-3.8-.31-6.29-4.07-7.28-5.56-.66-1-3.67-5.54-2-8.42.59-1 1.19-.83 4-2.63 3.93-2.49 4-3.7 5.87-3.93a6.27 6.27 0 0 1 6 3.5c1.3 2.73.09 6.06-.55 6.08s-.3-2.27-2-3.9a5.63 5.63 0 0 0-5.54-1.17c-3.42 1.18-3.87 5.48-3.92 6S18.15 37 20.11 39c2.88 2.83 8.12.84 10.84-.18 2.4-.91 4.79-1.81 5.58-4s-.88-3-1.06-6.56c-.24-4.69 2.37-7.38 1.06-8.73-.31-.31-.49-.22-3.47-.52a27.1 27.1 0 0 1-4.89-.72c-2.21-.67-2.31-1.43-3.69-1.82-2.13-.61-3.85.68-8.51 3.6-7.68 4.8-8.45 4.44-9.46 6.34C5.26 28.77 4 32 4.14 34.91q.35.44.72.84a15.09 15.09 0 0 0 .44 2.82 1.05 1.05 0 0 1 .2.71c.25.5 5.18 10.09 15 10.69a17.26 17.26 0 0 0 10.83-3.21 6 6 0 0 1 6-2.78c.39-.14.76-.31 1.13-.47a15.07 15.07 0 0 0 2.22 2.58l3.14 2.21A14.62 14.62 0 0 0 51.5 50h1.29a11.11 11.11 0 0 0 5.67-1.61A11.16 11.16 0 0 0 63.1 45a11.72 11.72 0 0 0 1.51-2 17 17 0 0 0 3.66.42 12.78 12.78 0 0 0 7-2.2 14.59 14.59 0 0 0 5.85.89h1.29a11.15 11.15 0 0 0 5.68-1.62 13.22 13.22 0 0 1 2.13-1.11c2.6-1 4.28-.69 6.89-1.06a48.51 48.51 0 0 0 5.59-1.75c1.82-.62 4.32-1.5 7.31-2.62a17 17 0 0 1 6.45-3.5 17.86 17.86 0 0 1 7.31-.44c6.66.93 11.27 5.1 11.18 5.25s-9.54-10.42-22.36-10c-7.23.15-13.54 3.83-16 .9z" fill="#4c989f"/></svg>