<svg xmlns="http://www.w3.org/2000/svg" viewBox="0 0 1500 15.19"><defs><style>.cls-1{fill:#b64e30;}</style></defs><title>アセット 19</title><g id="レイヤー_2" data-name="レイヤー 2"><g id="back"><path class="cls-1" d="M0,0V13.62c14.6,2.28,26.13-5,53.33-5C90,8.64,90,12.25,126.66,12.25S163.33,7.18,200,7.18s36.67-.42,73.33-.42,36.67,3.1,73.34,3.1,36.66-.8,73.33-.8,36.67,2,73.33,2S530,8.4,566.65,8.4,603.32,12,640,12s36.67.73,73.33.73S750,6.41,786.64,6.41s36.67,3.4,73.33,3.4,36.67-2,73.34-2,36.67,4.68,73.33,4.68,36.67-3.79,73.34-3.79,36.66-3.26,73.33-3.26,36.67,3.65,73.33,3.65S1263.31,9,1300,9s36.67-3.92,73.34-3.92,36.67,7.49,73.34,7.49c27.61,0,38.63,5,53.34,1.21V0Z"/></g></g></svg>