<svg xmlns="http://www.w3.org/2000/svg" viewBox="0 0 1500 13.72"><defs><style>.cls-1{fill:#b64e30;}</style></defs><title>アセット 18</title><g id="レイヤー_2" data-name="レイヤー 2"><g id="back"><path class="cls-1" d="M1500,13.72V.9c-14.54-3-26.44,2.36-53.33,2.36-36.67,0-36.67,5-73.33,5s-36.67.08-73.33.08-36.67-3.18-73.33-3.18-36.67-.58-73.34-.58S1116.68,7.92,1080,7.92,1043.34,11,1006.68,11,970,6.91,933.35,6.91,896.68,8.61,860,8.61s-36.67-5.45-73.33-5.45S750,11.07,713.36,11.07,676.69,9.91,640,9.91s-36.67-.1-73.34-.1S530,9.22,493.36,9.22,456.69,6.05,420,6.05s-36.66,2.08-73.33,2.08S310,6.53,273.36,6.53,236.69,9.42,200,9.42s-36.67-3-73.34-3S90,8.87,53.34,8.87C26.81,8.87,14.49.53,0,1.51V13.72Z"/></g></g></svg>