<svg xmlns="http://www.w3.org/2000/svg" viewBox="0 0 636.83 656.32"><defs><style>.cls-1{fill:#fff;}</style></defs><title>アセット 17</title><g id="レイヤー_2" data-name="レイヤー 2"><g id="装飾"><path class="cls-1" d="M636.32,118c-.6-1.74-1.69-4.25-20.3-10.7a206.37,206.37,0,0,0-25.65-7.24c-10.59-2-23.8-5.67-46.86-5.1-17.48.44-36.63-.77-74.91-3.41a45.08,45.08,0,0,1-18.86-5.41c-2.8-1.6-11.86-7-11.91-13.49-.08-9.25,19.5-15.46,24.11-16.94,16.52-5.31,23.63-1.55,46.52-6.32,9.31-1.94,21-4.36,21.05-7.89.12-4.84-21.57-9-35.66-11.78a506.28,506.28,0,0,0-65.31-6.83c-13.69-.44-27.42-.06-41.1-.9-11.57-.72-25.51-1.78-35.11-7.73-.95-.59-2.77-1.5-2.85-2.86-.13-2.35,4.8-4.29,6.89-5.12,9.24-3.64,21.5-3.43,30.74-2.52,19.43,1.46,23.42,3,23.46,4.1.07,1.74-9.25,3.2-12.76,3.75-13.78,2.17-29.05,1.64-29.35-.34-.14-.89,2.77-2.16,5.21-2.5a14,14,0,0,1,5.21.45c5.94,1.16,12.26-.93,12.25-1.53s-30-2.76-31.5,2.18a2.28,2.28,0,0,0,.59,1.86c2.72,3.9,10.29,4.37,21.13,4.55,14.95.25,22.43.38,30.18-.45,9.33-1,27.7-3,28-6.84.2-2.66-8.2-5.52-13.17-6.6a51.27,51.27,0,0,0-10.15-.91c-10.41-.35-7.37-.68-19.48-1.14C347-1.54,309.05,4.52,298.21,11.62c-1.15.76-4.27,2.8-4.11,5.35.17,2.77,4.16,4.85,8,6.38,12,4.83,24.91,5.22,32.37,5.24,15.92,0,19.43-1.62,38.1-1.3,3.18.05,1.57.06,11.7.39,18.11.58,27.3.87,34,.75,9.28-.15,18.58-.63,27.86-.28,7.36.27,14.68.85,22.93,1.77,5.51.61,12.18,2.26,13.25,6.79,1,4.22-3.82,7.85-8.6,9.48-5.37,1.84-9.66,3.28-14.2,4.71-13.19,4.16-11.34,4.59-28.21,8.2-14.3,3.06-19.77,2.11-34,6.22a57.28,57.28,0,0,0-11.79,4.75c-5.95,3.23-15.69,8.25-5.9,13.93,13.75,8,31.24,9.2,31.24,9.2C433,94.62,452,95.28,455.56,95.4c13.43.47,10.6.56,25.21,1.1,21.57.8,37.76,1,60.68,2.91,0,0,28.53,2.4,36.32,13.62a19.08,19.08,0,0,1,2.39,4.78c-.1.58-.21,1.09-.31,1.5-2.76,11.54-13.83,17.5-16.87,19.13-2.55,1.36-7.18,3.5-23.46,5.81A288.52,288.52,0,0,1,505.36,147c-2.55-.19-33-2.63-34.16-10.59-.79-5.57,13.17-11.14,14.4-11.62,7.76-3,16.15-2.46,32.93-1.36a36.26,36.26,0,0,1,10.29,2.39c2.48,1,6.58,2.59,6.58,4.78,0,.58-.29,1.59-3.29,3.42a32.35,32.35,0,0,1-11.81,4.15c-6.87.94-19.87,1.28-21.53-2.78-1.83-4.48,7.71-5,10.93-5.68a28.09,28.09,0,0,0-15.55-.59c-4.7,1.26-11.48,4.56-11,7.63.57,3.75,11.69,5.31,15.23,5.81,9.14,1.28,12.45-.39,26.75-1.71,17.57-1.62,19.89-1.31,32.19-5.06,5.87-1.78,11.33-3.44,11.32-5.69,0-3.6-14.06-6.32-22-7.86a198.67,198.67,0,0,0-33.84-3.6,224.88,224.88,0,0,0-54.45,5.5c-14.18,3.39-30.86,7.38-30.79,12.56.06,4.67,13.63,8.15,23.6,10.71,13.3,3.41,23.86,4,37.77,4.71a303.73,303.73,0,0,0,34.58-.34c15-1.09,13.72-2.16,52.68-8.2,12.41-1.92,24.51-5.09,36.85-7.33,11.53-2.1,18.29-2.66,21.79-8.23C635.07,127.55,638,122.77,636.32,118ZM416.19,3.73c4.76.17,5.17,0,7.73.26s5.6.59,7.66,2c7,4.93-17.47,7.26-20.55,7.52a36.69,36.69,0,0,0,11.2-2.72c.78-.33,2.11-.92,2.2-1.83,0-.44-.22-1-1.37-1.82-1.86-1.33-4-1.9-8.08-2.68a51.66,51.66,0,0,1-5.09-1C409.91,3.4,412.17,3.59,416.19,3.73ZM324,24.94c-5.29-.16-9.95-.31-14.55-2.73-2.24-1.18-5.48-2.89-5.71-5.59-.28-3.41,4.46-6,5.35-6.51,1.47-.81,3.64-1.29,7.92-2.22,1.93-.42,6.54-2.17,8.48-1.27-3.55,1.83-9.25,2.66-11.16,6-1.63,2.83-.22,6.07,3,7.63,4.21,2.05,9,2.68,13.49,4.15C329.31,25.42,326,25,324,24.94ZM355,24c-9.07-.2-13.61-.3-14.54-.45-1.34-.23-14.13-2.37-15.37-8.43-.72-3.56,2.92-6.72,3.57-7.28,3.1-2.69,7.15-3.24,15.26-4.34,5-.68,8-.69,8.06-.45.09.47-11.31.47-14.54,5.7a6.49,6.49,0,0,0-.27,6.14c3.77,7.81,24,8,23.87,8.89C361,24.15,358.07,24.1,355,24Zm146.23,8.66c4.71,1.07,16.72,3.79,16.55,6.15-.1,1.47-4.85,2.22-11.38,3.25-9.88,1.57-16.07,1.21-16.07,1.17a29.54,29.54,0,0,0,12-2.63c3.83-1.79,3.83-3,3.8-3.22-.07-.72-.92-1.16-2.63-2-2-1.06-3.34-1.29-6.08-2.57-1.65-.77-1.66-.91-1.65-.95C495.87,31.48,500.34,32.49,501.24,32.69Zm-16,8.14c1-1,3.08-2.9,2.68-5.12a4.88,4.88,0,0,0-1.65-2.57,12.73,12.73,0,0,0-6.58-3.24s17.91,2.55,17.93,6.64c0,.67-.49,1.13-1.47,2-2.56,2.41-4.8,2.07-11.07,4-2,.61-3.85,1.3-3.95,1.12S483.22,42.76,485.27,40.83Zm-67.36,48a107.44,107.44,0,0,1-11.28-2.27c-1.83-.54-16.93-5-16.93-10.64s15-10.28,19.31-11.61a62.4,62.4,0,0,1,7-1.72,31.7,31.7,0,0,0-5.76,3c-2.36,1.54-5.37,3.51-6.31,6.54a7.41,7.41,0,0,0,.27,4.67c3,8.82,19.31,11.63,19,12.57C423.09,89.7,421,89.41,417.91,88.87Zm5.61-4c-4.63-2.8-7-5.44-7.68-8.65-2.56-11.45,23.56-17.33,23.91-15.67.1.48-3.25.62-7.53,3.3-1.08.67-9.78,6.25-9,12.1.53,4.07,5.75,5.71,12.63,9.78,5.68,3.37,12.18,5,18.65,6.17C444.1,90.6,432.66,90.41,423.52,84.88ZM552.36,132a3.31,3.31,0,0,0,.46-2.37c-.51-2.13-3.59-3-3.34-3.44s2.43.16,3.45.4a10.51,10.51,0,0,1,2.93,1c.29.16,2.34,1.31,2.47,2.56.29,2.77-9.72,5.22-9.88,4.95S551.17,134.19,552.36,132Zm-16.46-7.17c.29-.46,3.68.61,4.36.83,3.69,1.16,5.56,1.7,6.18,2.91,2.39,4.62-6.12,8-10.21,8.77-.46.08-1.1,0-1.17-.33.89-.65,1.86-1.23,2.69-1.94,1.13-.95,2.77-2.35,2.77-4.11,0-1.17-.72-2-1.58-3.14C537.41,125.84,535.68,125.12,535.9,124.79Zm-82.41,18c-4.11-1.08-5.28-1.08-7-2-.47-.24-4.62-2.43-4.66-5-.08-5,15.45-9.05,15.71-8.64.07.11-1,.54-2.86,2.1a10.76,10.76,0,0,0-2.35,2.4,6,6,0,0,0-.62,4.37c.77,4.74,6.55,8,7.4,8.43C457.84,144,455.91,143.41,453.49,142.77Zm20.72,4.32c-4.81-1.21-7.29-1.83-9.6-3.64-3-2.33-5-6.09-4.55-9.56.72-5.83,8.35-11.22,18.54-11.39a35.58,35.58,0,0,0-8.53,5c-3,2.39-3.66,3.88-4,5a6.39,6.39,0,0,0-.14,3.15c.34,1.79,1.35,3.89,4.25,6.33,5.58,4.69,12.19,5.74,12,6.25S478.05,148.06,474.21,147.09ZM588.34,134c-4.84,2-13.18,4.35-13.18,4.35,5.88-1.82,11.69-7.91,14.35-12.41,3.08-5.19,3.14-11-1.47-15.64a75.78,75.78,0,0,0-12.24-7,65,65,0,0,1,17.92,6.34c4.08,2.15,10.14,4.76,11,9.17C605.93,125.29,593.9,131.71,588.34,134Zm32.34-9.4c-7.34,3.71-16.63,6.75-17,6s9.56-2.89,11.26-8.95a8.38,8.38,0,0,0-.82-5.92c-2.06-4-6.44-5.59-7.37-5.9,2.2.67,4,1.32,5.17,1.8a38.54,38.54,0,0,1,10.7,6.15c1.81,1.53,2.21,2.24,2.2,3C624.77,122.46,622.44,123.73,620.68,124.61Z"/><path class="cls-1" d="M554.23,281.29a56.78,56.78,0,0,0-13.14-6.6,102.25,102.25,0,0,0-23.46-4.93,211.06,211.06,0,0,0-36.08-.56c-11.49.76-23.57,1.82-34.73,4.7-4.56,1.18-10.8,5-8.57,10.38,1.07,2.58,4,3.92,6.74,4.75a57.78,57.78,0,0,0,14.8,2.52c11.51-.54,49.93-1.24,58-4.25,1.9-.7,7.64-2.36,7.88-4.86.2-2.05-3.63-3.45-5.1-4.18a39,39,0,0,0-10.84-3.54,70,70,0,0,0-8.89-.68c-11.39-.13-24,2.55-24,5,0,.75,1.25,1.26,3.72,2.27a35.19,35.19,0,0,0,13.49,2.57c6.09,0,15.74-1,15.86-2.83.06-1-2.49-2.22-4.75-2.28-2-.05-3,.84-4.74,1.46-4.65,1.65-10.44-.18-10.53-1.39s6.14-3.35,12.14-3.35c6.48,0,13.56,2.44,13.66,4.82.18,4.36-7.59,5.17-10.68,5.55a90.49,90.49,0,0,1-19.81,0c-4.59-.43-6.93-.66-9-1.39s-7.72-2.69-7.8-5.69c-.06-2.62,4.27-4.9,6.6-5.72.6-.21,3.85-1.73,10.71-2.09,0,0,27.31-2.3,47.66,11.05,2.22,1.46,3.77,3,3.6,4.55-.2,1.82-2.12,2.94-3.84,3.71-10.17,4.47-21.26,6.48-32.31,7.53-5.59.53-11.19.83-16.8,1.07-4.83.22-9.67,1.16-14.56,1.4-1.68.08-3.35.13-5,.16-3.18.05-4.12,0-11.59.09-6.36.09-11.45.21-13.05.25-1.29,0-16.33.46-27.66,2-18.45,2.55-41.9,10.17-41.43,16.23,0,.62.39,1.75,4.59,4.13,10.45,5.91,21.05,6.19,24.9,6.25,30.93.47,33.25.48,38,.94,10.31,1,26.57,2.62,28.12,9.36a6,6,0,0,1-.47,3.68c-3.15,7.58-17.25,8.36-22.69,8.61-41,1.85-63.55,1.1-63.55,1.1-1.3-.11-29-2.41-40.4,5-1.21.78-4.63,3-4.53,5.81.11,3.12,4.29,5.72,6.27,6.19,20.12,4.88,41.93,1,61.59,7.37,2.6.85,5.42,2.15,6.29,4.66,1.25,3.62-4.85,7.84-6.65,9.13a36.88,36.88,0,0,1-16.82,6.29,425.67,425.67,0,0,1-47.94,4.42s-13.45.66-21.2-4.65c-2.35-1.61-2.64-2.93-2.67-3.57-.07-1.32.79-3,4.61-5.37A40.11,40.11,0,0,1,334.44,383c8.46-1.12,18-2.38,25.89,3A20.52,20.52,0,0,1,362.7,388a2.44,2.44,0,0,1,.6,2.1c-.17.57-1,2-13.25,3.05-2.39.2-4,.34-6.32.39-5.26.11-11.91.25-12.55-1.81-.31-1,.85-2.15,1.28-2.59,1.27-1.28,3-1.5,4.55-1.72a12.51,12.51,0,0,1,3.16,0c1.51.19,3.13.4,3.56,1.34s-.89,1.9-.56,2.59c.83,1.81,11.86.06,12-2.4.1-1.61-4.5-3.07-5.32-3.33-3-.94-6.38-.61-13.06.08a25.27,25.27,0,0,0-8.3,1.91c-1.47.66-4,1.78-3.95,3.25,0,1.12,1.5,1.95,3,2.77a20,20,0,0,0,6.48,2.2c9.31,1.11,22.3.44,23.33.38a93.32,93.32,0,0,0,13.44-1.53c6.63-1.28,8.87-2.52,9.29-4.2a3.6,3.6,0,0,0-.8-2.87c-3.18-4.87-10.86-6-13-6.3a195.22,195.22,0,0,0-34.35-1.34c-12.23.55-25.79,1.55-36.65,7.8-2,1.17-7.38,4.31-6.87,7.29.08.5.42,1.5,3.48,3.41a29,29,0,0,0,9.29,3.84c12.15,2.2,24.61,2.15,37,2.09,27.79-.13,55.6-.27,83.33-2.09,8.13-.54,16.69-1.38,23.43-5.7.34-.22.68-.45,1-.69,4-2.85,7.12-7.72,5.63-12.28s-7-6.82-11.81-8.18a184.71,184.71,0,0,0-53.3-6.8c-4.6.08-9.08-.09-13.67-.09-2.09,0-4.32-.18-6-1.34-4.4-3-.52-6.57,3-7.7,8.94-2.88,17.83-2.05,27.05-1.47,9.82.61,19.67.8,29.51.79,17.75,0,14.91-.83,44.44-1.43,17.93-.36,30.54-.14,39.89-8,2.21-1.86,3.55-3.59,3.53-5.55-.08-7.75-21.33-13.55-26.49-15A61.77,61.77,0,0,0,477,326.61c-11-1.28-18.16-1.32-18.16-1.32-20.51-.11-26.41,1.95-37.46-1.54-3.42-1.08-8.49-3.07-9.21-6.84a6.14,6.14,0,0,1,.62-3.78c3.43-7.28,20.42-8.41,25.78-8.71,20.39-1.18,40.9-1.32,61.2-3.45,3.73-.39,7.46-.76,11.2-1,8.2-.5,16.5-.31,24.62-1.79,7.06-1.29,14.67-3,20.16-7.78a6.05,6.05,0,0,0,2.23-3.3C558.39,284.73,556.26,282.69,554.23,281.29ZM450.83,287c-.88-.21-8.62-2.11-8.85-5.35s7.39-6.45,11.53-7.31a15,15,0,0,1,2.89-.4c.08.15-1.79.6-3.68,1.6-1.59.84-5.06,2.69-5.18,5.17-.13,2.81,4.07,5.19,6.47,6.05,1.74.61,3.21.67,3.2.79S454,287.79,450.83,287Zm17.26-14c-2.19,1-5,3.18-5.29,5.13-.36,3,5.12,7,14,8.94a33.18,33.18,0,0,1-13.13.37c-2.67-.47-5.43-1.36-7.17-3.38-3.83-4.45.9-8.66,5.08-10.28a31.33,31.33,0,0,1,10.38-1.88A13,13,0,0,0,468.09,273ZM365.84,383.08c3.15.85,4.73,1.27,6.15,2.38.7.55,3,2.32,2.57,4-.23,1-1.27,1.49-3.36,2.49a21.55,21.55,0,0,1-5.72,1.78,16.47,16.47,0,0,1-4.36.32,12.06,12.06,0,0,0,4.77-1.1c.57-.28,3.34-1.65,3.39-3.7a3.14,3.14,0,0,0-.71-1.86c-2.17-3.29-5.82-4.44-5.67-4.8S365,382.85,365.84,383.08Zm-57.49,18.43c-.07.27-5.28-.34-9.19-2.54-.69-.39-1.42-.88-2.87-1.85-2.27-1.53-2.5-1.83-2.64-2.16-.74-1.72,1.05-3.93,1.55-4.54,1.37-1.68,3-2.41,6.08-3.78,2-.88,4.78-1.93,4.94-1.62s-.79.66-2.61,2.16-2.7,2.23-3.17,3.25a5.83,5.83,0,0,0-.39,3.25,8.27,8.27,0,0,0,2.37,4.77C305,401.1,308.41,401.29,308.35,401.51Zm5.53-.56a9.2,9.2,0,0,1-5.66-2.5c-6.2-6.05.38-13.56,7.17-15.05,1.83-.4,3.76-.34,3.83,0s-1.85.73-4.76,2.45c-1.73,1-1,.83-3.54,2.52-1.18.77-2.55,3.54-1.86,6.17a7.71,7.71,0,0,0,3.05,3.95,32.68,32.68,0,0,0,3.59,2.21A4.58,4.58,0,0,1,313.88,401ZM430.1,375.34a36.79,36.79,0,0,1,6,2.28A47.2,47.2,0,0,1,441,380c2.47,1.6,5.08,4.06,4.23,7.21-.8,3-3.83,5.24-6.31,6.91a29.26,29.26,0,0,1-9.78,3.92,31.64,31.64,0,0,1-9.32,1.39l-4.94-.19c1.71-.39,4.17-1,7.12-1.72a44,44,0,0,0,7.51-2.29,15.56,15.56,0,0,0,7.11-6.31c1.24-2.29,1.25-3.54,1.19-4a6.13,6.13,0,0,0-2.18-3.63c-4.78-4.49-10.63-6-10.47-6.5C425.26,374.42,427.86,374.77,430.1,375.34Zm-31.82-2.87c0-.07.23-.32,4.73.16,7.42.79,11.13,1.18,15.27,2.73s10.49,3.93,10.83,7.81c.29,3.29-3.89,6-7.78,8.58-6.06,4-12.15,5.26-20,6.9a46,46,0,0,1-5.27.75c-2.23.19-5.45.3-5.49,0s4.24-.67,9.88-2.49c3.34-1.07,6.14-2,9.09-4,1-.69,8.82-6.09,7.51-11.27-.52-2.07-2.3-3.32-3.55-4.2-2.31-1.62-3.91-1.47-10.87-3.44C398.32,372.78,398.27,372.53,398.28,372.47Zm-50.45-3.4c-4.4-.83-5.23-1.61-5.57-2a4.94,4.94,0,0,1-1.2-3.88c.5-3,5.25-5.56,11.86-5.73a10.24,10.24,0,0,0-4.15,2.58c-1,1.05-2.46,2.51-2.2,4.21s1.92,2.66,3.48,3.62c2,1.26,3.61,1.49,3.56,1.72S350.31,369.53,347.83,369.07Zm14.77-11.61c-2.1,1-4.71,3.31-4.64,6,.07,3.05,3.51,6.21,8.3,6.31-.4.1-6.61,1.56-10.23-2.15-.46-.48-2.48-2.4-2.08-5a7.41,7.41,0,0,1,3.52-4.85c3.66-2.42,7.9-1.43,8.79-1.21A9.08,9.08,0,0,0,362.6,357.46Zm138.61-20.27c3.77,2,7,3.75,7,6.08,0,3.9-9.05,6.47-10.64,6.92-6.25,1.78-12.13,1.25-12.26.44-.1-.66,3.53-1.19,8.09-4.62,2.7-2,3.08-3.1,3.14-3.84.16-1.8-1.4-3.29-3-4.76-3.49-3.23-6.67-4-6.55-4.37C487.15,332.49,494.15,333.37,501.21,337.19Zm-33.72-6.55c.29-.94,9.06-.25,16,4.52,3.68,2.52,3.9,4.15,3.93,4.64.16,2.52-2.57,4.49-4.48,5.87-5.91,4.27-13.18,4.79-13.42,4.06-.14-.41,2.11-.9,5.12-3.45,2.25-1.91,5.07-4.3,4.72-6.71-.24-1.57-2.9-3.25-8.23-6.53C468,331.12,467.41,330.9,467.49,330.64Zm-79.93-7.3c-3.38-1.17-7.27-2.54-7.72-5.18-.48-2.83,4.18-6.08,4.42-6.24a17.26,17.26,0,0,1,4.56-2c2.22-.77,5.91-1.84,6.14-1.34.32.7-6.79,2.52-7.6,6.94a6.61,6.61,0,0,0,.31,3.42c1.2,3.31,5.09,5.56,9.82,6A29.19,29.19,0,0,1,387.56,323.34Zm24.25-16.07-.37.19c-3.8,1.94-9.23,4.66-8.24,9.08.85,3.79,5.54,6.66,9.33,8.19a31.32,31.32,0,0,0,4.5.89c-1.32,0-3.62,0-7-.24-5.77-.44-14.49-1.73-15.74-7.84-.84-4.13,2.29-7.07,6.31-8.83a31.07,31.07,0,0,1,7.12-2.08c1.05-.19,2.12-.29,3.18-.43.61-.09,3,0,3.32-.19Zm131.81-14a29.06,29.06,0,0,1-10.55,2,21.07,21.07,0,0,0,6.7-3.32,6.11,6.11,0,0,0,2-2c1.41-2.64-.59-6.09-1.15-7.06-4.56-7.88-18.33-9.23-18.19-9.82s8.43.13,18.58,4.21c5.93,2.38,12.26,4.92,12.25,8.4C553.22,289.42,546.1,292.26,543.62,293.25Z"/><path class="cls-1" d="M264.64,182.54c-16.59,4.11-50.91,10.18-87.46,5.94a131,131,0,0,0-26.06-.15c-6.42.59-25,2.29-26.75,8.29-.77,2.72,2.21,5.29,3.95,6.79,8.73,7.52,25.61,6.9,30.73,6.71,1.63-.06,4.77-.23,9.23,0,2.62.11,5.52.41,10.36,1.07,4.39.59,16,2.18,20,8.81a9.86,9.86,0,0,1,.38,9.76c-1.95,3.47-7.76,8.12-43,10.91-29.75,2.36-44.08,1.93-63,8.41-4.44,1.52-9.28,4-10.23,8.33-1.83,8.27,10.75,11.82,19.8,11.72,26.26-.3,38.81-.28,68.53-.78,27.69-.46,67.87,4.83,73.69,19.81,2.94,7.56-3.78,15.25-4.08,15.59-2.72,3-8.34,7.31-31.75,10.5-10.41,1.41-15.78,1.45-48.17,1.87-24.06.32-33.73.46-44.39-4.44-3.86-1.78-10.38-4.86-11.11-9.86-1.23-8.46,15.16-15.68,16-16,5.57-2.39,19-2.05,45.6-1.26,4.83.14,11.53.4,16.91,4,1.57,1,6.15,4.07,5.69,8.52-.36,3.39-3.44,5.66-4.45,6.35a32.92,32.92,0,0,1-8.59,2.9c-11.07,2.11-23.54-1.31-23.62-4.22,0-1.34,2.57-2.43,4.57-3.27,7.73-3.23,14.9-1.14,15.32-2.14.61-1.42-12.7-9.06-27.06-6.66-2.31.39-12,2-13.79,7.23-.8,2.43.44,4.69,1.36,6a103.42,103.42,0,0,0,14.43,3.7,118.32,118.32,0,0,0,20.84,1.76c10.77.17,16.15.25,22.07-1.79C194.08,305.62,201.8,303,203,298c1.58-6.4-8.68-12.16-11-13.48a31.88,31.88,0,0,0-11.61-4.2c-47.78-6.61-96.49,7-144.69,3.78-8.89-.6-18.08-1.88-25.44-6.54S-2,264,.81,256.11c1.53-4.24,5-7.63,8.82-10.36,35.16-25.32,90.27-1.06,128.56-22.05,2.5-6.59-8.42-9.89-15.87-9.12-23.76,2.46-49.83,7.46-70-4.39-2.51-1.47-4.93-3.27-6.21-5.76-4.3-8.37,6.33-16.69,15.71-19.89,58.86-20.07,126.26,6.22,186.05-11.25,3.08-.9,6.36-2.08,8.06-4.64,3.62-5.48-7.65-13.66-8.95-14.58l-.1-.08c-12.74-9-79.68-9-82.5,3.52-.85,3.77,4.47,7.24,6,8.25,1.89,1.24,7.24,4.23,33.92,2.28,12.26-.89,18.4-1.38,19-3.31.7-2.4-6.86-6.14-14-6.91-4.85-.53-11.34.11-12,2-.39,1.17,1.55,2.55,3.15,3.48-8.13,4.44-17.06,4.61-21.39,1.34-2-1.55-3.81-4.44-2.61-6.84,1.88-3.77,10.12-4.44,17.89-5.07,6.54-.53,6,.19,28.88,1.71,4.79.31,9.72.61,14.53,3.22,2.19,1.19,5.71,3.11,5.49,5.38-.44,4.6-15.82,7.7-24.29,8.67-.24,0-4.76.24-13.79.66-11.44.54-14.8.68-19.07.75,0,0-6.38.1-12.48,0-14.06-.29-51-3.71-52.33-12.62-.35-2.31,1.8-4.24,4.43-6.61,7.54-6.78,18.69-8.27,23.78-8.9,35.89-4.42,71.5-3.25,87-2.61a118.36,118.36,0,0,1,32.83,5.35,98.18,98.18,0,0,1,9.19,3.48c2.77,1.29,18.86,8.79,18.66,15.42C297,174.69,277.52,179.35,264.64,182.54ZM122.11,304.22c-.89-2.21-.37-5.4-.24-6.16a10.18,10.18,0,0,1,1.88-5.14c3-3.78,9.31-4.31,9.22-4.56s-11.91-.9-17.09,5.43c-3.33,4.07-2.46,9.19.2,12.55,6.11,7.75,21.61,6.17,21.83,5.49S124.51,310.21,122.11,304.22ZM226.17,308c6.82-2,12.53-6.3,12.41-12.12-.12-6.35-7.41-12.42-18.19-15.57,1,.72,12.11,9,10.68,17.26a14.43,14.43,0,0,1-1.75,4.57,19.23,19.23,0,0,1-8.5,6.89A28.47,28.47,0,0,0,226.17,308Zm-20.64-23.07c1.45,1.18,8.33,6.82,6.79,13.51-.92,4-4.49,6.82-6.48,8.39-4,3.12-7.49,3.95-7.33,4.23.33.56,17-1,21.92-9.48,3.08-5.27.59-11.46-2.85-15.23-3.91-4.29-9.37-5.82-11.4-6.36-4-1.09-9-1.47-9.43-.63S201.07,281.24,205.53,284.89ZM25.63,244.16c-1.59.72-15.59,6.94-14.78,17.7.5,6.52,5.66,11.8,12.86,14.92,1.94.85,21.63,6.15,22.52,3.44.18-.54-3.71-1.23-8.85-3.44-4.33-1.86-8.87-3.81-11.86-7.64a14.57,14.57,0,0,1-2.91-10.3,16.38,16.38,0,0,1,4.6-11c4.25-4.4,10-5.73,9.73-6.29S30.91,241.77,25.63,244.16Zm30-2.81c-5.37.91-9.25,3.3-13.36,5.89a29.29,29.29,0,0,0-4.72,3.3c-.9.87-7,6.93-5,13.7,2.7,9.11,17.81,11.89,22,12.65s9.78,1.76,13.81.19c-3.51-1-7.4-1.21-10.88-2.68C51.59,272,46.9,266.72,46,260.59c-.87-5.9,1.77-13.18,8.2-16.48,4.16-2.14,9.14-2.21,9-2.71S59.45,240.7,55.6,241.35Zm13,3.08c-1.74,1-7.87,4.47-9.7,10.79s1.27,13.41,7.53,16.75c2.31,1.23,4.71,1.67,9.53,2.54,8.08,1.45,15.07,1.25,15.12.95s-3.24-.17-7.41-1.53c-1.6-.53-5.5-1.44-7.93-4.22a15.92,15.92,0,0,1-4.24-12.27,13.36,13.36,0,0,1,2.16-6.34c3.36-5.06,9.61-7.31,12.13-8.22,4.08-1.48,6.5-1.51,6.46-1.8C92.16,240.41,78.88,238.74,68.62,244.43Zm100.21-12.37c.5,1.08,2.54,1.65,4.22,1.66,5.08,0,10.38-2,12.64-5.56,2.74-4.31-.78-8.13-5.63-10.25-1.89-.82-4.13-1.51-6.23-1-5,1.24.22,9.27-3.49,12.49-.67.58-1.48,1.16-1.6,1.92A1.16,1.16,0,0,0,168.83,232.06Zm-26.29.5a5.24,5.24,0,0,0,3.06,1.07c7.4.82,16.74-3,19-8.74,3.25-8.29-9.65-10.87-17.8-10.63-1.06,0-2.41.27-2.61,1.07a1,1,0,0,0,.34.92,6.8,6.8,0,0,0,1,.8,6.55,6.55,0,0,1,3,6.34C148.19,225.86,140.51,230.53,142.54,232.56ZM81.89,211.14c-1.34-.62-3.25-1.55-4.27-2.15-1.87-1.1-5.51-4.07-5.84-8-.31-3.59,2.27-6.36,4-8.25,4.29-4.6,9.78-6.31,9.27-7.18-.38-.65-3.6-.07-4.87.15A41.36,41.36,0,0,0,66.83,191c-3.26,1.92-6.61,4.39-7.73,7.52-1.89,5.3,3,8.62,8.54,10.75,9.2,3.51,18.39,4.35,18.6,3.81C86.31,212.87,85.13,212.63,81.89,211.14Zm27.17-24.73c4.27-2.09,8.7-2.41,8.6-2.9s-4-.47-7-.11C98,184.88,83.68,194.76,86,202.23c.94,3.05,4.41,4.86,6.65,6,6.33,3.33,13.9,3,18.21,2.89,2.63-.09,3.67-.42,8.52-.58a10.51,10.51,0,0,0,2.9-.3c0-.41-11.36,1-18.14-3.74-.58-.41-3.92-2.81-4.61-6.64C98.5,194.16,104.08,188.87,109.06,186.41ZM160.53,148c-.13-.14-.41-.12-.63-.09-11.91,1.64-13.41,1.77-13.41,1.77-7,1.93-10.47,2.92-12.4,4.13-2.08,1.33-4.75,3-4.81,5.34-.08,2.88,3.94,4.93,5.92,5.94,1.38.7,3.62,1.64,14.48,3.16,6.52.91,9.18,1,9.23.86.1-.35-9-.41-14-5.17-.45-.43-4.77-4.49-3-7.6,2.6-4.49,17.9-6.82,18.54-7.82C160.68,148.14,160.53,148,160.53,148Zm9,20.89c.09-.25-3.43-.47-6.8-2.56a11.1,11.1,0,0,1-4.51-4.88c-.26-.62-1.49-3.52-.11-6,3-5.39,16.18-5.58,16-6.51-.09-.51-4.06-.7-7.84.07a22.63,22.63,0,0,0-3.89,1.17c-7.11,2.73-10.66,4.1-11.73,6.29-1.47,3,.68,6.5,2.93,8.37,2,1.67,4.37,2.25,7.87,3.11C165.64,169,169.43,169.15,169.52,168.88Zm117.36-7.2c-1.18-2.32-4.3-3.83-10.54-6.86a43.59,43.59,0,0,0-9.18-3.69c-6.34-1.62-12.83-1.48-13.09-.65-.22.66,3.68,1.2,8.71,4.48a15.54,15.54,0,0,1,4.68,4.07,11.59,11.59,0,0,1,2,6.09,15.14,15.14,0,0,1-.52,6c-2.66,7-17.8,8.91-17.45,9.94.29.86,10.9-.38,22-3.75,7.66-2.34,9.94-4,11.4-5.66C285.1,171.35,289.29,166.4,286.88,161.68Z"/><path class="cls-1" d="M378.28,613.17c-.53-2.17-1.48-5.32-17.68-13.41a139.12,139.12,0,0,0-22.34-9.07c-9.22-2.56-20.72-7.11-40.81-6.39-15.22.55-31.89-1-65.23-4.28a30.39,30.39,0,0,1-16.43-6.78c-2.44-2-10.32-8.7-10.37-16.9-.07-11.58,17-19.37,21-21.22,14.39-6.66,20.58-2,40.51-7.93,8.11-2.43,18.25-5.47,18.33-9.89.11-6.06-18.78-11.33-31.06-14.76A313.72,313.72,0,0,0,197.33,494c-11.92-.55-23.88-.07-35.79-1.12-10.08-.9-22.21-2.23-30.58-9.7-.83-.73-2.41-1.87-2.47-3.58-.12-2.94,4.17-5.37,6-6.41,8.05-4.56,18.73-4.3,26.77-3.16,16.92,1.83,20.4,3.73,20.43,5.13.06,2.19-8.05,4-11.11,4.71-12,2.71-25.29,2-25.56-.42-.12-1.13,2.42-2.72,4.54-3.14a8.66,8.66,0,0,1,4.54.57c5.16,1.44,10.67-1.17,10.66-1.92,0-.93-26.15-3.46-27.42,2.73a3.62,3.62,0,0,0,.51,2.33c2.36,4.89,8.95,5.48,18.4,5.7,13,.32,19.53.47,26.28-.57,8.13-1.25,24.12-3.72,24.37-8.56.18-3.33-7.14-6.93-11.47-8.27-3-1-5.21-1-8.84-1.15-9.06-.43-6.41-.84-17-1.42-43.27-2.37-76.34,5.22-85.78,14.12-1,.95-3.72,3.51-3.59,6.7.15,3.48,3.63,6.09,6.93,8,10.48,6.06,21.7,6.55,28.2,6.56,13.86,0,16.92-2,33.18-1.63,2.76.07,1.36.09,10.19.49,15.77.73,23.77,1.09,29.64.95,8.09-.19,16.19-.79,24.27-.36a187.15,187.15,0,0,1,20,2.22c4.8.77,10.6,2.84,11.53,8.52.87,5.28-3.32,9.82-7.48,11.88-4.68,2.3-8.42,4.1-12.37,5.9-11.48,5.21-9.87,5.75-24.57,10.27-12.45,3.83-17.22,2.64-29.57,7.8a42.36,42.36,0,0,0-10.27,6c-5.17,4-13.66,10.33-5.13,17.46,12,10,27.2,11.52,27.2,11.52,19.23,1.79,35.82,2.61,38.89,2.76,11.7.59,9.23.7,21.95,1.38,18.79,1,32.89,1.23,52.85,3.65,0,0,24.85,3,31.63,17.06a29.21,29.21,0,0,1,2.08,6c-.09.73-.18,1.37-.27,1.88a37.67,37.67,0,0,1-14.7,24c-2.21,1.71-6.25,4.39-20.42,7.28a174.18,174.18,0,0,1-29.75,3.43c-2.22-.24-28.77-3.3-29.75-13.27-.69-7,11.47-14,12.54-14.56,6.76-3.78,14.07-3.09,28.68-1.71a23.71,23.71,0,0,1,9,3c2.16,1.22,5.73,3.25,5.73,6,0,.73-.25,2-2.87,4.28a22.75,22.75,0,0,1-10.28,5.2c-6,1.18-17.3,1.61-18.75-3.48-1.59-5.62,6.72-6.23,9.52-7.12a17.38,17.38,0,0,0-13.54-.73c-4.1,1.57-10,5.71-9.6,9.55.49,4.7,10.18,6.66,13.26,7.28,8,1.61,10.85-.49,23.3-2.14,15.3-2,17.32-1.64,28-6.34,5.11-2.23,9.87-4.31,9.86-7.13,0-4.52-12.24-7.92-19.18-9.85a122.07,122.07,0,0,0-29.46-4.51,139.3,139.3,0,0,0-47.42,6.89c-12.35,4.25-26.87,9.25-26.82,15.75.06,5.84,11.88,10.2,20.55,13.41,11.59,4.28,20.78,5,32.9,5.91a184.94,184.94,0,0,0,30.11-.43c13.07-1.37,11.95-2.7,45.87-10.28,10.82-2.41,21.35-6.37,32.1-9.18,10-2.64,15.92-3.34,19-10.32C377.19,625.14,379.73,619.13,378.28,613.17ZM186.57,470c4.15.21,4.51,0,6.74.33s4.88.74,6.67,2.56c6.09,6.18-15.21,9.1-17.9,9.42a24.4,24.4,0,0,0,9.76-3.42c.68-.4,1.83-1.15,1.91-2.28,0-.56-.18-1.24-1.19-2.28-1.62-1.67-3.47-2.39-7-3.36-2.91-.79-4.45-1.06-4.43-1.21S183.07,469.78,186.57,470ZM106.3,496.55c-4.6-.21-8.66-.39-12.67-3.43-1.95-1.48-4.77-3.62-5-7-.25-4.28,3.88-7.54,4.66-8.16,1.28-1,3.17-1.62,6.89-2.79,1.69-.53,5.7-2.72,7.39-1.58-3.09,2.29-8,3.33-9.72,7.5a8.15,8.15,0,0,0,2.59,9.56c3.67,2.58,7.85,3.36,11.75,5.2C110.91,497.15,108,496.62,106.3,496.55Zm27-1.14c-7.9-.25-11.86-.38-12.67-.57-1.16-.29-12.3-3-13.38-10.56-.63-4.47,2.54-8.43,3.11-9.14,2.7-3.36,6.23-4.05,13.29-5.42,4.37-.86,7-.87,7-.57.08.59-9.85.59-12.66,7.14a11.31,11.31,0,0,0-.24,7.7c3.28,9.78,20.92,10,20.79,11.13C138.5,495.56,136,495.49,133.3,495.41Zm127.34,10.85c4.1,1.33,14.56,4.74,14.42,7.7-.09,1.84-4.23,2.78-9.91,4.08-8.61,2-14,1.51-14,1.46a19.07,19.07,0,0,0,10.44-3.3c3.33-2.23,3.33-3.7,3.3-4-.06-.91-.8-1.46-2.29-2.57-1.78-1.32-2.9-1.62-5.29-3.22-1.44-1-1.45-1.13-1.44-1.18C256,504.73,259.86,506,260.64,506.26Zm-13.9,10.19c.9-1.22,2.68-3.63,2.33-6.42a6.78,6.78,0,0,0-1.44-3.21,9.9,9.9,0,0,0-5.73-4.06c0-.06,15.6,3.19,15.61,8.32,0,.83-.42,1.41-1.27,2.56-2.23,3-4.18,2.59-9.64,5-1.71.77-3.36,1.63-3.45,1.41S245,518.87,246.74,516.45Zm-58.67,60.21a70.91,70.91,0,0,1-9.82-2.85c-1.6-.68-14.74-6.23-14.74-13.33s13.05-12.88,16.81-14.55a41.17,41.17,0,0,1,6.06-2.16,26.47,26.47,0,0,0-5,3.71c-2.05,1.94-4.67,4.4-5.5,8.2a13.22,13.22,0,0,0,.24,5.86c2.61,11,16.81,14.57,16.56,15.74C192.58,577.7,190.78,577.34,188.07,576.66Zm4.89-5c-4-3.52-6.06-6.83-6.69-10.85-2.23-14.35,20.52-21.7,20.82-19.64.09.61-2.83.79-6.55,4.14-.94.85-8.52,7.83-7.87,15.17.46,5.09,5,7.16,11,12.25,5,4.22,10.61,6.22,16.24,7.74C210.88,578.83,200.92,578.59,193,571.66Zm112.2,59a5.63,5.63,0,0,0,.4-3c-.44-2.66-3.13-3.76-2.91-4.3s2.12.2,3,.5a7.45,7.45,0,0,1,2.56,1.21c.25.2,2,1.64,2.15,3.21.25,3.47-8.47,6.54-8.6,6.21C301.69,634.33,304.13,633.44,305.16,630.65Zm-14.33-9c.25-.58,3.2.76,3.8,1,3.21,1.46,4.83,2.14,5.38,3.65,2.08,5.79-5.33,10.06-8.9,11-.39.1-1,.06-1-.42.78-.82,1.63-1.54,2.35-2.42,1-1.2,2.41-3,2.41-5.16a8,8,0,0,0-1.38-3.93C292.14,623,290.64,622.09,290.83,621.67Zm-71.77,22.54c-3.58-1.36-4.6-1.36-6.13-2.5-.41-.3-4-3.05-4.06-6.28-.07-6.28,13.45-11.34,13.68-10.83.07.14-.88.68-2.49,2.64a12.66,12.66,0,0,0-2,3,10.49,10.49,0,0,0-.55,5.48c.67,5.94,5.71,10,6.45,10.56C222.84,645.76,221.16,645,219.06,644.21Zm18.05,5.41c-4.2-1.52-6.36-2.3-8.37-4.57a16.91,16.91,0,0,1-4-12c.63-7.3,7.27-14.06,16.15-14.27a31.33,31.33,0,0,0-7.43,6.3c-2.58,3-3.19,4.87-3.49,6.24a11,11,0,0,0-.12,3.94,15.14,15.14,0,0,0,3.7,7.93c4.86,5.88,10.61,7.2,10.45,7.84S240.45,650.83,237.11,649.62Zm99.39-16.39A104.77,104.77,0,0,1,325,638.67c5.13-2.28,10.18-9.91,12.51-15.55,2.68-6.5,2.73-13.84-1.29-19.6-.65-.94-7.73-7.19-10.66-8.76a46.27,46.27,0,0,1,15.61,8c3.55,2.7,8.83,6,9.56,11.49C351.81,622.3,341.33,630.34,336.5,633.23Zm28.16-11.78c-6.39,4.65-14.49,8.46-14.83,7.5s8.33-3.62,9.81-11.21a14.31,14.31,0,0,0-.72-7.42,12.91,12.91,0,0,0-6.41-7.4,47.23,47.23,0,0,1,4.5,2.26,33,33,0,0,1,9.32,7.71c1.58,1.91,1.92,2.8,1.91,3.71C368.22,618.75,366.19,620.34,364.66,621.45Z"/></g></g></svg>