<svg xmlns="http://www.w3.org/2000/svg" viewBox="0 0 806.09 1154.7"><defs><style>.cls-1{fill:#fff;}</style></defs><title>アセット 15</title><g id="レイヤー_2" data-name="レイヤー 2"><g id="装飾"><path class="cls-1" d="M805.57,202.35c-.63-1.79-1.76-4.39-21-11.07A215,215,0,0,0,758,183.79c-11-2.12-24.62-5.87-48.49-5.27-18.08.45-37.89-.8-77.5-3.54a46.39,46.39,0,0,1-19.52-5.6c-2.9-1.65-12.26-7.18-12.32-13.95-.08-9.57,20.18-16,24.95-17.53,17.1-5.49,24.45-1.61,48.13-6.54,9.64-2,21.68-4.51,21.78-8.16.12-5-22.32-9.36-36.9-12.19a524.46,524.46,0,0,0-67.57-7.07c-14.17-.45-28.37,0-42.52-.93-12-.74-26.4-1.83-36.33-8-1-.61-2.87-1.55-3-3-.14-2.43,5-4.44,7.12-5.29,9.57-3.77,22.26-3.55,31.82-2.61,20.09,1.51,24.22,3.08,24.27,4.24.07,1.81-9.57,3.32-13.2,3.89-14.26,2.24-30.06,1.69-30.38-.36-.14-.92,2.88-2.24,5.4-2.59a14.48,14.48,0,0,1,5.39.47c6.14,1.2,12.69-1,12.67-1.58s-31.07-2.86-32.58,2.26a2.29,2.29,0,0,0,.61,1.92c2.81,4,10.64,4.52,21.86,4.71,15.46.26,23.2.39,31.22-.47,9.66-1,28.66-3.07,29-7.07.21-2.75-8.49-5.72-13.63-6.84a53.86,53.86,0,0,0-10.5-.94c-10.77-.36-7.62-.7-20.16-1.18-51.41-2-90.7,4.32-101.91,11.67-1.2.78-4.43,2.9-4.26,5.53.17,2.87,4.3,5,8.23,6.6,12.45,5,25.78,5.41,33.5,5.42,16.47,0,20.1-1.67,39.42-1.35,3.29.06,1.62.07,12.11.41,18.73.6,28.24.9,35.22.78,9.61-.16,19.23-.65,28.83-.3,7.61.28,15.18.89,23.73,1.84,5.7.63,12.6,2.34,13.7,7,1,4.36-4,8.11-8.9,9.81-5.55,1.9-10,3.39-14.69,4.87-13.64,4.3-11.73,4.75-29.18,8.48-14.8,3.16-20.46,2.18-35.14,6.44a58.78,58.78,0,0,0-12.2,4.91c-6.15,3.34-16.24,8.53-6.1,14.41,14.22,8.26,32.32,9.52,32.32,9.52,22.84,1.48,42.56,2.15,46.2,2.28,13.91.48,11,.58,26.09,1.14,22.31.83,39.07,1,62.78,3,0,0,29.52,2.49,37.58,14.09a19.51,19.51,0,0,1,2.47,4.94c-.1.61-.21,1.13-.32,1.56-2.85,11.94-14.3,18.1-17.45,19.79-2.63,1.4-7.43,3.62-24.28,6a294.1,294.1,0,0,1-35.34,2.82c-2.64-.19-34.18-2.72-35.35-10.95-.81-5.76,13.64-11.52,14.91-12,8-3.12,16.71-2.55,34.07-1.41a37.35,37.35,0,0,1,10.64,2.47c2.58,1,6.81,2.69,6.81,5,0,.6-.29,1.64-3.4,3.53a33.42,33.42,0,0,1-12.22,4.3c-7.11,1-20.55,1.33-22.27-2.88-1.9-4.63,8-5.14,11.3-5.87a29,29,0,0,0-16.08-.61c-4.87,1.3-11.88,4.72-11.41,7.89.59,3.88,12.1,5.5,15.76,6,9.45,1.33,12.88-.4,27.68-1.77,18.18-1.68,20.57-1.35,33.3-5.23,6.08-1.85,11.72-3.56,11.71-5.89,0-3.73-14.54-6.54-22.78-8.13a204.46,204.46,0,0,0-35-3.72c-28-.42-48.48,3.81-56.34,5.69-14.67,3.5-31.92,7.63-31.85,13,.06,4.83,14.1,8.43,24.41,11.08,13.77,3.53,24.69,4.11,39.09,4.88a313.93,313.93,0,0,0,35.77-.36c15.53-1.13,14.2-2.23,54.5-8.48,12.85-2,25.37-5.26,38.13-7.59,11.94-2.17,18.93-2.75,22.55-8.52C804.27,212.23,807.29,207.27,805.57,202.35ZM577.8,84.11c4.93.17,5.35,0,8,.27s5.79.61,7.92,2.11C601,91.6,575.65,94,572.46,94.28a38,38,0,0,0,11.59-2.83c.81-.33,2.19-1,2.28-1.88,0-.46-.23-1-1.42-1.89-1.93-1.37-4.13-2-8.36-2.77a52.79,52.79,0,0,1-5.27-1C571.3,83.77,573.64,84,577.8,84.11Zm-95.38,22c-5.47-.17-10.29-.32-15-2.83-2.32-1.22-5.68-3-5.91-5.78-.3-3.53,4.6-6.23,5.53-6.73,1.52-.84,3.76-1.34,8.19-2.31,2-.43,6.77-2.24,8.78-1.3-3.67,1.89-9.57,2.75-11.55,6.19-1.69,2.92-.23,6.28,3.08,7.9,4.36,2.12,9.33,2.76,14,4.28C487.91,106.55,484.43,106.12,482.42,106.06Zm32.08-.94c-9.39-.21-14.08-.31-15-.47-1.39-.23-14.63-2.46-15.9-8.72-.75-3.69,3-7,3.69-7.54,3.2-2.78,7.4-3.35,15.78-4.48,5.2-.71,8.3-.72,8.35-.47.09.49-11.71.48-15.05,5.89a6.74,6.74,0,0,0-.28,6.36c3.9,8.08,24.86,8.24,24.7,9.19C520.69,105.24,517.67,105.19,514.5,105.12Zm151.29,9c4.88,1.1,17.31,3.91,17.14,6.36-.11,1.52-5,2.29-11.78,3.36-10.22,1.62-16.63,1.25-16.63,1.21a30.51,30.51,0,0,0,12.4-2.72c4-1.85,4-3.06,3.93-3.33-.07-.74-1-1.2-2.72-2.11-2.11-1.1-3.45-1.34-6.29-2.66-1.71-.8-1.72-.94-1.71-1C660.25,112.82,664.87,113.87,665.79,114.08Zm-16.51,8.42c1.08-1,3.18-3,2.77-5.31a5,5,0,0,0-1.71-2.65,13.22,13.22,0,0,0-6.81-3.35s18.54,2.64,18.55,6.87c0,.69-.5,1.16-1.51,2.11-2.65,2.5-5,2.14-11.46,4.17-2,.63-4,1.34-4.09,1.16S647.15,124.49,649.28,122.5Zm-69.7,49.71a110.83,110.83,0,0,1-11.67-2.36c-1.9-.56-17.52-5.14-17.52-11s15.51-10.64,20-12a66.76,66.76,0,0,1,7.2-1.78,33.88,33.88,0,0,0-6,3.06c-2.44,1.6-5.56,3.64-6.53,6.77a7.62,7.62,0,0,0,.28,4.84c3.1,9.12,20,12,19.68,13C584.94,173.07,582.79,172.77,579.58,172.21Zm5.81-4.13c-4.8-2.91-7.21-5.64-7.95-9-2.65-11.85,24.37-17.92,24.74-16.21.11.5-3.37.65-7.79,3.41-1.12.7-10.12,6.47-9.34,12.53.54,4.2,6,5.91,13.06,10.11,5.88,3.49,12.6,5.14,19.29,6.39C606.67,174,594.84,173.8,585.39,168.08Zm133.3,48.7a3.44,3.44,0,0,0,.48-2.45c-.53-2.2-3.72-3.1-3.46-3.55s2.52.16,3.57.41a10.9,10.9,0,0,1,3,1c.3.17,2.42,1.36,2.56,2.65.3,2.87-10.06,5.4-10.22,5.13S717.46,219.09,718.69,216.78Zm-17-7.42c.31-.47,3.8.64,4.52.86,3.81,1.21,5.74,1.77,6.39,3,2.47,4.78-6.33,8.31-10.57,9.07-.47.09-1.14.05-1.21-.34.92-.68,1.93-1.27,2.79-2,1.16-1,2.86-2.44,2.86-4.26,0-1.21-.74-2.11-1.64-3.25C703.22,210.45,701.44,209.71,701.66,209.36ZM616.4,228c-4.26-1.11-5.47-1.12-7.29-2.05-.49-.26-4.78-2.53-4.82-5.19-.09-5.18,16-9.37,16.25-8.94.08.12-1,.56-3,2.18a11,11,0,0,0-2.42,2.47,6.21,6.21,0,0,0-.65,4.53c.8,4.9,6.78,8.24,7.66,8.72C620.89,229.26,618.89,228.63,616.4,228Zm21.44,4.47c-5-1.25-7.55-1.9-9.94-3.77-3.07-2.41-5.14-6.3-4.7-9.89.74-6,8.63-11.61,19.18-11.78a36.51,36.51,0,0,0-8.83,5.2c-3.06,2.47-3.78,4-4.15,5.15a6.55,6.55,0,0,0-.14,3.25c.35,1.86,1.39,4,4.4,6.55,5.77,4.86,12.61,5.95,12.41,6.47S641.81,233.44,637.84,232.44Zm118.08-13.53c-5,2.09-13.64,4.5-13.64,4.5,6.09-1.89,12.09-8.19,14.85-12.84,3.19-5.37,3.25-11.44-1.52-16.19a78.75,78.75,0,0,0-12.67-7.23,67.17,67.17,0,0,1,18.54,6.56c4.22,2.23,10.5,4.92,11.36,9.49C774.11,209.89,761.67,216.52,755.92,218.91Zm33.46-9.72c-7.59,3.83-17.21,7-17.61,6.19s9.89-3,11.65-9.26a8.59,8.59,0,0,0-.85-6.12c-2.13-4.18-6.66-5.79-7.62-6.11,2.27.69,4.09,1.37,5.35,1.87a39.6,39.6,0,0,1,11.07,6.36c1.87,1.58,2.28,2.31,2.27,3.06C793.61,207,791.2,208.27,789.38,209.19Z"/><path class="cls-1" d="M689.68,469.81A58.5,58.5,0,0,0,676.09,463a105.45,105.45,0,0,0-24.28-5.1,217.48,217.48,0,0,0-37.33-.58c-11.89.79-24.38,1.88-35.93,4.87-4.71,1.21-11.17,5.17-8.87,10.73,1.11,2.67,4.14,4.06,7,4.91A59.44,59.44,0,0,0,592,480.42c11.9-.56,51.66-1.28,60-4.39,2-.73,7.91-2.45,8.16-5,.21-2.12-3.76-3.58-5.28-4.33A40.65,40.65,0,0,0,643.68,463a74,74,0,0,0-9.2-.7c-11.78-.14-24.84,2.64-24.82,5.15,0,.77,1.28,1.3,3.84,2.35a36.49,36.49,0,0,0,14,2.66c6.31,0,16.29-1,16.42-2.93.06-1-2.58-2.3-4.92-2.36-2.08-.05-3.12.87-4.9,1.51-4.82,1.71-10.8-.18-10.9-1.44s6.36-3.47,12.56-3.46c6.71,0,14,2.52,14.14,5,.18,4.51-7.85,5.35-11.05,5.75a93.05,93.05,0,0,1-20.5,0c-4.75-.44-7.17-.68-9.32-1.43s-8-2.78-8.07-5.89c-.07-2.71,4.42-5.07,6.83-5.92.61-.21,4-1.79,11.08-2.16,0,0,28.26-2.37,49.31,11.43,2.3,1.51,3.9,3.08,3.72,4.71-.2,1.89-2.18,3.05-4,3.83-10.52,4.64-22,6.72-33.43,7.8-5.78.55-11.58.85-17.38,1.11-5,.22-10,1.2-15.07,1.44-1.73.09-3.46.14-5.2.17-3.29.06-4.27,0-12,.1-6.58.08-11.85.21-13.5.25-1.33,0-16.9.48-28.62,2.1-19.09,2.63-43.36,10.52-42.87,16.78.05.65.41,1.81,4.75,4.28,10.81,6.12,21.79,6.41,25.77,6.47,32,.48,34.4.5,39.36,1,10.67,1,27.49,2.72,29.1,9.69a6.25,6.25,0,0,1-.49,3.81c-3.26,7.84-17.84,8.65-23.47,8.91-42.44,1.91-65.76,1.13-65.76,1.13-1.34-.11-30-2.49-41.8,5.14-1.24.81-4.78,3.11-4.68,6,.11,3.23,4.44,5.92,6.48,6.41,20.82,5,43.38,1,63.73,7.62,2.69.88,5.6,2.22,6.5,4.82,1.3,3.75-5,8.11-6.87,9.45A38.1,38.1,0,0,1,515,590c-20.75,2.92-29.24,3.58-49.59,4.58,0,0-13.93.68-21.95-4.82-2.42-1.66-2.72-3-2.76-3.68-.07-1.37.82-3.11,4.78-5.56A41.59,41.59,0,0,1,462.27,575c8.76-1.16,18.67-2.46,26.79,3.16a22.49,22.49,0,0,1,2.46,2,2.51,2.51,0,0,1,.61,2.17c-.17.59-1,2.11-13.7,3.17-2.48.2-4.13.34-6.54.39-5.44.12-12.32.26-13-1.87-.32-1,.88-2.22,1.33-2.67,1.31-1.33,3-1.56,4.7-1.78a12.88,12.88,0,0,1,3.27,0c1.57.2,3.24.41,3.69,1.38s-.92,2-.59,2.69c.87,1.86,12.28.06,12.45-2.49.1-1.67-4.66-3.17-5.51-3.44-3.08-1-6.6-.64-13.51.08a26,26,0,0,0-8.59,2c-1.53.69-4.12,1.84-4.09,3.37,0,1.16,1.55,2,3.1,2.86a20.63,20.63,0,0,0,6.71,2.27c9.63,1.15,23.07.46,24.14.4a96.48,96.48,0,0,0,13.9-1.58c6.87-1.32,9.19-2.61,9.61-4.35a3.7,3.7,0,0,0-.82-3c-3.29-5-11.23-6.21-13.49-6.52a202,202,0,0,0-35.54-1.38c-12.66.56-26.68,1.6-37.92,8.06-2.12,1.22-7.64,4.47-7.11,7.55.08.52.43,1.56,3.6,3.53a30.15,30.15,0,0,0,9.61,4c12.57,2.28,25.46,2.23,38.25,2.16,28.76-.13,57.53-.27,86.22-2.16,8.41-.56,17.27-1.42,24.24-5.9.36-.23.7-.46,1.05-.71,4.11-2.94,7.36-8,5.82-12.71s-7.19-7-12.22-8.46a191.38,191.38,0,0,0-55.14-7c-4.77.09-9.4-.09-14.14-.09-2.17,0-4.47-.18-6.25-1.39-4.55-3.09-.53-6.79,3.09-8,9.26-3,18.46-2.12,28-1.53,10.16.64,20.35.83,30.53.82,18.37,0,15.43-.85,46-1.47,18.55-.38,31.59-.14,41.27-8.28,2.29-1.92,3.68-3.72,3.66-5.75-.09-8-22.08-14-27.41-15.47a64,64,0,0,0-11-2.33c-11.43-1.33-18.79-1.37-18.79-1.37-21.23-.12-27.32,2-38.76-1.59-3.54-1.12-8.79-3.18-9.54-7.08a6.51,6.51,0,0,1,.65-3.91c3.55-7.53,21.13-8.69,26.67-9,21.1-1.22,42.33-1.37,63.33-3.57,3.85-.4,7.71-.79,11.58-1,8.49-.53,17.08-.32,25.47-1.86,7.32-1.33,15.19-3.08,20.86-8a6.2,6.2,0,0,0,2.31-3.42C694,473.36,691.78,471.26,689.68,469.81Zm-107,5.91c-.91-.22-8.92-2.19-9.15-5.53s7.64-6.68,11.92-7.58a16.07,16.07,0,0,1,3-.41c.07.16-1.86.62-3.81,1.66-1.65.87-5.24,2.78-5.36,5.35-.14,2.91,4.2,5.37,6.69,6.25,1.79.64,3.32.7,3.31.83S586,476.54,582.7,475.72Zm17.86-14.49c-2.27,1-5.23,3.29-5.48,5.31-.37,3.06,5.3,7.27,14.47,9.25a34.36,34.36,0,0,1-13.59.38c-2.76-.48-5.62-1.4-7.41-3.49-4-4.61.93-9,5.25-10.64a32.42,32.42,0,0,1,10.74-1.94A13,13,0,0,0,600.56,461.23ZM494.77,575.13c3.26.87,4.89,1.31,6.36,2.46.72.56,3.07,2.4,2.66,4.15-.24,1-1.32,1.54-3.48,2.57a22.42,22.42,0,0,1-5.92,1.85,17.39,17.39,0,0,1-4.51.33,12.46,12.46,0,0,0,4.93-1.14c.59-.29,3.46-1.71,3.51-3.83a3.26,3.26,0,0,0-.73-1.93c-2.25-3.4-6-4.58-5.87-5S493.86,574.89,494.77,575.13ZM435.28,594.2c-.08.28-5.46-.36-9.51-2.64-.71-.4-1.46-.9-3-1.91-2.35-1.58-2.59-1.89-2.74-2.23-.76-1.78,1.09-4.06,1.61-4.7,1.41-1.74,3.07-2.49,6.29-3.91,2.06-.91,4.94-2,5.1-1.68s-.81.69-2.7,2.24-2.78,2.3-3.27,3.36a6.08,6.08,0,0,0-.41,3.36,8.49,8.49,0,0,0,2.46,4.94C431.82,593.77,435.34,594,435.28,594.2Zm5.73-.58a9.57,9.57,0,0,1-5.86-2.59c-6.41-6.26.38-14,7.41-15.57,1.9-.42,3.9-.36,4,0s-1.92.76-4.93,2.53c-1.78,1.06-1,.85-3.66,2.61-1.23.8-2.63,3.66-1.92,6.38a7.91,7.91,0,0,0,3.15,4.09,33.3,33.3,0,0,0,3.71,2.28A4.84,4.84,0,0,1,441,593.62Zm120.24-26.51a38.4,38.4,0,0,1,6.22,2.37,48.69,48.69,0,0,1,5.06,2.44c2.56,1.65,5.26,4.2,4.38,7.46-.83,3.07-4,5.42-6.54,7.15-3.57,2.4-6.93,3.22-10.11,4.06a33.3,33.3,0,0,1-9.64,1.43l-5.12-.2c1.77-.4,4.32-1,7.37-1.78,4.13-1.06,6.23-1.61,7.77-2.37a16,16,0,0,0,7.36-6.52c1.28-2.38,1.29-3.66,1.23-4.15a6.4,6.4,0,0,0-2.25-3.76c-5-4.65-11-6.18-10.84-6.72C556.24,566.16,558.94,566.53,561.25,567.11Zm-32.92-3c0-.08.23-.33,4.9.16,7.67.82,11.5,1.22,15.79,2.83s10.86,4.06,11.21,8.08c.3,3.4-4,6.24-8.05,8.88-6.28,4.12-12.58,5.43-20.7,7.13A45.54,45.54,0,0,1,526,592c-2.3.2-5.64.32-5.68,0s4.38-.69,10.23-2.57c3.45-1.11,6.34-2,9.4-4.15,1-.72,9.12-6.3,7.77-11.66-.54-2.15-2.38-3.44-3.68-4.35-2.39-1.68-4-1.52-11.25-3.56C528.37,564.47,528.31,564.21,528.33,564.15Zm-52.2-3.52c-4.56-.85-5.41-1.67-5.76-2.06a5.15,5.15,0,0,1-1.25-4c.52-3.11,5.44-5.75,12.27-5.93a10.52,10.52,0,0,0-4.29,2.67c-1,1.08-2.54,2.6-2.28,4.36s2,2.75,3.61,3.74c2.11,1.3,3.73,1.54,3.68,1.78S478.69,561.11,476.13,560.63Zm15.28-12c-2.17,1-4.87,3.43-4.8,6.24.08,3.15,3.63,6.42,8.59,6.52-.42.11-6.84,1.62-10.58-2.22-.49-.49-2.57-2.48-2.15-5.15a7.66,7.66,0,0,1,3.63-5c3.79-2.5,8.18-1.48,9.1-1.25A9.29,9.29,0,0,0,491.41,548.62Zm143.42-21c3.89,2.1,7.2,3.89,7.18,6.3,0,4-9.36,6.69-11,7.16-6.46,1.84-12.54,1.29-12.67.45-.11-.68,3.64-1.23,8.36-4.78,2.8-2.11,3.19-3.2,3.25-4,.17-1.87-1.45-3.4-3.09-4.93-3.6-3.34-6.89-4.12-6.77-4.52C620.27,522.78,627.52,523.69,634.83,527.64Zm-34.9-6.77c.3-1,9.38-.26,16.59,4.67,3.81,2.61,4,4.3,4.07,4.81.17,2.6-2.66,4.64-4.64,6.07-6.11,4.41-13.63,5-13.88,4.2-.15-.43,2.18-.93,5.3-3.57,2.32-2,5.24-4.45,4.88-6.94-.24-1.63-3-3.36-8.52-6.76C600.51,521.37,599.85,521.14,599.93,520.87Zm-82.69-7.55c-3.5-1.21-7.53-2.63-8-5.37-.5-2.92,4.33-6.28,4.57-6.45a18,18,0,0,1,4.72-2.09c2.29-.8,6.12-1.9,6.35-1.38.33.71-7,2.6-7.86,7.17a6.91,6.91,0,0,0,.32,3.54c1.25,3.43,5.27,5.75,10.16,6.2A30.14,30.14,0,0,1,517.24,513.32Zm25.09-16.63-.39.2c-3.93,2-9.55,4.81-8.52,9.39.87,3.92,5.73,6.89,9.66,8.48a34.77,34.77,0,0,0,4.64.92c-1.36,0-3.74,0-7.21-.25-6-.46-15-1.79-16.28-8.12-.87-4.27,2.37-7.31,6.53-9.13a32.32,32.32,0,0,1,7.36-2.16c1.09-.19,2.2-.29,3.3-.44.63-.09,3.07,0,3.43-.19Zm136.38-14.5a30,30,0,0,1-10.92,2.1,21.76,21.76,0,0,0,6.93-3.43,6.52,6.52,0,0,0,2-2c1.46-2.73-.61-6.3-1.19-7.31-4.71-8.14-19-9.54-18.82-10.15s8.72.13,19.22,4.35c6.14,2.46,12.69,5.09,12.68,8.69C688.64,478.22,681.27,481.16,678.71,482.19Z"/><path class="cls-1" d="M71.82,138.31c17.16-4.26,52.67-10.53,90.49-6.15a135.3,135.3,0,0,0,27,.16c6.65-.61,25.9-2.37,27.68-8.58.8-2.81-2.29-5.47-4.09-7-9-7.78-26.5-7.14-31.8-6.94-1.68.06-4.93.24-9.54,0-2.72-.12-5.71-.42-10.72-1.1-4.54-.62-16.57-2.26-20.7-9.12a10.2,10.2,0,0,1-.4-10.1c2-3.59,8-8.41,44.46-11.29,30.79-2.44,45.6-2,65.18-8.7,4.6-1.57,9.61-4.15,10.59-8.62,1.89-8.56-11.12-12.23-20.49-12.12-27.17.31-40.15.29-70.9.8-28.65.48-70.23-5-76.25-20.49-3-7.82,3.91-15.79,4.22-16.13,2.82-3.13,8.63-7.56,32.86-10.86C140.13.61,145.7.57,179.2.13c24.9-.32,34.91-.47,45.94,4.6,4,1.84,10.73,5,11.49,10.2,1.27,8.76-15.69,16.22-16.59,16.61-5.77,2.47-19.65,2.12-47.19,1.31-5-.15-11.92-.43-17.49-4.11-1.63-1.08-6.37-4.22-5.89-8.82.37-3.5,3.56-5.86,4.6-6.56a33.43,33.43,0,0,1,8.89-3c11.45-2.18,24.36,1.36,24.44,4.37,0,1.39-2.66,2.51-4.72,3.38-8,3.34-15.42,1.18-15.86,2.21-.63,1.48,13.14,9.38,28,6.89,2.39-.4,12.47-2.09,14.26-7.47.84-2.52-.45-4.85-1.41-6.18a106.71,106.71,0,0,0-14.92-3.83A122.4,122.4,0,0,0,171.19,7.9c-11.14-.18-16.71-.26-22.84,1.85-3.52,1.21-11.51,4-12.78,9.12-1.64,6.62,9,12.57,11.41,13.94a32.83,32.83,0,0,0,12,4.35c49.44,6.84,99.83-7.24,149.7-3.91,9.2.61,18.71,2,26.32,6.77s12.72,14,9.78,22.17c-1.58,4.38-5.19,7.89-9.12,10.72-36.39,26.19-93.4,1.1-133,22.81-2.58,6.82,8.71,10.23,16.42,9.43,24.59-2.54,51.56-7.71,72.42,4.55,2.59,1.52,5.1,3.39,6.42,6,4.45,8.66-6.54,17.27-16.25,20.58C220.76,157,151,129.8,89.16,147.88c-3.19.93-6.58,2.15-8.34,4.8-3.75,5.67,7.92,14.14,9.26,15.09l.1.07c13.18,9.29,82.44,9.26,85.36-3.64.88-3.89-4.62-7.49-6.22-8.54-2-1.28-7.5-4.36-35.1-2.35-12.69.92-19,1.42-19.63,3.42-.72,2.48,7.09,6.35,14.49,7.15,5,.55,11.74-.11,12.4-2.08.41-1.21-1.6-2.63-3.26-3.59,8.41-4.6,17.65-4.78,22.13-1.4,2.13,1.61,3.94,4.6,2.7,7.08-2,3.91-10.46,4.6-18.51,5.25-6.76.54-6.2-.2-29.88-1.77-5-.32-10-.63-15-3.34-2.26-1.22-5.91-3.21-5.68-5.56.46-4.76,16.36-8,25.13-9l14.27-.68c11.83-.56,15.31-.7,19.73-.77,0,0,6.6-.11,12.91,0,14.54.3,52.76,3.85,54.15,13.07.36,2.38-1.87,4.38-4.59,6.83-7.8,7-19.33,8.56-24.6,9.21-37.14,4.57-74,3.36-90,2.7a122.6,122.6,0,0,1-34-5.53,98.84,98.84,0,0,1-9.51-3.61c-2.87-1.34-19.52-9.1-19.31-16C38.39,146.43,58.49,141.61,71.82,138.31ZM219.29,12.41c.92,2.29.38,5.59.25,6.38a10.51,10.51,0,0,1-1.95,5.31c-3.11,3.91-9.63,4.46-9.54,4.72s12.32.93,17.68-5.62c3.45-4.21,2.54-9.5-.2-13-6.32-8-22.36-6.37-22.59-5.68S216.8,6.21,219.29,12.41ZM111.62,8.54c-7.05,2-13,6.52-12.84,12.54.13,6.57,7.66,12.85,18.82,16.11-1-.75-12.53-9.27-11-17.86a15,15,0,0,1,1.81-4.73c2.56-4.09,6.82-6.25,8.8-7.12A28.32,28.32,0,0,0,111.62,8.54ZM133,32.41c-1.49-1.23-8.62-7-7-14,1-4.14,4.65-7.06,6.71-8.68,4.09-3.23,7.74-4.09,7.58-4.37-.34-.59-17.57,1.08-22.68,9.81-3.19,5.44-.61,11.85,3,15.75,4,4.44,9.69,6,11.79,6.58,4.18,1.12,9.33,1.52,9.76.65S137.59,36.18,133,32.41ZM319.12,74.55c1.63-.75,16.12-7.18,15.28-18.31-.51-6.75-5.85-12.21-13.3-15.44-2-.88-22.38-6.36-23.31-3.56-.18.56,3.85,1.27,9.17,3.56,4.48,1.92,9.17,3.94,12.26,7.9a15.13,15.13,0,0,1,3,10.66,17,17,0,0,1-4.76,11.36c-4.4,4.56-10.4,5.93-10.07,6.51S313.65,77,319.12,74.55Zm-31,2.91c5.55-.94,9.57-3.42,13.82-6.1A30.13,30.13,0,0,0,306.81,68c.93-.9,7.25-7.17,5.17-14.18-2.79-9.43-18.43-12.3-22.72-13.09s-10.12-1.82-14.28-.19c3.63,1.07,7.65,1.26,11.25,2.77,6,2.52,10.87,8,11.81,14.3.9,6.09-1.84,13.63-8.48,17-4.31,2.21-9.46,2.28-9.37,2.8S284.12,78.13,288.11,77.46Zm-13.47-3.19c1.79-1,8.14-4.63,10-11.16s-1.32-13.87-7.79-17.33c-2.39-1.28-4.88-1.73-9.87-2.63-8.35-1.51-15.58-1.29-15.63-1s3.34.18,7.66,1.59c1.66.55,5.69,1.49,8.2,4.36a16.48,16.48,0,0,1,4.39,12.7,13.85,13.85,0,0,1-2.23,6.56c-3.48,5.23-9.95,7.57-12.55,8.51-4.22,1.53-6.73,1.56-6.69,1.86C250.27,78.43,264,80.16,274.64,74.27ZM171,87.07c-.52-1.12-2.63-1.7-4.37-1.71-5.25,0-10.74,2.08-13.07,5.75-2.84,4.46.8,8.41,5.82,10.6,1.95.85,4.27,1.56,6.44,1,5.17-1.29-.22-9.6,3.62-12.93.69-.6,1.53-1.2,1.66-2A1.3,1.3,0,0,0,171,87.07Zm27.2-.51A5.33,5.33,0,0,0,195,85.45c-7.65-.85-17.32,3.06-19.66,9-3.36,8.58,10,11.24,18.41,11,1.1,0,2.49-.28,2.7-1.11a1,1,0,0,0-.35-.95,6.62,6.62,0,0,0-1.05-.83A6.78,6.78,0,0,1,191.89,96C192.3,93.48,200.25,88.65,198.15,86.56Zm62.75,22.16c1.39.64,3.36,1.6,4.42,2.22,1.93,1.14,5.7,4.21,6,8.28.32,3.73-2.34,6.59-4.17,8.55-4.43,4.76-10.12,6.52-9.59,7.42.39.67,3.72.08,5-.16a42.63,42.63,0,0,0,13.85-5.46c3.36-2,6.83-4.54,8-7.78,2-5.48-3.06-8.92-8.83-11.12-9.52-3.63-19-4.5-19.24-4C256.33,106.92,257.55,107.18,260.9,108.72ZM232.79,134.3c-4.41,2.17-9,2.49-8.9,3s4.18.48,7.29.11c13-1.53,27.87-11.75,25.46-19.49-1-3.15-4.56-5-6.88-6.25-6.55-3.44-14.38-3.15-18.84-3-2.72.1-3.8.43-8.81.61a10.22,10.22,0,0,0-3,.31c0,.42,11.75-1,18.77,3.87.6.42,4.06,2.9,4.77,6.86C243.71,126.28,237.94,131.76,232.79,134.3Zm-53.26,39.76c.14.14.43.12.66.09,12.32-1.7,13.87-1.84,13.87-1.84,7.2-2,10.84-3,12.83-4.27,2.16-1.37,4.92-3.12,5-5.52.08-3-4.07-5.1-6.13-6.15-1.42-.72-3.74-1.7-15-3.27-6.75-.94-9.5-1.09-9.56-.89-.11.36,9.29.43,14.52,5.35.48.45,5,4.65,3.08,7.87-2.69,4.64-18.51,7.06-19.18,8.09C179.39,173.9,179.53,174.06,179.53,174.06Zm-9.3-21.62c-.09.26,3.55.49,7,2.65a11.47,11.47,0,0,1,4.66,5c.28.64,1.55,3.65.12,6.24-3.07,5.58-16.74,5.77-16.56,6.73.1.53,4.21.72,8.11-.07a23.75,23.75,0,0,0,4-1.21c7.35-2.83,11-4.24,12.14-6.51,1.52-3.11-.7-6.73-3-8.66-2.09-1.72-4.53-2.32-8.15-3.22C174.25,152.37,170.32,152.16,170.23,152.44ZM48.81,159.89c1.22,2.4,4.45,4,10.9,7.1a45.45,45.45,0,0,0,9.5,3.82c6.56,1.67,13.27,1.52,13.55.67.22-.68-3.82-1.24-9-4.64a16.3,16.3,0,0,1-4.84-4.2,12,12,0,0,1-2.07-6.31,15.72,15.72,0,0,1,.54-6.21c2.75-7.2,18.42-9.22,18.06-10.28-.31-.89-11.29.39-22.73,3.88-7.93,2.42-10.28,4.13-11.79,5.86C50.65,149.88,46.31,155,48.81,159.89Z"/><path class="cls-1" d="M730.47,1110.06c-.55-2.25-1.53-5.51-18.3-13.88a143.91,143.91,0,0,0-23.1-9.38c-9.55-2.66-21.45-7.36-42.23-6.61-15.74.56-33-1-67.49-4.43a31.49,31.49,0,0,1-17-7c-2.52-2.07-10.68-9-10.73-17.48-.07-12,17.57-20,21.72-22,14.89-6.89,21.3-2,41.92-8.2,8.39-2.52,18.88-5.66,19-10.23.12-6.28-19.43-11.73-32.13-15.28-5.11-1.42-32.35-7.64-58.84-8.86-12.34-.56-24.71-.06-37-1.16-10.43-.93-23-2.3-31.64-10-.86-.76-2.49-1.94-2.56-3.7-.13-3.05,4.32-5.57,6.2-6.63,8.33-4.73,19.38-4.45,27.7-3.28,17.5,1.9,21.1,3.87,21.14,5.32.06,2.26-8.34,4.16-11.5,4.87-12.41,2.8-26.17,2.12-26.45-.44-.12-1.16,2.5-2.81,4.7-3.25a9,9,0,0,1,4.7.59c5.34,1.5,11-1.21,11-2,0-.95-27.06-3.58-28.38,2.83a3.8,3.8,0,0,0,.53,2.41c2.45,5.06,9.27,5.67,19,5.9,13.47.33,20.21.49,27.2-.59,8.4-1.29,25-3.85,25.21-8.86.18-3.44-7.39-7.17-11.86-8.56-3.16-1-5.4-1-9.15-1.18-9.38-.45-6.64-.88-17.55-1.48-44.77-2.45-79,5.41-88.76,14.62-1,1-3.85,3.63-3.71,6.93.16,3.6,3.75,6.3,7.17,8.28,10.84,6.26,22.46,6.77,29.18,6.79,14.34,0,17.5-2.1,34.33-1.69,2.86.07,1.41.09,10.54.51,16.31.75,24.6,1.12,30.67,1,8.37-.2,16.75-.82,25.11-.38a193.22,193.22,0,0,1,20.66,2.3c5,.8,11,2.94,11.93,8.81.9,5.46-3.43,10.17-7.74,12.29-4.84,2.38-8.71,4.25-12.8,6.11-11.88,5.39-10.21,6-25.41,10.63-12.89,4-17.82,2.73-30.6,8.07a43.7,43.7,0,0,0-10.63,6.15c-5.35,4.18-14.14,10.7-5.31,18.06,12.38,10.35,28.14,11.93,28.14,11.93,19.9,1.85,37.07,2.7,40.24,2.86,12.11.6,9.56.72,22.72,1.42,19.43,1,34,1.28,54.68,3.78,0,0,25.7,3.11,32.72,17.65a30.05,30.05,0,0,1,2.15,6.2c-.09.76-.19,1.41-.27,1.94a39,39,0,0,1-15.21,24.81c-2.29,1.76-6.47,4.54-21.14,7.53a180.93,180.93,0,0,1-30.78,3.54c-2.29-.25-29.76-3.41-30.78-13.73-.7-7.22,11.88-14.44,13-15.06,7-3.91,14.55-3.2,29.67-1.77a24.33,24.33,0,0,1,9.27,3.1c2.24,1.27,5.93,3.36,5.94,6.2,0,.75-.26,2.06-3,4.43a23.52,23.52,0,0,1-10.64,5.38c-6.19,1.22-17.9,1.67-19.4-3.6-1.65-5.81,7-6.44,9.85-7.37a18,18,0,0,0-14-.75c-4.24,1.62-10.35,5.91-9.93,9.88.51,4.87,10.53,6.89,13.72,7.53,8.23,1.66,11.22-.5,24.1-2.21,15.84-2.1,17.92-1.7,29-6.56,5.29-2.31,10.2-4.47,10.2-7.38,0-4.67-12.67-8.19-19.84-10.19a125.72,125.72,0,0,0-30.49-4.66c-24.36-.52-42.22,4.77-49.06,7.13-12.78,4.39-27.81,9.56-27.75,16.28.06,6,12.29,10.57,21.26,13.88,12,4.43,21.5,5.16,34,6.11a188.34,188.34,0,0,0,31.15-.44c13.53-1.42,12.37-2.8,47.47-10.63,11.19-2.5,22.09-6.59,33.21-9.51,10.39-2.72,16.47-3.44,19.63-10.67C729.34,1122.44,732,1116.23,730.47,1110.06ZM532.12,961.88c4.29.22,4.66,0,7,.34s5,.77,6.9,2.65c6.3,6.39-15.74,9.42-18.52,9.75a25.45,25.45,0,0,0,10.1-3.53c.7-.42,1.9-1.2,2-2.37,0-.57-.2-1.29-1.24-2.36-1.68-1.72-3.59-2.47-7.28-3.47-3-.82-4.6-1.1-4.59-1.25S528.5,961.7,532.12,961.88Zm-83.06,27.51c-4.76-.21-9-.4-13.1-3.54-2-1.53-4.94-3.75-5.15-7.25-.25-4.43,4-7.8,4.82-8.44,1.33-1,3.28-1.67,7.13-2.88,1.75-.55,5.9-2.82,7.65-1.64-3.2,2.37-8.33,3.44-10.06,7.76a8.42,8.42,0,0,0,2.68,9.89c3.8,2.66,8.13,3.47,12.16,5.38C453.84,990,450.81,989.47,449.06,989.39ZM477,988.21c-8.18-.26-12.27-.39-13.11-.59-1.2-.29-12.73-3.07-13.84-10.92-.65-4.63,2.63-8.72,3.21-9.45,2.79-3.49,6.45-4.2,13.75-5.62,4.52-.88,7.23-.9,7.27-.58.08.61-10.2.6-13.1,7.38a11.72,11.72,0,0,0-.25,8c3.4,10.12,21.65,10.33,21.51,11.52C482.38,988.37,479.76,988.3,477,988.21Zm131.75,11.23c4.25,1.38,15.07,4.9,14.92,8-.09,1.9-4.37,2.88-10.25,4.21-8.91,2-14.49,1.57-14.49,1.52a19.72,19.72,0,0,0,10.8-3.41c3.45-2.32,3.45-3.83,3.42-4.17-.06-.93-.83-1.51-2.37-2.65-1.84-1.37-3-1.68-5.47-3.33-1.49-1-1.5-1.18-1.49-1.23C603.92,997.86,608,999.17,608.75,999.44ZM594.37,1010c.94-1.27,2.77-3.76,2.41-6.65a7,7,0,0,0-1.49-3.32,10.34,10.34,0,0,0-5.93-4.21c0-.06,16.14,3.31,16.16,8.61,0,.87-.44,1.47-1.32,2.66-2.31,3.12-4.33,2.67-10,5.21-1.76.8-3.47,1.69-3.56,1.46S592.52,1012.49,594.37,1010Zm-60.7,62.29a71.63,71.63,0,0,1-10.16-3c-1.65-.7-15.26-6.45-15.26-13.79s13.51-13.32,17.4-15.06a43.62,43.62,0,0,1,6.27-2.23,27.65,27.65,0,0,0-5.18,3.84c-2.13,2-4.84,4.56-5.69,8.48a13.43,13.43,0,0,0,.25,6.06c2.7,11.43,17.39,15.08,17.13,16.3C538.34,1073.36,536.47,1073,533.67,1072.28Zm5.06-5.17c-4.18-3.64-6.27-7.06-6.92-11.22-2.31-14.85,21.22-22.47,21.54-20.32.09.62-2.93.81-6.78,4.28-1,.87-8.82,8.1-8.14,15.69.47,5.27,5.18,7.41,11.38,12.68,5.12,4.36,11,6.43,16.8,8C557.27,1074.53,547,1074.27,538.73,1067.11Zm116.09,61a6.06,6.06,0,0,0,.41-3.08c-.46-2.76-3.24-3.89-3-4.45s2.19.21,3.11.52a7.55,7.55,0,0,1,2.64,1.25c.26.21,2.11,1.7,2.23,3.32.26,3.6-8.77,6.77-8.9,6.42C651.22,1132,653.75,1131,654.82,1128.15Zm-14.83-9.3c.26-.6,3.31.79,3.93,1.07,3.32,1.52,5,2.22,5.56,3.78,2.16,6-5.51,10.42-9.2,11.37-.41.11-1,.07-1-.43.8-.84,1.67-1.59,2.42-2.51,1-1.23,2.5-3,2.5-5.34a8.24,8.24,0,0,0-1.43-4.06C641.34,1120.21,639.79,1119.28,640,1118.85Zm-74.26,23.32c-3.7-1.4-4.76-1.41-6.34-2.58-.43-.32-4.16-3.16-4.2-6.5-.08-6.5,13.92-11.74,14.15-11.2.07.14-.9.7-2.57,2.72a13,13,0,0,0-2.12,3.11,10.79,10.79,0,0,0-.56,5.67c.69,6.14,5.91,10.32,6.67,10.92C569.65,1143.78,567.91,1143,565.73,1142.17Zm18.67,5.6c-4.34-1.57-6.57-2.38-8.65-4.73a17.51,17.51,0,0,1-4.1-12.39c.65-7.56,7.52-14.55,16.71-14.77a32.55,32.55,0,0,0-7.69,6.52c-2.67,3.1-3.29,5-3.61,6.45a11.32,11.32,0,0,0-.12,4.08,15.69,15.69,0,0,0,3.82,8.21c5,6.09,11,7.45,10.81,8.1S587.86,1149,584.4,1147.77Zm102.84-17a110.49,110.49,0,0,1-11.88,5.64c5.3-2.37,10.53-10.26,12.93-16.1,2.78-6.72,2.83-14.32-1.32-20.28-.68-1-8-7.44-11-9.06a47.88,47.88,0,0,1,16.15,8.22c3.68,2.8,9.14,6.17,9.9,11.89C703.08,1119.51,692.24,1127.82,687.24,1130.81Zm29.14-12.19c-6.62,4.81-15,8.75-15.34,7.76s8.61-3.74,10.15-11.59a15,15,0,0,0-.75-7.68,13.36,13.36,0,0,0-6.63-7.66,52,52,0,0,1,4.66,2.34,34.35,34.35,0,0,1,9.64,8c1.63,2,2,2.9,2,3.83C720.06,1115.83,718,1117.47,716.38,1118.62Z"/><path class="cls-1" d="M354.09,503.12c-.63-1.8-1.75-4.4-21-11.08a215.17,215.17,0,0,0-26.53-7.49c-11-2.12-24.63-5.87-48.49-5.27-18.08.45-37.89-.8-77.5-3.54A46.49,46.49,0,0,1,161,470.15c-2.9-1.66-12.27-7.19-12.32-14-.08-9.56,20.18-16,24.94-17.52,17.1-5.5,24.46-1.61,48.14-6.54,9.64-2,21.68-4.52,21.77-8.17.13-5-22.31-9.36-36.89-12.19a526.61,526.61,0,0,0-67.57-7.07c-14.17-.45-28.37-.05-42.52-.92-12-.74-26.4-1.84-36.34-8-1-.62-2.86-1.55-2.94-3-.14-2.43,5-4.44,7.12-5.29,9.57-3.77,22.26-3.55,31.82-2.62,20.09,1.52,24.22,3.09,24.27,4.24.07,1.81-9.58,3.32-13.2,3.89-14.26,2.24-30.06,1.69-30.38-.35-.14-.93,2.87-2.24,5.4-2.59a14.27,14.27,0,0,1,5.39.47c6.14,1.19,12.68-1,12.67-1.59s-31.07-2.85-32.59,2.26a2.3,2.3,0,0,0,.61,1.92c2.81,4,10.64,4.52,21.86,4.71,15.47.26,23.21.39,31.23-.47,9.65-1,28.65-3.07,29-7.07.21-2.75-8.49-5.72-13.63-6.83a52.42,52.42,0,0,0-10.5-.94c-10.77-.36-7.62-.7-20.16-1.18-51.41-2-90.7,4.31-101.91,11.66-1.2.79-4.43,2.9-4.26,5.53.17,2.87,4.3,5,8.23,6.61,12.44,5,25.78,5.4,33.5,5.41,16.47,0,20.1-1.67,39.42-1.34,3.29.05,1.62.07,12.1.4,18.74.6,28.25.9,35.23.78,9.61-.15,19.23-.65,28.83-.29,7.61.28,15.18.88,23.73,1.83,5.7.64,12.6,2.35,13.7,7,1,4.36-3.95,8.12-8.9,9.81-5.55,1.9-10,3.39-14.69,4.87-13.64,4.31-11.73,4.75-29.19,8.48-14.79,3.17-20.45,2.18-35.13,6.44a59.36,59.36,0,0,0-12.2,4.91c-6.15,3.34-16.24,8.54-6.11,14.42,14.23,8.25,32.33,9.52,32.33,9.52,22.84,1.47,42.56,2.15,46.2,2.27,13.9.49,11,.58,26.09,1.14,22.31.83,39.07,1,62.78,3,0,0,29.52,2.49,37.58,14.09a19.4,19.4,0,0,1,2.47,5c-.1.6-.22,1.12-.32,1.55-2.86,11.94-14.3,18.1-17.46,19.79-2.63,1.41-7.42,3.62-24.27,6a295.85,295.85,0,0,1-35.34,2.83c-2.64-.2-34.18-2.72-35.35-11-.81-5.76,13.64-11.52,14.91-12,8-3.12,16.71-2.55,34.06-1.41a37.57,37.57,0,0,1,10.65,2.48c2.57,1,6.81,2.68,6.81,4.94,0,.6-.29,1.64-3.4,3.54A33.12,33.12,0,0,1,234.05,524c-7.11,1-20.55,1.33-22.27-2.87-1.9-4.64,8-5.14,11.3-5.88a29,29,0,0,0-16.08-.61c-4.88,1.3-11.88,4.72-11.41,7.89.59,3.89,12.1,5.5,15.76,6,9.45,1.33,12.88-.4,27.68-1.76,18.18-1.68,20.57-1.36,33.3-5.24,6.07-1.84,11.72-3.56,11.71-5.89,0-3.72-14.54-6.53-22.78-8.12a204.92,204.92,0,0,0-35-3.73c-28-.41-48.48,3.81-56.34,5.69-14.67,3.51-31.92,7.63-31.86,13,.07,4.82,14.11,8.43,24.42,11.07,13.77,3.53,24.69,4.11,39.08,4.88a312.94,312.94,0,0,0,35.77-.35c15.54-1.13,14.21-2.24,54.51-8.49,12.85-2,25.36-5.26,38.13-7.58,11.94-2.18,18.92-2.75,22.55-8.52C352.8,513,355.82,508,354.09,503.12ZM126.33,384.87c4.93.18,5.35,0,8,.27s5.79.61,7.92,2.12c7.24,5.1-18.07,7.51-21.26,7.78a38.23,38.23,0,0,0,11.59-2.82c.81-.34,2.18-1,2.27-1.89.05-.46-.22-1-1.42-1.88-1.92-1.38-4.12-2-8.36-2.77-3.45-.65-5.28-.88-5.26-1S122.17,384.73,126.33,384.87ZM31,406.82c-5.47-.17-10.29-.32-15-2.82-2.32-1.22-5.68-3-5.91-5.79-.3-3.53,4.6-6.22,5.53-6.73,1.52-.84,3.76-1.34,8.19-2.3,2-.44,6.77-2.25,8.78-1.31-3.67,1.89-9.57,2.75-11.55,6.19-1.69,2.93-.23,6.29,3.08,7.9,4.36,2.12,9.33,2.77,14,4.29C36.44,407.32,33,406.89,31,406.82ZM63,405.88c-9.39-.2-14.08-.31-15.05-.47-1.38-.23-14.62-2.45-15.89-8.72-.75-3.68,3-6.95,3.69-7.54,3.2-2.78,7.4-3.34,15.78-4.48,5.2-.7,8.3-.71,8.35-.46.09.48-11.71.48-15,5.89a6.71,6.71,0,0,0-.28,6.36c3.9,8.07,24.86,8.24,24.7,9.19C69.22,406,66.2,406,63,405.88Zm151.29,9c4.88,1.1,17.31,3.92,17.13,6.36-.1,1.52-5,2.3-11.77,3.37-10.23,1.61-16.63,1.25-16.63,1.21a30.66,30.66,0,0,0,12.4-2.73c4-1.84,4-3.05,3.93-3.32-.07-.75-.95-1.21-2.72-2.12-2.12-1.09-3.46-1.34-6.29-2.66-1.71-.79-1.72-.94-1.71-1C208.78,413.58,213.4,414.63,214.32,414.84Zm-16.51,8.42c1.07-1,3.18-3,2.76-5.3a5,5,0,0,0-1.7-2.65,13.19,13.19,0,0,0-6.81-3.36c0-.05,18.54,2.64,18.55,6.87,0,.69-.5,1.17-1.51,2.12-2.65,2.49-5,2.13-11.46,4.16-2,.63-4,1.34-4.09,1.16S195.68,425.26,197.81,423.26ZM128.11,473a110.83,110.83,0,0,1-11.67-2.36c-1.9-.55-17.52-5.14-17.52-11s15.51-10.63,20-12a64.28,64.28,0,0,1,7.2-1.79,33.72,33.72,0,0,0-6,3.07c-2.44,1.59-5.55,3.63-6.53,6.77a7.57,7.57,0,0,0,.29,4.83c3.1,9.12,20,12,19.67,13C133.47,473.83,131.32,473.53,128.11,473Zm5.81-4.13c-4.8-2.9-7.21-5.64-7.95-8.95C123.32,448,150.34,442,150.71,443.67c.1.5-3.37.65-7.79,3.42-1.12.69-10.13,6.46-9.34,12.52.54,4.2,5.94,5.91,13.06,10.12,5.88,3.48,12.6,5.13,19.29,6.38C155.2,474.76,143.37,474.56,133.92,468.84Zm133.3,48.71a3.42,3.42,0,0,0,.47-2.45c-.52-2.21-3.71-3.11-3.45-3.56s2.52.17,3.57.41a10.9,10.9,0,0,1,3,1c.3.17,2.42,1.36,2.56,2.65.3,2.87-10.06,5.41-10.22,5.13S266,519.85,267.22,517.55Zm-17-7.42c.3-.48,3.8.63,4.52.85,3.81,1.21,5.74,1.77,6.39,3,2.47,4.78-6.33,8.31-10.57,9.08-.47.08-1.14,0-1.21-.35.92-.67,1.93-1.27,2.79-2,1.16-1,2.86-2.43,2.86-4.26,0-1.21-.74-2.11-1.64-3.25C251.75,511.22,250,510.47,250.19,510.13Zm-85.26,18.61c-4.26-1.12-5.47-1.12-7.29-2.06-.49-.26-4.78-2.52-4.82-5.19-.09-5.18,16-9.36,16.25-8.94.08.12-1,.56-3,2.18a11.26,11.26,0,0,0-2.43,2.47,6.2,6.2,0,0,0-.64,4.53c.8,4.9,6.78,8.24,7.66,8.72C169.42,530,167.42,529.39,164.93,528.74Zm21.44,4.47c-5-1.26-7.56-1.9-9.94-3.77-3.07-2.41-5.15-6.31-4.71-9.9.74-6,8.64-11.6,19.19-11.78a37.17,37.17,0,0,0-8.83,5.2c-3.06,2.48-3.79,4-4.15,5.15a6.44,6.44,0,0,0-.14,3.25c.34,1.86,1.39,4,4.4,6.56,5.77,4.85,12.61,5.94,12.41,6.46S190.34,534.2,186.37,533.21Zm118.08-13.53c-5,2.08-13.64,4.49-13.64,4.49,6.09-1.88,12.09-8.19,14.85-12.84,3.19-5.37,3.25-11.43-1.52-16.18a78.44,78.44,0,0,0-12.67-7.23A66.59,66.59,0,0,1,310,494.48c4.22,2.23,10.5,4.92,11.36,9.48C322.64,510.65,310.2,517.29,304.45,519.68ZM337.91,510c-7.59,3.84-17.21,7-17.61,6.19s9.89-3,11.65-9.25a8.66,8.66,0,0,0-.85-6.13c-2.13-4.18-6.66-5.79-7.62-6.11,2.27.69,4.09,1.37,5.35,1.87a39.85,39.85,0,0,1,11.07,6.36c1.87,1.58,2.28,2.31,2.27,3.06C342.14,507.72,339.73,509,337.91,510Z"/><path class="cls-1" d="M312.89,592.34a58.7,58.7,0,0,0-13.59-6.83A105.66,105.66,0,0,0,275,580.42a216.47,216.47,0,0,0-37.33-.59c-11.89.79-24.39,1.89-35.93,4.87-4.72,1.22-11.18,5.17-8.87,10.73,1.1,2.67,4.13,4.06,7,4.92a59.07,59.07,0,0,0,15.31,2.6c11.9-.56,51.66-1.28,60.05-4.39,2-.73,7.9-2.45,8.15-5,.21-2.12-3.75-3.57-5.28-4.32a40.23,40.23,0,0,0-11.21-3.66,72.15,72.15,0,0,0-9.21-.71c-11.78-.13-24.84,2.64-24.82,5.15,0,.77,1.29,1.3,3.85,2.35A36.26,36.26,0,0,0,250.66,595c6.31,0,16.29-1,16.41-2.93.07-1-2.57-2.29-4.92-2.35-2.07-.06-3.11.87-4.9,1.5-4.81,1.71-10.8-.18-10.89-1.44s6.36-3.47,12.56-3.46c6.71,0,14,2.52,14.13,5,.19,4.51-7.85,5.35-11,5.75a93.76,93.76,0,0,1-20.51,0c-4.74-.45-7.16-.69-9.32-1.44-2-.69-8-2.78-8.06-5.88-.07-2.72,4.41-5.08,6.82-5.92.62-.22,4-1.79,11.09-2.16,0,0,28.25-2.38,49.31,11.43,2.3,1.5,3.89,3.08,3.72,4.7-.2,1.89-2.19,3.05-4,3.84-10.51,4.63-22,6.71-33.42,7.8-5.78.54-11.58.85-17.39,1.1-5,.22-10,1.2-15.06,1.44-1.73.09-3.47.14-5.2.17-3.29.06-4.27,0-12,.1-6.57.09-11.84.21-13.49.25-1.34,0-16.91.48-28.62,2.1-19.1,2.64-43.36,10.52-42.87,16.78,0,.65.41,1.82,4.75,4.28,10.81,6.12,21.78,6.41,25.76,6.47,32,.48,34.41.5,39.37,1,10.66,1,27.49,2.71,29.09,9.68a6.19,6.19,0,0,1-.48,3.81c-3.26,7.84-17.85,8.66-23.48,8.91-42.43,1.91-65.75,1.14-65.75,1.14-1.35-.12-30-2.5-41.8,5.14-1.25.81-4.79,3.1-4.69,6,.12,3.22,4.44,5.91,6.48,6.4,20.83,5,43.39,1,63.73,7.63,2.69.87,5.61,2.22,6.51,4.82,1.3,3.74-5,8.1-6.88,9.44a38.28,38.28,0,0,1-17.4,6.51c-20.76,2.92-29.25,3.58-49.6,4.57,0,0-13.92.68-21.94-4.81-2.43-1.67-2.73-3-2.76-3.69-.07-1.37.82-3.1,4.77-5.56a41.63,41.63,0,0,1,16.77-5.54c8.76-1.15,18.67-2.46,26.79,3.17a22.33,22.33,0,0,1,2.45,2,2.51,2.51,0,0,1,.62,2.18c-.18.59-1,2.1-13.71,3.16-2.47.21-4.13.34-6.54.4-5.44.11-12.32.25-13-1.87-.32-1,.88-2.23,1.32-2.68,1.32-1.33,3-1.56,4.71-1.78a12.86,12.86,0,0,1,3.27,0c1.56.2,3.24.41,3.68,1.38s-.91,2-.58,2.69c.86,1.87,12.28.06,12.44-2.49.11-1.67-4.65-3.17-5.5-3.44-3.09-1-6.6-.63-13.52.08a26,26,0,0,0-8.59,2c-1.52.68-4.11,1.84-4.09,3.36,0,1.16,1.56,2,3.11,2.86a20.51,20.51,0,0,0,6.71,2.28c9.63,1.14,23.07.45,24.13.39a96.74,96.74,0,0,0,13.91-1.58c6.86-1.32,9.18-2.61,9.61-4.35a3.68,3.68,0,0,0-.82-3c-3.3-5-11.24-6.22-13.5-6.53a202,202,0,0,0-35.54-1.38C70.21,695,56.18,696,45,702.46c-2.12,1.21-7.64,4.46-7.12,7.55.09.51.43,1.55,3.6,3.52a30.25,30.25,0,0,0,9.61,4c12.58,2.28,25.47,2.23,38.26,2.17,28.75-.14,57.53-.28,86.22-2.17,8.41-.56,17.27-1.42,24.24-5.9.35-.22.7-.46,1-.71,4.12-2.94,7.37-8,5.83-12.71s-7.2-7-12.22-8.46a191.47,191.47,0,0,0-55.14-7c-4.77.09-9.41-.09-14.15-.09-2.17,0-4.47-.18-6.24-1.38-4.55-3.1-.54-6.79,3.09-8,9.26-3,18.45-2.12,28-1.52,10.16.63,20.35.83,30.53.82,18.37,0,15.43-.86,46-1.48,18.55-.38,31.6-.14,41.28-8.28,2.29-1.92,3.67-3.71,3.65-5.74-.08-8-22.07-14-27.4-15.48a64.2,64.2,0,0,0-11-2.33c-11.42-1.33-18.79-1.37-18.79-1.37-21.22-.11-27.32,2-38.75-1.59-3.55-1.12-8.79-3.17-9.54-7.07a6.38,6.38,0,0,1,.65-3.92c3.55-7.53,21.12-8.69,26.67-9,21.1-1.22,42.32-1.36,63.33-3.56,3.85-.41,7.71-.79,11.58-1,8.49-.52,17.08-.32,25.47-1.85,7.31-1.34,15.18-3.09,20.86-8.05a6.23,6.23,0,0,0,2.3-3.42C317.19,595.9,315,593.79,312.89,592.34Zm-107,5.91c-.9-.22-8.91-2.19-9.15-5.53s7.64-6.68,11.93-7.57a16,16,0,0,1,3-.42c.08.16-1.86.63-3.81,1.66-1.64.87-5.24,2.78-5.36,5.35-.14,2.91,4.21,5.37,6.7,6.26,1.79.63,3.32.7,3.3.82S209.22,599.07,205.9,598.25Zm17.87-14.49c-2.28,1-5.24,3.29-5.48,5.31-.38,3.07,5.29,7.27,14.47,9.25a34.37,34.37,0,0,1-13.59.38c-2.76-.48-5.62-1.4-7.42-3.49-4-4.61.93-9,5.26-10.64a32.38,32.38,0,0,1,10.74-1.94A12.9,12.9,0,0,0,223.77,583.76ZM118,697.66c3.26.88,4.89,1.32,6.36,2.46.72.57,3.07,2.4,2.66,4.15-.24,1-1.32,1.54-3.47,2.57a22.27,22.27,0,0,1-5.93,1.85,17.31,17.31,0,0,1-4.5.33,12.46,12.46,0,0,0,4.93-1.14c.59-.29,3.45-1.7,3.5-3.82a3.21,3.21,0,0,0-.72-1.93c-2.25-3.41-6-4.59-5.87-5S117.07,697.42,118,697.66ZM58.49,716.73c-.08.28-5.47-.36-9.51-2.63-.72-.4-1.47-.91-3-1.92-2.35-1.58-2.58-1.89-2.73-2.23-.77-1.77,1.09-4.06,1.6-4.69,1.41-1.75,3.07-2.5,6.3-3.92,2-.91,4.93-2,5.1-1.68s-.81.69-2.7,2.24-2.79,2.31-3.27,3.36a6.09,6.09,0,0,0-.41,3.36,8.63,8.63,0,0,0,2.45,5C55,716.3,58.55,716.5,58.49,716.73Zm5.72-.58a9.59,9.59,0,0,1-5.86-2.59c-6.41-6.26.39-14,7.42-15.57,1.9-.41,3.89-.35,4,0s-1.91.76-4.92,2.53c-1.79,1.06-1,.86-3.67,2.61-1.22.8-2.63,3.66-1.92,6.39.5,1.9,1.85,3,3.15,4.09a31.9,31.9,0,0,0,3.72,2.27A4.71,4.71,0,0,1,64.21,716.15Zm120.25-26.5a37.47,37.47,0,0,1,6.21,2.36,48.69,48.69,0,0,1,5.06,2.44c2.56,1.65,5.26,4.2,4.38,7.46-.83,3.07-4,5.42-6.53,7.15-3.57,2.41-6.93,3.22-10.12,4.06a32.58,32.58,0,0,1-9.64,1.43l-5.11-.19c1.77-.4,4.31-1,7.36-1.78,4.13-1.07,6.23-1.62,7.77-2.38a16,16,0,0,0,7.36-6.52c1.28-2.37,1.29-3.66,1.23-4.15a6.35,6.35,0,0,0-2.25-3.76c-5-4.64-11-6.17-10.84-6.72C179.45,688.7,182.14,689.07,184.46,689.65Zm-32.93-3c0-.08.24-.33,4.9.17,7.67.81,11.51,1.22,15.8,2.82s10.85,4.07,11.2,8.08c.3,3.41-4,6.25-8,8.88-6.28,4.12-12.58,5.44-20.7,7.13a45.36,45.36,0,0,1-5.45.79c-2.31.19-5.65.31-5.68,0s4.38-.69,10.22-2.57c3.45-1.1,6.35-2,9.41-4.15,1-.71,9.12-6.3,7.77-11.66-.54-2.15-2.39-3.44-3.68-4.35-2.39-1.67-4.05-1.51-11.25-3.56C151.57,687,151.52,686.74,151.53,686.68Zm-52.19-3.52c-4.56-.85-5.41-1.66-5.77-2.06a5.14,5.14,0,0,1-1.24-4c.51-3.11,5.43-5.75,12.27-5.93a10.64,10.64,0,0,0-4.29,2.67c-1,1.09-2.54,2.6-2.28,4.36s2,2.75,3.6,3.75c2.11,1.29,3.74,1.53,3.69,1.78S101.9,683.64,99.34,683.16Zm15.28-12c-2.18,1-4.87,3.43-4.81,6.24.08,3.16,3.64,6.43,8.59,6.52-.41.11-6.83,1.62-10.58-2.22-.48-.49-2.57-2.48-2.15-5.14a7.7,7.7,0,0,1,3.64-5c3.79-2.5,8.18-1.48,9.09-1.25A9.38,9.38,0,0,0,114.62,671.15Zm143.41-21c3.9,2.11,7.2,3.89,7.19,6.3,0,4-9.36,6.69-11,7.16-6.46,1.84-12.54,1.3-12.68.45-.11-.68,3.65-1.23,8.36-4.78,2.8-2.11,3.19-3.2,3.26-4,.16-1.87-1.45-3.4-3.09-4.93-3.61-3.34-6.9-4.12-6.77-4.51C243.48,645.31,250.72,646.23,258,650.17Zm-34.89-6.77c.3-1,9.37-.26,16.59,4.68,3.81,2.6,4,4.29,4.06,4.8.17,2.6-2.66,4.65-4.63,6.07-6.12,4.42-13.64,5-13.89,4.2-.14-.42,2.19-.93,5.3-3.57,2.33-2,5.25-4.45,4.88-6.94-.24-1.63-3-3.36-8.52-6.76C223.71,643.9,223.06,643.67,223.14,643.4Zm-82.7-7.55c-3.5-1.21-7.52-2.63-8-5.36-.49-2.93,4.33-6.29,4.57-6.46a17.82,17.82,0,0,1,4.73-2.08c2.29-.8,6.11-1.91,6.35-1.39.33.72-7,2.61-7.86,7.17a6.87,6.87,0,0,0,.31,3.55c1.25,3.42,5.28,5.75,10.16,6.2A30.23,30.23,0,0,1,140.44,635.85Zm25.1-16.63-.4.2c-3.92,2-9.54,4.82-8.52,9.39.88,3.93,5.74,6.89,9.66,8.48a33.75,33.75,0,0,0,4.65.92c-1.37,0-3.74,0-7.21-.25-6-.45-15-1.79-16.28-8.11-.87-4.28,2.37-7.32,6.53-9.14a32.15,32.15,0,0,1,7.36-2.15c1.09-.19,2.19-.3,3.29-.45a34,34,0,0,0,3.43-.19Zm136.37-14.5a30,30,0,0,1-10.91,2.1,21.82,21.82,0,0,0,6.92-3.42,6.63,6.63,0,0,0,2.05-2c1.45-2.74-.61-6.31-1.19-7.31-4.72-8.15-19-9.55-18.83-10.16s8.73.14,19.23,4.35c6.13,2.46,12.69,5.09,12.68,8.7C311.84,600.75,304.48,603.7,301.91,604.72Z"/><path class="cls-1" d="M439.08,797.64c-17.16,4.25-52.67,10.53-90.49,6.15a134.45,134.45,0,0,0-27-.16c-6.65.6-25.9,2.37-27.68,8.58-.8,2.81,2.28,5.47,4.09,7,9,7.79,26.5,7.14,31.8,6.94,1.68-.06,4.93-.23,9.54,0,2.72.11,5.71.41,10.72,1.1,4.54.61,16.57,2.25,20.7,9.12a10.18,10.18,0,0,1,.4,10.09c-2,3.59-8,8.41-44.46,11.3-30.79,2.43-45.61,2-65.18,8.69C257,868,252,870.59,251,875.06c-1.89,8.56,11.12,12.23,20.49,12.13,27.17-.31,40.15-.29,70.9-.81,28.65-.48,70.23,5,76.25,20.5,3,7.82-3.91,15.78-4.22,16.13-2.82,3.13-8.63,7.56-32.86,10.86-10.77,1.47-16.33,1.5-49.83,1.94-24.9.32-34.91.47-45.94-4.6-4-1.83-10.73-5-11.49-10.19C273,912.26,290,904.79,290.86,904.4c5.77-2.47,19.65-2.11,47.19-1.3,5,.14,11.92.42,17.49,4.11,1.63,1.07,6.37,4.21,5.89,8.81-.37,3.51-3.56,5.86-4.6,6.57a34.17,34.17,0,0,1-8.89,3c-11.45,2.17-24.36-1.36-24.44-4.37,0-1.39,2.66-2.52,4.72-3.38,8-3.35,15.42-1.19,15.86-2.22.63-1.47-13.14-9.37-28-6.89-2.39.4-12.47,2.09-14.26,7.48-.84,2.51.45,4.85,1.4,6.17a105.7,105.7,0,0,0,14.93,3.84,123.36,123.36,0,0,0,21.56,1.82c11.14.17,16.71.26,22.84-1.85,3.52-1.22,11.51-4,12.78-9.12,1.64-6.62-9-12.58-11.41-13.94a32.77,32.77,0,0,0-12-4.36c-49.44-6.83-99.83,7.24-149.7,3.91-9.2-.61-18.71-1.94-26.32-6.76s-12.72-14-9.78-22.17c1.58-4.39,5.19-7.9,9.12-10.73,36.39-26.19,93.4-1.09,133-22.8,2.58-6.83-8.71-10.23-16.42-9.44-24.59,2.54-51.56,7.71-72.42-4.55-2.59-1.52-5.1-3.38-6.43-6-4.44-8.65,6.55-17.26,16.26-20.57,60.9-20.77,130.64,6.44,192.5-11.64,3.19-.93,6.58-2.16,8.34-4.81,3.75-5.66-7.92-14.13-9.26-15.08l-.1-.08c-13.18-9.29-82.44-9.26-85.36,3.64-.89,3.9,4.62,7.49,6.22,8.54,2,1.28,7.49,4.37,35.1,2.36,12.69-.93,19-1.43,19.63-3.43.72-2.48-7.1-6.35-14.49-7.15-5-.54-11.74.12-12.4,2.08-.41,1.21,1.6,2.64,3.26,3.6-8.41,4.6-17.65,4.78-22.13,1.39-2.13-1.6-3.94-4.59-2.7-7.08,1.95-3.9,10.46-4.59,18.51-5.24,6.76-.55,6.2.2,29.88,1.76,4.95.33,10.05.63,15,3.34,2.26,1.23,5.91,3.21,5.68,5.57-.46,4.75-16.37,8-25.13,9-.25,0-4.92.25-14.27.69-11.83.56-15.31.7-19.73.77,0,0-6.6.1-12.91,0-14.55-.3-52.76-3.84-54.15-13.06-.36-2.39,1.87-4.39,4.59-6.83,7.8-7,19.33-8.56,24.6-9.21,37.14-4.57,74-3.37,90-2.71a122.75,122.75,0,0,1,34,5.54c4.12,1.33,7.37,2.67,9.51,3.6,2.87,1.34,19.52,9.1,19.31,16C472.51,789.51,452.41,794.33,439.08,797.64ZM291.61,923.53c-.92-2.29-.38-5.58-.25-6.37a10.51,10.51,0,0,1,1.95-5.32c3.11-3.91,9.63-4.46,9.54-4.71s-12.32-.93-17.68,5.61c-3.45,4.21-2.55,9.51.2,13,6.32,8,22.36,6.38,22.58,5.68S294.1,929.73,291.61,923.53Zm107.67,3.87c7.05-2,13-6.51,12.84-12.54-.13-6.57-7.67-12.85-18.83-16.11,1,.75,12.54,9.27,11.06,17.87a15,15,0,0,1-1.81,4.72c-2.56,4.09-6.83,6.26-8.8,7.13A28.46,28.46,0,0,0,399.28,927.4Zm-21.35-23.86c1.49,1.22,8.62,7.05,7,14-.95,4.14-4.65,7.05-6.71,8.68-4.09,3.22-7.74,4.09-7.58,4.37.34.58,17.57-1.08,22.68-9.81,3.19-5.45.61-11.85-2.95-15.75-4-4.44-9.69-6-11.79-6.59-4.18-1.12-9.33-1.52-9.76-.65S373.31,899.76,377.93,903.54ZM191.78,861.4c-1.64.74-16.12,7.18-15.28,18.31.51,6.74,5.85,12.2,13.3,15.44,2,.87,22.38,6.36,23.3,3.55.19-.55-3.84-1.27-9.16-3.55-4.48-1.93-9.17-3.94-12.26-7.91a15.07,15.07,0,0,1-3-10.66,17,17,0,0,1,4.76-11.36c4.4-4.55,10.4-5.93,10.07-6.51S197.25,858.92,191.78,861.4Zm31-2.91c-5.55.94-9.57,3.41-13.82,6.09a30.68,30.68,0,0,0-4.88,3.42c-.93.9-7.25,7.16-5.17,14.17,2.79,9.43,18.43,12.3,22.72,13.09s10.12,1.82,14.28.19c-3.63-1.07-7.65-1.25-11.25-2.76-6-2.52-10.87-8-11.81-14.3-.9-6.1,1.84-13.64,8.48-17,4.31-2.22,9.46-2.28,9.37-2.8S226.78,857.82,222.79,858.49Zm13.47,3.19c-1.79,1-8.14,4.62-10,11.16s1.32,13.87,7.79,17.33c2.39,1.27,4.88,1.72,9.87,2.62,8.35,1.51,15.58,1.3,15.63,1s-3.35-.18-7.66-1.59c-1.66-.54-5.69-1.49-8.2-4.36a16.47,16.47,0,0,1-4.39-12.69,13.67,13.67,0,0,1,2.23-6.56c3.48-5.24,9.95-7.57,12.55-8.51,4.22-1.53,6.73-1.56,6.69-1.86C260.63,857.51,246.89,855.79,236.26,861.68ZM340,848.88c.52,1.11,2.63,1.7,4.37,1.71,5.25,0,10.74-2.09,13.07-5.75,2.84-4.46-.8-8.41-5.82-10.6-1.95-.86-4.27-1.57-6.44-1-5.17,1.29.22,9.59-3.62,12.92-.69.6-1.53,1.2-1.66,2A1.35,1.35,0,0,0,340,848.88Zm-27.2.51a5.4,5.4,0,0,0,3.17,1.11c7.65.84,17.32-3.07,19.66-9,3.36-8.58-10-11.24-18.41-11-1.1,0-2.49.27-2.7,1.11a1,1,0,0,0,.35.95,6.69,6.69,0,0,0,1.05.82A6.79,6.79,0,0,1,319,839.9C318.6,842.46,310.65,847.29,312.75,849.39ZM250,827.22c-1.39-.63-3.36-1.59-4.42-2.22-1.93-1.14-5.7-4.21-6-8.28-.32-3.72,2.34-6.58,4.17-8.54,4.43-4.76,10.12-6.53,9.59-7.43-.39-.67-3.72-.07-5,.16a43,43,0,0,0-13.85,5.46c-3.36,2-6.83,4.55-8,7.78-2,5.48,3.06,8.92,8.83,11.13,9.52,3.63,19,4.49,19.24,3.94C254.57,829,253.35,828.77,250,827.22Zm28.11-25.57c4.41-2.17,9-2.5,8.9-3s-4.18-.48-7.29-.12c-13,1.54-27.87,11.76-25.46,19.49,1,3.15,4.56,5,6.88,6.25,6.55,3.45,14.38,3.16,18.84,3,2.72-.1,3.8-.43,8.81-.61a10.82,10.82,0,0,0,3-.3c0-.42-11.75,1-18.77-3.87-.61-.42-4.06-2.91-4.77-6.87C267.19,809.66,273,804.18,278.11,801.65Zm53.26-39.76a.86.86,0,0,0-.66-.09c-12.32,1.7-13.87,1.83-13.87,1.83-7.2,2-10.84,3-12.83,4.28-2.16,1.36-4.92,3.11-5,5.51-.08,3,4.07,5.1,6.13,6.15,1.42.73,3.74,1.7,15,3.27,6.75.94,9.5,1.09,9.56.89.1-.36-9.3-.43-14.53-5.35-.47-.44-4.94-4.65-3.07-7.86,2.69-4.65,18.51-7.06,19.18-8.1C331.51,762,331.37,761.89,331.37,761.89Zm9.3,21.62c.09-.27-3.55-.5-7-2.65a11.53,11.53,0,0,1-4.66-5.05c-.28-.65-1.55-3.65-.12-6.24,3.07-5.58,16.74-5.77,16.56-6.74-.1-.52-4.21-.72-8.12.07a24.55,24.55,0,0,0-4,1.21c-7.36,2.83-11,4.25-12.14,6.51-1.52,3.12.7,6.73,3,8.66,2.09,1.73,4.53,2.33,8.15,3.22C336.65,783.58,340.58,783.79,340.67,783.51Zm121.42-7.46c-1.22-2.39-4.45-4-10.9-7.09a45.31,45.31,0,0,0-9.51-3.82c-6.55-1.67-13.26-1.53-13.54-.67-.22.68,3.82,1.24,9,4.64a16,16,0,0,1,4.84,4.2,12,12,0,0,1,2.07,6.3,15.71,15.71,0,0,1-.54,6.21c-2.76,7.21-18.42,9.22-18.06,10.29.31.88,11.29-.39,22.73-3.88,7.93-2.42,10.28-4.13,11.79-5.86C460.25,786.06,464.59,780.94,462.09,776.05Z"/><path class="cls-1" d="M315.71,1108.26c-.55-2.25-1.53-5.51-18.3-13.87a143.49,143.49,0,0,0-23.1-9.39c-9.55-2.65-21.45-7.36-42.23-6.61-15.74.57-33-1-67.49-4.43a31.53,31.53,0,0,1-17-7c-2.52-2.07-10.68-9-10.73-17.49-.07-12,17.57-20,21.72-22,14.89-6.89,21.3-2,41.92-8.2,8.39-2.51,18.88-5.66,19-10.23.12-6.28-19.43-11.73-32.13-15.27-5.11-1.43-32.35-7.65-58.84-8.86-12.34-.57-24.71-.07-37-1.17-10.43-.92-23-2.3-31.64-10-.86-.77-2.49-1.94-2.56-3.71-.13-3,4.32-5.56,6.2-6.63,8.33-4.72,19.38-4.45,27.7-3.28,17.5,1.9,21.1,3.87,21.14,5.32.06,2.26-8.34,4.16-11.5,4.87-12.41,2.81-26.17,2.12-26.45-.44-.12-1.16,2.5-2.81,4.7-3.25a9,9,0,0,1,4.7.59c5.34,1.5,11-1.21,11-2,0-1-27.06-3.59-28.38,2.82a3.8,3.8,0,0,0,.53,2.41c2.45,5.06,9.27,5.67,19,5.9,13.47.33,20.21.49,27.2-.59,8.4-1.29,25-3.84,25.21-8.85.18-3.45-7.39-7.17-11.86-8.57-3.16-1-5.4-1-9.15-1.18-9.38-.45-6.64-.88-17.55-1.48-44.77-2.45-79,5.41-88.76,14.62-1,1-3.85,3.63-3.71,6.93.16,3.6,3.75,6.3,7.17,8.28,10.84,6.26,22.46,6.77,29.18,6.79,14.34,0,17.5-2.1,34.33-1.69,2.86.07,1.41.09,10.54.51,16.31.75,24.6,1.12,30.67,1,8.37-.2,16.75-.82,25.11-.37A193.09,193.09,0,0,1,165,994c5,.8,11,2.94,11.93,8.81.9,5.47-3.43,10.17-7.74,12.3-4.84,2.38-8.71,4.24-12.8,6.1-11.88,5.4-10.21,6-25.41,10.63-12.89,4-17.82,2.73-30.6,8.07a44,44,0,0,0-10.63,6.15c-5.35,4.19-14.14,10.7-5.31,18.07,12.38,10.34,28.14,11.92,28.14,11.92,19.9,1.85,37.07,2.7,40.24,2.86,12.11.61,9.56.72,22.72,1.42,19.43,1,34,1.28,54.68,3.78,0,0,25.7,3.11,32.72,17.66a29.77,29.77,0,0,1,2.15,6.19c-.09.76-.19,1.41-.27,2a39,39,0,0,1-15.21,24.8c-2.29,1.76-6.47,4.54-21.14,7.53a179.91,179.91,0,0,1-30.78,3.54c-2.29-.24-29.76-3.41-30.78-13.73-.71-7.22,11.88-14.44,13-15.06,7-3.91,14.55-3.2,29.67-1.77a24.73,24.73,0,0,1,9.27,3.1c2.24,1.27,5.93,3.37,5.94,6.2,0,.76-.26,2.06-3,4.43a23.7,23.7,0,0,1-10.64,5.39c-6.19,1.22-17.9,1.66-19.4-3.61-1.65-5.81,6.95-6.44,9.85-7.36a18,18,0,0,0-14-.76c-4.24,1.62-10.35,5.91-9.93,9.89.51,4.86,10.53,6.88,13.72,7.52,8.23,1.67,11.22-.5,24.1-2.21,15.84-2.1,17.92-1.7,29-6.56,5.29-2.31,10.2-4.46,10.2-7.38,0-4.67-12.67-8.19-19.84-10.18a126,126,0,0,0-30.49-4.67c-24.36-.52-42.22,4.78-49.06,7.13-12.78,4.39-27.81,9.56-27.75,16.29.06,6,12.29,10.56,21.26,13.87,12,4.43,21.5,5.16,34,6.12A190,190,0,0,0,214,1152c13.53-1.41,12.37-2.79,47.47-10.63,11.19-2.49,22.09-6.59,33.2-9.5,10.4-2.73,16.48-3.45,19.64-10.68C314.58,1120.64,317.21,1114.43,315.71,1108.26ZM117.36,960.08c4.29.22,4.66,0,7,.34s5,.77,6.9,2.65c6.3,6.4-15.74,9.42-18.52,9.76a25.47,25.47,0,0,0,10.1-3.54c.7-.42,1.9-1.2,2-2.36,0-.58-.19-1.29-1.23-2.37-1.68-1.72-3.59-2.47-7.28-3.47-3-.81-4.6-1.1-4.59-1.25S113.74,959.9,117.36,960.08ZM34.3,987.59c-4.76-.21-9-.4-13.1-3.54-2-1.53-4.94-3.74-5.15-7.25-.26-4.42,4-7.8,4.82-8.44,1.33-1.05,3.28-1.67,7.13-2.88,1.75-.55,5.9-2.82,7.65-1.64-3.2,2.37-8.33,3.45-10.06,7.76a8.44,8.44,0,0,0,2.68,9.9c3.8,2.66,8.13,3.46,12.16,5.37C39.08,988.21,36.05,987.67,34.3,987.59Zm27.94-1.18c-8.18-.26-12.27-.39-13.11-.59-1.2-.29-12.73-3.07-13.84-10.92-.65-4.62,2.63-8.72,3.21-9.45,2.79-3.48,6.45-4.2,13.75-5.62,4.52-.88,7.23-.89,7.27-.58.08.61-10.2.6-13.1,7.38a11.73,11.73,0,0,0-.25,8c3.4,10.12,21.65,10.33,21.51,11.52C67.62,986.57,65,986.5,62.24,986.41ZM194,997.64c4.25,1.38,15.07,4.91,14.92,8-.09,1.9-4.37,2.88-10.25,4.22-8.91,2-14.49,1.56-14.49,1.51a19.72,19.72,0,0,0,10.8-3.41c3.45-2.31,3.45-3.83,3.42-4.17-.06-.93-.83-1.5-2.37-2.65-1.84-1.37-3-1.67-5.47-3.33-1.49-1-1.5-1.18-1.49-1.23C189.16,996.06,193.19,997.38,194,997.64Zm-14.38,10.55c.94-1.27,2.77-3.76,2.41-6.64a7,7,0,0,0-1.49-3.33,10.23,10.23,0,0,0-5.93-4.2c0-.06,16.14,3.31,16.16,8.61,0,.86-.44,1.46-1.32,2.65-2.31,3.12-4.33,2.68-10,5.21-1.76.8-3.47,1.69-3.56,1.46S177.76,1010.69,179.61,1008.19Zm-60.7,62.29a71.63,71.63,0,0,1-10.16-3c-1.65-.7-15.26-6.44-15.26-13.79s13.51-13.32,17.4-15a42.63,42.63,0,0,1,6.27-2.24,28,28,0,0,0-5.19,3.84c-2.12,2-4.83,4.56-5.68,8.48a13.28,13.28,0,0,0,.25,6.06c2.7,11.43,17.39,15.08,17.13,16.3C123.58,1071.56,121.71,1071.19,118.91,1070.48Zm5.06-5.17c-4.18-3.64-6.28-7.06-6.92-11.22-2.31-14.85,21.22-22.46,21.54-20.32.09.63-2.93.81-6.78,4.28-1,.87-8.82,8.1-8.14,15.69.47,5.27,5.18,7.41,11.38,12.68,5.12,4.37,11,6.44,16.8,8C142.51,1072.73,132.2,1072.48,124,1065.31Zm116.09,61a6,6,0,0,0,.41-3.07c-.46-2.77-3.24-3.89-3-4.46s2.19.21,3.11.52a7.55,7.55,0,0,1,2.64,1.25c.26.21,2.11,1.7,2.23,3.32.26,3.6-8.77,6.77-8.9,6.43C236.46,1130.15,239,1129.24,240.06,1126.35Zm-14.83-9.3c.26-.6,3.31.79,3.93,1.07,3.32,1.52,5,2.22,5.56,3.79,2.16,6-5.51,10.41-9.2,11.37-.41.1-1,.06-1.06-.44.81-.84,1.68-1.59,2.43-2.5,1-1.24,2.5-3,2.5-5.34a8.24,8.24,0,0,0-1.43-4.07C226.58,1118.41,225,1117.48,225.23,1117.05ZM151,1140.37c-3.7-1.4-4.76-1.4-6.34-2.58-.43-.32-4.16-3.16-4.2-6.5-.08-6.49,13.92-11.73,14.15-11.2.07.14-.91.7-2.58,2.73a13,13,0,0,0-2.11,3.1,10.81,10.81,0,0,0-.56,5.67c.69,6.15,5.91,10.33,6.67,10.93C154.89,1142,153.15,1141.19,151,1140.37Zm18.67,5.6c-4.34-1.57-6.57-2.38-8.65-4.72a17.54,17.54,0,0,1-4.1-12.4c.65-7.56,7.52-14.55,16.71-14.77a32.32,32.32,0,0,0-7.69,6.53c-2.67,3.09-3.29,5-3.61,6.45a11.46,11.46,0,0,0-.13,4.07,15.72,15.72,0,0,0,3.83,8.21c5,6.09,11,7.45,10.81,8.11C176.68,1148,173.1,1147.22,169.64,1146Zm102.84-17a106.45,106.45,0,0,1-11.88,5.64c5.3-2.36,10.53-10.26,12.93-16.09,2.78-6.73,2.83-14.33-1.33-20.28-.67-1-8-7.45-11-9.07a47.77,47.77,0,0,1,16.15,8.23c3.68,2.79,9.14,6.16,9.9,11.89C288.32,1117.71,277.48,1126,272.48,1129Zm29.14-12.18c-6.62,4.8-15,8.75-15.34,7.75s8.61-3.74,10.15-11.59a15,15,0,0,0-.75-7.68,13.36,13.36,0,0,0-6.63-7.66,49.11,49.11,0,0,1,4.66,2.35,34.29,34.29,0,0,1,9.64,8c1.63,2,2,2.9,2,3.84C305.3,1114,303.2,1115.67,301.62,1116.83Z"/></g></g></svg>