<svg xmlns="http://www.w3.org/2000/svg" viewBox="0 0 1772.55 1375.41"><defs><style>.cls-1{fill:#fff;}</style></defs><title>アセット 13</title><g id="レイヤー_2" data-name="レイヤー 2"><g id="装飾"><path class="cls-1" d="M1772,186.42c-.71-2-2-5-23.82-12.56a243.85,243.85,0,0,0-30.08-8.49c-12.43-2.4-27.92-6.65-55-6-20.5.51-43-.9-87.87-4a52.54,52.54,0,0,1-22.13-6.34c-3.28-1.88-13.9-8.15-14-15.82-.09-10.85,22.88-18.13,28.28-19.87,19.39-6.23,27.73-1.82,54.58-7.42,10.92-2.27,24.58-5.11,24.68-9.25.15-5.68-25.29-10.61-41.83-13.82a595.41,595.41,0,0,0-76.6-8c-16.06-.52-32.17-.07-48.21-1.06-13.58-.84-29.93-2.08-41.19-9.07-1.12-.69-3.25-1.75-3.34-3.35-.16-2.76,5.62-5,8.08-6,10.84-4.27,25.22-4,36.06-3,22.78,1.71,27.47,3.49,27.52,4.81.08,2-10.85,3.76-15,4.4-16.16,2.54-34.07,1.92-34.43-.4-.17-1,3.25-2.54,6.11-2.94a16.44,16.44,0,0,1,6.12.54c7,1.35,14.38-1.1,14.36-1.8,0-.86-35.23-3.24-36.94,2.56a2.62,2.62,0,0,0,.69,2.18c3.19,4.58,12.06,5.13,24.78,5.34,17.54.29,26.31.44,35.41-.54,10.94-1.17,32.48-3.48,32.83-8,.23-3.12-9.62-6.48-15.45-7.75-4.12-.89-7-.9-11.91-1.06-12.21-.41-8.64-.8-22.85-1.34-58.29-2.22-102.83,4.89-115.55,13.22-1.35.89-5,3.29-4.83,6.27.2,3.26,4.88,5.7,9.34,7.49,14.11,5.67,29.23,6.13,38,6.14,18.67,0,22.79-1.89,44.69-1.52,3.72.06,1.84.08,13.72.46,21.25.67,32,1,39.94.88,10.89-.18,21.8-.74,32.68-.33,8.63.31,17.22,1,26.9,2.07,6.47.73,14.29,2.66,15.54,8,1.16,4.94-4.48,9.19-10.09,11.11-6.29,2.16-11.33,3.85-16.66,5.53-15.46,4.88-13.29,5.38-33.08,9.61-16.78,3.59-23.2,2.48-39.84,7.31a66.62,66.62,0,0,0-13.83,5.56c-7,3.79-18.41,9.68-6.92,16.34,16.12,9.36,36.64,10.79,36.64,10.79,25.9,1.68,48.26,2.44,52.39,2.59,15.76.55,12.44.65,29.57,1.29,25.3.94,44.3,1.15,71.18,3.41,0,0,33.47,2.82,42.6,16a21.73,21.73,0,0,1,2.8,5.6c-.11.68-.24,1.28-.35,1.76-3.25,13.54-16.22,20.53-19.8,22.44-3,1.59-8.42,4.11-27.52,6.81a335.37,335.37,0,0,1-40.07,3.21c-3-.23-38.75-3.09-40.07-12.42-.92-6.54,15.46-13.07,16.9-13.63,9.1-3.54,18.94-2.89,38.62-1.6a42.9,42.9,0,0,1,12.07,2.8c2.92,1.15,7.73,3,7.73,5.61,0,.68-.34,1.86-3.87,4a37.91,37.91,0,0,1-13.84,4.87c-8.07,1.1-23.31,1.51-25.26-3.26-2.15-5.26,9-5.83,12.82-6.66a32.89,32.89,0,0,0-18.24-.69c-5.52,1.47-13.47,5.35-12.93,8.95.67,4.4,13.72,6.23,17.87,6.81,10.72,1.5,14.6-.46,31.38-2,20.61-1.9,23.32-1.53,37.76-5.93,6.88-2.09,13.28-4,13.27-6.67,0-4.23-16.49-7.42-25.83-9.22a231.62,231.62,0,0,0-39.69-4.22c-31.71-.47-55,4.32-63.87,6.45-16.63,4-36.2,8.65-36.12,14.73.07,5.47,16,9.56,27.68,12.56,15.61,4,28,4.66,44.31,5.53a356.36,356.36,0,0,0,40.56-.4c17.61-1.29,16.1-2.53,61.79-9.62,14.57-2.26,28.76-6,43.23-8.6,13.53-2.46,21.45-3.12,25.57-9.66C1770.48,197.61,1773.9,192,1772,186.42ZM1513.72,52.36c5.59.2,6.07,0,9.08.31s6.57.69,9,2.39c8.2,5.79-20.49,8.52-24.1,8.83a43.4,43.4,0,0,0,13.14-3.2c.92-.38,2.47-1.08,2.57-2.14,0-.52-.25-1.17-1.61-2.14-2.18-1.56-4.67-2.23-9.47-3.14-3.92-.73-6-1-6-1.13S1509,52.2,1513.72,52.36ZM1405.6,77.25c-6.2-.19-11.67-.36-17.06-3.21-2.63-1.38-6.43-3.38-6.7-6.55-.34-4,5.22-7.06,6.27-7.64,1.73-1,4.27-1.51,9.29-2.61,2.27-.49,7.67-2.54,9.95-1.48-4.16,2.14-10.85,3.12-13.1,7-1.9,3.32-.25,7.13,3.5,9,4.94,2.41,10.57,3.14,15.83,4.86C1411.81,77.81,1407.88,77.32,1405.6,77.25ZM1442,76.18c-10.65-.23-16-.35-17.06-.53-1.57-.27-16.58-2.78-18-9.89-.85-4.18,3.42-7.88,4.19-8.54,3.63-3.16,8.39-3.8,17.89-5.09,5.89-.79,9.41-.81,9.47-.52.1.55-13.28.54-17.06,6.67a7.61,7.61,0,0,0-.32,7.22c4.42,9.15,28.18,9.34,28,10.41C1449,76.32,1445.56,76.26,1442,76.18Zm171.52,10.16c5.53,1.25,19.62,4.44,19.42,7.21-.12,1.72-5.69,2.6-13.34,3.81-11.6,1.84-18.86,1.42-18.86,1.37a34.6,34.6,0,0,0,14.06-3.08c4.49-2.1,4.48-3.47,4.45-3.77-.08-.85-1.08-1.37-3.08-2.4-2.4-1.24-3.92-1.52-7.13-3-1.94-.91-2-1.07-1.94-1.12C1607.2,84.91,1612.44,86.1,1613.49,86.34Zm-18.73,9.54c1.23-1.15,3.62-3.4,3.14-6a5.6,5.6,0,0,0-1.93-3,14.92,14.92,0,0,0-7.72-3.81s21,3,21,7.79c0,.78-.57,1.32-1.71,2.4-3,2.83-5.64,2.42-13,4.72-2.3.72-4.52,1.52-4.64,1.32S1592.36,98.15,1594.76,95.88Zm-79,56.36a127.84,127.84,0,0,1-13.23-2.67c-2.16-.63-19.86-5.83-19.86-12.48s17.58-12,22.65-13.62a74.5,74.5,0,0,1,8.16-2,38.92,38.92,0,0,0-6.75,3.47c-2.77,1.82-6.3,4.13-7.41,7.68a8.64,8.64,0,0,0,.33,5.48c3.51,10.34,22.64,13.64,22.3,14.74C1521.82,153.21,1519.39,152.87,1515.75,152.24Zm6.58-4.68c-5.43-3.3-8.17-6.39-9-10.15-3-13.44,27.63-20.32,28-18.39.12.57-3.82.74-8.83,3.87-1.27.8-11.48,7.34-10.6,14.2.62,4.77,6.75,6.7,14.81,11.47,6.67,3.95,14.29,5.82,21.88,7.24C1546.46,154.27,1533.05,154,1522.33,147.56Zm151.13,55.22A3.9,3.9,0,0,0,1674,200c-.6-2.5-4.21-3.52-3.92-4s2.86.19,4,.47a12.39,12.39,0,0,1,3.45,1.13c.34.19,2.74,1.54,2.89,3,.34,3.25-11.4,6.12-11.58,5.81S1672.07,205.39,1673.46,202.78Zm-19.31-8.42c.35-.53,4.31.72,5.12,1,4.33,1.37,6.51,2,7.25,3.42,2.8,5.42-7.18,9.42-12,10.29-.54.09-1.3,0-1.38-.4,1-.76,2.19-1.44,3.16-2.26,1.32-1.12,3.25-2.76,3.25-4.83,0-1.37-.84-2.4-1.86-3.68C1655.92,195.6,1653.9,194.76,1654.15,194.36Zm-96.66,21.1c-4.82-1.26-6.2-1.27-8.26-2.33-.56-.29-5.42-2.86-5.47-5.88-.1-5.87,18.12-10.62,18.43-10.13.08.13-1.19.63-3.36,2.46a12.9,12.9,0,0,0-2.75,2.81,7,7,0,0,0-.74,5.13c.91,5.56,7.7,9.34,8.69,9.88C1562.58,216.92,1560.32,216.21,1557.49,215.46Zm24.3,5.07c-5.65-1.42-8.56-2.15-11.26-4.27-3.48-2.73-5.83-7.15-5.34-11.22.84-6.84,9.79-13.16,21.75-13.36a41.8,41.8,0,0,0-10,5.9c-3.47,2.8-4.29,4.56-4.7,5.84a7.34,7.34,0,0,0-.16,3.69c.39,2.1,1.58,4.56,5,7.42,6.55,5.51,14.3,6.74,14.08,7.34S1586.29,221.66,1581.79,220.53Zm133.88-15.34c-5.68,2.36-15.47,5.1-15.47,5.1,6.91-2.14,13.71-9.29,16.84-14.56,3.61-6.09,3.68-13-1.73-18.35-.88-.88-10.42-6.73-14.36-8.2a76.31,76.31,0,0,1,21,7.44c4.79,2.53,11.9,5.58,12.88,10.76C1736.29,195,1722.18,202.48,1715.67,205.19Zm37.93-11c-8.61,4.35-19.51,7.92-20,7s11.22-3.38,13.21-10.49a9.73,9.73,0,0,0-1-6.94c-2.42-4.74-7.55-6.57-8.64-6.93,2.58.78,4.64,1.55,6.06,2.12a45.08,45.08,0,0,1,12.56,7.21c2.12,1.79,2.58,2.62,2.57,3.47C1758.4,191.64,1755.67,193.12,1753.6,194.16Z"/><path class="cls-1" d="M1725.23,287.57a66.44,66.44,0,0,0-15.41-7.74,119.6,119.6,0,0,0-27.52-5.78,247.17,247.17,0,0,0-42.32-.66c-13.48.9-27.65,2.14-40.74,5.52-5.34,1.38-12.66,5.86-10,12.17,1.25,3,4.69,4.6,7.91,5.57a66.88,66.88,0,0,0,17.36,3c13.49-.63,58.57-1.45,68.08-5,2.23-.82,9-2.77,9.24-5.7.24-2.4-4.25-4.05-6-4.9a46,46,0,0,0-12.71-4.15,81,81,0,0,0-10.44-.8c-13.36-.15-28.16,3-28.14,5.84,0,.88,1.45,1.47,4.36,2.67a41.35,41.35,0,0,0,15.81,3c7.16,0,18.47-1.13,18.61-3.32.08-1.16-2.92-2.6-5.57-2.67-2.36-.06-3.54,1-5.56,1.7-5.46,1.94-12.24-.2-12.35-1.63s7.21-3.93,14.24-3.92c7.6,0,15.9,2.86,16,5.65.21,5.11-8.9,6.06-12.52,6.52a106.22,106.22,0,0,1-23.24,0c-5.39-.51-8.13-.78-10.57-1.63-2.27-.79-9.06-3.15-9.15-6.67-.07-3.08,5-5.76,7.74-6.71.7-.25,4.52-2,12.57-2.45,0,0,32-2.7,55.9,13,2.61,1.7,4.42,3.49,4.22,5.33-.23,2.14-2.48,3.46-4.51,4.35-11.92,5.25-24.92,7.61-37.89,8.84-6.55.62-13.13,1-19.71,1.26-5.66.25-11.34,1.35-17.08,1.63q-2.94.15-5.9.19c-3.73.07-4.83,0-13.6.11-7.45.1-13.43.24-15.3.29-1.51,0-19.16.54-32.44,2.38-21.65,3-49.16,11.93-48.61,19,.06.74.47,2.06,5.39,4.85,12.26,6.94,24.7,7.27,29.21,7.34,36.28.55,39,.56,44.63,1.09,12.09,1.14,31.16,3.08,33,11a7.08,7.08,0,0,1-.54,4.32c-3.7,8.89-20.24,9.82-26.62,10.1-48.11,2.17-74.55,1.29-74.55,1.29-1.52-.13-34-2.82-47.38,5.83-1.42.92-5.43,3.51-5.32,6.82.13,3.66,5,6.71,7.35,7.27,23.61,5.71,49.19,1.13,72.25,8.64,3,1,6.36,2.52,7.38,5.46,1.47,4.25-5.69,9.19-7.8,10.71-7.78,5.6-16,6.86-19.73,7.38-23.53,3.31-33.16,4.06-56.23,5.18,0,0-15.78.78-24.87-5.45-2.76-1.89-3.1-3.44-3.14-4.18-.08-1.56.94-3.52,5.42-6.31,6.8-4.23,14-5.61,19-6.28,9.92-1.31,21.16-2.79,30.37,3.59a25.14,25.14,0,0,1,2.78,2.24,2.84,2.84,0,0,1,.69,2.47c-.19.66-1.13,2.38-15.53,3.58-2.81.24-4.68.39-7.42.45-6.16.13-14,.29-14.72-2.12-.36-1.15,1-2.52,1.51-3,1.49-1.51,3.45-1.77,5.33-2a14.35,14.35,0,0,1,3.71,0c1.77.22,3.67.47,4.17,1.57s-1,2.23-.66,3c1,2.12,13.92.07,14.11-2.82.12-1.89-5.28-3.6-6.24-3.9-3.5-1.1-7.49-.72-15.32.09a29.65,29.65,0,0,0-9.74,2.24c-1.73.78-4.66,2.09-4.64,3.81,0,1.32,1.76,2.29,3.52,3.25a23.4,23.4,0,0,0,7.61,2.58c10.92,1.3,26.15.51,27.36.45a110.06,110.06,0,0,0,15.76-1.79c7.79-1.5,10.42-3,10.9-4.94.15-.59.19-1.64-.93-3.36-3.73-5.72-12.74-7-15.3-7.39a228.51,228.51,0,0,0-40.29-1.57c-14.34.64-30.25,1.81-43,9.14-2.4,1.38-8.65,5.06-8.06,8.56.1.59.49,1.76,4.08,4a34.08,34.08,0,0,0,10.9,4.5c14.25,2.59,28.86,2.52,43.37,2.46,32.6-.16,65.22-.32,97.74-2.46,9.54-.63,19.58-1.61,27.49-6.69.4-.25.79-.52,1.18-.8,4.67-3.34,8.35-9.06,6.61-14.41s-8.16-8-13.86-9.59a216.88,216.88,0,0,0-62.51-8c-5.41.1-10.66-.1-16-.11-2.46,0-5.07-.2-7.08-1.57-5.15-3.51-.61-7.7,3.51-9,10.49-3.39,20.92-2.41,31.73-1.74,11.52.72,23.07.94,34.61.93,20.83,0,17.49-1,52.13-1.67,21-.43,35.82-.16,46.8-9.38,2.59-2.19,4.16-4.22,4.14-6.52-.1-9.09-25-15.89-31.07-17.54a72.18,72.18,0,0,0-12.48-2.65c-13-1.5-21.3-1.55-21.3-1.55-24.06-.13-31,2.29-43.94-1.8-4-1.27-10-3.6-10.81-8a7.29,7.29,0,0,1,.74-4.44c4-8.54,24-9.86,30.24-10.22,23.92-1.38,48-1.54,71.79-4,4.37-.46,8.74-.89,13.13-1.16,9.62-.59,19.36-.36,28.88-2.1,8.29-1.52,17.21-3.5,23.65-9.13a7.06,7.06,0,0,0,2.61-3.87C1730.11,291.6,1727.62,289.22,1725.23,287.57Zm-121.29,6.71c-1-.26-10.1-2.49-10.37-6.28s8.66-7.57,13.52-8.58a18.47,18.47,0,0,1,3.39-.47c.09.18-2.1.7-4.32,1.88-1.86,1-5.94,3.15-6.07,6.07-.16,3.29,4.76,6.08,7.59,7.09,2,.72,3.76.79,3.74.93S1607.71,295.2,1603.94,294.28Zm20.26-16.43c-2.58,1.19-5.94,3.73-6.22,6-.42,3.47,6,8.24,16.41,10.48a38.82,38.82,0,0,1-15.41.43c-3.13-.54-6.37-1.59-8.4-3.95-4.5-5.23,1.05-10.16,6-12.07a37.09,37.09,0,0,1,12.18-2.2A15.18,15.18,0,0,0,1624.2,277.85ZM1504.25,407c3.7,1,5.55,1.49,7.22,2.79.81.64,3.48,2.71,3,4.7-.27,1.16-1.49,1.75-3.94,2.92a25.63,25.63,0,0,1-6.72,2.09,19.46,19.46,0,0,1-5.11.37,14.09,14.09,0,0,0,5.59-1.28c.68-.34,3.92-1.94,4-4.34a3.73,3.73,0,0,0-.82-2.19c-2.55-3.86-6.84-5.2-6.66-5.63S1503.23,406.7,1504.25,407Zm-67.44,21.61c-.08.33-6.19-.4-10.78-3-.81-.45-1.66-1-3.36-2.17-2.66-1.79-2.93-2.14-3.1-2.53-.86-2,1.24-4.61,1.82-5.32,1.6-2,3.48-2.83,7.14-4.44,2.33-1,5.59-2.26,5.78-1.9.11.21-.92.78-3.06,2.54s-3.16,2.61-3.71,3.8a6.84,6.84,0,0,0-.46,3.81,9.75,9.75,0,0,0,2.78,5.61C1432.89,428.11,1436.88,428.33,1436.81,428.59Zm6.49-.65a10.92,10.92,0,0,1-6.64-2.93c-7.27-7.1.44-15.91,8.41-17.66,2.15-.47,4.42-.4,4.49-.05s-2.17.86-5.58,2.88c-2,1.19-1.13,1-4.15,2.95-1.39.91-3,4.15-2.18,7.24.57,2.16,2.09,3.42,3.57,4.64a38.31,38.31,0,0,0,4.21,2.58A5.39,5.39,0,0,1,1443.3,427.94Zm136.33-30.05a43.49,43.49,0,0,1,7,2.68,54.24,54.24,0,0,1,5.73,2.77c2.91,1.87,6,4.76,5,8.46-.94,3.48-4.49,6.14-7.41,8.1-4,2.73-7.86,3.65-11.47,4.6a37.5,37.5,0,0,1-10.93,1.63s-.55,0-5.79-.23c2-.45,4.88-1.12,8.34-2,4.69-1.21,7.07-1.83,8.81-2.69s6-3,8.35-7.4c1.45-2.69,1.46-4.15,1.39-4.7a7.19,7.19,0,0,0-2.55-4.26c-5.61-5.27-12.47-7-12.29-7.62C1574,396.81,1577,397.23,1579.63,397.89Zm-37.33-3.36c0-.09.27-.37,5.56.19,8.69.92,13,1.38,17.91,3.2s12.3,4.61,12.7,9.16c.34,3.86-4.57,7.08-9.12,10.07-7.12,4.67-14.27,6.16-23.47,8.08a50.27,50.27,0,0,1-6.18.89c-2.61.22-6.4.35-6.44,0s5-.79,11.59-2.92c3.91-1.25,7.2-2.3,10.67-4.7,1.17-.81,10.33-7.15,8.81-13.22-.62-2.44-2.71-3.9-4.18-4.93-2.71-1.9-4.58-1.72-12.75-4C1542.35,394.89,1542.29,394.6,1542.3,394.53Zm-59.18-4c-5.16-1-6.13-1.89-6.53-2.34a5.79,5.79,0,0,1-1.41-4.54c.59-3.53,6.16-6.52,13.91-6.72a12,12,0,0,0-4.87,3c-1.18,1.23-2.87,3-2.58,4.94s2.25,3.12,4.09,4.25c2.39,1.47,4.24,1.74,4.17,2S1486,391.09,1483.12,390.54Zm17.33-13.61c-2.46,1.17-5.52,3.88-5.44,7.07.08,3.57,4.11,7.28,9.73,7.39-.47.12-7.75,1.83-12-2.51-.55-.57-2.92-2.82-2.44-5.84s3-5,4.12-5.7c4.3-2.83,9.27-1.68,10.31-1.41A10.42,10.42,0,0,0,1500.45,376.93ZM1663,353.14c4.42,2.38,8.17,4.41,8.15,7.14,0,4.57-10.61,7.58-12.48,8.12-7.33,2.08-14.22,1.46-14.37.51-.13-.77,4.13-1.4,9.48-5.42,3.17-2.39,3.61-3.63,3.69-4.5.18-2.12-1.65-3.86-3.51-5.59-4.08-3.79-7.82-4.68-7.67-5.12C1646.54,347.63,1654.76,348.66,1663,353.14Zm-39.55-7.68c.33-1.1,10.62-.29,18.8,5.3,4.32,3,4.57,4.87,4.61,5.45.19,3-3,5.27-5.25,6.88-6.94,5-15.46,5.62-15.75,4.77-.16-.49,2.48-1.07,6-4.06,2.64-2.23,5.95-5,5.53-7.86-.27-1.85-3.4-3.81-9.65-7.67C1624.14,346,1623.39,345.77,1623.49,345.46Zm-93.76-8.56c-4-1.37-8.53-3-9.06-6.08-.56-3.31,4.91-7.12,5.18-7.32a20.34,20.34,0,0,1,5.36-2.36c2.6-.91,6.93-2.16,7.2-1.57.37.81-8,2.95-8.91,8.13a7.73,7.73,0,0,0,.36,4c1.41,3.88,6,6.51,11.51,7A34.11,34.11,0,0,1,1529.73,336.9ZM1558.18,318l-.45.23c-4.45,2.28-10.82,5.46-9.66,10.65,1,4.45,6.51,7.82,11,9.61a38.8,38.8,0,0,0,5.27,1.05c-1.55,0-4.24,0-8.17-.29-6.76-.51-17-2-18.46-9.19-1-4.85,2.69-8.3,7.4-10.36a36.85,36.85,0,0,1,8.35-2.45c1.23-.21,2.48-.33,3.73-.5.72-.1,3.49,0,3.89-.21Zm154.61-16.43a33.94,33.94,0,0,1-12.37,2.38,24.75,24.75,0,0,0,7.85-3.88,7.4,7.4,0,0,0,2.32-2.32c1.65-3.09-.7-7.14-1.36-8.28-5.34-9.24-21.49-10.83-21.33-11.52.12-.53,9.88.16,21.79,4.93,7,2.8,14.39,5.78,14.37,9.86C1724.05,297.11,1715.7,300.45,1712.79,301.61Z"/><path class="cls-1" d="M527.72,47.87c-19.46,4.83-59.71,11.94-102.58,7a153.63,153.63,0,0,0-30.58-.18c-7.53.69-29.36,2.69-31.37,9.73-.91,3.19,2.59,6.2,4.63,8,10.24,8.82,30,8.09,36.05,7.87,1.91-.07,5.59-.27,10.82,0,3.08.13,6.48.48,12.15,1.25,5.15.7,18.79,2.56,23.47,10.34a11.58,11.58,0,0,1,.45,11.45c-2.29,4.07-9.1,9.53-50.4,12.8-34.9,2.76-51.7,2.26-73.9,9.86-5.22,1.78-10.89,4.7-12,9.77-2.14,9.7,12.62,13.87,23.23,13.75,30.81-.35,45.53-.33,80.39-.92,32.48-.54,79.62,5.68,86.44,23.24,3.45,8.87-4.43,17.9-4.78,18.29-3.19,3.55-9.78,8.57-37.25,12.31C450.27,204,444,204,406,204.52c-28.23.37-39.57.54-52.08-5.21-4.53-2.08-12.17-5.71-13-11.56-1.45-9.93,17.78-18.39,18.81-18.83,6.53-2.81,22.27-2.4,53.49-1.49,5.67.17,13.52.48,19.83,4.66,1.85,1.23,7.22,4.78,6.68,10-.42,4-4,6.64-5.22,7.44a38.2,38.2,0,0,1-10.08,3.41c-13,2.47-27.61-1.54-27.7-4.95,0-1.57,3-2.85,5.35-3.83,9.08-3.8,17.48-1.34,18-2.51.72-1.67-14.9-10.63-31.74-7.81-2.72.45-14.14,2.36-16.18,8.47-.94,2.85.52,5.5,1.6,7a121.17,121.17,0,0,0,16.92,4.35,139.78,139.78,0,0,0,24.45,2.06c12.63.2,18.94.3,25.88-2.09,4-1.38,13.06-4.5,14.5-10.34,1.85-7.51-10.18-14.26-12.94-15.81a37.23,37.23,0,0,0-13.61-4.93c-56-7.76-113.18,8.2-169.73,4.43-10.42-.7-21.21-2.21-29.84-7.67s-14.41-15.88-11.08-25.14c1.79-5,5.89-8.95,10.34-12.16,41.25-29.69,105.89-1.24,150.8-25.85,2.93-7.74-9.87-11.6-18.61-10.7-27.87,2.88-58.45,8.74-82.1-5.16-2.94-1.72-5.79-3.83-7.29-6.75-5-9.82,7.43-19.58,18.43-23.33C358.87,26.68,437.93,57.52,508.06,37c3.62-1.06,7.46-2.45,9.45-5.45,4.25-6.43-9-16-10.49-17.11l-.12-.08C492,3.86,413.44,3.89,410.13,18.51c-1,4.42,5.24,8.5,7.06,9.69,2.22,1.45,8.49,4.95,39.79,2.67,14.38-1.05,21.59-1.62,22.25-3.88.82-2.82-8-7.2-16.43-8.11-5.69-.62-13.31.13-14.05,2.35-.47,1.38,1.81,3,3.69,4.08-9.53,5.22-20,5.42-25.09,1.58-2.41-1.82-4.47-5.2-3.06-8,2.21-4.43,11.86-5.21,21-6,7.66-.62,7,.23,33.87,2,5.62.37,11.4.72,17.05,3.79,2.56,1.39,6.69,3.64,6.43,6.31-.52,5.39-18.55,9-28.49,10.16-.28,0-5.58.28-16.18.78-13.41.63-17.35.79-22.36.87,0,0-7.49.12-14.64,0-16.49-.34-59.82-4.36-61.39-14.81-.4-2.7,2.12-5,5.2-7.74,8.85-8,21.92-9.71,27.89-10.44,42.1-5.19,83.88-3.82,102-3.07,8.15.33,22.25,1,38.51,6.27A114.94,114.94,0,0,1,544,11.1c3.26,1.52,22.13,10.32,21.9,18.09C565.62,38.66,542.84,44.13,527.72,47.87ZM360.53,190.6c-1-2.59-.43-6.33-.28-7.22a12,12,0,0,1,2.21-6c3.52-4.43,10.92-5.06,10.81-5.34s-14-1.06-20,6.36c-3.91,4.77-2.88,10.78.23,14.73,7.16,9.08,25.35,7.23,25.6,6.44S363.35,197.63,360.53,190.6ZM482.6,195c8-2.31,14.69-7.39,14.56-14.22-.15-7.44-8.69-14.57-21.35-18.26,1.18.85,14.22,10.51,12.53,20.25a16.91,16.91,0,0,1-2,5.36c-2.9,4.64-7.73,7.09-10,8.08A32.32,32.32,0,0,0,482.6,195Zm-24.21-27.05c1.69,1.38,9.77,8,8,15.84-1.08,4.7-5.28,8-7.61,9.84-4.64,3.66-8.78,4.64-8.6,5,.39.66,19.92-1.22,25.72-11.12,3.61-6.18.68-13.44-3.35-17.86-4.58-5-11-6.83-13.37-7.47-4.73-1.27-10.57-1.72-11.06-.73S453.16,163.66,458.39,167.94Zm-211-47.78c-1.86.84-18.28,8.14-17.33,20.76.58,7.64,6.63,13.83,15.08,17.5,2.27,1,25.37,7.21,26.42,4,.21-.63-4.36-1.44-10.39-4-5.08-2.18-10.4-4.46-13.9-9a17.08,17.08,0,0,1-3.42-12.08,19.25,19.25,0,0,1,5.39-12.89c5-5.16,11.79-6.72,11.41-7.38S253.56,117.35,247.36,120.16Zm35.15-3.3c-6.3,1.07-10.85,3.87-15.67,6.91a34.68,34.68,0,0,0-5.54,3.87c-1.05,1-8.21,8.13-5.85,16.07,3.16,10.69,20.89,13.95,25.75,14.84s11.48,2.07,16.2.22c-4.12-1.21-8.67-1.42-12.76-3.14-6.83-2.85-12.33-9-13.39-16.21-1-6.91,2.09-15.46,9.62-19.33,4.88-2.51,10.72-2.58,10.62-3.17S287,116.1,282.51,116.86Zm15.28,3.61c-2,1.13-9.24,5.25-11.38,12.66s1.49,15.72,8.83,19.65c2.71,1.45,5.53,1.95,11.19,3,9.47,1.71,17.67,1.47,17.72,1.12s-3.79-.2-8.68-1.8c-1.88-.62-6.45-1.69-9.3-4.94-3.79-4.33-5.52-9.36-5-14.39a15.6,15.6,0,0,1,2.53-7.44c3.94-5.93,11.28-8.58,14.23-9.65,4.79-1.73,7.63-1.77,7.58-2.11C325.41,115.76,309.83,113.8,297.79,120.47ZM415.34,106c.58,1.26,3,1.92,5,1.94,5.95,0,12.18-2.37,14.82-6.52,3.21-5.06-.91-9.54-6.6-12-2.21-1-4.84-1.77-7.3-1.16-5.86,1.46.25,10.88-4.11,14.66-.78.68-1.73,1.36-1.87,2.25A1.43,1.43,0,0,0,415.34,106Zm-30.85.58a6.18,6.18,0,0,0,3.6,1.25c8.68,1,19.63-3.47,22.29-10.25,3.81-9.73-11.31-12.75-20.87-12.47-1.24,0-2.82.31-3.06,1.26a1.17,1.17,0,0,0,.39,1.08,8,8,0,0,0,1.2.93,7.71,7.71,0,0,1,3.56,7.44C391.13,98.69,382.12,104.17,384.49,106.55ZM313.35,81.42c-1.56-.72-3.81-1.82-5-2.52-2.19-1.29-6.45-4.77-6.85-9.39-.36-4.22,2.67-7.47,4.74-9.69,5-5.39,11.46-7.4,10.87-8.42-.44-.75-4.22-.08-5.72.19a48.11,48.11,0,0,0-15.69,6.19c-3.82,2.25-7.75,5.15-9.07,8.82-2.21,6.21,3.47,10.11,10,12.61,10.79,4.12,21.58,5.1,21.81,4.47C318.54,83.45,317.15,83.17,313.35,81.42Zm31.88-29c5-2.46,10.21-2.83,10.08-3.41s-4.74-.55-8.25-.13C332.3,50.62,315.46,62.2,318.18,71c1.11,3.58,5.18,5.7,7.81,7.09,7.42,3.9,16.3,3.58,21.35,3.39,3.09-.11,4.32-.49,10-.69a12.3,12.3,0,0,0,3.41-.35c0-.47-13.33,1.17-21.28-4.38-.69-.48-4.6-3.3-5.41-7.79C332.84,61.5,339.39,55.29,345.23,52.42ZM405.6,7.35c-.16-.17-.48-.15-.74-.11-14,1.93-15.73,2.08-15.73,2.08-8.16,2.26-12.29,3.42-14.54,4.85-2.45,1.55-5.58,3.53-5.65,6.25-.08,3.39,4.62,5.78,6.95,7,1.62.82,4.24,1.93,17,3.71,7.65,1.07,10.77,1.24,10.83,1,.12-.41-10.53-.49-16.46-6.07-.54-.5-5.61-5.27-3.49-8.91,3.05-5.27,21-8,21.74-9.18C405.77,7.52,405.6,7.35,405.6,7.35Zm10.55,24.51c.1-.31-4-.57-8-3a13.07,13.07,0,0,1-5.29-5.73c-.31-.73-1.75-4.13-.13-7.07,3.49-6.33,19-6.54,18.77-7.63-.11-.6-4.77-.82-9.19.08a27.18,27.18,0,0,0-4.57,1.36c-8.34,3.21-12.51,4.82-13.76,7.38-1.73,3.54.79,7.63,3.44,9.82,2.36,2,5.13,2.64,9.23,3.66C411.6,31.93,416,32.17,416.15,31.86ZM553.81,23.4c-1.39-2.71-5-4.49-12.36-8A51.43,51.43,0,0,0,530.67,11c-7.42-1.9-15-1.73-15.35-.76-.25.77,4.33,1.4,10.22,5.26a18.5,18.5,0,0,1,5.5,4.76,13.74,13.74,0,0,1,2.34,7.15,18,18,0,0,1-.61,7c-3.13,8.17-20.89,10.45-20.47,11.66.34,1,12.79-.44,25.76-4.4,9-2.74,11.65-4.68,13.37-6.65C551.73,34.75,556.64,28.94,553.81,23.4Z"/><path class="cls-1" d="M1728.43,843.89c-.62-2.55-1.73-6.24-20.74-15.73a163.79,163.79,0,0,0-26.2-10.64c-10.82-3-24.31-8.34-47.87-7.49-17.85.64-37.41-1.13-76.52-5a35.75,35.75,0,0,1-19.27-8c-2.86-2.34-12.11-10.21-12.16-19.82-.08-13.59,19.92-22.72,24.63-24.9,16.88-7.81,24.14-2.29,47.52-9.29,9.51-2.85,21.4-6.42,21.5-11.6.12-7.12-22-13.3-36.43-17.32-5.8-1.62-36.68-8.66-66.71-10-14-.65-28-.08-42-1.32-11.83-1-26.06-2.61-35.87-11.37-1-.87-2.83-2.2-2.91-4.2-.14-3.45,4.9-6.31,7-7.52,9.44-5.35,22-5,31.41-3.71,19.84,2.15,23.92,4.38,24,6,.07,2.57-9.45,4.72-13,5.53-14.08,3.18-29.67,2.4-30-.51-.14-1.31,2.84-3.18,5.33-3.68a10.18,10.18,0,0,1,5.32.67c6.06,1.7,12.53-1.37,12.51-2.25,0-1.08-30.68-4.06-32.17,3.21a4.25,4.25,0,0,0,.6,2.72c2.78,5.74,10.51,6.43,21.58,6.7,15.28.37,22.91.55,30.83-.67,9.54-1.47,28.29-4.36,28.59-10,.21-3.91-8.37-8.13-13.45-9.71-3.58-1.12-6.12-1.14-10.37-1.34-10.63-.51-7.52-1-19.9-1.67-50.76-2.79-89.55,6.13-100.62,16.57-1.18,1.11-4.37,4.11-4.21,7.85.18,4.08,4.25,7.14,8.13,9.39,12.29,7.1,25.46,7.67,33.08,7.7,16.25,0,19.84-2.38,38.92-1.92,3.24.08,1.6.1,12,.58,18.5.85,27.89,1.27,34.77,1.11,9.49-.23,19-.93,28.47-.42a217,217,0,0,1,23.42,2.6c5.63.9,12.44,3.33,13.53,10,1,6.19-3.89,11.53-8.78,13.93-5.48,2.7-9.87,4.82-14.51,6.93-13.46,6.11-11.58,6.74-28.81,12-14.61,4.49-20.2,3.1-34.69,9.15a49.61,49.61,0,0,0-12,7c-6.07,4.75-16,12.13-6,20.48,14,11.73,31.91,13.52,31.91,13.52,22.55,2.1,42,3.06,45.61,3.24,13.73.69,10.84.82,25.76,1.62,22,1.17,38.58,1.44,62,4.28,0,0,29.14,3.53,37.1,20a34.35,34.35,0,0,1,2.44,7c-.1.86-.21,1.6-.32,2.2a44.22,44.22,0,0,1-17.23,28.12c-2.6,2-7.34,5.15-24,8.54a205.26,205.26,0,0,1-34.89,4c-2.61-.28-33.75-3.87-34.9-15.57-.8-8.19,13.46-16.37,14.72-17.07,7.92-4.44,16.49-3.63,33.63-2a27.86,27.86,0,0,1,10.51,3.51c2.54,1.44,6.73,3.82,6.73,7,0,.86-.3,2.34-3.36,5a26.81,26.81,0,0,1-12.06,6.1c-7,1.38-20.3,1.89-22-4.09-1.87-6.59,7.88-7.3,11.17-8.35a20.46,20.46,0,0,0-15.89-.86c-4.81,1.85-11.73,6.71-11.26,11.21.58,5.52,12,7.81,15.56,8.54,9.34,1.88,12.72-.57,27.33-2.51,18-2.39,20.31-1.93,32.88-7.43,6-2.63,11.57-5.07,11.56-8.37,0-5.3-14.36-9.29-22.49-11.55a142.79,142.79,0,0,0-34.57-5.29c-27.61-.59-47.86,5.41-55.62,8.08-14.48,5-31.52,10.84-31.45,18.47.06,6.85,13.92,12,24.1,15.73,13.59,5,24.38,5.84,38.59,6.93a216.39,216.39,0,0,0,35.32-.5c15.33-1.61,14-3.17,53.81-12,12.69-2.84,25-7.48,37.65-10.78,11.78-3.09,18.68-3.91,22.26-12.11C1727.16,857.92,1730.14,850.89,1728.43,843.89Zm-224.87-168c4.87.25,5.28,0,7.9.39s5.72.86,7.82,3c7.14,7.25-17.84,10.67-21,11.06a28.9,28.9,0,0,0,11.45-4c.79-.47,2.15-1.35,2.24-2.67,0-.66-.22-1.46-1.4-2.68-1.9-2-4.08-2.8-8.26-3.94-3.4-.92-5.21-1.24-5.2-1.42S1499.45,675.69,1503.56,675.9Zm-94.17,31.19c-5.39-.24-10.15-.46-14.85-4-2.29-1.73-5.6-4.24-5.83-8.21-.3-5,4.54-8.85,5.45-9.57,1.51-1.19,3.72-1.9,8.09-3.27,2-.63,6.69-3.19,8.67-1.86-3.62,2.69-9.45,3.9-11.4,8.8a9.56,9.56,0,0,0,3,11.22c4.31,3,9.21,3.93,13.78,6.09C1414.81,707.79,1411.38,707.18,1409.39,707.09Zm31.68-1.34c-9.27-.29-13.91-.44-14.86-.67-1.37-.33-14.44-3.48-15.69-12.38-.75-5.24,3-9.88,3.64-10.72,3.16-4,7.3-4.75,15.58-6.37,5.13-1,8.2-1,8.24-.66.1.69-11.55.69-14.85,8.37a13.3,13.3,0,0,0-.28,9c3.85,11.47,24.54,11.71,24.38,13.06C1447.17,705.93,1444.2,705.85,1441.07,705.75Zm149.37,12.73c4.81,1.57,17.08,5.56,16.91,9-.1,2.15-4.95,3.26-11.62,4.78-10.1,2.29-16.42,1.77-16.42,1.71a22.32,22.32,0,0,0,12.24-3.86c3.91-2.63,3.91-4.34,3.88-4.73-.07-1.06-.94-1.71-2.69-3-2.08-1.55-3.41-1.89-6.21-3.77-1.68-1.13-1.69-1.34-1.68-1.39C1585,716.69,1589.53,718.18,1590.44,718.48Zm-16.31,12c1.06-1.44,3.15-4.26,2.73-7.53a7.85,7.85,0,0,0-1.68-3.77,11.67,11.67,0,0,0-6.73-4.77c0-.07,18.31,3.75,18.32,9.76,0,1-.49,1.66-1.49,3-2.62,3.54-4.91,3-11.31,5.91-2,.9-3.94,1.91-4,1.66S1572,733.28,1574.13,730.44Zm-68.81,70.62c-5.89-1.47-8.84-2.21-11.52-3.34-1.88-.8-17.3-7.31-17.3-15.64s15.31-15.1,19.73-17.07a49.09,49.09,0,0,1,7.11-2.53,31.22,31.22,0,0,0-5.89,4.35c-2.4,2.27-5.48,5.17-6.44,9.62a15.22,15.22,0,0,0,.28,6.87c3.06,12.95,19.72,17.1,19.42,18.48C1510.61,802.28,1508.49,801.86,1505.32,801.06Zm5.73-5.86c-4.73-4.13-7.11-8-7.84-12.73-2.62-16.83,24.06-25.46,24.42-23,.1.71-3.32.92-7.69,4.85-1.1,1-10,9.19-9.22,17.79.53,6,5.87,8.4,12.89,14.38,5.81,4.94,12.44,7.29,19.05,9.07C1532.07,803.61,1520.38,803.32,1511.05,795.2Zm131.62,69.2a6.7,6.7,0,0,0,.46-3.49c-.52-3.13-3.67-4.41-3.41-5s2.49.24,3.52.59a8.65,8.65,0,0,1,3,1.42c.29.24,2.39,1.93,2.52,3.77.3,4.07-9.93,7.67-10.09,7.28C1638.59,868.71,1641.45,867.67,1642.67,864.4Zm-16.82-10.55c.3-.67,3.75.9,4.46,1.22,3.76,1.72,5.67,2.52,6.31,4.29,2.44,6.79-6.25,11.81-10.44,12.89-.46.12-1.12.07-1.19-.49.91-1,1.9-1.8,2.75-2.84,1.15-1.4,2.83-3.46,2.83-6,0-1.72-.73-3-1.62-4.61C1627.39,855.4,1625.63,854.35,1625.85,853.85Zm-84.18,26.44c-4.2-1.58-5.4-1.59-7.19-2.92-.49-.36-4.72-3.58-4.77-7.36-.08-7.37,15.78-13.31,16-12.71.08.17-1,.8-2.92,3.09a15,15,0,0,0-2.4,3.52,12.34,12.34,0,0,0-.64,6.43c.79,7,6.7,11.71,7.57,12.39C1546.1,882.12,1544.13,881.22,1541.67,880.29Zm21.17,6.35c-4.93-1.78-7.46-2.7-9.81-5.35a19.83,19.83,0,0,1-4.65-14.06c.73-8.57,8.53-16.49,18.94-16.74a36.75,36.75,0,0,0-8.72,7.4c-3,3.51-3.73,5.7-4.09,7.31a13.11,13.11,0,0,0-.14,4.62,17.76,17.76,0,0,0,4.34,9.31c5.7,6.9,12.45,8.44,12.25,9.19C1570.81,888.89,1566.76,888.06,1562.84,886.64Zm116.58-19.22a123,123,0,0,1-13.47,6.39c6-2.68,11.94-11.63,14.67-18.25,3.14-7.62,3.2-16.24-1.51-23-.77-1.1-9.07-8.44-12.5-10.27a54.19,54.19,0,0,1,18.3,9.32c4.17,3.17,10.36,7,11.22,13.48C1697.38,854.6,1685.1,864,1679.42,867.42Zm33-13.82c-7.5,5.45-17,9.92-17.4,8.8s9.77-4.24,11.51-13.15a17,17,0,0,0-.84-8.7,15.1,15.1,0,0,0-7.52-8.68,55.24,55.24,0,0,1,5.28,2.65,38.81,38.81,0,0,1,10.93,9c1.85,2.24,2.25,3.29,2.24,4.35C1716.63,850.44,1714.25,852.3,1712.46,853.6Z"/><path class="cls-1" d="M401.44,638.73c-.71-2-2-5-23.81-12.56a244.23,244.23,0,0,0-30.09-8.49c-12.42-2.4-27.92-6.65-55-6-20.5.51-43-.9-87.87-4a52.8,52.8,0,0,1-22.13-6.35c-3.28-1.87-13.9-8.15-14-15.82-.09-10.85,22.88-18.13,28.29-19.87,19.38-6.23,27.72-1.82,54.57-7.41C262.38,556,276,553.13,276.14,549c.15-5.68-25.29-10.61-41.83-13.82a595.41,595.41,0,0,0-76.6-8c-16.06-.52-32.16-.07-48.21-1.06C95.92,525.27,79.58,524,68.31,517c-1.11-.69-3.24-1.75-3.33-3.35-.16-2.75,5.62-5,8.07-6,10.84-4.27,25.23-4,36.07-3,22.78,1.72,27.46,3.5,27.51,4.81.08,2.05-10.85,3.76-15,4.4-16.17,2.54-34.08,1.92-34.44-.4-.16-1,3.26-2.54,6.11-2.94a16.44,16.44,0,0,1,6.12.54c7,1.35,14.38-1.1,14.36-1.8,0-.86-35.22-3.24-36.94,2.56a2.62,2.62,0,0,0,.69,2.18c3.19,4.58,12.07,5.13,24.79,5.34,17.53.29,26.3.44,35.4-.53,10.94-1.18,32.48-3.48,32.83-8,.24-3.12-9.62-6.48-15.45-7.75-4.11-.89-7-.9-11.91-1.06-12.21-.41-8.64-.8-22.85-1.34C62.1,498.49,17.55,505.6,4.84,513.93c-1.36.89-5,3.29-4.83,6.27.2,3.26,4.88,5.7,9.33,7.49,14.11,5.67,29.23,6.13,38,6.14,18.67,0,22.79-1.89,44.69-1.52,3.73.06,1.84.08,13.73.46,21.24.68,32,1,39.93.88,10.89-.18,21.8-.73,32.69-.33,8.63.31,17.21,1,26.9,2.08,6.46.72,14.28,2.65,15.53,8,1.16,4.94-4.47,9.2-10.08,11.12-6.3,2.15-11.34,3.84-16.67,5.52-15.46,4.88-13.29,5.38-33.08,9.61-16.77,3.59-23.19,2.48-39.83,7.31a66.44,66.44,0,0,0-13.84,5.56c-7,3.79-18.4,9.68-6.92,16.34C116.5,608.19,137,609.62,137,609.62c25.9,1.68,48.25,2.44,52.38,2.59,15.76.55,12.44.65,29.58,1.29,25.29.94,44.3,1.15,71.18,3.41,0,0,33.46,2.82,42.59,16a21.94,21.94,0,0,1,2.81,5.6c-.12.69-.25,1.28-.36,1.76C332,653.79,319,660.78,315.41,662.69c-3,1.59-8.42,4.11-27.52,6.81a335.55,335.55,0,0,1-40.07,3.21c-3-.23-38.75-3.09-40.07-12.42-.93-6.54,15.45-13.07,16.89-13.63,9.11-3.54,19-2.89,38.63-1.6a43,43,0,0,1,12.07,2.8c2.91,1.15,7.72,3,7.72,5.61,0,.69-.34,1.86-3.86,4a37.73,37.73,0,0,1-13.85,4.87c-8.06,1.11-23.31,1.51-25.26-3.26-2.14-5.26,9-5.83,12.82-6.66a32.86,32.86,0,0,0-18.23-.69c-5.53,1.47-13.47,5.35-12.93,9,.66,4.4,13.71,6.23,17.86,6.81,10.72,1.5,14.6-.46,31.38-2,20.61-1.9,23.33-1.53,37.76-5.93,6.88-2.09,13.28-4,13.28-6.67,0-4.23-16.5-7.42-25.83-9.22a231.7,231.7,0,0,0-39.7-4.22c-31.7-.47-55,4.32-63.87,6.45-16.63,4-36.19,8.65-36.11,14.73.07,5.47,16,9.56,27.67,12.56,15.61,4,28,4.66,44.32,5.53a356.18,356.18,0,0,0,40.55-.4c17.61-1.28,16.1-2.53,61.79-9.62,14.57-2.26,28.76-6,43.23-8.6,13.54-2.46,21.46-3.12,25.57-9.66C400,649.92,403.4,644.31,401.44,638.73ZM143.22,504.67c5.59.2,6.07,0,9.08.31s6.56.69,9,2.39c8.21,5.79-20.48,8.52-24.1,8.83a43.33,43.33,0,0,0,13.14-3.2c.92-.38,2.47-1.08,2.58-2.14.05-.52-.25-1.16-1.61-2.14-2.18-1.55-4.68-2.23-9.48-3.14-3.91-.73-6-1-6-1.13S138.51,504.51,143.22,504.67ZM35.09,529.56c-6.2-.19-11.66-.36-17.06-3.21C15.4,525,11.6,523,11.33,519.8c-.33-4,5.23-7.06,6.27-7.64,1.73-.95,4.27-1.51,9.29-2.61,2.27-.49,7.68-2.54,10-1.48-4.16,2.14-10.84,3.12-13.09,7-1.91,3.32-.26,7.13,3.49,8.95,4.95,2.41,10.58,3.14,15.83,4.87C41.31,530.12,37.37,529.63,35.09,529.56Zm36.37-1.07c-10.65-.23-16-.35-17.06-.53-1.57-.27-16.58-2.78-18-9.89-.85-4.18,3.42-7.88,4.18-8.54,3.63-3.16,8.39-3.8,17.9-5.09,5.89-.79,9.4-.81,9.46-.52.1.55-13.27.54-17.06,6.67a7.64,7.64,0,0,0-.32,7.22c4.42,9.15,28.18,9.34,28,10.42C78.47,528.63,75.05,528.57,71.46,528.49ZM243,538.65c5.53,1.25,19.62,4.44,19.42,7.21-.12,1.72-5.69,2.6-13.34,3.81-11.6,1.84-18.86,1.42-18.86,1.38A34.89,34.89,0,0,0,244.26,548c4.49-2.1,4.49-3.46,4.46-3.77-.09-.85-1.09-1.37-3.09-2.4-2.4-1.24-3.92-1.52-7.13-3-1.94-.91-1.95-1.07-1.94-1.12C236.69,537.22,241.94,538.41,243,538.65Zm-18.72,9.54c1.22-1.15,3.61-3.4,3.14-6a5.67,5.67,0,0,0-1.94-3,15,15,0,0,0-7.72-3.81s21,3,21,7.79c0,.78-.57,1.32-1.71,2.4-3,2.83-5.64,2.42-13,4.72-2.3.72-4.52,1.52-4.64,1.32S221.85,550.46,224.26,548.19Zm-79,56.36A127.84,127.84,0,0,1,132,601.88c-2.15-.63-19.86-5.83-19.86-12.48s17.58-12,22.65-13.62a75.06,75.06,0,0,1,8.16-2,38.92,38.92,0,0,0-6.75,3.47c-2.77,1.82-6.3,4.13-7.4,7.68a8.64,8.64,0,0,0,.32,5.48c3.52,10.34,22.64,13.64,22.31,14.74C151.32,605.52,148.88,605.18,145.24,604.55Zm6.59-4.68c-5.44-3.29-8.17-6.39-9-10.15-3-13.44,27.62-20.32,28-18.39.12.57-3.82.74-8.83,3.87-1.27.8-11.48,7.34-10.59,14.2.61,4.77,6.74,6.7,14.8,11.47,6.68,4,14.29,5.82,21.88,7.25C176,606.58,162.54,606.35,151.83,599.87ZM303,655.09a4,4,0,0,0,.53-2.78c-.6-2.5-4.21-3.52-3.91-4s2.85.19,4,.47a12.31,12.31,0,0,1,3.44,1.13c.34.19,2.74,1.54,2.9,3,.34,3.25-11.41,6.12-11.59,5.81S301.56,657.7,303,655.09Zm-19.31-8.41c.34-.54,4.31.71,5.12,1,4.32,1.37,6.51,2,7.24,3.42,2.81,5.42-7.18,9.42-12,10.29-.53.09-1.29,0-1.37-.39,1-.77,2.18-1.45,3.16-2.27,1.32-1.12,3.24-2.76,3.25-4.83,0-1.37-.85-2.39-1.86-3.68C285.41,647.91,283.39,647.07,283.65,646.68ZM187,667.77c-4.82-1.26-6.2-1.27-8.26-2.33-.55-.29-5.42-2.86-5.47-5.88-.1-5.87,18.12-10.62,18.43-10.13.09.13-1.18.63-3.36,2.46a13.13,13.13,0,0,0-2.75,2.81,7.07,7.07,0,0,0-.73,5.13c.9,5.56,7.69,9.34,8.69,9.89C192.07,669.23,189.81,668.52,187,667.77Zm24.31,5.07c-5.66-1.42-8.56-2.15-11.27-4.27-3.48-2.73-5.83-7.15-5.33-11.22.84-6.84,9.79-13.16,21.75-13.36a41.39,41.39,0,0,0-10,5.9c-3.48,2.81-4.29,4.56-4.71,5.84a7.46,7.46,0,0,0-.16,3.69c.39,2.11,1.58,4.56,5,7.43,6.54,5.5,14.3,6.73,14.07,7.33S215.79,674,211.29,672.84ZM345.16,657.5c-5.68,2.36-15.46,5.1-15.47,5.1,6.91-2.14,13.72-9.28,16.85-14.56,3.61-6.09,3.67-13-1.73-18.35-.89-.88-10.43-6.73-14.36-8.2a76.42,76.42,0,0,1,21,7.44c4.78,2.53,11.89,5.58,12.88,10.76C365.79,647.27,351.68,654.79,345.16,657.5Zm37.94-11c-8.61,4.34-19.52,7.91-20,7s11.21-3.38,13.21-10.49a9.78,9.78,0,0,0-1-6.94c-2.41-4.74-7.54-6.57-8.64-6.93,2.58.78,4.64,1.55,6.07,2.12a45,45,0,0,1,12.55,7.21c2.12,1.79,2.59,2.62,2.57,3.47C387.89,644,385.16,645.43,383.1,646.48Z"/><path class="cls-1" d="M354.73,739.89a66.48,66.48,0,0,0-15.41-7.75,119.83,119.83,0,0,0-27.52-5.78,247.29,247.29,0,0,0-42.33-.66c-13.48.9-27.64,2.14-40.73,5.52-5.35,1.38-12.67,5.86-10.06,12.17,1.25,3,4.69,4.6,7.91,5.57a67.63,67.63,0,0,0,17.36,3c13.5-.64,58.57-1.46,68.08-5,2.23-.82,9-2.77,9.25-5.7.23-2.4-4.26-4.05-6-4.9a45.85,45.85,0,0,0-12.71-4.15,82.71,82.71,0,0,0-10.44-.8c-13.36-.15-28.16,3-28.14,5.84,0,.88,1.46,1.47,4.36,2.67a41.36,41.36,0,0,0,15.82,3c7.15,0,18.47-1.12,18.61-3.32.07-1.16-2.92-2.6-5.58-2.67-2.35-.06-3.53,1-5.56,1.7-5.45,1.94-12.24-.2-12.35-1.63s7.21-3.93,14.24-3.92c7.61,0,15.91,2.86,16,5.65.22,5.11-8.89,6.06-12.52,6.52a106.22,106.22,0,0,1-23.24,0c-5.38-.51-8.12-.78-10.57-1.63-2.27-.79-9.06-3.15-9.14-6.67-.08-3.08,5-5.76,7.73-6.71.7-.25,4.53-2,12.57-2.45,0,0,32-2.7,55.91,13,2.6,1.7,4.41,3.49,4.21,5.33-.22,2.14-2.47,3.46-4.5,4.35-11.92,5.25-24.93,7.61-37.9,8.84-6.55.62-13.13,1-19.71,1.26-5.66.25-11.34,1.35-17.08,1.63-2,.1-3.93.16-5.89.19-3.73.07-4.84,0-13.6.11-7.45.1-13.43.24-15.3.29-1.51,0-19.16.54-32.45,2.38-21.65,3-49.16,11.93-48.6,19,.05.74.46,2.06,5.39,4.85,12.25,6.94,24.69,7.27,29.21,7.34,36.27.55,39,.56,44.63,1.09,12.08,1.14,31.16,3.08,33,11a7.19,7.19,0,0,1-.55,4.33c-3.69,8.88-20.23,9.81-26.62,10.09C176.42,825,150,824.09,150,824.09c-1.53-.13-34-2.82-47.39,5.83-1.42.92-5.43,3.52-5.31,6.82.12,3.66,5,6.71,7.34,7.27,23.61,5.71,49.19,1.13,72.26,8.64,3,1,6.35,2.52,7.37,5.47,1.47,4.24-5.68,9.18-7.79,10.7-7.78,5.61-16.05,6.86-19.74,7.38-23.53,3.31-33.15,4.06-56.23,5.19,0,0-15.78.77-24.87-5.46-2.75-1.89-3.09-3.44-3.13-4.18-.08-1.55.93-3.52,5.41-6.31,6.8-4.23,14-5.61,19-6.27,9.93-1.31,21.17-2.8,30.37,3.58a24.21,24.21,0,0,1,2.78,2.24,2.83,2.83,0,0,1,.7,2.47c-.2.67-1.14,2.38-15.53,3.58-2.81.24-4.69.39-7.42.45-6.17.13-14,.29-14.72-2.12-.36-1.15,1-2.52,1.5-3,1.49-1.51,3.46-1.77,5.33-2a14.37,14.37,0,0,1,3.71,0c1.78.23,3.67.47,4.18,1.57s-1,2.23-.66,3c1,2.12,13.92.07,14.1-2.82.12-1.89-5.27-3.59-6.24-3.9-3.49-1.1-7.48-.72-15.32.09A29.65,29.65,0,0,0,90,864.54c-1.72.78-4.66,2.09-4.63,3.81,0,1.32,1.76,2.29,3.52,3.25a23.25,23.25,0,0,0,7.61,2.58c10.91,1.3,26.14.51,27.35.45a108.88,108.88,0,0,0,15.77-1.79c7.78-1.5,10.41-3,10.89-4.93.15-.6.2-1.65-.92-3.37-3.74-5.72-12.74-7-15.3-7.39a229.76,229.76,0,0,0-40.3-1.57c-14.34.64-30.24,1.81-43,9.14-2.4,1.39-8.66,5.07-8.07,8.56.1.59.49,1.76,4.08,4a34.08,34.08,0,0,0,10.9,4.5c14.26,2.59,28.87,2.53,43.37,2.46,32.6-.16,65.22-.32,97.75-2.46,9.53-.63,19.58-1.61,27.48-6.69.4-.25.8-.52,1.19-.8,4.66-3.34,8.35-9.06,6.6-14.41s-8.16-8-13.86-9.59a216.88,216.88,0,0,0-62.51-8c-5.41.1-10.66-.1-16-.11-2.46,0-5.06-.2-7.07-1.57-5.16-3.51-.61-7.7,3.5-9,10.49-3.39,20.92-2.41,31.73-1.74,11.52.72,23.07.94,34.61.93,20.83,0,17.5-1,52.14-1.67,21-.43,35.82-.16,46.79-9.38,2.6-2.19,4.17-4.22,4.14-6.52-.09-9.09-25-15.89-31.07-17.54A72,72,0,0,0,264.15,793c-13-1.5-21.3-1.55-21.3-1.55-24.07-.13-31,2.29-43.94-1.8-4-1.27-10-3.6-10.81-8a7.23,7.23,0,0,1,.73-4.44c4-8.54,23.95-9.86,30.24-10.22,23.92-1.38,48-1.54,71.79-4,4.37-.46,8.75-.89,13.13-1.16,9.63-.59,19.37-.36,28.88-2.1,8.29-1.52,17.22-3.5,23.65-9.13a7,7,0,0,0,2.61-3.87C359.6,743.91,357.11,741.53,354.73,739.89Zm-121.29,6.7c-1-.26-10.11-2.49-10.38-6.28s8.66-7.57,13.52-8.58a18.46,18.46,0,0,1,3.4-.47c.08.18-2.11.7-4.32,1.88-1.87,1-5.94,3.15-6.08,6.07-.16,3.29,4.77,6.08,7.59,7.09,2,.72,3.77.79,3.75.93S237.2,747.51,233.44,746.59Zm20.25-16.43c-2.58,1.19-5.93,3.73-6.21,6-.43,3.47,6,8.24,16.4,10.48a39,39,0,0,1-15.4.44c-3.14-.55-6.38-1.59-8.41-4-4.49-5.23,1.05-10.16,6-12.06a36.85,36.85,0,0,1,12.18-2.21A15.18,15.18,0,0,0,253.69,730.16ZM133.75,859.29c3.69,1,5.54,1.49,7.21,2.79.82.64,3.48,2.71,3,4.71-.27,1.15-1.49,1.74-3.94,2.91a25,25,0,0,1-6.71,2.09,19.47,19.47,0,0,1-5.11.37,14.15,14.15,0,0,0,5.59-1.28c.67-.33,3.92-1.94,4-4.34a3.6,3.6,0,0,0-.82-2.19c-2.55-3.86-6.83-5.2-6.66-5.63S132.72,859,133.75,859.29ZM66.31,880.9c-.09.33-6.2-.4-10.78-3-.81-.45-1.66-1-3.37-2.17-2.66-1.79-2.93-2.14-3.09-2.53-.87-2,1.23-4.6,1.81-5.32,1.6-2,3.49-2.83,7.14-4.44,2.33-1,5.59-2.26,5.78-1.9s-.92.78-3.06,2.54-3.16,2.61-3.71,3.81a6.92,6.92,0,0,0-.46,3.81,9.71,9.71,0,0,0,2.78,5.6C62.38,880.42,66.38,880.65,66.31,880.9Zm6.49-.65a10.87,10.87,0,0,1-6.64-2.93c-7.27-7.1.43-15.91,8.4-17.66,2.16-.47,4.42-.4,4.5,0s-2.17.86-5.58,2.88c-2,1.19-1.13,1-4.16,3-1.39.91-3,4.15-2.18,7.24.57,2.16,2.09,3.42,3.57,4.64a36.84,36.84,0,0,0,4.21,2.58A5.31,5.31,0,0,1,72.8,880.25Zm136.32-30a43.11,43.11,0,0,1,7,2.68,54.88,54.88,0,0,1,5.74,2.77c2.9,1.87,6,4.76,5,8.46-.94,3.48-4.49,6.14-7.4,8.1-4.06,2.73-7.86,3.65-11.47,4.6a37.24,37.24,0,0,1-10.94,1.63s-.55,0-5.79-.23c2-.45,4.89-1.12,8.35-2,4.68-1.21,7.06-1.83,8.81-2.69s6-3,8.34-7.4c1.45-2.69,1.46-4.15,1.39-4.7a7.14,7.14,0,0,0-2.55-4.26c-5.61-5.27-12.47-7-12.29-7.62C203.45,849.12,206.5,849.54,209.12,850.2Zm-37.33-3.36c0-.09.27-.37,5.56.19,8.7.92,13.05,1.38,17.91,3.2s12.3,4.61,12.7,9.16c.34,3.86-4.57,7.08-9.12,10.07-7.12,4.67-14.26,6.16-23.47,8.08a49.58,49.58,0,0,1-6.18.89c-2.61.22-6.39.35-6.44,0s5-.79,11.59-2.91c3.92-1.26,7.2-2.31,10.67-4.71,1.17-.81,10.34-7.15,8.81-13.22-.61-2.44-2.7-3.9-4.17-4.93-2.71-1.9-4.59-1.72-12.76-4C171.84,847.2,171.78,846.91,171.79,846.84Zm-59.17-4c-5.17-1-6.13-1.89-6.53-2.34a5.79,5.79,0,0,1-1.41-4.54c.58-3.53,6.16-6.52,13.91-6.72a12,12,0,0,0-4.87,3c-1.18,1.23-2.88,3-2.58,4.94s2.25,3.12,4.09,4.25c2.39,1.47,4.23,1.74,4.17,2S115.52,843.4,112.62,842.85Zm17.32-13.61c-2.46,1.17-5.52,3.88-5.44,7.07.09,3.58,4.12,7.28,9.74,7.39-.48.12-7.75,1.83-12-2.51-.55-.57-2.91-2.82-2.44-5.84s3-5,4.13-5.7c4.29-2.83,9.27-1.68,10.31-1.41A10.43,10.43,0,0,0,129.94,829.24Zm162.6-23.79c4.41,2.38,8.16,4.41,8.14,7.14,0,4.57-10.61,7.59-12.48,8.12-7.32,2.08-14.22,1.46-14.37.51-.12-.77,4.13-1.4,9.48-5.42,3.17-2.39,3.61-3.63,3.69-4.5.18-2.12-1.64-3.86-3.5-5.59-4.09-3.79-7.82-4.67-7.68-5.12C276,799.94,284.25,801,292.54,805.45ZM253,797.77c.34-1.1,10.63-.29,18.8,5.3,4.33,3,4.58,4.88,4.61,5.45.19,3-3,5.27-5.25,6.88-6.93,5-15.46,5.62-15.75,4.77-.16-.49,2.49-1.06,6-4.06,2.63-2.23,5.94-5,5.53-7.86-.28-1.85-3.41-3.81-9.66-7.67C253.63,798.34,252.88,798.08,253,797.77Zm-93.76-8.56c-4-1.37-8.53-3-9.05-6.08-.57-3.31,4.9-7.12,5.18-7.31a19.9,19.9,0,0,1,5.35-2.37c2.6-.91,6.94-2.16,7.2-1.57.37.81-8,3-8.91,8.13a7.73,7.73,0,0,0,.36,4c1.41,3.88,6,6.51,11.51,7A34.14,34.14,0,0,1,159.22,789.21Zm28.45-18.85-.44.22c-4.45,2.28-10.83,5.46-9.66,10.65,1,4.45,6.5,7.82,11,9.62a40.16,40.16,0,0,0,5.27,1c-1.55,0-4.25,0-8.18-.29-6.76-.51-17-2-18.45-9.19-1-4.85,2.68-8.3,7.4-10.36a36.25,36.25,0,0,1,8.34-2.44c1.24-.22,2.49-.34,3.73-.51.72-.1,3.49,0,3.9-.21Zm154.62-16.44a34,34,0,0,1-12.38,2.38,24.75,24.75,0,0,0,7.85-3.88,7.4,7.4,0,0,0,2.32-2.32c1.65-3.09-.69-7.14-1.35-8.28-5.34-9.24-21.5-10.82-21.34-11.52.12-.53,9.89.16,21.79,4.93,7,2.8,14.39,5.78,14.38,9.87C353.54,749.42,345.19,752.76,342.29,753.92Z"/><path class="cls-1" d="M497.79,972.63c-19.46,4.83-59.71,11.94-102.58,7a153.48,153.48,0,0,0-30.57-.18c-7.54.69-29.37,2.69-31.38,9.73-.91,3.19,2.59,6.2,4.63,8,10.24,8.82,30,8.09,36.05,7.87,1.91-.07,5.6-.27,10.82,0,3.08.13,6.48.48,12.15,1.25,5.15.7,18.79,2.56,23.48,10.34a11.57,11.57,0,0,1,.44,11.45c-2.29,4.06-9.09,9.53-50.4,12.8-34.9,2.76-51.7,2.26-73.9,9.86-5.21,1.78-10.88,4.7-12,9.77-2.15,9.7,12.61,13.87,23.23,13.75,30.8-.35,45.52-.33,80.39-.92,32.47-.54,79.61,5.67,86.44,23.24,3.44,8.87-4.44,17.9-4.79,18.29-3.19,3.55-9.78,8.57-37.25,12.31-12.21,1.66-18.51,1.71-56.5,2.2-28.23.37-39.57.54-52.07-5.21-4.53-2.08-12.18-5.71-13-11.56-1.45-9.93,17.78-18.39,18.81-18.84,6.53-2.8,22.27-2.4,53.49-1.48,5.67.17,13.52.48,19.83,4.66,1.85,1.23,7.22,4.78,6.68,10-.42,4-4,6.64-5.21,7.44a38.29,38.29,0,0,1-10.09,3.41c-13,2.47-27.61-1.54-27.7-5,0-1.57,3-2.85,5.35-3.83,9.08-3.8,17.48-1.34,18-2.51.72-1.67-14.9-10.63-31.74-7.82-2.71.46-14.14,2.37-16.17,8.48-.95,2.85.51,5.5,1.59,7a121.17,121.17,0,0,0,16.92,4.35,139.85,139.85,0,0,0,24.45,2.06c12.63.2,18.95.3,25.89-2.09,4-1.38,13.05-4.5,14.49-10.34,1.86-7.51-10.17-14.26-12.93-15.81A37.33,37.33,0,0,0,399,1087.3c-56.05-7.75-113.18,8.21-169.72,4.44-10.43-.7-21.22-2.21-29.84-7.67s-14.42-15.88-11.09-25.14c1.79-5,5.89-9,10.35-12.16,41.24-29.69,105.88-1.24,150.8-25.85,2.93-7.74-9.88-11.6-18.61-10.7-27.88,2.88-58.46,8.74-82.11-5.16-2.94-1.72-5.78-3.83-7.28-6.75-5.05-9.82,7.42-19.58,18.43-23.33,69-23.54,148.1,7.3,218.24-13.19,3.61-1.06,7.46-2.45,9.45-5.46,4.25-6.42-9-16-10.5-17.1l-.11-.08c-15-10.53-93.47-10.5-96.78,4.12-1,4.42,5.24,8.5,7.06,9.68,2.22,1.46,8.49,5,39.79,2.68,14.38-1,21.59-1.62,22.25-3.89.82-2.81-8-7.19-16.43-8.1-5.69-.62-13.31.13-14.05,2.35-.46,1.38,1.82,3,3.69,4.08-9.53,5.22-20,5.42-25.09,1.58-2.4-1.82-4.46-5.21-3.06-8,2.21-4.43,11.87-5.21,21-6,7.66-.62,7,.22,33.87,2,5.62.37,11.4.71,17,3.79,2.56,1.39,6.69,3.64,6.43,6.31-.52,5.39-18.55,9-28.48,10.16-.29,0-5.59.28-16.18.78-13.42.63-17.36.79-22.37.87,0,0-7.49.12-14.64,0-16.49-.34-59.82-4.36-61.39-14.81-.4-2.7,2.12-5,5.2-7.74,8.85-8,21.92-9.71,27.89-10.44,42.11-5.19,83.88-3.82,102-3.07,8.16.33,22.25,1,38.51,6.27a114.94,114.94,0,0,1,10.78,4.09c3.26,1.52,22.13,10.31,21.9,18.09C535.69,963.42,512.91,968.89,497.79,972.63ZM330.6,1115.36c-1-2.59-.43-6.33-.28-7.22a12,12,0,0,1,2.21-6c3.53-4.43,10.92-5.06,10.82-5.34s-14-1.06-20.05,6.36c-3.9,4.77-2.88,10.78.23,14.73,7.16,9.08,25.35,7.23,25.6,6.44S333.43,1122.39,330.6,1115.36Zm122.07,4.39c8-2.31,14.7-7.39,14.56-14.22-.15-7.44-8.69-14.57-21.34-18.26,1.17.85,14.21,10.51,12.53,20.25a17.07,17.07,0,0,1-2.06,5.36c-2.89,4.64-7.73,7.09-10,8.08A32.24,32.24,0,0,0,452.67,1119.75Zm-24.21-27c1.7,1.38,9.78,8,8,15.84-1.08,4.7-5.27,8-7.61,9.84-4.63,3.66-8.78,4.64-8.6,5,.39.66,19.92-1.22,25.72-11.12,3.61-6.18.69-13.44-3.34-17.86-4.59-5-11-6.83-13.38-7.47-4.73-1.27-10.57-1.72-11.06-.73S423.23,1088.42,428.46,1092.7Zm-211-47.78c-1.86.84-18.28,8.14-17.33,20.76.58,7.64,6.63,13.83,15.08,17.5,2.28,1,25.37,7.21,26.42,4,.21-.63-4.36-1.44-10.39-4-5.08-2.18-10.4-4.47-13.9-9a17.13,17.13,0,0,1-3.42-12.08,19.3,19.3,0,0,1,5.39-12.89c5-5.16,11.79-6.72,11.42-7.38S223.63,1042.11,217.43,1044.92Zm35.15-3.3c-6.29,1.07-10.85,3.87-15.66,6.91a34.21,34.21,0,0,0-5.54,3.87c-1.06,1-8.21,8.12-5.86,16.07,3.17,10.69,20.89,14,25.75,14.84s11.48,2.07,16.2.22c-4.12-1.21-8.67-1.42-12.76-3.14-6.82-2.86-12.32-9-13.39-16.21-1-6.91,2.09-15.46,9.62-19.33,4.89-2.51,10.72-2.58,10.63-3.17S257.1,1040.86,252.58,1041.62Zm15.28,3.61c-2,1.13-9.24,5.25-11.38,12.66s1.49,15.72,8.83,19.65c2.71,1.44,5.54,2,11.19,3,9.47,1.71,17.67,1.47,17.73,1.12s-3.8-.2-8.69-1.8c-1.88-.62-6.45-1.69-9.3-4.94-3.79-4.33-5.52-9.36-5-14.39a15.49,15.49,0,0,1,2.53-7.44c3.94-5.94,11.27-8.58,14.22-9.65,4.79-1.73,7.63-1.77,7.58-2.11C295.48,1040.52,279.9,1038.56,267.86,1045.23Zm117.55-14.5c.58,1.26,3,1.92,4.95,1.93,6,0,12.18-2.36,14.82-6.51,3.22-5.06-.91-9.54-6.59-12-2.22-1-4.85-1.78-7.31-1.16-5.86,1.46.25,10.88-4.1,14.66-.79.68-1.73,1.36-1.88,2.25A1.43,1.43,0,0,0,385.41,1030.73Zm-30.84.58a6.13,6.13,0,0,0,3.59,1.25c8.68,1,19.64-3.47,22.3-10.25,3.81-9.73-11.32-12.75-20.88-12.47-1.24,0-2.82.31-3.06,1.26a1.16,1.16,0,0,0,.4,1.08,7.42,7.42,0,0,0,1.19.93,7.71,7.71,0,0,1,3.56,7.44C361.2,1023.45,352.19,1028.93,354.57,1031.31Zm-71.14-25.13c-1.57-.72-3.81-1.82-5-2.52-2.19-1.29-6.46-4.78-6.85-9.39-.36-4.22,2.66-7.47,4.73-9.69,5-5.39,11.47-7.4,10.87-8.42-.44-.75-4.22-.08-5.72.18a48.42,48.42,0,0,0-15.69,6.2c-3.82,2.24-7.75,5.15-9.06,8.82-2.22,6.21,3.46,10.11,10,12.61,10.79,4.12,21.58,5.1,21.81,4.47C288.61,1008.21,287.22,1007.92,283.43,1006.18Zm31.87-29c5-2.46,10.21-2.83,10.09-3.41s-4.74-.55-8.26-.13c-14.75,1.73-31.6,13.32-28.87,22.09,1.11,3.58,5.17,5.7,7.8,7.09,7.42,3.9,16.3,3.58,21.36,3.39,3.08-.11,4.31-.49,10-.69a12.3,12.3,0,0,0,3.41-.35c0-.47-13.32,1.16-21.28-4.39-.69-.48-4.6-3.29-5.41-7.78C302.91,986.26,309.46,980.05,315.3,977.18Zm60.38-45.08a.93.93,0,0,0-.75-.1c-14,1.93-15.73,2.08-15.73,2.08-8.16,2.26-12.28,3.42-14.54,4.85-2.44,1.55-5.58,3.53-5.65,6.25-.08,3.39,4.63,5.78,7,7,1.61.82,4.24,1.93,17,3.71,7.65,1.07,10.77,1.23,10.83,1,.13-.41-10.53-.49-16.46-6.07-.53-.5-5.6-5.27-3.49-8.91,3.05-5.27,21-8,21.75-9.18C375.84,932.28,375.68,932.1,375.68,932.1Zm10.54,24.52c.1-.31-4-.57-8-3a13,13,0,0,1-5.29-5.73c-.31-.73-1.76-4.13-.14-7.07,3.49-6.33,19-6.54,18.78-7.63-.11-.6-4.78-.82-9.2.08a27.32,27.32,0,0,0-4.56,1.36c-8.34,3.21-12.51,4.82-13.77,7.38-1.73,3.54.8,7.63,3.44,9.82,2.36,2,5.13,2.64,9.24,3.66C381.67,956.69,386.12,956.93,386.22,956.62Zm137.66-8.46c-1.39-2.71-5-4.49-12.35-8-4.32-2.1-6.86-3.33-10.78-4.33-7.43-1.9-15.05-1.73-15.36-.76-.25.77,4.33,1.4,10.23,5.26a18.46,18.46,0,0,1,5.49,4.76,13.65,13.65,0,0,1,2.34,7.15,17.75,17.75,0,0,1-.61,7c-3.12,8.17-20.88,10.45-20.47,11.66.34,1,12.79-.44,25.76-4.4,9-2.74,11.65-4.68,13.37-6.65C521.8,959.51,526.71,953.7,523.88,948.16Z"/><path class="cls-1" d="M357.93,1324.8c-.62-2.56-1.74-6.25-20.75-15.74A163.2,163.2,0,0,0,311,1298.43c-10.82-3-24.32-8.35-47.88-7.5-17.85.64-37.41-1.13-76.51-5a35.75,35.75,0,0,1-19.28-8c-2.86-2.34-12.11-10.21-12.16-19.82-.08-13.59,19.92-22.72,24.63-24.9,16.88-7.81,24.14-2.28,47.52-9.29,9.52-2.85,21.41-6.42,21.5-11.6.13-7.12-22-13.3-36.43-17.32-5.79-1.62-36.68-8.66-66.71-10-14-.65-28-.08-42-1.32-11.82-1.05-26.06-2.61-35.87-11.37-1-.87-2.83-2.2-2.91-4.2-.14-3.45,4.9-6.31,7-7.52,9.45-5.35,22-5,31.41-3.71,19.84,2.15,23.92,4.38,24,6,.07,2.57-9.46,4.72-13,5.53-14.08,3.18-29.67,2.4-30-.5-.14-1.32,2.84-3.19,5.33-3.69a10.17,10.17,0,0,1,5.32.67c6.07,1.7,12.53-1.37,12.51-2.25,0-1.08-30.67-4.06-32.17,3.21a4.23,4.23,0,0,0,.61,2.73c2.77,5.73,10.5,6.42,21.58,6.69,15.27.37,22.91.55,30.83-.67,9.53-1.47,28.29-4.36,28.59-10,.2-3.91-8.38-8.13-13.46-9.71-3.58-1.12-6.11-1.14-10.37-1.34-10.63-.51-7.52-1-19.9-1.67-50.75-2.78-89.55,6.13-100.62,16.57-1.18,1.11-4.37,4.12-4.2,7.86.17,4.08,4.25,7.13,8.13,9.38,12.28,7.1,25.45,7.68,33.07,7.7,16.26,0,19.85-2.38,38.92-1.92,3.24.08,1.6.1,12,.58,18.5.85,27.89,1.27,34.78,1.11,9.48-.23,19-.92,28.46-.42a219.74,219.74,0,0,1,23.43,2.6c5.63.91,12.44,3.33,13.53,10,1,6.19-3.9,11.53-8.79,13.94-5.48,2.69-9.87,4.81-14.51,6.92-13.46,6.11-11.57,6.74-28.81,12-14.61,4.49-20.2,3.1-34.69,9.15a50.14,50.14,0,0,0-12,7c-6.07,4.75-16,12.13-6,20.48,14,11.73,31.91,13.53,31.91,13.53,22.56,2.09,42,3.05,45.62,3.23,13.73.69,10.83.82,25.75,1.62,22,1.18,38.58,1.44,62,4.28,0,0,29.15,3.53,37.1,20a33.68,33.68,0,0,1,2.44,7c-.1.86-.21,1.6-.31,2.2A44.17,44.17,0,0,1,283,1354.82c-2.59,2-7.33,5.15-24,8.54a205.4,205.4,0,0,1-34.9,4c-2.6-.28-33.74-3.87-34.89-15.57-.81-8.18,13.46-16.37,14.71-17.07,7.93-4.44,16.5-3.63,33.63-2a27.79,27.79,0,0,1,10.52,3.52c2.54,1.44,6.72,3.81,6.72,7,0,.85-.29,2.33-3.36,5a26.81,26.81,0,0,1-12.06,6.1c-7,1.38-20.3,1.89-22-4.09-1.88-6.59,7.87-7.3,11.16-8.35a20.47,20.47,0,0,0-15.88-.86c-4.81,1.85-11.73,6.71-11.26,11.21.58,5.52,11.94,7.81,15.55,8.54,9.34,1.88,12.72-.57,27.33-2.51,17.95-2.38,20.32-1.93,32.88-7.43,6-2.63,11.57-5.07,11.57-8.37,0-5.3-14.37-9.29-22.5-11.55a142.73,142.73,0,0,0-34.56-5.29c-27.62-.59-47.87,5.41-55.62,8.08-14.49,5-31.53,10.84-31.46,18.47.06,6.85,13.93,12,24.11,15.73,13.59,5,24.37,5.84,38.58,6.93a215.17,215.17,0,0,0,35.32-.5c15.34-1.61,14-3.17,53.81-12.05,12.69-2.83,25.05-7.48,37.65-10.78,11.78-3.09,18.68-3.91,22.27-12.11C356.65,1338.83,359.63,1331.79,357.93,1324.8Zm-224.88-168c4.87.25,5.29,0,7.91.39s5.71.86,7.81,3c7.15,7.25-17.84,10.67-21,11.06a28.94,28.94,0,0,0,11.44-4c.8-.48,2.15-1.36,2.24-2.68.05-.66-.22-1.46-1.4-2.68-1.9-2-4.07-2.8-8.25-3.94-3.41-.92-5.22-1.24-5.2-1.42S129,1156.59,133.05,1156.8ZM38.89,1188c-5.4-.24-10.16-.46-14.86-4-2.29-1.73-5.6-4.24-5.83-8.21-.29-5,4.55-8.85,5.46-9.57,1.5-1.19,3.72-1.9,8.09-3.27,2-.62,6.68-3.19,8.66-1.86-3.62,2.69-9.44,3.91-11.4,8.8a9.56,9.56,0,0,0,3,11.22c4.31,3,9.21,3.93,13.79,6.09C44.3,1188.69,40.87,1188.08,38.89,1188Zm31.67-1.34c-9.27-.29-13.91-.44-14.86-.67-1.36-.33-14.43-3.48-15.69-12.38-.74-5.24,3-9.88,3.64-10.72,3.17-3.94,7.31-4.75,15.59-6.36,5.13-1,8.19-1,8.24-.67.09.7-11.56.69-14.86,8.37a13.36,13.36,0,0,0-.28,9c3.85,11.47,24.54,11.71,24.39,13.06C76.67,1186.83,73.69,1186.75,70.56,1186.65Zm149.37,12.73c4.82,1.57,17.09,5.56,16.92,9-.11,2.15-5,3.26-11.63,4.78-10.1,2.3-16.42,1.77-16.42,1.72a22.47,22.47,0,0,0,12.24-3.87c3.92-2.63,3.91-4.34,3.88-4.73-.07-1.06-.94-1.71-2.68-3-2.09-1.55-3.41-1.89-6.21-3.77-1.69-1.13-1.7-1.33-1.69-1.39C214.45,1197.59,219,1199.08,219.93,1199.38Zm-16.31,12c1.07-1.44,3.15-4.26,2.74-7.53a8,8,0,0,0-1.69-3.77,11.67,11.67,0,0,0-6.72-4.77c0-.07,18.3,3.75,18.32,9.76,0,1-.5,1.66-1.5,3-2.61,3.54-4.91,3-11.31,5.91-2,.9-3.93,1.91-4,1.66S201.53,1214.18,203.62,1211.34ZM134.81,1282c-5.89-1.48-8.84-2.22-11.52-3.35-1.87-.79-17.29-7.31-17.29-15.64s15.31-15.1,19.72-17.06a46.78,46.78,0,0,1,7.11-2.53,31,31,0,0,0-5.88,4.34c-2.41,2.27-5.48,5.17-6.45,9.62a15.37,15.37,0,0,0,.28,6.87c3.06,13,19.72,17.1,19.43,18.48C140.1,1283.19,138,1282.76,134.81,1282Zm5.74-5.87c-4.74-4.13-7.12-8-7.85-12.72-2.62-16.84,24.06-25.47,24.42-23,.11.71-3.32.92-7.69,4.85-1.1,1-10,9.19-9.22,17.79.53,6,5.87,8.4,12.89,14.38,5.82,5,12.45,7.29,19.06,9.07C161.56,1284.51,149.88,1284.22,140.55,1276.1Zm131.61,69.2a6.67,6.67,0,0,0,.46-3.48c-.51-3.13-3.66-4.41-3.4-5.06s2.48.24,3.51.59a8.65,8.65,0,0,1,3,1.42c.3.24,2.39,1.93,2.53,3.77.29,4.07-9.94,7.67-10.09,7.28C268.08,1349.61,271,1348.57,272.16,1345.3Zm-16.82-10.54c.3-.68,3.76.9,4.46,1.22,3.77,1.71,5.67,2.51,6.31,4.28,2.44,6.79-6.25,11.81-10.43,12.89-.47.13-1.13.07-1.2-.49.91-1,1.9-1.8,2.75-2.84,1.15-1.4,2.83-3.45,2.83-6,0-1.71-.73-3-1.62-4.61C256.88,1336.3,255.12,1335.25,255.34,1334.76Zm-84.18,26.44c-4.2-1.59-5.4-1.6-7.19-2.93-.48-.36-4.72-3.58-4.76-7.36-.09-7.37,15.77-13.31,16-12.71.07.17-1,.8-2.93,3.1a14.68,14.68,0,0,0-2.39,3.51,12.23,12.23,0,0,0-.64,6.43c.78,7,6.69,11.71,7.56,12.39C175.6,1363,173.63,1362.13,171.16,1361.2Zm21.17,6.35c-4.92-1.79-7.46-2.7-9.81-5.36a19.88,19.88,0,0,1-4.65-14.06c.73-8.56,8.53-16.49,18.94-16.74a36.66,36.66,0,0,0-8.71,7.4c-3,3.51-3.74,5.7-4.1,7.31a13.12,13.12,0,0,0-.14,4.62,17.84,17.84,0,0,0,4.34,9.31c5.7,6.9,12.45,8.44,12.26,9.19C200.31,1369.8,196.25,1369,192.33,1367.55Zm116.59-19.23a121.88,121.88,0,0,1-13.48,6.39c6-2.68,11.95-11.63,14.67-18.24,3.14-7.63,3.2-16.25-1.51-23-.76-1.1-9.07-8.44-12.5-10.27a54.19,54.19,0,0,1,18.3,9.32c4.17,3.17,10.37,7,11.22,13.48C326.88,1335.5,314.59,1344.93,308.92,1348.32Zm33-13.82c-7.5,5.45-17,9.92-17.39,8.8s9.77-4.24,11.5-13.15a17,17,0,0,0-.84-8.7,15.14,15.14,0,0,0-7.52-8.68,54.06,54.06,0,0,1,5.28,2.65,38.67,38.67,0,0,1,10.93,9c1.85,2.25,2.26,3.29,2.24,4.35C346.13,1331.34,343.75,1333.2,342,1334.5Z"/></g></g></svg>