<svg id="back" xmlns="http://www.w3.org/2000/svg" viewBox="0 0 100 45"><defs><style>.cls-1{fill:#b64e30;}</style></defs><title>parts</title><path class="cls-1" d="M73.57,11.57c-1-4.51-5.47-7.46-10.45-7.46a9.12,9.12,0,0,0-2.83.46A12.08,12.08,0,0,0,57,4.11a9.69,9.69,0,0,0-1.54.14,7.45,7.45,0,0,0-1.66-1.81A7.87,7.87,0,0,0,50.41.65a8.17,8.17,0,0,0-4-.62L43.78.5a10.25,10.25,0,0,0-4.34,2.64l-.09.12-.86-.56a10.75,10.75,0,0,0-5.19-1l-2.68.47a10.15,10.15,0,0,0-4.33,2.64l-.88.82c-.18.17-.34.35-.5.53a21.16,21.16,0,0,0-.42,6.14,8.51,8.51,0,0,0,4,6.2,8.48,8.48,0,0,0,6,.85C38.68,18.5,42.39,16.14,46,14a15.5,15.5,0,0,0-3.21-4.75,5.4,5.4,0,0,0-5.33-.92c-1.25.36-2.34.92-3.63,1.16-.57.11-1.83.17-2.26.62-.65.71.68,2.17,1.24,2.62a2.28,2.28,0,0,0,1.09.56c1.72.25,2.94-2.41,3.77-2.09.58.22.74,1.8,0,2.68a2,2,0,0,1-.36.32c-1.52,1.1-2.71,2-3.73,1.71-.59-.15-.46-.5-1.37-1.27-1.54-1.31-2.65-.94-3.12-1.81-.36-.68.08-1.57,1-3.35C30.74,8,31.1,7.29,31.78,7c1.08-.44,1.8.38,3.6.41,1.57,0,2.16-.56,3.53-.92,3.24-.87,7.8.38,8.66,2.5.57,1.43-.23,4,.11,4.86a.91.91,0,0,1,0,.75.8.8,0,0,1-.29.29C41.32,18.57,40,19.05,40,19.05c-3.77,1.21-3.74.41-6.23,1.55s-3.09,2.14-4.29,1.81c-.94-.26-1-1.05-3-3.54-1.34-1.62-1.35-1.29-1.94-2.18a10,10,0,0,1-1.66-5.11,19.31,19.31,0,0,1,0-2.15A10.94,10.94,0,0,0,19.27,9h-.88a8.06,8.06,0,0,0-3.86,1,7.57,7.57,0,0,0-3.15,2.11,7,7,0,0,0-1.93,3.13c0,.1-.08.2-.12.3A9.83,9.83,0,0,0,0,25.44c.3,5.32,5.17,8.93,10.67,8.93a9.17,9.17,0,0,0,3.07-.54c1.48,3.81,5.57,6.25,10.09,6.25A9.29,9.29,0,0,0,29,38.47l.54.17a8.82,8.82,0,0,0,.86.31l1.41.9a10.55,10.55,0,0,0,4.19,1,3.65,3.65,0,0,0,.26.32A14.06,14.06,0,0,0,36,39c-.15-.73-.35-2.14-.86-4.23-.88-3.57-1.38-4.34-.78-5.27a5.6,5.6,0,0,1,1.75-1.27c2.41-1.45,3-1.25,4.06-2.07,2.13-1.57,1.41-3.3,3-3.73.89-.25,1.18.3,4.58.87a11.76,11.76,0,0,1,1.59.27c.54.16,1.35.49,3.37,2.31,1.29,1.16,1.94,1.75,2.15,2.35a4.58,4.58,0,0,1-.19,2.9c-.6,2.11-1,3.42-2.23,4.69a9.37,9.37,0,0,1-6.54,2.37c-.74,0-3.9.07-4.49-1.27-.31-.72.48-1.06,1.31-3.24s.62-3.54,1.86-4.38c1.76-1.2,3.48.13,4.35,1.61.5.86-.89,1.64-1.39.79-.34-.58-.92-1.38-1.52-1.37a1,1,0,0,0-.51.2,2.58,2.58,0,0,0-.56.62,3.41,3.41,0,0,0,0,4c1.09,1.22,3.46,1.11,4.9.57a4.42,4.42,0,0,0,2.59-2.87c.81-2.57,0-6.07-2.7-7.46a5.82,5.82,0,0,0-5,0c-2.14,1.06-1.72,2.91-4.26,4.15-1.36.65-2.29.52-2.78,1.37s0,1.2.05,2.79c0,1.81-.52,2.17-.47,3.36a5.67,5.67,0,0,0,2.22,3.89A2.61,2.61,0,0,0,39.94,44a2,2,0,0,0,1,.32,8.17,8.17,0,0,0,4,.62l2.67-.47a10.25,10.25,0,0,0,4.34-2.64l1.34-1.81a9.81,9.81,0,0,0,7.48-4.33A12.21,12.21,0,0,0,63.3,36,9.87,9.87,0,0,0,72,30.26l.91,0C88.24,30.81,100.21,25.8,100,25s-8.67,2.68-13.65-1.27c-2.28-1.82-2-3.73-4.74-6.8A20.25,20.25,0,0,0,73.57,11.57Z"/></svg>