<svg id="back" xmlns="http://www.w3.org/2000/svg" viewBox="0 0 152 70"><defs><style>.cls-1{fill:#b64e30;}</style></defs><title>parts</title><path class="cls-1" d="M143.06,45.18c-3.66-2-8.37-4.54-13.66-3.51-3.46.68-3.14,2.14-7.77,3.18a20.11,20.11,0,0,1-10.29-.57,5.88,5.88,0,0,1-3.72-3.1,5.88,5.88,0,0,1,2-6.77c.33-.65,2.74-5.58.3-10a9.21,9.21,0,0,0-2.49-2.86l-3.13-2.14a15.22,15.22,0,0,0-5.17-1.52c-1.55-7-8-11.51-15.31-11.51a12.93,12.93,0,0,0-7,2.09,33.76,33.76,0,0,0-2.7,5.2,7.6,7.6,0,0,0-.2,4.84,11.57,11.57,0,0,0,1.42,2.61c2.06,3.62.85,5.13,2.2,6.27,2.15,1.8,5.6-1.67,9.82.16,2.14.92,2.43,2.32,3.62,2.1,2.06-.38,3.36-5,2.67-8.58a9.73,9.73,0,0,0-3.13-5.3,4.35,4.35,0,0,0-2.26-1.05,7.21,7.21,0,0,0-2.52.68c-.94.38-3.73,1.44-3.18,2.81.44,1.06,2.87,3.13,4.08,2.25a1.11,1.11,0,0,1,.7-.22c.57,0,.9,1.45.54,2.23-.75,1.65-5.09,2-6.34.41-.39-.5-.17-.81-.79-3.07-.39-1.45-.53-1.53-.64-2.09a5.91,5.91,0,0,1,2-5.28c2.56-2,6.62-.64,8.66.68.78.49.58.53,4.92,6.4,1.81,2.45,2.5,3.32,2.42,4.65s-.93,1.59-2,4c-1.46,3.12-.89,4.72-1.95,5.18-1.34.59-2.42-2-5.57-3-4-1.31-5.71,1.57-10.15.45-.42-.1-4.79-1.26-6-4.51-.8-2.13.6-2.95-.28-5.64s-2.67-3.42-2.25-5c.23-.87.86-1,1.84-2.18A9.6,9.6,0,0,0,73.85,9,15.56,15.56,0,0,0,59.38,0C52.89,0,47.45,5.07,45.79,11l-.14.06a16.92,16.92,0,0,0-5.57-.94,12.71,12.71,0,0,0-5.57,1.31c-.29,0-.58,0-.87,0-6.72,0-12.31,5.45-13.74,11.69a14.87,14.87,0,0,0-3.12,2.22,20.92,20.92,0,0,0-9,3.16C5.85,29.76.9,33,.11,38.36-.87,45.06,4.9,53.08,12,53.45a10.49,10.49,0,0,0,4.37-.72l.07-.08s.14-.2.16-.24a8.94,8.94,0,0,0,.44-.8,1.18,1.18,0,0,1,1.41-.52l.13-.1c.12-.17.22-.36.33-.53A24.65,24.65,0,0,1,20.12,48a15.17,15.17,0,0,1,2-6.77c1.43-2.43,2.63-2.75,4.86-5.36,4.08-4.78,2.85-7,5.43-8.46,3.37-1.93,5.51,1.79,12.58,1.41,6.08-.33,8.87-3.32,11.73-1.41.6.4.36.46,3.43,4.23,2.63,3.24,2.78,3.17,3.14,3.95,1.18,2.55-.19,3.84-.28,8.18-.12,5.45,1.95,7.85.57,9s-3-.87-6.29-.28S53.89,55.4,50.15,57s-9,1.34-10.29-.84c-.75-1.25.46-1.92,0-4.52-.52-2.88-2.2-3.2-2.71-6.25a5.74,5.74,0,0,1,.42-4.18c1.33-2.1,4.48-2.48,6.24-2.7,1.44-.17,1.72,0,3.71-.25,1.55-.22,2.41-.5,2.63-.15.34.52-1.43,1.48-1.43,3.1s1.76,2.29,1.43,3.1-2.92,1.15-3.93.09a1.11,1.11,0,0,1-.36-.61,5.45,5.45,0,0,0-1.55-2.85c-2.5,1.42-5.62,3.18-4.54,6.41A9.56,9.56,0,0,0,43,51.8a9,9,0,0,0,5.41,1.79c3.14-.08,5.16-2.05,8.58-5.36,2.26-2.19,3.39-3.31,3.43-4.79.06-2.16-1.93-2.62-3.43-5.93-1.75-3.86-.15-5.67-1.71-7-1.88-1.65-4.51.7-11.43,1.26-6,.48-7.68-1-10,.72-2.11,1.54-1.27,3.12-4,6.71-3,3.92-4.48,2.7-5.7,5.41,0,0-1.32,2.93-1.38,11.55a1.07,1.07,0,0,1-.07.39,1.31,1.31,0,0,1-.23.36,14.68,14.68,0,0,0,3.29,4.26l3.14,2.14a15,15,0,0,0,7.61,1.61h1.28a11.36,11.36,0,0,0,5.67-1.56,3.38,3.38,0,0,1,2.13-1.07c.52,0,1.23.06,3.72,1.78,1,.69,1.77,1.29,2.29,1.7A16.21,16.21,0,0,0,63.51,70,16,16,0,0,0,76.72,60.1a14.94,14.94,0,0,0,6.09,1h0a17,17,0,0,0,6.42,1.26,14.16,14.16,0,0,0,11.84-7.07A30,30,0,0,0,106,56a32,32,0,0,0,13.38-2.12c5.55-2.13,5-3.65,9.41-4.74,3.83-1,7.05-.49,10.29,0,8,1.23,12.44,4.33,12.91,3.59S148.17,48,143.06,45.18Z"/></svg>