<svg id="back" xmlns="http://www.w3.org/2000/svg" viewBox="0 0 142 66"><defs><style>.cls-1{fill:#4c989f;}</style></defs><title>parts</title><path class="cls-1" d="M142,38.4a10.48,10.48,0,0,0-.54-2.89,11,11,0,0,0-3.06-4.68l-2.3-1.59a11,11,0,0,0-5.6-1.21h-.94a8.9,8.9,0,0,0-1.73.22,2.26,2.26,0,0,0,0-.26V27a8.24,8.24,0,0,0-1.16-4.16,8.15,8.15,0,0,0-2.44-3.4,8.18,8.18,0,0,0-3.64-2.08,8.31,8.31,0,0,0-4.25-.72l-.19,0c-.07-.36-.13-.72-.2-1.08A11.1,11.1,0,0,0,112.87,11l-2.3-1.59a10.87,10.87,0,0,0-5.6-1.2h-1.89a8.24,8.24,0,0,0-2.85.54C99.28,3.6,94-.26,88.91,0a10.72,10.72,0,0,0-9.27,6.44,8.56,8.56,0,0,0-6.8-2.07c-4.53.73-6.29,5.07-6.36,5.26A8.9,8.9,0,0,0,69,11.85c2.47,1.43,3.77.48,5.67,1.58,2.4,1.38,3.53,4.76,3.47,7.25-.06,2.22-1,2.63-.63,4.41.48,2.09,2,2.31,2.52,4.42.31,1.24,0,2.3-.63,4.41-1,3.31-1.7,5.76-3.47,6.31s-2.57-1.48-5-1.26-2.6,2.17-5.67,3.47c-2,.85-3.71.77-6.62.63-3.25-.16-6.68-.32-7.56-2.21-.59-1.28.58-2.06,0-4.1-.53-1.88-1.75-2-2.2-3.47-.55-1.75.62-3.46,2.83-6.62,2.63-3.75,4.39-6.26,7.25-6.62a18,18,0,0,1,3.78.31c2.45.32,3.68.48,4.49.92,2.53,1.36,4.37,5.23,3.07,7.6-.74,1.35-2.27,1.78-3.78,2.2-3.24.92-7,.39-7.22-.62-.09-.47.73-1.73,1.21-1.27a3.54,3.54,0,0,0,3.06,1,3.41,3.41,0,0,0,1.53-.79c.46-.36,2.29-1.78,2-3.39s-2.65-2.45-3.13-2.6c-2.88-.9-5.51.67-6.32,1.15-.43.26-4,2.41-3.78,4.92.09.89.59,1,1.26,2.21,1.72,3.09.08,5.24,1.37,6.8s4.15,1.24,7.32.48a24.74,24.74,0,0,0,7.85-3.32,8,8,0,0,0,3.73-5.87,16.87,16.87,0,0,0-1.53-8.87c-1-2.32-2.51-5.09-5.62-6.17a8.4,8.4,0,0,0-4.93-.08,4.36,4.36,0,0,0-2.78-1.79,5.51,5.51,0,0,0-2.53.41,8.85,8.85,0,0,0-1.63.75A8.23,8.23,0,0,0,53,16.51l-1.59,2.3A11.31,11.31,0,0,0,50.58,21a8.26,8.26,0,0,0-1.84-.75,8.15,8.15,0,0,0-4.26-.72l-2.88.54a10.94,10.94,0,0,0-4.67,3.07l-1.59,2.3a10.58,10.58,0,0,0-.87,2.33,12.39,12.39,0,0,0-.76,8.06c1.22,4.19,4.72,5.55,4.1,7.56s-5.12,2.78-8.19,2.53c-3.34-.28-3.54-1.55-6.3-1.9-4.78-.59-6.34,3-12.6,4.42S.16,47.77,0,48.43c-.2.85,7.07,4.72,15.44,4.1A25,25,0,0,0,24,50.32a24.4,24.4,0,0,1,7.24,3.47,24.71,24.71,0,0,1,6,6,15.77,15.77,0,0,0,10-6.05l2.3,1.59a10.7,10.7,0,0,0,3.7,1.12l.39,2.07a10.8,10.8,0,0,0,3.06,4.68l2.3,1.59A11,11,0,0,0,64.53,66h1a8.28,8.28,0,0,0,4.16-1.17,10.11,10.11,0,0,0,5-4.79,8.14,8.14,0,0,0,1.86,2.21l2.3,1.6A10.83,10.83,0,0,0,84.38,65l2.88-.54a11.38,11.38,0,0,0,1.59-.69,11,11,0,0,0,3.09.28h1a8.27,8.27,0,0,0,4.16-1.16,8.2,8.2,0,0,0,3.39-2.44A8.34,8.34,0,0,0,102.1,58a12.54,12.54,0,0,0,3.07.39,10,10,0,0,0,7.66-3.81c-1.79-5.2-2.69-11.09-6.66-15-3.65-3.58-9.64-3.7-14.15-1.8a9.31,9.31,0,0,0-5,4.49,9.83,9.83,0,0,0-.25,7.29,5.44,5.44,0,0,0,4.58,3,10.87,10.87,0,0,0,3.66-.1,14.76,14.76,0,0,0,5.36-2.75h0s-1.52-4.48-3.78-4.34a3.84,3.84,0,0,0-2.68,1.24c-.63.81,0,1.28.77,1.63,1,.48.17,2-.85,1.54a3.29,3.29,0,0,1-1.87-3.14c.16-1.08,1.08-1.72,2.93-3,1.52-1.06,2.29-1.59,3.07-1.65,2.46-.2,5.5,2.75,5.43,5.43-.08,3.11-4.3,5-7.56,6.37s-5.66,2.47-8.51,1.52c-4.23-1.42-7.14-6.67-6-9.78,1-2.57,4.25-2.5,4.95-5.43.5-2.07-1-2.85-.54-4.66.73-3,5.92-5.4,10.4-4.73,2.76.41,2.91,1.65,10.09,6.56,5.23,3.57,6.39,3.76,7.55,5.74,2.06,3.51,1.23,7.72.45,10.25a12.08,12.08,0,0,0,7,2.26,10.49,10.49,0,0,0,8.94-5.68h1.46a8.24,8.24,0,0,0,4.16-1.16,8.3,8.3,0,0,0,3.4-2.44,8.26,8.26,0,0,0,2.07-3.64A10.45,10.45,0,0,0,142,38.4Z"/></svg>