<svg xmlns="http://www.w3.org/2000/svg" viewBox="0 0 130 130"><defs><style>.cls-1{opacity:0.5;}.cls-2{fill:#221e1f;}.cls-3,.cls-4{fill:#fff;}.cls-4{font-size:15px;font-family:RoundedMplus1c-Bold, "Rounded Mplus 1c Bold";font-weight:700;}.cls-5{fill:none;stroke:#fff;stroke-linecap:round;stroke-linejoin:round;stroke-width:2.5px;}</style></defs><title>アセット 1</title><g id="レイヤー_2" data-name="レイヤー 2"><g id="swipe"><g class="cls-1"><rect class="cls-2" width="130" height="130" rx="20"/></g><path class="cls-3" d="M90.46,83.81,84.58,75.9c.31-1.77,1.31-8.3-.25-11.54-1.43-3-8.26-14.38-9.89-15.55a4.48,4.48,0,0,0-4.52-.28,3.12,3.12,0,0,0-1.19,1.21,3.82,3.82,0,0,0-6.31.73,3.09,3.09,0,0,0-.21.56A4.52,4.52,0,0,0,60.42,50a4.92,4.92,0,0,0-5.8,2.14c-1.9-3.17-4.85-8-5.71-9.23-1.62-2.2-4.6-3.58-7.19-2-2.92,1.83-2.89,5.38-1.34,7.93.48.8,3,4.67,6,9.15,3.33,5,7.89,11.93,8.2,12.54a2.53,2.53,0,0,1,.31.92h0s-.39.25-1.8,0c-.91-.14-1.89-.36-2.84-.57-3-.65-6.08-1.33-8.13.06a4.17,4.17,0,0,0-1.72,3.23,5,5,0,0,0,1.49,4c1.54,1.39,5.85,2.08,10.14,2.67l.31,0c2.59.35,4.79,2.52,6.1,3.81l.37.36a18.55,18.55,0,0,0,9.88,4.46l3.37,5.16a1,1,0,0,0,.83.45,1,1,0,0,0,.51-.13l16.77-9.79a1,1,0,0,0,.48-.66A1,1,0,0,0,90.46,83.81Zm-17.26,9-3.12-4.79a1,1,0,0,0-.83-.46c-3.54,0-7.71-2.61-9.06-3.91l-.36-.35c-1.49-1.47-4-3.93-7.23-4.37l-.31,0c-2.35-.32-7.86-1.07-9.07-2.16a3.09,3.09,0,0,1-.84-2.39,2.25,2.25,0,0,1,.86-1.72,3.5,3.5,0,0,1,2-.47,23,23,0,0,1,4.59.72c1,.21,2,.44,3,.59,1.2.19,2.88.31,3.71-.8s.12-2.52-.11-3S53,64.48,48,56.92c-2.82-4.28-5.49-8.32-5.95-9.09-.78-1.28-1.5-3.82.69-5.2,1.87-1.18,3.77.43,4.51,1.44,1.23,1.68,7.22,11.76,7.28,11.87a1,1,0,0,0,1.28.39,1,1,0,0,0,.52-1.24,3,3,0,0,1,0-1.94,2.88,2.88,0,0,1,3.49-1.26c1.35.41,2.25,2.2,2.48,2.85a1,1,0,0,0,1.21.63,1,1,0,0,0,.72-1.16,6.37,6.37,0,0,1,0-2.84c.5-1,1-1,1.87-1S68,52.1,68.3,52.92a1,1,0,0,0,1.94-.43c-.12-1.15.11-1.9.68-2.23a2.56,2.56,0,0,1,2.35.17c1.06.83,7.46,11.06,9.26,14.79,1.24,2.57.42,8.62,0,10.73a1,1,0,0,0,.17.79l5.48,7.37Z"/><text class="cls-4" transform="translate(44.08 113.08)">swipe</text><path class="cls-5" d="M50.12,32.05a54.53,54.53,0,0,0-7.64-3.38,63.15,63.15,0,0,1,4.7-7.43"/><path class="cls-5" d="M42.48,28.67a62.37,62.37,0,0,1,45,0"/></g></g></svg>