<svg xmlns="http://www.w3.org/2000/svg" viewBox="0 0 75 8"><defs><style>.cls-1{fill:#4c989f;}</style></defs><title>アセット 14</title><g id="レイヤー_2" data-name="レイヤー 2"><g id="Layer"><path class="cls-1" d="M2,2.36a7.32,7.32,0,0,1,1.59-.22L21.07,1Q27.42.79,35.57.57T53.93.36c1.36,0,3.28-.06,5.78-.18S64.05,0,65.26,0a40.89,40.89,0,0,1,6.91.5C74.05.83,75,1.43,75,2.29a1.17,1.17,0,0,1-.11.39,6,6,0,0,1-.34.61c-.31.57-.61,1.16-.91,1.78s-1.06.95-2.27,1H67.52q-6.12,0-15.18.22c-2.87,0-6.46.13-10.76.25s-9.33.29-15.07.53c-2.12,0-4.68.13-7.7.25S11.4,7.67,5.66,8a9.25,9.25,0,0,1-3.17-.5C.83,6.83,0,6.1,0,5.29A3.26,3.26,0,0,1,1.36,3.07Z"/></g></g></svg>