<svg xmlns="http://www.w3.org/2000/svg" viewBox="0 0 1500 13.72"><path d="M1500 13.72V.9c-14.54-3-26.44 2.36-53.33 2.36-36.67 0-36.67 5-73.33 5s-36.67.08-73.33.08-36.67-3.18-73.33-3.18-36.67-.58-73.34-.58-36.66 3.34-73.34 3.34-36.66 3.08-73.32 3.08S970 6.91 933.35 6.91s-36.67 1.7-73.35 1.7-36.67-5.45-73.33-5.45-36.67 7.91-73.31 7.91S676.69 9.91 640 9.91s-36.67-.1-73.34-.1-36.66-.59-73.3-.59S456.69 6.05 420 6.05s-36.66 2.08-73.33 2.08-36.67-1.6-73.31-1.6S236.69 9.42 200 9.42s-36.67-3-73.34-3S90 8.87 53.34 8.87C26.81 8.87 14.49.53 0 1.51v12.21z" fill="#b64e30" data-name="レイヤー 2"/></svg>