<svg xmlns="http://www.w3.org/2000/svg" viewBox="0 0 1772.55 1839.76"><defs><style>.cls-1{opacity:.1}.cls-2{fill:#b64e30}</style></defs><g id="レイヤー_2" data-name="レイヤー 2"><g id="装飾"><g class="cls-1"><path class="cls-2" d="M1772 138.43c-.71-2-2-5-23.82-12.56a243.85 243.85 0 0 0-30.08-8.49c-12.43-2.4-27.92-6.65-55-6-20.5.51-43-.9-87.87-4a52.76 52.76 0 0 1-22.13-6.35c-3.28-1.87-13.9-8.15-14-15.82-.1-10.83 22.9-18.11 28.29-19.85 19.39-6.23 27.73-1.82 54.58-7.41 10.92-2.28 24.58-5.12 24.68-9.26.15-5.68-25.29-10.61-41.83-13.82a595.41 595.41 0 0 0-76.6-8c-16.06-.52-32.17-.07-48.21-1.06-13.58-.83-29.93-2.08-41.19-9.07-1.12-.69-3.25-1.75-3.34-3.35-.16-2.75 5.62-5 8.08-6 10.84-4.27 25.22-4 36.06-3 22.78 1.72 27.47 3.5 27.52 4.81.08 2-10.85 3.76-15 4.4-16.16 2.54-34.07 1.92-34.43-.4-.17-1.05 3.25-2.54 6.11-2.94a16.44 16.44 0 0 1 6.12.54c7 1.35 14.38-1.09 14.36-1.8s-35.23-3.24-36.94 2.56a2.62 2.62 0 0 0 .69 2.18c3.19 4.58 12.06 5.13 24.78 5.34 17.54.29 26.31.44 35.41-.53 10.94-1.18 32.48-3.48 32.83-8 .23-3.12-9.62-6.48-15.45-7.75-4.12-.89-7-.9-11.91-1.06-12.21-.41-8.64-.8-22.85-1.34-58.29-2.22-102.83 4.89-115.55 13.22-1.35.89-5 3.29-4.83 6.27.2 3.26 4.88 5.7 9.34 7.49 14.11 5.67 29.23 6.13 38 6.14 18.67 0 22.79-1.89 44.69-1.52 3.72.06 1.84.08 13.72.46 21.25.68 32 1 39.94.88 10.89-.18 21.8-.73 32.68-.33 8.63.31 17.22 1 26.9 2.08 6.47.72 14.29 2.65 15.54 8 1.16 4.94-4.48 9.2-10.09 11.12-6.29 2.15-11.33 3.84-16.66 5.52-15.46 4.88-13.29 5.38-33.08 9.61-16.78 3.59-23.2 2.48-39.84 7.31a66.62 66.62 0 0 0-13.83 5.56c-7 3.79-18.41 9.68-6.92 16.34 16.12 9.36 36.64 10.8 36.64 10.8 25.9 1.67 48.26 2.43 52.39 2.58 15.76.55 12.44.65 29.57 1.29 25.3.94 44.3 1.15 71.18 3.41 0 0 33.47 2.82 42.6 16a21.89 21.89 0 0 1 2.8 5.6c-.11.69-.24 1.28-.35 1.76-3.25 13.54-16.22 20.53-19.8 22.44-3 1.59-8.42 4.11-27.52 6.81a335.37 335.37 0 0 1-40.07 3.21c-3-.23-38.75-3.09-40.07-12.42-.92-6.54 15.46-13.07 16.9-13.63 9.1-3.54 18.94-2.89 38.62-1.6a42.9 42.9 0 0 1 12.07 2.8c2.92 1.15 7.73 3.05 7.73 5.61 0 .69-.34 1.86-3.87 4a37.71 37.71 0 0 1-13.84 4.87c-8.07 1.11-23.31 1.51-25.26-3.26-2.15-5.26 9-5.83 12.82-6.66a32.89 32.89 0 0 0-18.24-.69c-5.52 1.47-13.47 5.35-12.93 8.95.67 4.4 13.72 6.23 17.87 6.81 10.72 1.5 14.6-.46 31.38-2 20.61-1.91 23.32-1.54 37.76-5.94 6.88-2.09 13.28-4 13.27-6.67 0-4.23-16.49-7.42-25.83-9.22a231.62 231.62 0 0 0-39.69-4.22c-31.71-.47-55 4.32-63.87 6.45-16.63 4-36.2 8.65-36.12 14.73.07 5.47 16 9.56 27.68 12.56 15.61 4 28 4.66 44.31 5.53a356.36 356.36 0 0 0 40.56-.4c17.61-1.28 16.1-2.53 61.79-9.62 14.57-2.26 28.76-6 43.23-8.6 13.53-2.46 21.45-3.12 25.57-9.66.33-.55 3.75-6.17 1.85-11.74zM1513.72 4.37c5.59.2 6.07 0 9.08.31s6.57.69 9 2.39c8.2 5.79-20.49 8.52-24.1 8.83a43.4 43.4 0 0 0 13.14-3.2c.92-.38 2.47-1.08 2.57-2.14 0-.52-.25-1.16-1.61-2.14-2.18-1.55-4.67-2.23-9.47-3.14-3.92-.73-6-1-6-1.13s2.67.06 7.39.22zM1405.6 29.26c-6.2-.19-11.67-.36-17.06-3.2-2.63-1.39-6.43-3.39-6.7-6.56-.34-4 5.22-7.06 6.27-7.64 1.73-.95 4.27-1.51 9.29-2.61 2.27-.49 7.67-2.54 9.95-1.48-4.16 2.14-10.85 3.12-13.1 7-1.9 3.32-.25 7.13 3.5 9 4.94 2.41 10.57 3.14 15.83 4.87-1.77 1.18-5.7.69-7.98.62zm36.4-1.07c-10.65-.23-16-.35-17.06-.53-1.57-.27-16.58-2.78-18-9.89-.85-4.18 3.42-7.88 4.19-8.54 3.63-3.15 8.39-3.8 17.89-5.09 5.89-.79 9.41-.81 9.47-.52.1.55-13.28.54-17.06 6.67a7.61 7.61 0 0 0-.32 7.22c4.42 9.15 28.18 9.34 28 10.42-.11.4-3.55.34-7.11.26zm171.52 10.16c5.53 1.25 19.62 4.44 19.42 7.21-.12 1.72-5.69 2.6-13.34 3.81-11.6 1.84-18.86 1.42-18.86 1.38a34.92 34.92 0 0 0 14.06-3.09c4.49-2.1 4.48-3.46 4.45-3.77-.08-.85-1.08-1.37-3.08-2.4-2.4-1.24-3.92-1.52-7.13-3-1.94-.91-2-1.07-1.94-1.11.1-.46 5.34.73 6.39.97zm-18.73 9.54c1.23-1.15 3.62-3.4 3.14-6a5.6 5.6 0 0 0-1.93-3 15 15 0 0 0-7.72-3.81s21 3 21 7.79c0 .78-.57 1.32-1.71 2.4-3 2.83-5.64 2.42-13 4.72-2.3.72-4.52 1.52-4.64 1.32s2.43-1.15 4.83-3.42zm-79 56.36a127.84 127.84 0 0 1-13.23-2.67c-2.16-.63-19.86-5.83-19.86-12.48s17.58-12 22.65-13.62a74.5 74.5 0 0 1 8.16-2 38.92 38.92 0 0 0-6.75 3.47c-2.77 1.82-6.3 4.13-7.41 7.68a8.62 8.62 0 0 0 .33 5.48c3.51 10.34 22.64 13.64 22.3 14.74-.16.37-2.59.03-6.23-.6zm6.58-4.68c-5.43-3.29-8.17-6.39-9-10.15-3-13.44 27.63-20.32 28-18.39.12.57-3.82.74-8.83 3.88-1.27.79-11.48 7.33-10.6 14.19.62 4.77 6.75 6.7 14.81 11.47 6.67 4 14.29 5.83 21.88 7.25-12.17-1.54-25.58-1.77-36.3-8.25zm151.13 55.22a3.9 3.9 0 0 0 .5-2.79c-.6-2.5-4.21-3.52-3.92-4s2.86.19 4 .47a12.39 12.39 0 0 1 3.45 1.13c.34.19 2.74 1.54 2.89 3 .34 3.25-11.4 6.12-11.58 5.81s3.23-1.01 4.62-3.62zm-19.31-8.41c.35-.54 4.31.71 5.12 1 4.33 1.37 6.51 2 7.25 3.42 2.8 5.42-7.18 9.42-12 10.29-.54.09-1.3.05-1.38-.39 1-.77 2.19-1.45 3.16-2.27 1.32-1.12 3.25-2.76 3.25-4.83 0-1.37-.84-2.39-1.86-3.68-1.81-2.31-3.83-3.15-3.58-3.54zm-96.66 21.09c-4.82-1.26-6.2-1.27-8.26-2.33-.56-.29-5.42-2.86-5.47-5.88-.1-5.87 18.12-10.62 18.43-10.13.08.13-1.19.63-3.36 2.46a12.9 12.9 0 0 0-2.75 2.81 7 7 0 0 0-.74 5.13c.91 5.56 7.7 9.34 8.69 9.89-1.49-.49-3.75-1.2-6.58-1.95zm24.3 5.07c-5.65-1.42-8.56-2.15-11.26-4.27-3.48-2.73-5.83-7.15-5.34-11.22.84-6.84 9.79-13.16 21.75-13.36a41.8 41.8 0 0 0-10 5.9c-3.47 2.81-4.29 4.56-4.7 5.84a7.35 7.35 0 0 0-.16 3.69c.39 2.11 1.58 4.56 5 7.43 6.55 5.5 14.3 6.73 14.08 7.33s-4.91-.21-9.41-1.34zm133.88-15.34c-5.68 2.36-15.47 5.1-15.47 5.1 6.91-2.14 13.71-9.28 16.84-14.56 3.61-6.09 3.68-13-1.73-18.35-.88-.88-10.42-6.73-14.36-8.19a75.84 75.84 0 0 1 21 7.43c4.79 2.53 11.9 5.58 12.88 10.76 1.42 7.61-12.69 15.1-19.2 17.81zm37.93-11c-8.61 4.34-19.51 7.91-20 7s11.22-3.38 13.21-10.49a9.73 9.73 0 0 0-1-6.94c-2.42-4.74-7.55-6.56-8.64-6.93 2.58.78 4.64 1.55 6.06 2.12a45.08 45.08 0 0 1 12.56 7.21c2.12 1.79 2.58 2.62 2.57 3.47 0 2.01-2.73 3.49-4.8 4.54zm-28.41 93.39a66.08 66.08 0 0 0-15.41-7.75 119.6 119.6 0 0 0-27.52-5.78 247.17 247.17 0 0 0-42.32-.66c-13.48.9-27.65 2.14-40.74 5.52-5.34 1.38-12.66 5.86-10 12.17 1.25 3 4.69 4.6 7.91 5.57a67.63 67.63 0 0 0 17.36 3c13.49-.64 58.57-1.46 68.08-5 2.23-.82 9-2.77 9.24-5.7.24-2.4-4.25-4.05-6-4.9a46 46 0 0 0-12.71-4.15 82.87 82.87 0 0 0-10.44-.8c-13.36-.15-28.16 3-28.14 5.84 0 .88 1.45 1.47 4.36 2.67a41.35 41.35 0 0 0 15.81 3c7.16 0 18.47-1.12 18.61-3.32.08-1.16-2.92-2.6-5.57-2.67-2.36-.06-3.54 1-5.56 1.7-5.46 1.94-12.24-.2-12.35-1.63s7.21-3.93 14.24-3.92c7.6 0 15.9 2.86 16 5.65.21 5.11-8.9 6.06-12.52 6.52a106.22 106.22 0 0 1-23.24 0c-5.39-.51-8.13-.78-10.57-1.63-2.27-.79-9.06-3.15-9.15-6.67-.07-3.08 5-5.76 7.74-6.71.7-.25 4.52-2 12.57-2.45 0 0 32-2.7 55.9 13 2.61 1.7 4.42 3.49 4.22 5.33-.23 2.14-2.48 3.46-4.51 4.35-11.92 5.25-24.92 7.61-37.89 8.84-6.55.62-13.13 1-19.71 1.26-5.66.25-11.34 1.35-17.08 1.63q-2.94.15-5.9.19c-3.73.07-4.83 0-13.6.11-7.45.1-13.43.24-15.3.29-1.51 0-19.16.54-32.44 2.38-21.65 3-49.16 11.93-48.61 19 .06.73.47 2.05 5.39 4.84 12.26 6.94 24.7 7.27 29.21 7.34 36.28.55 39 .56 44.63 1.09 12.09 1.14 31.16 3.08 33 11a7.13 7.13 0 0 1-.54 4.33c-3.7 8.88-20.24 9.81-26.62 10.09-48.11 2.17-74.55 1.29-74.55 1.29-1.52-.13-34-2.82-47.38 5.83-1.42.92-5.43 3.52-5.32 6.82.13 3.66 5 6.71 7.35 7.27 23.61 5.71 49.19 1.13 72.25 8.64 3 1 6.36 2.52 7.38 5.47 1.47 4.24-5.69 9.18-7.8 10.7-7.78 5.61-16 6.86-19.73 7.38-23.53 3.31-33.16 4.06-56.23 5.19 0 0-15.78.77-24.87-5.46-2.76-1.89-3.1-3.44-3.14-4.18-.08-1.55.94-3.52 5.42-6.31 6.8-4.23 14-5.61 19-6.27 9.92-1.31 21.16-2.8 30.37 3.58a25.14 25.14 0 0 1 2.78 2.24 2.84 2.84 0 0 1 .69 2.47c-.19.67-1.13 2.38-15.53 3.58-2.81.24-4.68.39-7.42.45-6.16.13-14 .3-14.72-2.12-.36-1.15 1-2.52 1.51-3 1.49-1.51 3.45-1.77 5.33-2a14.35 14.35 0 0 1 3.71 0c1.77.23 3.67.47 4.17 1.57s-1 2.23-.66 3c1 2.12 13.92.07 14.11-2.82.12-1.89-5.28-3.59-6.24-3.9-3.5-1.1-7.49-.72-15.32.09a29.65 29.65 0 0 0-9.74 2.24c-1.73.78-4.66 2.09-4.64 3.81 0 1.32 1.76 2.29 3.52 3.25a23.4 23.4 0 0 0 7.61 2.58c10.92 1.3 26.15.51 27.36.45a108.62 108.62 0 0 0 15.76-1.79c7.79-1.5 10.42-3 10.9-4.93.15-.6.19-1.65-.93-3.37-3.73-5.72-12.74-7-15.3-7.39a229.64 229.64 0 0 0-40.29-1.57c-14.34.64-30.25 1.81-43 9.15-2.4 1.38-8.65 5.06-8.06 8.55.1.59.49 1.76 4.08 4a34.08 34.08 0 0 0 10.9 4.5c14.25 2.59 28.86 2.53 43.37 2.46 32.6-.16 65.22-.32 97.74-2.46 9.54-.63 19.58-1.61 27.49-6.69.4-.25.79-.52 1.18-.8 4.67-3.34 8.35-9.06 6.61-14.41s-8.16-8-13.86-9.59a216.88 216.88 0 0 0-62.51-8c-5.41.1-10.66-.1-16-.11-2.46 0-5.07-.2-7.08-1.57-5.15-3.51-.61-7.7 3.51-9 10.49-3.39 20.92-2.41 31.73-1.74 11.52.72 23.07.94 34.61.93 20.83 0 17.49-1 52.13-1.67 21-.43 35.82-.16 46.8-9.38 2.59-2.19 4.16-4.22 4.14-6.52-.1-9.09-25-15.89-31.07-17.54a72.18 72.18 0 0 0-12.48-2.65c-13-1.5-21.3-1.55-21.3-1.55-24.06-.13-31 2.29-43.94-1.8-4-1.27-10-3.6-10.81-8a7.29 7.29 0 0 1 .74-4.44c4-8.54 24-9.86 30.24-10.22 23.92-1.38 48-1.54 71.79-4 4.37-.46 8.74-.89 13.13-1.16 9.62-.59 19.36-.36 28.88-2.1 8.29-1.52 17.21-3.5 23.65-9.13a7.06 7.06 0 0 0 2.61-3.87c.42-2.93-2.07-5.31-4.46-6.95zm-121.29 6.7c-1-.26-10.1-2.49-10.37-6.28s8.66-7.57 13.52-8.58a18.47 18.47 0 0 1 3.39-.47c.09.18-2.1.7-4.32 1.88-1.86 1-5.94 3.15-6.07 6.07-.16 3.29 4.76 6.08 7.59 7.09 2 .72 3.76.79 3.74.93s-3.71.28-7.48-.64zm20.26-16.43c-2.58 1.19-5.94 3.73-6.22 6-.42 3.47 6 8.24 16.41 10.48a39 39 0 0 1-15.41.44c-3.13-.55-6.37-1.59-8.4-4-4.5-5.23 1.05-10.16 6-12.06a36.85 36.85 0 0 1 12.18-2.21 15.18 15.18 0 0 0-4.56 1.35zM1504.25 359c3.7 1 5.55 1.49 7.22 2.79.81.64 3.48 2.71 3 4.71-.27 1.15-1.49 1.74-3.94 2.91a25.26 25.26 0 0 1-6.72 2.09 19 19 0 0 1-5.11.37 14.09 14.09 0 0 0 5.59-1.28c.68-.33 3.92-1.94 4-4.34a3.73 3.73 0 0 0-.82-2.19c-2.55-3.86-6.84-5.2-6.66-5.63s2.42.28 3.44.57zm-67.44 21.61c-.08.33-6.19-.4-10.78-3-.81-.45-1.66-1-3.36-2.17-2.66-1.79-2.93-2.14-3.1-2.53-.86-2 1.24-4.6 1.82-5.32 1.6-2 3.48-2.83 7.14-4.44 2.33-1 5.59-2.26 5.78-1.9s-.92.78-3.06 2.54-3.16 2.61-3.71 3.81a6.83 6.83 0 0 0-.46 3.81 9.71 9.71 0 0 0 2.78 5.6c3.03 3.11 7.02 3.34 6.95 3.59zm6.49-.65a10.92 10.92 0 0 1-6.64-2.93c-7.27-7.1.44-15.91 8.41-17.66 2.15-.47 4.42-.4 4.49-.05s-2.17.86-5.58 2.88c-2 1.19-1.13 1-4.15 2.95-1.39.91-3 4.15-2.18 7.24.57 2.16 2.09 3.42 3.57 4.64a36.84 36.84 0 0 0 4.21 2.58 5.39 5.39 0 0 1-2.13.39zm136.33-30.05a43.49 43.49 0 0 1 7 2.68 54.24 54.24 0 0 1 5.73 2.77c2.91 1.87 6 4.76 5 8.46-.94 3.48-4.49 6.14-7.41 8.1-4 2.73-7.86 3.65-11.47 4.61a37.53 37.53 0 0 1-10.93 1.62s-.55 0-5.79-.22c2-.46 4.88-1.13 8.34-2 4.69-1.21 7.07-1.83 8.81-2.69s6-3 8.35-7.4c1.45-2.69 1.46-4.15 1.39-4.7a7.19 7.19 0 0 0-2.55-4.26c-5.61-5.27-12.47-7-12.29-7.62.19-.43 3.19-.02 5.82.64zm-37.33-3.36c0-.09.27-.37 5.56.19 8.69.92 13 1.38 17.91 3.2s12.3 4.61 12.7 9.16c.34 3.86-4.57 7.08-9.12 10.07-7.12 4.67-14.27 6.16-23.47 8.08a50.27 50.27 0 0 1-6.18.89c-2.61.22-6.4.36-6.44 0s5-.79 11.59-2.91c3.91-1.26 7.2-2.31 10.67-4.71 1.17-.81 10.33-7.15 8.81-13.22-.62-2.44-2.71-3.9-4.18-4.93-2.71-1.9-4.58-1.72-12.75-4-5.05-1.47-5.11-1.76-5.1-1.83zm-59.18-4c-5.16-1-6.13-1.89-6.53-2.34a5.79 5.79 0 0 1-1.41-4.54c.59-3.53 6.16-6.52 13.91-6.72a12 12 0 0 0-4.87 3c-1.18 1.23-2.87 2.95-2.58 4.94s2.25 3.12 4.09 4.25c2.39 1.47 4.24 1.74 4.17 2s-3.9-.04-6.78-.59zm17.33-13.61c-2.46 1.17-5.52 3.88-5.44 7.07.08 3.58 4.11 7.28 9.73 7.39-.47.12-7.75 1.83-12-2.51-.55-.57-2.92-2.82-2.44-5.84s3-4.95 4.12-5.7c4.3-2.83 9.27-1.68 10.31-1.41a10.42 10.42 0 0 0-4.28 1zM1663 305.15c4.42 2.38 8.17 4.41 8.15 7.14 0 4.57-10.61 7.59-12.48 8.12-7.33 2.08-14.22 1.47-14.37.51-.13-.77 4.13-1.4 9.48-5.42 3.17-2.39 3.61-3.63 3.69-4.5.18-2.12-1.65-3.86-3.51-5.59-4.08-3.79-7.82-4.67-7.67-5.12.25-.65 8.47.39 16.71 4.86zm-39.55-7.68c.33-1.1 10.62-.29 18.8 5.3 4.32 3 4.57 4.88 4.61 5.45.19 2.95-3 5.27-5.25 6.88-6.94 5-15.46 5.62-15.75 4.77-.16-.49 2.48-1.06 6-4.06 2.64-2.23 5.95-5 5.53-7.86-.27-1.85-3.4-3.81-9.65-7.67-3.6-2.28-4.35-2.5-4.25-2.81zm-93.76-8.56c-4-1.37-8.53-3-9.06-6.08-.56-3.31 4.91-7.12 5.18-7.31a20 20 0 0 1 5.36-2.37c2.6-.91 6.93-2.16 7.2-1.57.37.81-8 2.95-8.91 8.13a7.73 7.73 0 0 0 .36 4c1.41 3.88 6 6.51 11.51 7a34.11 34.11 0 0 1-11.6-1.8zm28.45-18.85l-.45.22c-4.45 2.28-10.82 5.47-9.66 10.65 1 4.45 6.51 7.82 11 9.62a40.9 40.9 0 0 0 5.27 1c-1.55 0-4.24 0-8.17-.29-6.76-.51-17-2-18.46-9.19-1-4.85 2.69-8.3 7.4-10.36a36.33 36.33 0 0 1 8.35-2.44c1.23-.22 2.48-.34 3.73-.51.72-.1 3.49 0 3.89-.21zm154.61-16.44a33.94 33.94 0 0 1-12.37 2.38 24.75 24.75 0 0 0 7.85-3.88 7.4 7.4 0 0 0 2.32-2.32c1.65-3.09-.7-7.14-1.36-8.28-5.34-9.24-21.49-10.82-21.33-11.52.12-.53 9.88.16 21.79 4.93 7 2.8 14.39 5.78 14.37 9.87.03 4.32-8.32 7.66-11.23 8.82zm-337.42 168c-18-3.84-55.2-9.08-94.34-2.81a135.93 135.93 0 0 1-28 1.3c-6.94-.38-27-1.46-29.13-8-.94-3 2.16-6 4-7.7 9.08-8.72 27.26-8.75 32.78-8.76 1.76 0 5.14 0 9.93-.36 2.82-.24 5.92-.69 11.1-1.63 4.7-.85 17.14-3.11 21.16-10.63a11.24 11.24 0 0 0 0-10.84c-2.24-3.76-8.68-8.67-46.69-10.24-32.11-1.33-47.5-.24-68.13-6.6-4.85-1.5-10.15-4.05-11.36-8.8-2.31-9.09 11.07-13.57 20.81-13.84 28.27-.81 41.77-1.37 73.77-2.1 29.81-.68 72.82-8.29 78.46-25.14 2.84-8.51-4.71-16.75-5-17.11-3-3.24-9.27-7.74-34.6-10.27-11.26-1.12-17-.93-51.9 0-25.91.7-36.32.95-47.58 6.85-4.08 2.13-11 5.84-11.54 11.4-1 9.44 17 16.73 17.93 17.11 6.09 2.41 20.52 1.45 49.12-.57 5.19-.37 12.38-.95 18-5.13 1.65-1.23 6.45-4.79 5.77-9.7-.53-3.74-3.94-6.12-5-6.84a34.35 34.35 0 0 0-9.37-2.85c-12-1.86-25.27 2.47-25.23 5.7 0 1.49 2.86 2.58 5 3.42 8.46 3.26 16.08.63 16.58 1.71.72 1.56-13.29 10.6-28.83 8.56-2.51-.33-13.06-1.72-15.14-7.42-1-2.65.28-5.21 1.21-6.67a107.64 107.64 0 0 1 15.37-4.73 124 124 0 0 1 22.35-2.85c11.58-.66 17.36-1 23.82 1 3.71 1.16 12.13 3.78 13.66 9.24 2 7-8.82 13.85-11.3 15.42a33.57 33.57 0 0 1-12.31 5.16c-51.13 9.39-104.11-3.59-155.83 2.06-9.54 1-19.38 2.87-27.1 8.35s-12.65 15.54-9.27 24.16c1.82 4.64 5.72 8.25 9.92 11.11 38.9 26.55 97.17-2.72 139.25 18.89 3 7.2-8.65 11.33-16.69 10.79-25.68-1.69-53.93-6.11-75.13 7.9-2.63 1.74-5.17 3.84-6.44 6.66-4.27 9.46 7.51 18.22 17.74 21.36 64.17 19.71 135.58-12.35 200.65 4.44 3.35.86 6.93 2 8.86 4.8 4.13 5.92-7.66 15.48-9 16.55l-.11.09c-13.33 10.5-85.35 13.36-88.91-.34-1.08-4.14 4.5-8.22 6.13-9.41 2-1.45 7.61-5 36.4-4 13.23.46 19.86.73 20.55 2.85.85 2.63-7.12 7.1-14.78 8.27-5.2.79-12.21.36-13-1.71-.47-1.29 1.56-2.89 3.25-4-8.93-4.58-18.55-4.39-23.07-.57-2.15 1.81-3.91 5.08-2.52 7.69 2.18 4.11 11.06 4.49 19.46 4.85 7 .31 6.44-.47 31-3.13 5.14-.56 10.43-1.1 15.5-4.21 2.3-1.41 6-3.69 5.67-6.2-.67-5.08-17.34-7.85-26.49-8.56-.26 0-5.13-.06-14.87-.14-12.33-.1-16-.11-20.54 0 0 0-6.88.16-13.43.57-15.11.93-54.71 6.32-55.78 16.25-.27 2.58 2.12 4.63 5 7.13 8.4 7.2 20.45 8.37 26 8.84 38.81 3.35 77.07.52 93.72-.85a124.34 124.34 0 0 0 35.09-7.35 105.76 105.76 0 0 0 9.75-4.26c2.93-1.56 19.92-10.57 19.43-17.91-.69-8.94-21.78-13.26-35.78-16.25zm-158.45-128.74c-.86 2.49-.17 6 0 6.84a11.49 11.49 0 0 0 2.24 5.62c3.39 4.05 10.2 4.38 10.11 4.65s-12.78 1.51-18.61-5.28c-3.75-4.36-3-10.08-.32-13.93 6.25-8.85 23-7.76 23.26-7s-14.34 2.35-16.68 9.1zm111.81-8.64c7.41 1.89 13.74 6.44 13.86 12.9.13 7.05-7.45 14.09-18.93 18.05 1.05-.85 12.66-10.46 10.77-19.6a16.14 16.14 0 0 0-2.07-5 20.77 20.77 0 0 0-9.43-7.27 29.1 29.1 0 0 1 5.8.92zm-21.24 26.46c1.5-1.37 8.68-7.91 6.74-15.27-1.16-4.4-5.12-7.37-7.33-9-4.38-3.28-8.22-4.06-8.06-4.37.33-.64 18.31.43 24 9.57 3.54 5.7 1.11 12.67-2.43 17-4 4.92-9.83 6.86-12 7.55-4.29 1.37-9.63 2-10.12 1.1s4.55-2.34 9.2-6.58zm-191.86 52.93c-1.74-.73-17.06-7-16.64-19 .26-7.25 5.59-13.33 13.21-17.11 2-1 23-7.74 24.09-4.78.21.59-4 1.53-9.38 4.19-4.59 2.25-9.39 4.61-12.44 9a16.55 16.55 0 0 0-2.7 11.54 18.47 18.47 0 0 0 5.4 12c4.77 4.7 11.06 5.92 10.74 6.56s-6.5.02-12.28-2.4zm32.36 1.82c-5.81-.77-10.09-3.26-14.62-5.95a31.68 31.68 0 0 1-5.21-3.46c-1-.92-7.83-7.37-5.95-15 2.52-10.22 18.66-13.95 23.09-15s10.45-2.38 14.85-.81c-3.73 1.3-7.91 1.67-11.6 3.44-6.15 2.95-11 9-11.69 15.81-.69 6.57 2.46 14.53 9.51 17.91 4.57 2.2 9.93 2.05 9.86 2.62s-4.07.99-8.19.44zm13.88-4c-1.9-1-8.65-4.62-10.89-11.54a16.48 16.48 0 0 1 7.4-18.89c2.44-1.47 5-2.06 10.16-3.23 8.62-2 16.15-2 16.22-1.71s-3.48.33-7.9 2c-1.71.66-5.86 1.84-8.36 5a18.05 18.05 0 0 0-4 13.78 15.12 15.12 0 0 0 2.59 6.94c3.82 5.46 10.65 7.7 13.39 8.59 4.45 1.46 7.07 1.39 7 1.72-.1.8-14.32 3.23-25.61-2.64zm108.34 9.38c.49-1.21 2.67-1.92 4.47-2 5.47-.25 11.26 1.79 13.83 5.62 3.13 4.66-.49 9-5.62 11.6-2 1-4.38 1.85-6.66 1.36-5.43-1.17-.16-10.29-4.29-13.7-.74-.61-1.63-1.22-1.8-2.06a1.38 1.38 0 0 1 .07-.8zm-28.31.59a5.6 5.6 0 0 1 3.26-1.32c7.92-1.22 18.13 2.56 20.81 8.88 3.84 9.05-9.93 12.46-18.7 12.54-1.14 0-2.6-.19-2.85-1.07a1.11 1.11 0 0 1 .32-1 7.87 7.87 0 0 1 1.06-.92 7.38 7.38 0 0 0 3-7.16c-.53-2.75-8.99-7.59-6.9-9.93zm-64.35 26.37c-1.41.74-3.43 1.86-4.51 2.57-2 1.3-5.75 4.75-5.94 9.12-.18 4 2.7 7 4.68 9 4.8 4.91 10.78 6.56 10.27 7.55-.38.73-3.86.24-5.25 0a43.59 43.59 0 0 1-14.61-5.27c-3.58-2-7.3-4.59-8.63-8-2.26-5.79 2.82-9.68 8.74-12.28 9.75-4.29 19.6-5.62 19.84-5 .09.22-1.17.52-4.59 2.33zm30.27 26.24c4.68 2.14 9.46 2.29 9.37 2.85s-4.32.69-7.57.42c-13.59-1.09-29.45-11.42-27.27-19.81.89-3.42 4.54-5.58 6.91-7 6.66-4 14.82-4 19.46-4 2.84 0 4 .31 9.19.28a11 11 0 0 1 3.14.21c0 .45-12.26-.61-19.36 4.93-.61.48-4.1 3.28-4.68 7.55-.88 6.45 5.35 12.08 10.81 14.59zm57 40.37c-.14.16-.44.15-.68.13-12.88-1.31-14.5-1.39-14.5-1.39-7.57-1.83-11.39-2.78-13.51-4-2.3-1.38-5.25-3.13-5.41-5.7-.2-3.2 4-5.64 6.13-6.85 1.45-.83 3.82-2 15.44-4.13 7-1.29 9.83-1.56 9.9-1.35.12.38-9.65.85-14.89 6.34-.47.49-5 5.19-2.88 8.55 3 4.87 19.54 6.79 20.28 7.87.26.38.11.55.11.55zm8.8-23.55c.1.28-3.67.68-7.21 3.14a12.15 12.15 0 0 0-4.65 5.6c-.26.7-1.46 4 .13 6.69 3.42 5.85 17.64 5.49 17.49 6.52-.08.57-4.35.95-8.44.27a24.16 24.16 0 0 1-4.23-1.13c-7.76-2.72-11.65-4.09-12.89-6.47-1.71-3.27.46-7.24 2.8-9.4 2.1-1.94 4.61-2.69 8.35-3.8 4.46-1.27 8.53-1.7 8.64-1.4zm126.56 2.92c-1.17 2.62-4.46 4.43-11 8.06a47.23 47.23 0 0 1-9.73 4.49c-6.75 2.06-13.74 2.19-14.06 1.28-.26-.72 3.92-1.49 9.19-5.35a17.13 17.13 0 0 0 4.87-4.7 13.26 13.26 0 0 0 1.89-6.84 17.53 17.53 0 0 0-.81-6.63c-3.16-7.61-19.53-9.12-19.2-10.27.28-1 11.75-.05 23.79 3.21 8.34 2.26 10.86 4 12.5 5.79.24.33 4.95 5.64 2.55 10.98z"/></g><g class="cls-1"><path class="cls-2" d="M1202.57 1701.33c.71 2 2 5 23.81 12.55a242.05 242.05 0 0 0 30.09 8.49c12.42 2.41 27.92 6.66 55 6 20.5-.51 43 .9 87.86 4a52.79 52.79 0 0 1 22.14 6.35c3.28 1.87 13.9 8.14 14 15.82.09 10.84-22.87 18.13-28.28 19.87-19.38 6.23-27.72 1.82-54.57 7.41-10.92 2.28-24.58 5.12-24.69 9.26-.14 5.68 25.3 10.61 41.83 13.82a595.88 595.88 0 0 0 76.61 8c16.06.51 32.16.06 48.21 1 13.58.84 29.92 2.09 41.19 9.07 1.11.7 3.24 1.76 3.33 3.36.16 2.75-5.62 5-8.07 6-10.84 4.27-25.23 4-36.07 3-22.78-1.72-27.46-3.5-27.51-4.81-.08-2 10.85-3.76 15-4.41 16.17-2.53 34.08-1.91 34.44.4.16 1-3.26 2.54-6.12 2.94a16.2 16.2 0 0 1-6.11-.53c-7-1.36-14.38 1.09-14.37 1.79 0 .87 35.23 3.24 37-2.55a2.59 2.59 0 0 0-.7-2.18c-3.18-4.58-12.06-5.13-24.78-5.34-17.53-.3-26.3-.44-35.4.53-10.94 1.17-32.48 3.48-32.83 8-.24 3.11 9.62 6.48 15.45 7.74 4.11.89 7 .91 11.91 1.07 12.21.41 8.63.8 22.85 1.34 58.28 2.22 102.83-4.9 115.54-13.23 1.36-.89 5-3.28 4.83-6.27-.2-3.25-4.88-5.69-9.33-7.48-14.11-5.67-29.23-6.13-38-6.15-18.67 0-22.79 1.9-44.69 1.53-3.73-.06-1.84-.08-13.73-.46-21.24-.68-32-1-39.93-.89-10.89.18-21.8.74-32.69.34-8.63-.32-17.21-1-26.9-2.08-6.46-.72-14.28-2.66-15.53-8-1.16-4.94 4.47-9.2 10.08-11.12 6.3-2.15 11.34-3.84 16.66-5.52 15.47-4.88 13.3-5.39 33.09-9.62 16.77-3.58 23.19-2.47 39.83-7.3a66.58 66.58 0 0 0 13.84-5.57c7-3.78 18.4-9.67 6.92-16.34-16.13-9.36-36.65-10.79-36.65-10.79-25.9-1.67-48.25-2.43-52.38-2.58-15.76-.55-12.44-.65-29.58-1.29-25.29-.94-44.3-1.15-71.18-3.41 0 0-33.46-2.82-42.6-16a21.89 21.89 0 0 1-2.8-5.6c.12-.69.24-1.28.36-1.76 3.24-13.55 16.22-20.53 19.79-22.44 3-1.6 8.42-4.11 27.52-6.81a333.45 333.45 0 0 1 40.07-3.21c3 .22 38.75 3.09 40.07 12.42.93 6.53-15.46 13.06-16.89 13.62-9.11 3.55-18.95 2.9-38.63 1.61a42.77 42.77 0 0 1-12.07-2.81c-2.91-1.15-7.72-3-7.72-5.61 0-.68.34-1.86 3.86-4a37.53 37.53 0 0 1 13.85-4.87c8.06-1.11 23.31-1.51 25.25 3.26 2.15 5.25-9 5.82-12.81 6.66a33 33 0 0 0 18.23.69c5.53-1.48 13.47-5.35 12.93-9-.66-4.4-13.71-6.23-17.86-6.81-10.72-1.5-14.6.45-31.38 2-20.61 1.9-23.33 1.54-37.76 5.93-6.88 2.1-13.28 4-13.28 6.68 0 4.23 16.5 7.41 25.83 9.22a232.82 232.82 0 0 0 39.7 4.22c31.7.47 55-4.32 63.87-6.45 16.63-4 36.19-8.65 36.11-14.74-.07-5.47-16-9.55-27.67-12.55-15.61-4-28-4.66-44.32-5.53a353.65 353.65 0 0 0-40.55.4c-17.61 1.28-16.1 2.53-61.8 9.62-14.56 2.26-28.75 6-43.23 8.6-13.53 2.46-21.45 3.12-25.56 9.66-.5.64-3.89 6.26-1.93 11.84zm258.22 134.05c-5.59-.19-6.07 0-9.08-.3s-6.56-.69-9-2.4c-8.21-5.78 20.48-8.52 24.1-8.82a43.33 43.33 0 0 0-13.14 3.2c-.92.38-2.48 1.08-2.58 2.14 0 .52.25 1.16 1.61 2.13 2.18 1.56 4.68 2.24 9.48 3.14 3.91.74 6 1 6 1.14s-2.68-.06-7.39-.23zm108.13-24.88c6.2.19 11.66.36 17.06 3.2 2.63 1.39 6.43 3.39 6.7 6.56.33 4-5.23 7.06-6.27 7.63-1.73.95-4.27 1.52-9.29 2.61-2.27.5-7.68 2.55-9.95 1.49 4.16-2.15 10.84-3.12 13.09-7 1.91-3.32.26-7.13-3.49-9-5-2.4-10.58-3.13-15.83-4.86 1.76-1.19 5.7-.7 7.98-.63zm-36.37 1.07c10.65.23 16 .35 17.06.53 1.57.26 16.58 2.78 18 9.88.85 4.18-3.42 7.89-4.18 8.55-3.64 3.15-8.39 3.8-17.9 5.08-5.89.8-9.4.81-9.46.53-.11-.55 13.27-.55 17.06-6.68a7.62 7.62 0 0 0 .32-7.21c-4.42-9.15-28.18-9.34-28-10.42.09-.41 3.55-.34 7.1-.26zM1361 1801.41c-5.53-1.25-19.62-4.44-19.43-7.21.13-1.72 5.7-2.61 13.35-3.82 11.6-1.83 18.86-1.41 18.86-1.37a34.69 34.69 0 0 0-14.06 3.09c-4.49 2.09-4.49 3.46-4.46 3.77.08.84 1.09 1.36 3.09 2.4 2.4 1.24 3.92 1.51 7.13 3 1.94.9 2 1.07 1.94 1.11-.1.45-5.35-.73-6.42-.97zm18.72-9.55c-1.22 1.15-3.61 3.4-3.14 6a5.66 5.66 0 0 0 1.94 3 15 15 0 0 0 7.72 3.81s-21-3-21-7.79c0-.79.57-1.33 1.71-2.4 3-2.83 5.64-2.43 13-4.72 2.3-.72 4.52-1.53 4.64-1.32s-2.43 1.16-4.84 3.42zm79-56.35a122.59 122.59 0 0 1 13.23 2.67c2.15.63 19.86 5.83 19.86 12.47s-17.58 12.06-22.65 13.62a72.79 72.79 0 0 1-8.16 2 37.89 37.89 0 0 0 6.75-3.47c2.77-1.81 6.29-4.12 7.4-7.67a8.64 8.64 0 0 0-.32-5.48c-3.52-10.34-22.64-13.65-22.31-14.75.17-.37 2.61-.03 6.25.61zm-6.59 4.68c5.44 3.29 8.17 6.39 9 10.15 3 13.43-27.62 20.32-28 18.38-.12-.56 3.81-.73 8.83-3.87 1.26-.79 11.48-7.33 10.59-14.2-.61-4.76-6.74-6.7-14.81-11.47-6.67-3.94-14.28-5.82-21.87-7.24 12.18 1.54 25.6 1.77 36.31 8.25zM1301.05 1685a3.91 3.91 0 0 0-.53 2.78c.59 2.5 4.21 3.52 3.91 4s-2.85-.19-4-.47a12.31 12.31 0 0 1-3.44-1.13c-.34-.19-2.74-1.54-2.9-3-.34-3.25 11.41-6.12 11.59-5.81s-3.23.99-4.63 3.63zm19.31 8.41c-.34.54-4.31-.72-5.12-1-4.32-1.37-6.51-2-7.24-3.42-2.81-5.42 7.18-9.42 12-10.29.53-.1 1.29-.06 1.37.39-1 .77-2.18 1.44-3.16 2.27-1.32 1.12-3.24 2.76-3.25 4.83 0 1.37.85 2.39 1.86 3.68 1.78 2.28 3.8 3.13 3.54 3.51zm96.67-21.1c4.82 1.27 6.2 1.27 8.26 2.34.55.28 5.42 2.85 5.47 5.87.09 5.88-18.12 10.62-18.43 10.14-.09-.13 1.18-.63 3.36-2.47a12.88 12.88 0 0 0 2.75-2.8 7.07 7.07 0 0 0 .73-5.13c-.9-5.56-7.69-9.35-8.69-9.89 1.45.45 3.72 1.17 6.52 1.91zm-24.31-5.06c5.65 1.42 8.56 2.15 11.27 4.27 3.48 2.73 5.83 7.15 5.33 11.22-.84 6.83-9.79 13.16-21.75 13.36a41.36 41.36 0 0 0 10-5.91c3.47-2.8 4.29-4.55 4.71-5.83a7.46 7.46 0 0 0 .16-3.69c-.39-2.11-1.58-4.56-5-7.43-6.54-5.5-14.3-6.73-14.07-7.33s4.85.17 9.35 1.31zm-133.87 15.34c5.68-2.37 15.46-5.1 15.47-5.1-6.91 2.14-13.72 9.28-16.85 14.56-3.61 6.08-3.67 13 1.73 18.34.89.88 10.42 6.74 14.36 8.2a75.73 75.73 0 0 1-21-7.44c-4.78-2.52-11.89-5.58-12.88-10.75-1.46-7.61 12.65-15.14 19.17-17.84zm-37.94 11c8.61-4.35 19.51-7.91 20-7s-11.21 3.39-13.21 10.49a9.79 9.79 0 0 0 1 7c2.41 4.74 7.54 6.56 8.63 6.93-2.57-.79-4.64-1.56-6.06-2.12a45.29 45.29 0 0 1-12.55-7.21c-2.12-1.79-2.59-2.63-2.58-3.48-.02-2.09 2.71-3.58 4.77-4.62zm154.2-157.86a66.44 66.44 0 0 0 15.41 7.74 119.3 119.3 0 0 0 27.52 5.78 247.29 247.29 0 0 0 42.33.67c13.47-.9 27.64-2.14 40.73-5.52 5.35-1.38 12.67-5.86 10.06-12.17-1.25-3-4.69-4.6-7.91-5.57a67.13 67.13 0 0 0-17.36-3c-13.5.64-58.57 1.46-68.09 5-2.22.83-9 2.78-9.24 5.7-.23 2.41 4.26 4.06 6 4.91a45.85 45.85 0 0 0 12.71 4.15 81.17 81.17 0 0 0 10.44.79c13.36.16 28.16-3 28.14-5.83 0-.88-1.46-1.48-4.36-2.67a41.42 41.42 0 0 0-15.82-3c-7.15 0-18.47 1.13-18.61 3.33-.07 1.15 2.92 2.6 5.58 2.67 2.35.06 3.53-1 5.56-1.71 5.45-1.93 12.24.21 12.35 1.63s-7.21 3.94-14.24 3.93c-7.61 0-15.91-2.86-16-5.65-.22-5.11 8.89-6.07 12.52-6.52a106.22 106.22 0 0 1 23.24 0c5.38.5 8.12.77 10.57 1.63 2.27.78 9.05 3.15 9.14 6.67.08 3.07-5 5.75-7.73 6.71-.7.24-4.53 2-12.57 2.45 0 0-32 2.69-55.91-13-2.6-1.71-4.41-3.49-4.22-5.33.23-2.14 2.48-3.46 4.51-4.35 11.92-5.25 24.93-7.61 37.9-8.85 6.55-.62 13.13-1 19.71-1.25 5.66-.25 11.34-1.36 17.07-1.63 2-.1 3.94-.16 5.9-.2 3.73-.06 4.84 0 13.6-.11 7.45-.1 13.43-.23 15.3-.28 1.51 0 19.16-.55 32.45-2.38 21.64-3 49.16-11.93 48.6-19 0-.74-.46-2-5.39-4.84-12.25-7-24.69-7.27-29.21-7.34-36.27-.55-39-.57-44.63-1.1-12.09-1.14-31.16-3.07-33-11a7.08 7.08 0 0 1 .55-4.32c3.69-8.89 20.23-9.81 26.62-10.1 48.1-2.16 74.54-1.28 74.54-1.28 1.53.12 34 2.82 47.39-5.83 1.41-.92 5.43-3.52 5.31-6.83-.13-3.65-5-6.7-7.34-7.26-23.61-5.71-49.19-1.13-72.26-8.64-3-1-6.35-2.52-7.37-5.47-1.47-4.25 5.68-9.19 7.79-10.71 7.78-5.6 16-6.85 19.73-7.37 23.53-3.31 33.16-4.06 56.23-5.19 0 0 15.79-.77 24.88 5.46 2.75 1.89 3.09 3.43 3.13 4.18.08 1.55-.93 3.52-5.41 6.31-6.8 4.23-14 5.61-19 6.27-9.93 1.31-21.17 2.79-30.37-3.58a24.11 24.11 0 0 1-2.78-2.25 2.8 2.8 0 0 1-.7-2.46c.2-.67 1.14-2.39 15.53-3.59 2.81-.23 4.69-.39 7.42-.44 6.17-.13 14-.3 14.72 2.11.36 1.16-1 2.53-1.5 3-1.49 1.5-3.46 1.77-5.33 2a14.87 14.87 0 0 1-3.71 0c-1.78-.23-3.67-.47-4.18-1.57s1-2.23.66-3c-1-2.11-13.92-.07-14.1 2.82-.12 1.9 5.27 3.6 6.24 3.9 3.49 1.11 7.48.72 15.32-.09a29 29 0 0 0 9.73-2.24c1.73-.77 4.67-2.08 4.64-3.81 0-1.31-1.76-2.29-3.52-3.24a23 23 0 0 0-7.61-2.58c-10.91-1.3-26.15-.52-27.35-.45a108.88 108.88 0 0 0-15.77 1.79c-7.78 1.5-10.41 3-10.9 4.93-.14.6-.19 1.65.93 3.36 3.74 5.72 12.74 7 15.3 7.4a229.76 229.76 0 0 0 40.3 1.57c14.34-.64 30.24-1.82 43-9.15 2.4-1.38 8.66-5.06 8.07-8.56-.1-.58-.49-1.76-4.08-4a34.26 34.26 0 0 0-10.9-4.51c-14.26-2.58-28.87-2.52-43.37-2.45-32.6.16-65.22.31-97.75 2.46-9.53.63-19.58 1.61-27.48 6.68-.4.26-.8.53-1.19.81-4.66 3.34-8.35 9.06-6.6 14.41s8.16 8 13.85 9.59a216.94 216.94 0 0 0 62.52 8c5.41-.1 10.66.1 16 .11 2.46 0 5.06.2 7.07 1.56 5.16 3.51.61 7.7-3.5 9-10.5 3.39-20.92 2.41-31.73 1.73-11.52-.72-23.07-.94-34.61-.93-20.83 0-17.5 1-52.14 1.68-21 .42-35.82.16-46.79 9.38-2.6 2.18-4.17 4.21-4.14 6.52.09 9.09 25 15.89 31.07 17.54a74.05 74.05 0 0 0 12.47 2.65c13 1.5 21.3 1.54 21.3 1.54 24.06.13 31-2.28 43.94 1.81 4 1.27 10 3.6 10.81 8a7.18 7.18 0 0 1-.73 4.43c-4 8.54-24 9.86-30.24 10.23-23.92 1.38-48 1.54-71.79 4-4.37.46-8.75.9-13.13 1.17-9.63.59-19.37.36-28.88 2.1-8.29 1.52-17.22 3.5-23.65 9.12a7.13 7.13 0 0 0-2.62 3.88c-.46 2.91 2.03 5.3 4.41 6.94zm121.29-6.7c1 .25 10.11 2.48 10.38 6.28s-8.67 7.57-13.52 8.58a18.58 18.58 0 0 1-3.4.47c-.09-.18 2.11-.71 4.32-1.88 1.87-1 5.94-3.15 6.08-6.07.15-3.29-4.77-6.09-7.6-7.09-2-.72-3.76-.79-3.74-.93s3.72-.29 7.48.61zm-20.25 16.43c2.58-1.19 5.93-3.73 6.21-6 .43-3.48-6-8.24-16.4-10.48a38.78 38.78 0 0 1 15.4-.44c3.13.55 6.37 1.59 8.41 4 4.49 5.22-1 10.16-6 12.06a36.49 36.49 0 0 1-12.18 2.2 14.52 14.52 0 0 0 4.56-1.34zm119.94-129.13c-3.69-1-5.54-1.49-7.21-2.79-.82-.64-3.48-2.72-3-4.71.27-1.15 1.49-1.74 3.94-2.91a25 25 0 0 1 6.71-2.1 19.46 19.46 0 0 1 5.11-.37 14.27 14.27 0 0 0-5.59 1.29c-.67.33-3.92 1.94-4 4.34a3.71 3.71 0 0 0 .83 2.19c2.55 3.86 6.83 5.2 6.65 5.63s-2.41-.3-3.44-.57zm67.44-21.62c.09-.32 6.2.4 10.78 3 .81.46 1.66 1 3.37 2.18 2.66 1.79 2.93 2.14 3.09 2.53.87 2-1.23 4.6-1.81 5.32-1.6 2-3.49 2.83-7.14 4.44-2.33 1-5.6 2.26-5.78 1.9-.12-.21.92-.78 3.06-2.54s3.16-2.61 3.71-3.81a6.94 6.94 0 0 0 .46-3.81 9.67 9.67 0 0 0-2.78-5.6c-3.03-3.12-7.03-3.32-6.96-3.61zm-6.49.66a10.76 10.76 0 0 1 6.64 2.93c7.27 7.1-.44 15.91-8.4 17.65-2.16.47-4.42.41-4.5 0s2.17-.86 5.58-2.87c2-1.2 1.13-1 4.16-3 1.39-.9 3-4.15 2.17-7.24-.56-2.15-2.08-3.41-3.56-4.63a35.59 35.59 0 0 0-4.22-2.58 5.22 5.22 0 0 1 2.09-.26zm-136.32 30.05a42.65 42.65 0 0 1-7-2.69 55.8 55.8 0 0 1-5.74-2.76c-2.9-1.87-6-4.76-5-8.46.94-3.48 4.49-6.15 7.4-8.11 4.06-2.72 7.86-3.65 11.47-4.6a37.25 37.25 0 0 1 10.93-1.62s.56 0 5.8.22c-2 .45-4.89 1.13-8.35 2-4.68 1.21-7.06 1.83-8.81 2.69s-6 3-8.34 7.39c-1.45 2.7-1.46 4.16-1.39 4.71a7.17 7.17 0 0 0 2.55 4.26c5.61 5.27 12.47 7 12.28 7.62-.13.42-3.18 0-5.8-.65zm37.32 3.36c0 .08-.26.37-5.55-.19-8.7-.92-13-1.38-17.91-3.2s-12.3-4.61-12.7-9.16c-.34-3.86 4.57-7.08 9.12-10.07 7.12-4.67 14.26-6.16 23.47-8.09a52.68 52.68 0 0 1 6.18-.88c2.61-.23 6.39-.36 6.44 0s-5 .79-11.6 2.91c-3.91 1.26-7.19 2.31-10.66 4.71-1.17.81-10.34 7.14-8.81 13.22.61 2.43 2.7 3.9 4.17 4.93 2.71 1.9 4.59 1.72 12.75 4 5.06 1.46 5.12 1.75 5.06 1.82zm59.18 4c5.17 1 6.13 1.88 6.53 2.33a5.83 5.83 0 0 1 1.41 4.55c-.58 3.52-6.16 6.52-13.91 6.72a11.9 11.9 0 0 0 4.87-3c1.18-1.23 2.88-2.94 2.58-4.94s-2.25-3.12-4.09-4.24c-2.39-1.47-4.23-1.75-4.17-2s3.88.02 6.78.57zm-17.32 13.61c2.46-1.17 5.52-3.88 5.44-7.07-.09-3.58-4.12-7.28-9.74-7.4.47-.11 7.75-1.83 12 2.52.55.56 2.91 2.82 2.44 5.84s-3 4.94-4.13 5.69c-4.29 2.84-9.27 1.68-10.31 1.42a10.59 10.59 0 0 0 4.3-1.01zm-162.6 23.79c-4.41-2.39-8.16-4.41-8.14-7.14 0-4.57 10.61-7.59 12.48-8.12 7.32-2.09 14.22-1.47 14.37-.51.12.77-4.13 1.39-9.48 5.42-3.17 2.39-3.61 3.63-3.69 4.5-.18 2.12 1.64 3.86 3.5 5.58 4.09 3.8 7.82 4.68 7.68 5.13-.22.64-8.43-.4-16.72-4.87zm39.56 7.68c-.34 1.1-10.63.29-18.8-5.31-4.33-3-4.58-4.87-4.61-5.44-.2-2.95 3-5.27 5.25-6.88 6.93-5 15.46-5.62 15.74-4.77.17.49-2.48 1.06-6 4-2.63 2.23-5.94 5-5.53 7.87.28 1.85 3.41 3.81 9.66 7.66 3.64 2.29 4.43 2.55 4.29 2.86zm93.76 8.55c4 1.37 8.53 3 9.05 6.09.57 3.31-4.9 7.12-5.18 7.31a20.55 20.55 0 0 1-5.35 2.37c-2.6.91-6.94 2.16-7.2 1.57-.37-.81 8-3 8.91-8.13a7.84 7.84 0 0 0-.36-4c-1.41-3.88-6-6.52-11.52-7a34.41 34.41 0 0 1 11.65 1.78zm-28.45 18.86l.44-.23c4.45-2.28 10.82-5.46 9.66-10.64-1-4.45-6.5-7.82-11-9.62a38.53 38.53 0 0 0-5.27-1c1.55 0 4.25 0 8.18.29 6.76.51 17 2 18.45 9.19 1 4.85-2.68 8.3-7.4 10.36a36.25 36.25 0 0 1-8.34 2.44c-1.24.22-2.49.33-3.73.5-.72.1-3.49 0-3.9.22zm-154.62 16.44a34 34 0 0 1 12.38-2.38 24.54 24.54 0 0 0-7.85 3.88 7.43 7.43 0 0 0-2.32 2.31c-1.65 3.1.69 7.15 1.35 8.29 5.34 9.24 21.5 10.82 21.34 11.51-.12.54-9.89-.15-21.79-4.93-7-2.79-14.39-5.77-14.38-9.86.02-4.33 8.37-7.67 11.27-8.83zm25.09-397.86c.62 2.55 1.73 6.25 20.74 15.73a162.63 162.63 0 0 0 26.2 10.64c10.82 3 24.31 8.35 47.87 7.5 17.85-.64 37.41 1.13 76.52 5a35.71 35.71 0 0 1 19.27 8c2.86 2.35 12.11 10.21 12.16 19.83.08 13.59-19.92 22.72-24.63 24.9-16.88 7.81-24.14 2.28-47.52 9.29-9.51 2.85-21.4 6.41-21.5 11.6-.12 7.12 22 13.3 36.43 17.32 5.8 1.61 36.68 8.66 66.71 10 14 .64 28 .08 42 1.32 11.83 1 26.06 2.61 35.88 11.37 1 .86 2.82 2.2 2.9 4.2.14 3.45-4.9 6.3-7 7.52-9.44 5.35-22 5-31.41 3.71-19.84-2.15-23.92-4.38-24-6-.07-2.56 9.45-4.71 13-5.52 14.08-3.18 29.67-2.4 30 .5.14 1.32-2.84 3.18-5.33 3.68a10.08 10.08 0 0 1-5.32-.67c-6.06-1.69-12.53 1.38-12.51 2.26 0 1.08 30.68 4 32.17-3.21a4.29 4.29 0 0 0-.6-2.73c-2.78-5.74-10.51-6.43-21.58-6.69-15.28-.37-22.91-.55-30.83.67-9.54 1.47-28.29 4.36-28.59 10-.21 3.91 8.37 8.13 13.45 9.71 3.58 1.11 6.12 1.13 10.37 1.34 10.63.51 7.52 1 19.9 1.67 50.76 2.78 89.55-6.13 100.62-16.57 1.18-1.11 4.37-4.12 4.21-7.86-.18-4.08-4.25-7.14-8.13-9.38-12.29-7.1-25.46-7.68-33.07-7.7-16.26 0-19.85 2.38-38.93 1.91-3.24-.07-1.6-.09-11.95-.57-18.5-.85-27.89-1.28-34.77-1.11-9.49.22-19 .92-28.47.42a217.14 217.14 0 0 1-23.42-2.61c-5.63-.9-12.44-3.33-13.53-10-1-6.2 3.89-11.53 8.78-13.94 5.48-2.7 9.87-4.81 14.51-6.92 13.46-6.12 11.58-6.75 28.81-12 14.61-4.49 20.2-3.1 34.69-9.15a49.72 49.72 0 0 0 12-7c6.07-4.74 16-12.12 6-20.48-14-11.72-31.91-13.52-31.91-13.52-22.55-2.09-42-3-45.61-3.23-13.73-.69-10.84-.82-25.76-1.62-22-1.18-38.58-1.44-62-4.28 0 0-29.14-3.53-37.1-20a34.26 34.26 0 0 1-2.44-7c.1-.86.22-1.6.32-2.21a44.25 44.25 0 0 1 17.23-28.12c2.6-2 7.34-5.14 24-8.53a204.24 204.24 0 0 1 34.89-4c2.61.28 33.75 3.87 34.9 15.57.8 8.18-13.46 16.37-14.72 17.07-7.92 4.44-16.49 3.63-33.63 2a27.76 27.76 0 0 1-10.51-3.52c-2.54-1.44-6.73-3.81-6.73-7 0-.85.3-2.33 3.37-5a26.75 26.75 0 0 1 12.05-6.1c7-1.39 20.3-1.89 22 4.09 1.87 6.58-7.88 7.3-11.17 8.34a20.41 20.41 0 0 0 15.89.86c4.81-1.84 11.73-6.7 11.26-11.21-.58-5.51-12-7.8-15.56-8.53-9.33-1.89-12.72.57-27.33 2.51-18 2.38-20.31 1.93-32.88 7.43-6 2.63-11.57 5.07-11.56 8.37 0 5.3 14.36 9.29 22.49 11.55a142.79 142.79 0 0 0 34.57 5.29c27.61.59 47.86-5.42 55.62-8.08 14.48-5 31.52-10.85 31.45-18.47-.06-6.85-13.92-12-24.1-15.73-13.59-5-24.38-5.85-38.59-6.93a214 214 0 0 0-35.32.5c-15.33 1.61-14 3.17-53.81 12-12.69 2.83-25 7.48-37.65 10.78-11.78 3.09-18.68 3.91-22.26 12.1-.23.61-3.21 7.65-1.5 14.64zm224.87 168c-4.86-.25-5.28 0-7.9-.39s-5.72-.87-7.82-3c-7.14-7.25 17.84-10.68 21-11.06a28.88 28.88 0 0 0-11.45 4c-.79.48-2.15 1.35-2.24 2.68 0 .65.22 1.46 1.4 2.68 1.9 2 4.08 2.8 8.26 3.93 3.41.93 5.22 1.25 5.2 1.42s-2.34-.06-6.45-.26zm94.17-31.19c5.4.24 10.15.45 14.85 4 2.29 1.74 5.6 4.25 5.83 8.22.3 5-4.54 8.85-5.45 9.57-1.51 1.19-3.72 1.9-8.09 3.27-2 .62-6.69 3.19-8.67 1.86 3.62-2.69 9.45-3.91 11.4-8.8a9.55 9.55 0 0 0-3-11.22c-4.31-3-9.21-3.93-13.78-6.09 1.49-1.47 4.92-.9 6.91-.81zM1700 1262c9.27.29 13.91.44 14.86.67 1.37.33 14.44 3.48 15.69 12.38.75 5.24-3 9.88-3.64 10.71-3.16 4-7.3 4.76-15.58 6.37-5.13 1-8.2 1-8.24.66-.1-.69 11.56-.68 14.85-8.37a13.27 13.27 0 0 0 .28-9c-3.85-11.47-24.54-11.71-24.38-13.06.06-.54 3.04-.46 6.16-.36zm-149.37-12.73c-4.81-1.57-17.08-5.57-16.91-9 .1-2.16 5-3.26 11.62-4.78 10.1-2.3 16.42-1.78 16.42-1.72a22.49 22.49 0 0 0-12.24 3.87c-3.91 2.63-3.91 4.34-3.88 4.73.07 1.06.94 1.7 2.69 3 2.08 1.56 3.41 1.9 6.21 3.78 1.68 1.13 1.69 1.33 1.68 1.39-.11.51-4.68-.97-5.59-1.27zm16.31-12c-1.06 1.44-3.15 4.26-2.73 7.53a7.85 7.85 0 0 0 1.68 3.77 11.67 11.67 0 0 0 6.73 4.77c0 .06-18.31-3.76-18.32-9.77 0-1 .49-1.65 1.49-3 2.62-3.55 4.91-3 11.31-5.92 2-.9 3.94-1.91 4-1.65s-2.1 1.47-4.16 4.31zm68.81-70.63c5.89 1.48 8.84 2.22 11.52 3.35 1.88.79 17.3 7.31 17.3 15.63s-15.31 15.11-19.73 17.07a47.51 47.51 0 0 1-7.11 2.53 30.35 30.35 0 0 0 5.89-4.35c2.4-2.27 5.48-5.16 6.44-9.62a15.23 15.23 0 0 0-.28-6.87c-3.06-13-19.72-17.09-19.42-18.47.1-.45 2.22-.02 5.39.77zm-5.73 5.87c4.73 4.13 7.11 8 7.84 12.72 2.62 16.83-24.06 25.47-24.42 23-.1-.71 3.32-.92 7.69-4.85 1.1-1 10-9.19 9.23-17.8-.54-6-5.88-8.39-12.9-14.37-5.81-5-12.44-7.3-19-9.08 10.54 2.01 22.23 2.29 31.54 10.42zm-131.62-69.2a6.67 6.67 0 0 0-.46 3.48c.52 3.13 3.67 4.41 3.41 5.05s-2.49-.23-3.52-.59a8.74 8.74 0 0 1-3-1.41c-.29-.24-2.39-1.93-2.52-3.77-.3-4.08 9.93-7.67 10.09-7.28.08.21-2.78 1.28-4 4.56zm16.82 10.54c-.3.68-3.75-.9-4.46-1.22-3.76-1.71-5.67-2.51-6.31-4.28-2.44-6.8 6.25-11.81 10.44-12.9.46-.12 1.12-.07 1.19.49-.91 1-1.9 1.81-2.75 2.85-1.15 1.4-2.83 3.45-2.83 6.05 0 1.71.74 3 1.62 4.61 1.56 2.89 3.32 3.95 3.1 4.44zm84.18-26.44c4.2 1.59 5.4 1.59 7.19 2.93.49.36 4.73 3.58 4.77 7.36.08 7.37-15.78 13.31-16 12.7-.08-.16 1-.79 2.92-3.09a14.73 14.73 0 0 0 2.4-3.51 12.35 12.35 0 0 0 .64-6.43c-.79-7-6.7-11.71-7.57-12.39 1.25.64 3.19 1.54 5.65 2.47zm-21.17-6.35c4.93 1.78 7.46 2.7 9.81 5.36a19.81 19.81 0 0 1 4.65 14c-.73 8.57-8.52 16.5-18.94 16.75a36.75 36.75 0 0 0 8.72-7.4c3-3.51 3.73-5.71 4.09-7.31a13.12 13.12 0 0 0 .14-4.62 17.7 17.7 0 0 0-4.34-9.31c-5.7-6.9-12.45-8.45-12.25-9.19.15-.49 4.21.34 8.12 1.76zm-116.58 19.23a123 123 0 0 1 13.47-6.39c-6 2.68-11.94 11.63-14.67 18.24-3.14 7.63-3.2 16.24 1.51 23 .77 1.11 9.07 8.44 12.5 10.28a54.19 54.19 0 0 1-18.3-9.32c-4.17-3.17-10.36-7-11.22-13.48-1.25-9.48 11.06-18.9 16.71-22.29zm-33 13.81c7.5-5.45 17-9.92 17.4-8.79s-9.77 4.24-11.51 13.15a17 17 0 0 0 .84 8.7 15.14 15.14 0 0 0 7.52 8.68 54.92 54.92 0 0 1-5.28-2.66 38.58 38.58 0 0 1-10.93-9c-1.85-2.25-2.25-3.29-2.24-4.36-.01-2.51 2.37-4.37 4.16-5.68z"/></g><g class="cls-1"><path class="cls-2" d="M401.44 506.57c-.71-2-2-5-23.81-12.55a242.05 242.05 0 0 0-30.09-8.49c-12.42-2.4-27.92-6.66-55-6-20.5.51-43-.9-87.87-4a52.8 52.8 0 0 1-22.13-6.35c-3.28-1.87-13.9-8.14-14-15.82-.09-10.84 22.88-18.13 28.29-19.86 19.38-6.24 27.72-1.83 54.57-7.42 10.92-2.27 24.58-5.12 24.68-9.26.15-5.68-25.29-10.61-41.83-13.82a595.41 595.41 0 0 0-76.6-8c-16.06-.51-32.16-.06-48.21-1.05-13.58-.84-29.92-2.08-41.19-9.07-1.11-.69-3.24-1.76-3.33-3.36-.16-2.75 5.62-5 8.07-6 10.84-4.28 25.23-4 36.07-3 22.78 1.72 27.46 3.5 27.51 4.81.08 2.05-10.85 3.76-15 4.41-16.17 2.54-34.08 1.91-34.44-.4-.16-1.05 3.26-2.54 6.11-2.94a16.68 16.68 0 0 1 6.12.53c7 1.36 14.38-1.09 14.36-1.79 0-.87-35.22-3.24-36.94 2.56a2.59 2.59 0 0 0 .69 2.17c3.19 4.58 12.07 5.13 24.79 5.34 17.53.3 26.3.44 35.4-.53 10.94-1.17 32.48-3.48 32.83-8 .24-3.12-9.62-6.49-15.45-7.75-4.11-.89-7-.91-11.91-1.07-12.21-.41-8.64-.79-22.85-1.33-58.18-2.19-102.73 4.92-115.44 13.25-1.36.89-5 3.28-4.83 6.27.2 3.25 4.88 5.7 9.33 7.49 14.11 5.66 29.23 6.12 38 6.14 18.67 0 22.79-1.9 44.69-1.53 3.73.07 1.84.08 13.73.46 21.24.68 32 1 39.93.89 10.89-.18 21.8-.74 32.69-.34 8.63.32 17.21 1 26.9 2.08 6.46.72 14.28 2.66 15.53 8 1.16 4.94-4.47 9.2-10.08 11.12-6.3 2.15-11.34 3.84-16.67 5.52-15.46 4.88-13.29 5.39-33.08 9.62-16.77 3.58-23.19 2.47-39.83 7.3a67.15 67.15 0 0 0-13.84 5.57c-7 3.78-18.4 9.67-6.92 16.34C116.5 476 137 477.47 137 477.47c25.9 1.67 48.25 2.44 52.38 2.58 15.76.55 12.44.66 29.58 1.29 25.29.94 44.3 1.15 71.18 3.42 0 0 33.46 2.81 42.59 16a21.83 21.83 0 0 1 2.81 5.61c-.12.68-.25 1.27-.36 1.76-3.18 13.51-16.18 20.49-19.77 22.4-3 1.6-8.42 4.11-27.52 6.82a333.8 333.8 0 0 1-40.07 3.2c-3-.22-38.75-3.08-40.07-12.42-.93-6.53 15.45-13.06 16.89-13.62 9.11-3.55 19-2.9 38.63-1.61a42.77 42.77 0 0 1 12.07 2.81c2.91 1.15 7.72 3 7.72 5.61 0 .68-.34 1.86-3.86 4a37.94 37.94 0 0 1-13.85 4.87c-8.06 1.1-23.31 1.5-25.26-3.27-2.14-5.25 9-5.82 12.82-6.66a32.89 32.89 0 0 0-18.23-.68c-5.53 1.47-13.47 5.35-12.93 8.94.66 4.4 13.71 6.23 17.86 6.81 10.72 1.51 14.6-.45 31.38-2 20.61-1.9 23.33-1.54 37.76-5.93 6.88-2.1 13.28-4 13.28-6.68 0-4.23-16.5-7.41-25.83-9.22a232.82 232.82 0 0 0-39.7-4.22c-31.7-.47-55 4.32-63.87 6.45-16.63 4-36.19 8.65-36.11 14.74.07 5.47 16 9.55 27.67 12.55 15.61 4 28 4.67 44.32 5.53a353.65 353.65 0 0 0 40.55-.4c17.61-1.28 16.1-2.53 61.79-9.61 14.57-2.26 28.76-6 43.23-8.61 13.54-2.46 21.46-3.11 25.57-9.65.35-.51 3.75-6.13 1.79-11.71zm-258.22-134c5.59.2 6.07 0 9.08.3s6.56.7 9 2.4c8.21 5.79-20.48 8.52-24.1 8.82a43 43 0 0 0 13.14-3.2c.92-.38 2.47-1.08 2.58-2.13.05-.53-.25-1.17-1.61-2.14-2.18-1.56-4.68-2.24-9.48-3.14-3.91-.74-6-1-6-1.13s2.68 0 7.39.17zM35.09 397.41c-6.2-.2-11.66-.37-17.06-3.21-2.63-1.39-6.43-3.39-6.7-6.56-.33-4 5.23-7.06 6.27-7.63 1.73-.95 4.27-1.52 9.29-2.61 2.27-.5 7.68-2.55 10-1.48-4.16 2.14-10.84 3.11-13.09 7-1.91 3.31-.26 7.12 3.49 8.95 4.95 2.4 10.58 3.14 15.83 4.86-1.81 1.27-5.75.75-8.03.68zm36.37-1.07c-10.65-.24-16-.35-17.06-.54-1.57-.26-16.58-2.78-18-9.88-.85-4.18 3.42-7.89 4.18-8.55 3.63-3.15 8.39-3.79 17.9-5.08 5.89-.8 9.4-.81 9.46-.53.1.55-13.27.55-17.06 6.68a7.62 7.62 0 0 0-.32 7.21c4.42 9.15 28.18 9.34 28 10.42-.09.41-3.51.35-7.1.27zM243 406.49c5.53 1.25 19.62 4.44 19.42 7.22-.12 1.72-5.69 2.6-13.34 3.81-11.6 1.83-18.86 1.42-18.86 1.37a34.49 34.49 0 0 0 14.06-3.09c4.49-2.09 4.49-3.46 4.46-3.77-.09-.84-1.09-1.36-3.09-2.4-2.4-1.24-3.92-1.51-7.13-3-1.94-.9-1.95-1.06-1.94-1.11.11-.45 5.36.74 6.42.97zM224.26 416c1.22-1.15 3.61-3.4 3.14-6a5.74 5.74 0 0 0-1.94-3 14.82 14.82 0 0 0-7.72-3.8c0-.06 21 3 21 7.78 0 .79-.57 1.33-1.71 2.4-3 2.83-5.64 2.43-13 4.72-2.3.72-4.52 1.53-4.64 1.32s2.46-1.12 4.87-3.42zm-79 56.35a125.84 125.84 0 0 1-13.26-2.62c-2.15-.64-19.86-5.84-19.86-12.48s17.58-12.06 22.65-13.62a72.79 72.79 0 0 1 8.16-2 37.56 37.56 0 0 0-6.75 3.47c-2.77 1.81-6.3 4.12-7.4 7.67a8.68 8.68 0 0 0 .32 5.49c3.52 10.33 22.64 13.64 22.31 14.74-.11.37-2.55 0-6.19-.61zm6.59-4.68c-5.44-3.29-8.17-6.39-9-10.15-3-13.43 27.62-20.32 28-18.38.12.57-3.82.73-8.83 3.87-1.27.79-11.48 7.33-10.59 14.2.61 4.77 6.74 6.7 14.8 11.47 6.68 3.95 14.29 5.82 21.88 7.24-12.11-1.5-25.57-1.72-36.28-8.21zM303 522.93a4 4 0 0 0 .53-2.78c-.6-2.49-4.21-3.52-3.91-4s2.85.19 4 .47a12 12 0 0 1 3.44 1.14c.34.19 2.74 1.53 2.9 3 .34 3.25-11.41 6.12-11.59 5.81s3.19-1.02 4.63-3.64zm-19.31-8.41c.34-.54 4.31.72 5.12 1 4.32 1.37 6.51 2 7.24 3.42 2.81 5.42-7.18 9.42-12 10.29-.53.1-1.29.06-1.37-.39 1-.76 2.18-1.44 3.16-2.27 1.32-1.12 3.24-2.75 3.25-4.83 0-1.36-.85-2.39-1.86-3.68-1.82-2.3-3.84-3.15-3.58-3.54zM187 535.62c-4.82-1.27-6.2-1.27-8.26-2.33-.55-.29-5.42-2.86-5.47-5.88-.1-5.88 18.12-10.62 18.43-10.14.09.13-1.18.64-3.36 2.47a12.69 12.69 0 0 0-2.75 2.81 7.06 7.06 0 0 0-.73 5.13c.9 5.56 7.69 9.34 8.69 9.88-1.48-.48-3.74-1.2-6.55-1.94zm24.31 5.07c-5.66-1.43-8.56-2.16-11.27-4.28-3.48-2.73-5.83-7.15-5.33-11.21.84-6.84 9.79-13.16 21.75-13.36a41.39 41.39 0 0 0-10 5.9c-3.48 2.8-4.29 4.55-4.71 5.83a7.46 7.46 0 0 0-.16 3.69c.39 2.11 1.58 4.57 5 7.43 6.54 5.51 14.3 6.74 14.07 7.33s-4.87-.2-9.37-1.33zm133.87-15.34c-5.68 2.36-15.46 5.09-15.47 5.09 6.91-2.14 13.72-9.28 16.85-14.55 3.61-6.09 3.67-13-1.73-18.35-.89-.88-10.43-6.74-14.36-8.2a76.07 76.07 0 0 1 21 7.44c4.78 2.52 11.89 5.58 12.88 10.75 1.44 7.59-12.67 15.11-19.19 17.82zm37.94-11c-8.61 4.35-19.52 7.92-20 7s11.21-3.39 13.21-10.49a9.79 9.79 0 0 0-1-7c-2.41-4.74-7.54-6.56-8.64-6.92 2.58.78 4.64 1.55 6.07 2.11a45.1 45.1 0 0 1 12.55 7.22c2.12 1.79 2.59 2.62 2.57 3.47.01 2.05-2.72 3.54-4.78 4.58zm-28.39 93.38a66.44 66.44 0 0 0-15.41-7.73 119.83 119.83 0 0 0-27.52-5.78 246.27 246.27 0 0 0-42.33-.66c-13.48.89-27.64 2.13-40.73 5.51-5.35 1.39-12.67 5.87-10.06 12.17 1.25 3 4.69 4.6 7.91 5.58a67.37 67.37 0 0 0 17.36 3c13.5-.63 58.57-1.45 68.08-5 2.23-.83 9-2.78 9.25-5.7.23-2.41-4.26-4.05-6-4.9a45.45 45.45 0 0 0-12.7-4.22 80.86 80.86 0 0 0-10.44-.8c-13.36-.16-28.16 3-28.14 5.83 0 .88 1.46 1.48 4.36 2.67a41.42 41.42 0 0 0 15.82 3c7.15 0 18.47-1.13 18.61-3.33.07-1.15-2.92-2.6-5.58-2.67-2.35-.06-3.53 1-5.56 1.71-5.45 1.94-12.24-.21-12.35-1.63s7.21-3.93 14.24-3.93c7.61 0 15.91 2.86 16 5.65.22 5.12-8.89 6.07-12.52 6.52a106.22 106.22 0 0 1-23.24 0c-5.38-.5-8.12-.77-10.57-1.62-2.27-.79-9.06-3.15-9.14-6.67-.08-3.08 5-5.76 7.73-6.72.7-.24 4.53-2 12.57-2.44 0 0 32-2.7 55.91 12.95 2.6 1.71 4.41 3.49 4.21 5.33-.22 2.15-2.47 3.46-4.5 4.36-11.92 5.25-24.93 7.61-37.9 8.84-6.55.62-13.13 1-19.71 1.25-5.66.25-11.34 1.36-17.08 1.64-2 .09-3.93.15-5.89.19-3.73.06-4.84 0-13.6.11-7.45.1-13.43.24-15.3.29-1.51 0-19.16.54-32.45 2.37-21.65 3-49.16 11.93-48.6 19 .05.74.46 2 5.39 4.85 12.25 6.94 24.69 7.26 29.21 7.33 36.27.55 39 .57 44.63 1.1 12.08 1.14 31.16 3.07 33 11a7.16 7.16 0 0 1-.55 4.32c-3.69 8.89-20.23 9.81-26.62 10.1-48.1 2.16-74.54 1.29-74.54 1.29-1.53-.13-34-2.83-47.39 5.82-1.42.92-5.43 3.52-5.31 6.83.12 3.65 5 6.7 7.34 7.26 23.61 5.72 49.19 1.13 72.26 8.65 3 1 6.35 2.51 7.37 5.46 1.47 4.25-5.68 9.19-7.79 10.71-7.78 5.6-16.05 6.85-19.74 7.37-23.53 3.31-33.15 4.06-56.23 5.19 0 0-15.78.77-24.87-5.46-2.75-1.88-3.09-3.43-3.13-4.18-.08-1.55.93-3.52 5.41-6.3 6.8-4.24 14-5.62 19-6.28 9.93-1.31 21.17-2.79 30.37 3.59a24.21 24.21 0 0 1 2.78 2.24 2.8 2.8 0 0 1 .7 2.46c-.2.67-1.14 2.39-15.53 3.59-2.81.23-4.69.39-7.42.45-6.17.13-14 .29-14.72-2.12-.36-1.16 1-2.53 1.5-3 1.49-1.5 3.46-1.76 5.33-2a15.38 15.38 0 0 1 3.71 0c1.78.23 3.67.47 4.18 1.57s-1 2.23-.66 3c1 2.12 13.92.07 14.1-2.82.12-1.9-5.27-3.6-6.24-3.9-3.49-1.11-7.48-.72-15.32.09a29.4 29.4 0 0 0-9.68 2.28c-1.72.77-4.66 2.08-4.63 3.81 0 1.32 1.76 2.29 3.52 3.24a23.41 23.41 0 0 0 7.56 2.56c10.91 1.29 26.14.51 27.35.44a108.88 108.88 0 0 0 15.77-1.79c7.78-1.5 10.41-3 10.89-4.93.15-.6.2-1.65-.92-3.36-3.74-5.72-12.74-7-15.3-7.4a229.76 229.76 0 0 0-40.3-1.57c-14.34.64-30.24 1.82-43 9.15-2.4 1.38-8.66 5.06-8.07 8.56.1.59.49 1.76 4.08 4a34.26 34.26 0 0 0 10.9 4.51c14.26 2.58 28.87 2.52 43.37 2.45 32.6-.15 65.22-.31 97.75-2.46 9.53-.63 19.58-1.61 27.48-6.68.4-.26.8-.53 1.19-.81 4.66-3.34 8.35-9 6.6-14.4s-8.16-8-13.86-9.6a216.88 216.88 0 0 0-62.51-8c-5.41.11-10.66-.1-16-.1-2.46 0-5.06-.2-7.07-1.57-5.16-3.51-.61-7.7 3.5-9 10.49-3.39 20.92-2.41 31.73-1.73 11.52.72 23.07.94 34.61.93 20.83 0 17.5-1 52.14-1.67 21-.43 35.82-.17 46.79-9.39 2.6-2.18 4.17-4.21 4.14-6.51-.09-9.1-25-15.9-31.07-17.55a73.38 73.38 0 0 0-12.47-2.64 212.7 212.7 0 0 0-21.3-1.55c-24.07-.13-31 2.29-43.94-1.81-4-1.27-10-3.59-10.81-8a7.18 7.18 0 0 1 .73-4.43c4-8.54 23.95-9.86 30.24-10.22 23.92-1.38 48-1.55 71.79-4 4.37-.46 8.75-.9 13.13-1.17 9.63-.59 19.37-.36 28.88-2.1 8.29-1.51 17.22-3.49 23.65-9.12a7 7 0 0 0 2.61-3.88c.45-2.84-2.04-5.23-4.42-6.87zm-121.29 6.7c-1-.25-10.11-2.48-10.38-6.27s8.66-7.57 13.52-8.59c0 0 3.29-.67 3.4-.46s-2.11.7-4.32 1.87c-1.87 1-5.94 3.15-6.08 6.07-.16 3.29 4.77 6.09 7.59 7.09 2 .72 3.77.8 3.75.93s-3.72.29-7.48-.64zM253.69 598c-2.58 1.19-5.93 3.73-6.21 6-.43 3.48 6 8.25 16.4 10.49a38.78 38.78 0 0 1-15.4.43c-3.14-.54-6.38-1.59-8.41-4-4.49-5.22 1.05-10.16 6-12.06a36.58 36.58 0 0 1 12.18-2.2 14.93 14.93 0 0 0-4.56 1.34zM133.75 727.13c3.69 1 5.54 1.49 7.21 2.79.82.64 3.48 2.72 3 4.71-.27 1.16-1.49 1.74-3.94 2.91a25 25 0 0 1-6.71 2.1 19.47 19.47 0 0 1-5.11.37 14.27 14.27 0 0 0 5.59-1.29c.67-.33 3.92-1.93 4-4.34a3.59 3.59 0 0 0-.82-2.18c-2.55-3.86-6.83-5.21-6.66-5.64s2.41.3 3.44.57zm-67.44 21.62c-.09.32-6.2-.4-10.78-3-.81-.46-1.66-1-3.37-2.18-2.66-1.79-2.93-2.14-3.09-2.52-.87-2 1.23-4.61 1.81-5.33 1.6-2 3.49-2.83 7.14-4.44 2.33-1 5.59-2.26 5.78-1.9s-.92.78-3.06 2.54-3.16 2.61-3.71 3.81a6.94 6.94 0 0 0-.46 3.81 9.67 9.67 0 0 0 2.78 5.6c3.03 3.12 7.03 3.35 6.96 3.61zm6.49-.66a10.76 10.76 0 0 1-6.64-2.93c-7.27-7.1.43-15.91 8.4-17.65 2.16-.47 4.42-.41 4.5 0s-2.17.86-5.58 2.87c-2 1.2-1.13 1-4.16 3-1.39.91-3 4.15-2.18 7.24.57 2.16 2.09 3.41 3.57 4.63a36.93 36.93 0 0 0 4.21 2.59 5.31 5.31 0 0 1-2.12.25zm136.32-30a43.11 43.11 0 0 1 7 2.68 55.8 55.8 0 0 1 5.74 2.76c2.9 1.88 6 4.76 5 8.46-.94 3.48-4.49 6.15-7.4 8.11-4.06 2.73-7.86 3.65-11.47 4.6a37.27 37.27 0 0 1-10.94 1.62s-.55 0-5.79-.22c2-.45 4.89-1.13 8.35-2 4.68-1.2 7.06-1.83 8.81-2.69s6-3 8.34-7.39c1.45-2.69 1.46-4.15 1.39-4.71a7.17 7.17 0 0 0-2.55-4.26c-5.61-5.26-12.47-7-12.29-7.62.14-.43 3.19-.04 5.81.62zm-37.33-3.37c0-.08.27-.37 5.56.19 8.7.92 13.05 1.38 17.91 3.21s12.3 4.6 12.7 9.15c.34 3.86-4.57 7.08-9.12 10.07-7.12 4.67-14.26 6.17-23.47 8.09a54.09 54.09 0 0 1-6.18.89c-2.61.22-6.39.35-6.44 0s5-.78 11.59-2.91c3.92-1.26 7.2-2.31 10.67-4.71 1.17-.81 10.34-7.14 8.81-13.22-.61-2.43-2.7-3.9-4.17-4.93-2.71-1.9-4.59-1.72-12.76-4-5.05-1.55-5.11-1.8-5.1-1.87zm-59.17-4c-5.17-1-6.13-1.89-6.53-2.34a5.83 5.83 0 0 1-1.41-4.55c.58-3.52 6.16-6.52 13.91-6.72a11.9 11.9 0 0 0-4.87 3c-1.18 1.23-2.88 2.94-2.58 4.94s2.25 3.12 4.09 4.25c2.39 1.46 4.23 1.74 4.17 2s-3.88-.06-6.78-.6zm17.32-13.62c-2.46 1.18-5.52 3.88-5.44 7.07.09 3.58 4.12 7.29 9.74 7.4-.48.12-7.75 1.83-12-2.52-.55-.56-2.91-2.82-2.44-5.84s3-4.94 4.13-5.69c4.29-2.84 9.27-1.68 10.31-1.42a10.76 10.76 0 0 0-4.3.98zm162.6-23.78c4.41 2.38 8.16 4.4 8.14 7.13 0 4.58-10.61 7.59-12.48 8.12-7.32 2.09-14.22 1.47-14.37.51-.12-.77 4.13-1.39 9.48-5.42 3.17-2.39 3.61-3.62 3.69-4.49.18-2.12-1.64-3.87-3.5-5.59-4.09-3.8-7.82-4.68-7.68-5.13.18-.67 8.43.37 16.72 4.85zm-39.54-7.7c.34-1.1 10.63-.3 18.8 5.3 4.33 3 4.58 4.87 4.61 5.45.19 3-3 5.26-5.25 6.88-6.93 5-15.46 5.61-15.75 4.76-.16-.48 2.49-1.06 6-4 2.63-2.23 5.94-5 5.53-7.87-.28-1.85-3.41-3.81-9.66-7.66-3.65-2.3-4.4-2.56-4.28-2.86zm-93.76-8.56c-4-1.37-8.53-3-9.05-6.08-.57-3.32 4.9-7.13 5.18-7.32a20.55 20.55 0 0 1 5.35-2.37c2.6-.9 6.94-2.16 7.2-1.57.37.81-8 2.95-8.91 8.13a7.73 7.73 0 0 0 .36 4c1.41 3.88 6 6.52 11.51 7a34.39 34.39 0 0 1-11.66-1.79zm28.45-18.86l-.44.23c-4.45 2.28-10.83 5.46-9.66 10.65 1 4.45 6.5 7.81 11 9.61a38.53 38.53 0 0 0 5.27 1c-1.55 0-4.25 0-8.18-.28-6.76-.52-17-2-18.45-9.2-1-4.84 2.68-8.29 7.4-10.36a36.25 36.25 0 0 1 8.34-2.44c1.24-.22 2.49-.33 3.73-.5.72-.1 3.49 0 3.9-.22zm154.62-16.44a34.25 34.25 0 0 1-12.38 2.39 24.73 24.73 0 0 0 7.85-3.89 7.43 7.43 0 0 0 2.32-2.31c1.65-3.1-.69-7.15-1.35-8.29-5.34-9.24-21.5-10.82-21.34-11.51.12-.54 9.89.15 21.79 4.93 7 2.79 14.39 5.77 14.38 9.86-.04 4.33-8.39 7.66-11.29 8.82zm155.48 218.72c-19.46 4.82-59.71 11.93-102.58 7a153.48 153.48 0 0 0-30.57-.18c-7.54.69-29.37 2.68-31.38 9.73-.91 3.18 2.59 6.2 4.63 8 10.24 8.83 30 8.09 36.05 7.87 1.91-.07 5.6-.27 10.82 0 3.08.13 6.48.47 12.15 1.24 5.15.71 18.79 2.56 23.48 10.34a11.58 11.58 0 0 1 .44 11.45c-2.29 4.07-9.09 9.53-50.4 12.8-34.9 2.77-51.7 2.27-73.9 9.86-5.21 1.79-10.88 4.71-12 9.78-2.15 9.7 12.61 13.86 23.23 13.74 30.8-.35 45.52-.33 80.39-.91 32.47-.55 79.61 5.67 86.44 23.24 3.44 8.86-4.44 17.89-4.79 18.28-3.19 3.55-9.78 8.57-37.25 12.32-12.21 1.66-18.51 1.7-56.5 2.2-28.23.36-39.57.53-52.07-5.22-4.53-2.08-12.18-5.7-13-11.56-1.45-9.93 17.78-18.39 18.81-18.83 6.53-2.8 22.27-2.4 53.49-1.48 5.67.17 13.52.48 19.83 4.66 1.85 1.22 7.22 4.78 6.68 10-.42 4-4 6.64-5.21 7.45a38.29 38.29 0 0 1-10.09 3.41c-13 2.47-27.61-1.54-27.7-5 0-1.57 3-2.84 5.35-3.83 9.08-3.79 17.48-1.34 18-2.51.72-1.67-14.9-10.63-31.74-7.81-2.71.45-14.14 2.37-16.17 8.47-.95 2.85.51 5.51 1.59 7a121.35 121.35 0 0 0 16.92 4.34 140 140 0 0 0 24.45 2.07c12.63.19 18.95.29 25.89-2.1 4-1.38 13.05-4.5 14.49-10.34 1.86-7.51-10.17-14.26-12.93-15.81a37.4 37.4 0 0 0-13.64-5c-56.05-7.75-113.18 8.21-169.72 4.43-10.43-.69-21.22-2.2-29.84-7.67S185 936 188.32 926.78c1.79-5 5.89-8.95 10.35-12.16 41.24-29.7 105.88-1.24 150.8-25.86 2.93-7.73-9.88-11.6-18.61-10.69-27.88 2.88-58.46 8.74-82.11-5.16-2.94-1.73-5.78-3.84-7.28-6.76-5.05-9.81 7.42-19.57 18.43-23.33 69-23.54 148.1 7.3 218.24-13.19 3.61-1.06 7.46-2.44 9.45-5.45 4.25-6.42-9-16-10.5-17.1L477 807c-15-10.53-93.47-10.5-96.78 4.13-1 4.42 5.24 8.49 7.06 9.68 2.22 1.45 8.49 5 39.79 2.67 14.38-1 21.59-1.61 22.25-3.88.82-2.81-8-7.2-16.43-8.11-5.69-.62-13.31.13-14.05 2.36-.46 1.37 1.82 3 3.69 4.08-9.53 5.21-20 5.41-25.09 1.58-2.4-1.82-4.46-5.21-3.06-8 2.21-4.43 11.87-5.21 21-5.94 7.66-.62 7 .22 33.87 2 5.62.38 11.4.72 17 3.79 2.56 1.39 6.69 3.64 6.43 6.31-.52 5.39-18.55 9-28.48 10.16-.29 0-5.59.28-16.18.78-13.42.64-17.36.79-22.37.87 0 0-7.49.13-14.64 0-16.49-.35-59.82-4.36-61.39-14.81-.4-2.71 2.12-5 5.2-7.75 8.85-8 21.92-9.7 27.89-10.44 42.11-5.18 83.88-3.82 102-3.07 8.16.34 22.25 1 38.51 6.28 4.67 1.51 8.36 3 10.78 4.08 3.26 1.52 22.13 10.32 21.9 18.09-.21 9.41-22.99 14.87-38.11 18.62zM330.6 983.21c-1-2.6-.43-6.33-.28-7.23a12 12 0 0 1 2.21-6c3.53-4.43 10.92-5.05 10.82-5.34s-14-1.06-20.05 6.37c-3.9 4.77-2.88 10.77.23 14.72 7.16 9.09 25.35 7.23 25.6 6.44s-15.7-1.93-18.53-8.96zm122.07 4.39c8-2.31 14.7-7.39 14.56-14.22-.15-7.45-8.69-14.57-21.34-18.27 1.17.85 14.21 10.52 12.53 20.26a17 17 0 0 1-2.06 5.35c-2.89 4.64-7.73 7.1-10 8.08a32.11 32.11 0 0 0 6.31-1.2zm-24.21-27.06c1.7 1.39 9.78 8 8 15.85-1.08 4.69-5.27 8-7.61 9.84-4.63 3.65-8.78 4.63-8.6 4.95.39.67 19.92-1.22 25.72-11.12 3.61-6.17.69-13.43-3.34-17.86-4.59-5-11-6.82-13.38-7.46-4.73-1.27-10.57-1.72-11.06-.74s5.04 2.26 10.27 6.54zm-211-47.78c-1.86.85-18.28 8.14-17.33 20.76.58 7.65 6.63 13.84 15.08 17.51 2.28 1 25.37 7.21 26.42 4 .21-.63-4.36-1.44-10.39-4-5.08-2.18-10.4-4.47-13.9-9a17.16 17.16 0 0 1-3.45-12.03 19.28 19.28 0 0 1 5.39-12.88c5-5.16 11.79-6.72 11.42-7.38s-7.07.26-13.27 3.02zm35.15-3.29c-6.29 1.06-10.85 3.87-15.66 6.9a34.12 34.12 0 0 0-5.54 3.88c-1.06 1-8.21 8.12-5.86 16.07 3.17 10.69 20.89 13.94 25.75 14.83s11.48 2.07 16.2.22c-4.12-1.21-8.67-1.42-12.76-3.13-6.82-2.86-12.32-9-13.39-16.21-1-6.91 2.09-15.46 9.62-19.33 4.89-2.51 10.72-2.59 10.63-3.18s-4.5-.82-9.02-.05zm15.28 3.61c-2 1.13-9.24 5.24-11.38 12.65s1.49 15.73 8.83 19.65c2.71 1.45 5.54 2 11.19 3 9.47 1.71 17.67 1.47 17.73 1.12s-3.8-.2-8.69-1.81c-1.88-.61-6.45-1.68-9.3-4.94-3.79-4.33-5.52-9.36-5-14.39a15.49 15.49 0 0 1 2.53-7.44c3.94-5.93 11.27-8.58 14.22-9.65 4.79-1.73 7.63-1.76 7.58-2.1-.12-.81-15.7-2.77-27.74 3.91zm117.55-14.51c.58 1.26 3 1.93 4.95 1.94 6 0 12.18-2.37 14.82-6.52 3.22-5.06-.91-9.54-6.59-12-2.22-1-4.85-1.77-7.31-1.16-5.86 1.47.25 10.88-4.1 14.66-.79.68-1.73 1.36-1.88 2.26a1.41 1.41 0 0 0 .08.82zm-30.84.58a6.13 6.13 0 0 0 3.59 1.26c8.68 1 19.64-3.48 22.3-10.26 3.81-9.72-11.32-12.74-20.88-12.46-1.24 0-2.82.31-3.06 1.25a1.15 1.15 0 0 0 .4 1.08 7.47 7.47 0 0 0 1.19.94 7.71 7.71 0 0 1 3.56 7.44c-.5 2.9-9.51 8.38-7.13 10.75zM283.43 874c-1.57-.72-3.81-1.81-5-2.52-2.19-1.29-6.46-4.77-6.85-9.39-.36-4.22 2.66-7.46 4.73-9.68 5-5.4 11.47-7.4 10.87-8.42-.44-.76-4.22-.09-5.72.18a48.34 48.34 0 0 0-15.69 6.19c-3.82 2.25-7.75 5.15-9.06 8.82-2.22 6.22 3.46 10.11 10 12.61 10.79 4.12 21.58 5.1 21.81 4.47.09-.2-1.3-.49-5.09-2.26zm31.87-29c5-2.46 10.21-2.83 10.09-3.41s-4.74-.54-8.26-.13c-14.75 1.74-31.6 13.33-28.87 22.1 1.11 3.57 5.17 5.7 7.8 7.08 7.42 3.91 16.3 3.58 21.36 3.39 3.08-.11 4.31-.49 10-.69a12.5 12.5 0 0 0 3.41-.34c0-.48-13.32 1.16-21.28-4.39-.69-.48-4.6-3.29-5.41-7.78-1.23-6.72 5.32-12.93 11.16-15.83zm60.38-45a.93.93 0 0 0-.75-.1c-14 1.92-15.73 2.08-15.73 2.08-8.16 2.26-12.28 3.41-14.54 4.84-2.44 1.55-5.58 3.53-5.65 6.25-.08 3.39 4.63 5.79 7 7 1.61.83 4.24 1.94 17 3.71 7.65 1.07 10.77 1.24 10.83 1 .13-.41-10.53-.48-16.46-6.06-.53-.5-5.6-5.27-3.49-8.92 3.05-5.26 21-8 21.75-9.17.2-.51.04-.63.04-.63zm10.54 24.51c.1-.3-4-.56-8-3a12.87 12.87 0 0 1-5.29-5.72c-.31-.73-1.76-4.14-.14-7.08 3.49-6.32 19-6.54 18.78-7.63-.11-.59-4.78-.82-9.2.08a27.2 27.2 0 0 0-4.56 1.37c-8.34 3.21-12.51 4.81-13.77 7.38-1.73 3.53.8 7.63 3.44 9.82 2.36 2 5.13 2.64 9.24 3.65 4.95 1.16 9.4 1.4 9.5 1.08zM523.88 816c-1.39-2.72-5-4.49-12.35-8-4.32-2.09-6.86-3.33-10.78-4.33-7.43-1.89-15.05-1.73-15.36-.76-.25.77 4.33 1.41 10.23 5.26a18.6 18.6 0 0 1 5.49 4.76 13.68 13.68 0 0 1 2.34 7.15c.06.62.41 4.39-.61 7-3.12 8.17-20.88 10.46-20.47 11.66.34 1 12.79-.44 25.76-4.4 9-2.74 11.65-4.68 13.37-6.64.3-.35 5.21-6.16 2.38-11.7zm-165.95 376.64c-.62-2.55-1.74-6.25-20.75-15.73a162.77 162.77 0 0 0-26.18-10.64c-10.82-3-24.32-8.34-47.88-7.5-17.85.65-37.41-1.12-76.51-5a35.7 35.7 0 0 1-19.28-8c-2.86-2.35-12.11-10.21-12.16-19.83-.08-13.59 19.92-22.72 24.63-24.89 16.88-7.81 24.14-2.29 47.52-9.3 9.52-2.85 21.41-6.41 21.5-11.6.13-7.11-22-13.3-36.43-17.31-5.79-1.62-36.68-8.67-66.71-10-14-.64-28-.07-42-1.32-11.82-1-26.06-2.61-35.87-11.36-1-.87-2.83-2.2-2.91-4.21-.14-3.45 4.9-6.3 7-7.51 9.45-5.36 22-5.05 31.41-3.72 19.84 2.16 23.92 4.39 24 6 .07 2.57-9.46 4.71-13 5.52-14.08 3.18-29.67 2.4-30-.5-.14-1.31 2.84-3.18 5.33-3.68a10.07 10.07 0 0 1 5.32.67c6.07 1.69 12.53-1.37 12.51-2.25 0-1.09-30.67-4.06-32.17 3.2a4.23 4.23 0 0 0 .61 2.73c2.77 5.74 10.5 6.43 21.58 6.69 15.27.37 22.91.56 30.83-.66 9.53-1.47 28.29-4.37 28.59-10 .2-3.91-8.38-8.12-13.46-9.71-3.58-1.11-6.11-1.13-10.37-1.33-10.63-.51-7.52-1-19.9-1.68-50.75-2.78-89.55 6.13-100.62 16.57-1.18 1.12-4.37 4.12-4.2 7.86.17 4.08 4.25 7.14 8.13 9.38 12.28 7.11 25.45 7.68 33.07 7.7 16.26 0 19.85-2.38 38.92-1.91 3.24.08 1.6.1 12 .57 18.5.85 27.89 1.28 34.78 1.11 9.48-.22 19-.92 28.46-.42a217.31 217.31 0 0 1 23.43 2.61c5.63.9 12.44 3.33 13.53 10 1 6.19-3.9 11.52-8.79 13.93-5.48 2.7-9.87 4.82-14.51 6.92-13.46 6.12-11.57 6.75-28.81 12-14.61 4.5-20.2 3.1-34.69 9.15a49.9 49.9 0 0 0-12 7c-6.07 4.74-16 12.12-6 20.48 14 11.72 31.91 13.52 31.91 13.52 22.56 2.09 42 3 45.62 3.23 13.73.69 10.83.82 25.75 1.62 22 1.18 38.58 1.45 62 4.28 0 0 29.15 3.53 37.1 20a33.88 33.88 0 0 1 2.44 7c-.1.86-.21 1.6-.31 2.21a44.21 44.21 0 0 1-17.39 28.14c-2.59 2-7.33 5.14-24 8.54a205.56 205.56 0 0 1-34.9 4c-2.6-.28-33.74-3.86-34.89-15.56-.81-8.19 13.46-16.37 14.71-17.08 7.93-4.44 16.5-3.63 33.63-2a27.88 27.88 0 0 1 10.52 3.51c2.54 1.44 6.72 3.81 6.72 7 0 .85-.29 2.33-3.36 5a26.76 26.76 0 0 1-12.06 6.11c-7 1.38-20.3 1.88-22-4.09-1.88-6.59 7.87-7.3 11.16-8.35a20.43 20.43 0 0 0-15.88-.86c-4.81 1.84-11.73 6.7-11.26 11.21.58 5.51 11.94 7.81 15.55 8.53 9.34 1.89 12.72-.57 27.33-2.51 17.95-2.38 20.32-1.92 32.88-7.43 6-2.62 11.57-5.06 11.57-8.37 0-5.29-14.37-9.29-22.5-11.55a142.73 142.73 0 0 0-34.56-5.29c-27.62-.59-47.87 5.42-55.62 8.09-14.49 5-31.53 10.84-31.46 18.46.06 6.86 13.93 12 24.11 15.73 13.59 5 24.37 5.85 38.58 6.93a214 214 0 0 0 35.32-.5c15.34-1.6 14-3.17 53.81-12 12.69-2.83 25.05-7.48 37.65-10.78 11.78-3.08 18.68-3.91 22.27-12.1.33-.64 3.31-7.68 1.61-14.67zm-224.88-168c4.87.25 5.29 0 7.91.38s5.71.87 7.81 3c7.15 7.25-17.84 10.68-21 11.06a28.78 28.78 0 0 0 11.44-4c.8-.48 2.15-1.35 2.24-2.68.05-.65-.22-1.46-1.4-2.68-1.9-2-4.07-2.8-8.25-3.93-3.41-.93-5.22-1.24-5.2-1.42s2.4.07 6.45.28zm-94.16 31.19c-5.4-.25-10.16-.46-14.86-4-2.29-1.74-5.6-4.25-5.83-8.22-.29-5 4.55-8.85 5.46-9.57 1.5-1.19 3.72-1.9 8.09-3.27 2-.62 6.68-3.19 8.66-1.85-3.62 2.68-9.44 3.9-11.4 8.79a9.56 9.56 0 0 0 3 11.22c4.31 3 9.21 3.93 13.79 6.09-1.5 1.52-4.93.91-6.91.82zm31.67-1.34c-9.27-.3-13.91-.44-14.86-.67-1.36-.33-14.43-3.49-15.69-12.39-.74-5.24 3-9.88 3.64-10.71 3.17-4 7.31-4.76 15.59-6.37 5.13-1 8.19-1 8.24-.66.09.69-11.56.69-14.86 8.37a13.36 13.36 0 0 0-.28 9c3.85 11.47 24.54 11.7 24.39 13.05-.06.56-3.04.49-6.17.39zm149.37 12.72c4.82 1.57 17.09 5.57 16.92 9-.11 2.16-5 3.26-11.63 4.78-10.1 2.3-16.42 1.78-16.42 1.72a22.37 22.37 0 0 0 12.24-3.87c3.92-2.62 3.91-4.34 3.88-4.72-.07-1.06-.94-1.71-2.68-3-2.09-1.55-3.41-1.9-6.21-3.78-1.69-1.13-1.7-1.33-1.69-1.39.11-.51 4.66.98 5.59 1.27zm-16.31 12c1.07-1.45 3.15-4.26 2.74-7.54a7.91 7.91 0 0 0-1.69-3.76 11.67 11.67 0 0 0-6.72-4.77c0-.07 18.3 3.75 18.32 9.76 0 1-.5 1.66-1.5 3-2.61 3.54-4.91 3-11.31 5.91-2 .9-3.93 1.91-4 1.65s2.07-1.46 4.16-4.27zm-68.81 70.62c-5.89-1.48-8.84-2.21-11.52-3.35-1.87-.79-17.29-7.31-17.29-15.63s15.31-15.11 19.72-17.07a49.09 49.09 0 0 1 7.11-2.53 31.07 31.07 0 0 0-5.88 4.35c-2.41 2.27-5.48 5.17-6.45 9.62a15.38 15.38 0 0 0 .28 6.87c3.06 13 19.72 17.09 19.43 18.47-.11.44-2.21.04-5.4-.75zm5.74-5.87c-4.74-4.12-7.12-8-7.85-12.72-2.62-16.83 24.06-25.46 24.42-23 .11.72-3.32.93-7.69 4.86-1.1 1-10 9.18-9.22 17.79.53 6 5.87 8.4 12.89 14.37 5.82 5 12.45 7.3 19.06 9.08-10.6-1.99-22.28-2.27-31.61-10.4zm131.61 69.2a6.65 6.65 0 0 0 .46-3.48c-.51-3.13-3.66-4.41-3.4-5.05s2.48.23 3.51.59a8.65 8.65 0 0 1 3 1.42c.3.24 2.39 1.92 2.53 3.76.29 4.08-9.94 7.68-10.09 7.28-.09-.22 2.83-1.26 3.99-4.54zm-16.82-10.54c.3-.67 3.76.9 4.46 1.22 3.77 1.72 5.67 2.51 6.31 4.29 2.44 6.79-6.25 11.8-10.43 12.89-.47.12-1.13.07-1.2-.49.91-1 1.9-1.81 2.75-2.85 1.15-1.4 2.83-3.45 2.83-6.05 0-1.71-.73-3-1.62-4.61-1.56-2.87-3.32-3.93-3.1-4.42zM171.16 1229c-4.2-1.58-5.4-1.59-7.19-2.92-.48-.36-4.72-3.59-4.76-7.37-.09-7.36 15.77-13.31 16-12.7.07.16-1 .79-2.93 3.09a14.72 14.72 0 0 0-2.39 3.52 12.23 12.23 0 0 0-.64 6.43c.78 7 6.69 11.7 7.56 12.38-1.21-.56-3.18-1.43-5.65-2.43zm21.17 6.35c-4.92-1.78-7.46-2.7-9.81-5.36a19.85 19.85 0 0 1-4.65-14c.73-8.57 8.53-16.49 18.94-16.74a36.43 36.43 0 0 0-8.71 7.39c-3 3.51-3.74 5.71-4.1 7.32a13.1 13.1 0 0 0-.14 4.62 17.84 17.84 0 0 0 4.34 9.31c5.7 6.9 12.45 8.44 12.26 9.18-.15.57-4.21-.26-8.13-1.68zm116.59-19.22a121.05 121.05 0 0 1-13.48 6.38c6-2.68 11.95-11.63 14.67-18.24 3.14-7.63 3.2-16.24-1.51-23-.76-1.1-9.07-8.44-12.5-10.27a54 54 0 0 1 18.3 9.32c4.17 3.16 10.37 7 11.22 13.48 1.26 9.55-11.03 18.97-16.7 22.37zm33-13.82c-7.5 5.45-17 9.92-17.39 8.79s9.77-4.24 11.5-13.14a17 17 0 0 0-.84-8.71 15.18 15.18 0 0 0-7.52-8.68 53.75 53.75 0 0 1 5.28 2.66 38.67 38.67 0 0 1 10.93 9c1.85 2.24 2.26 3.28 2.24 4.35.01 2.6-2.37 4.42-4.12 5.77z"/></g></g></g></svg>