<svg xmlns="http://www.w3.org/2000/svg" viewBox="0 0 110 50"><path d="M110 25.4c-.33-3.93-3.88-6.56-8-6.7a2.87 2.87 0 0 0 .26-3.06 3.59 3.59 0 0 0-4.07-1.45 8 8 0 0 0-6.15-4.56 6.39 6.39 0 0 0 .21-2.13C92 4 87.79.88 83.72.79c-.65 0-3.43-.07-4.83 1.54a6.51 6.51 0 0 0-1.41 3.2 3.37 3.37 0 0 1-.42 1.7c-.45.69-1 .73-1.11 1.3-.06.26 0 .44.58 1.61.78 1.59.87 1.68 1 1.78.44.4.8.4 2.23.78 2.33.61 2 .78 2.77.83 1.56.09 2.77-.51 3.53-.43a.64.64 0 0 0 .44-.08.53.53 0 0 0 .19-.43c.07-.88 1.75-2.59 1.23-4-.29-.75-1.16-1.14-2.51-1.74a5.23 5.23 0 0 0-1.52-.44 3 3 0 0 0-2 .24c-.45.27-1 .86-.92 1.39.21.78 1.91 1 2.1 1 .57.06 1 0 1 .09s-.44.35-.86.4a3.42 3.42 0 0 1-2.62-.44c-.75-.67-.59-1.79-.38-2.74a1.17 1.17 0 0 1 .26-.59 1.27 1.27 0 0 1 .73-.27c1.19-.1 2.25.38 3.81.43h1.12a5.2 5.2 0 0 1 2.46 1c1.86 1.32 2.9 4.22 1.9 5.22-.71.72-2.58.59-2.78 1.36a.85.85 0 0 1-.31.61.78.78 0 0 1-.51.1 14.81 14.81 0 0 0-5 1c-1.27.55-1.23 1-2 1a2.93 2.93 0 0 1-2.51-1.51c-.41-.81 0-1.42-.53-1.76s-.91 0-1.66 0a3.78 3.78 0 0 1-3-3 3.6 3.6 0 0 1 .84-3.12c.74-.77 1.34-.58 2.49-1.69a2.85 2.85 0 0 0 1-1.71 2.06 2.06 0 0 0-.38-1.36C75 .12 71.23 0 70.63 0a7.77 7.77 0 0 0-5.17 1.26 5.82 5.82 0 0 0-1.9 2.6h-.44c-2.71.06-4.8 2-6 3.27 3.23 1.79 3.78 3 3.65 3.69s-.68.89-.83 1.81a3.82 3.82 0 0 0 .63 2.41c.95 2 1 5.08-.44 6.35-.92.82-1.62.16-4.94 1.13a26.52 26.52 0 0 0-3.28 1.2c-2.78 1.18-3.08 1.74-4.25 1.66a5.75 5.75 0 0 1-3.1-1.47c-.69-.64-.6-.92-1.26-1.34-1.07-.67-1.8-.24-2.78-.8a3.39 3.39 0 0 1-1.43-2.08 4.89 4.89 0 0 1 1-4.11 5.53 5.53 0 0 1 1.79-1.73c1.09-.65 1.52-.37 2.93-1.11a14.83 14.83 0 0 1 2-1.18 3.62 3.62 0 0 1 2.07-.32 3.71 3.71 0 0 1 1.75 1.11 4 4 0 0 1 1.42 1.75 2.33 2.33 0 0 1-.4 2.23 3.33 3.33 0 0 1-2.74.61c-1-.1-2-.48-2-.69s1.12 0 2.4-.59c.3-.15 1.37-.66 1.4-1.44a1.09 1.09 0 0 0-.16-.58 3 3 0 0 0-3.35-1c-.83.33-.65.87-1.72 1.74s-1.84.67-2.61 1.33a3.84 3.84 0 0 0-.45 4.66c1.61 2.5 6.12 1.86 6.32 1.83 1.9-.29 2.05-1 4.27-1.27 2-.19 2.6.25 3.67-.3 1.36-.71 2.28-2.47 1.78-3.57s-1.73-.93-1.8-1.71 1.14-1 1.55-2.26a3.18 3.18 0 0 0-.12-2.09 5.24 5.24 0 0 0-2.88-2.77 7.3 7.3 0 0 0-6.79-.11c-.26.13-3-.62-3.54-.61a9.19 9.19 0 0 0-3 .44 7.87 7.87 0 0 0-5.1 5.12 7.9 7.9 0 0 0-2.33 3 9.48 9.48 0 0 0-4.87-1.19 7.78 7.78 0 0 0-7.09 5.56 4.76 4.76 0 0 1 .64 4.47 5 5 0 0 1-3 2.72 4.34 4.34 0 0 1-1.83.15c-2.08-.28-2.31-2-4.56-2.94a7.1 7.1 0 0 0-4-.42c-1.92.41-2.07 1.47-4 2.21-2.92 1.15-5.63-.19-5.74.15s3.36 2.57 7.06 1.93c2.32-.4 2.59-1.54 4-1.31 2.11.35 2 3 5.8 6.22a5.58 5.58 0 0 0 3.72 1.7 4.58 4.58 0 0 0 2.34-.73 2.31 2.31 0 0 0 .24.2c2.92 2.47 5.79 1.3 9.07 1a4.25 4.25 0 0 1 .06.71c.28 3.36 4.43 6.37 8.56 6.71a10 10 0 0 0 3.64-.38A1.91 1.91 0 0 0 45.57 44a2.75 2.75 0 0 0 1.6-.14c.88-.24 1.34-.57 1.49-.44s-.11.43-.18.65c-.39 1.22 2.73 4.34 6.4 4.33a7.58 7.58 0 0 0 4.85-1.82c1.34-1.18 1.66-2.51 2.31-2.43s.47 1.42 1.53 2.78A7.93 7.93 0 0 0 67 49.45c2.26.85 5.63.8 7.56-.77a3.87 3.87 0 0 0 1.32-1.94l-1.48-2.43a2.85 2.85 0 0 1-1.83-1.18c-.3-.5-.14-.78-.49-1.14-.61-.65-1.53-.18-2.08-.69s.3-1.5-.08-2.85-1.59-1.24-2.21-2.75a5.3 5.3 0 0 1 .06-3.38c.31-1.35.51-2.21 1.31-2.85 1-.82 1.83-.37 2.76-1.31.56-.56.41-.88 1.14-1.75a8 8 0 0 1 1.5-1.31 11.06 11.06 0 0 1 5.63-1.48c2.69-.12 4.06-.19 5.3.7a5 5 0 0 1 1.9 5.09c-.45 1.63-1.81 2.31-1.66 3.88a2.71 2.71 0 0 0 .73 1.56A6.63 6.63 0 0 0 84 36.26c-1.2 1.14-1.08 2-2.11 2.41a4.45 4.45 0 0 1-3.11-.34 4.14 4.14 0 0 1-1.17-.71 5.58 5.58 0 0 1-.83-1.14c-.82-1.17-1.21-1.36-1.12-1.82 0-.27.1-.71.58-.76.66-.07 1-.56 1.37-.7 1.67-.58 2.29-1.2 2.39-1.07s-.6 1.16-1.48 1.86a7.19 7.19 0 0 1-1.38.85 3.89 3.89 0 0 0 3.33 2A4.11 4.11 0 0 0 84 34.1a13.56 13.56 0 0 0 0-3.72c-.1-1.45-.06-1.71-.28-2.11-.74-1.3-2.55-1.62-3-1.71a7.85 7.85 0 0 0-4.47.75 8.23 8.23 0 0 0-2.28 1.35l-.09.08a10.21 10.21 0 0 0-1.34 1.62 13.21 13.21 0 0 0-.69 1.14c-1 1.86-1.59 3-1.35 4.2.14.75.4.51 1 2s.35 1.74.86 2.48 1 .79 1.88 1.56a7.41 7.41 0 0 1 1.91 2.59l1.68.18c.84.09 1.88.92 2.79 1.12a8.37 8.37 0 0 0 3.27.08 8.59 8.59 0 0 0 5-2.71c.74-.87 1-2.82 2-3.38s2.88.64 3.84.78a8.78 8.78 0 0 0 5.49-1 7.78 7.78 0 0 0 2.9-2.85c.15-.26 1.17-3.43.95-3.39A7.68 7.68 0 0 0 110 25.4z" fill="#b64e30"/></svg>