<svg xmlns="http://www.w3.org/2000/svg" viewBox="0 0 169.87 402.5"><defs><style>.cls-1,.cls-2{fill:#b64e30}.cls-1,.cls-4{stroke:#221e1f;stroke-linecap:round;stroke-linejoin:round;stroke-width:2.5px}.cls-3{fill:#221e1f}.cls-4{fill:none}</style></defs><g id="レイヤー_2" data-name="レイヤー 2"><g id="illust"><path class="cls-1" d="M97.63 365.88s-8.95 8.49-11.75 8.83-18.79 2.63-20.39 6.29-1.37 7.84 8.91 8.6 23.07-1.72 27.67-2.48a61.39 61.39 0 0 0 12.59-4c1-.57 1.8-15.28 1.6-17.19s-11.79-3.63-11.79-3.63z"/><path class="cls-1" d="M119.59 371.61s-6.12 10.59-9.92 13.42-10 8-9 12.37 8.4 4 13.79 3.63 19.39-4.77 21.59-6.11 3.4-4.87 5.2-5.21 5.19.27 5.19-3.28-.52-16.72-2.56-20-13.83-1.34-13.83-1.34z"/><path class="cls-2" d="M143.23 38l-1-5-17.55-8.5-9.38-8.5-8.54 13.92 1.3-13 10-12.68 13.34-2.52 13.34 4.44 7 5.87 3.53 13.25-.86 10s-6.52 9.42-4.55.88c.55-2.43-1.94-1.91-1.94-1.91zM42.67 123.37l-12.92.54-1.31-6.8L1.76 58.33l52.7-7.7L83 119l-25.71-1.49s-1.23-2.91-2.81-3.22c-2.33-.47-2.56 3.55-2.56 3.55l-3.42-4.25-1.39 3.92L43 117z"/><path class="cls-2" d="M56.4 122.73s-1-5.41.87-5.26 70.86.54 70.86.54l-1 8L72.24 125l-7.61-.13-4.13 1.24z"/><path class="cls-3" d="M75.2 190.6l3.6 66.64c.88 7 4.54 26.87 6.51 36s6.25 30.57 8.31 35.15 6 18.34 4 21.4 0 16.05 0 16.05 6.84 3.44 16.83 1.91c0 0 .39 6.5 9 6.88a78.41 78.41 0 0 0 18.3-1.91s7.23-21.21 9.76-29.9 5.28-45.76 3.3-53.78-4.23-28.67-4.23-28.67l7.42-44.09c3-9.79 0-25.68 0-25.68 0-1.78-1.4-17.55-1.4-17.55s-.87 6.39-2.68 7.5-31.23 9.24-32.57 9.48-25.45 3.2-25.45 3.2l-8-14.52-8 13.45z"/><path class="cls-4" d="M145.69 43.66s5.89-3.49 8.14-9.39.56-20.13-4.21-24.7-14.89-8.32-21.07-8.32-12.63 3.49-12.63 3.49 3.37-2.68-4.21 5.91-5.06 21-5.06 21 3.65-13.26 8.14-15.95c0 0 5.9 7.79 11.52 9.4a72.07 72.07 0 0 1 14.6 6.55c2 1.23 1.41 7.14 1.41 7.14s4.49-7.52 6.46-5.37-1.13 9.97-3.09 10.24zm-39.04-11.97s0 8.22 1.13 12 5 15.84 10.67 16.38 19.37-7.25 23.3-11.81"/><path class="cls-4" d="M145.69 43.66l-1.41 5.64s-5.9 5.91-8.14 8.66-16.29 6.1-18.54 6.64-2.86-6.6-2.86-6.6-2.47 8-2.2 11.74l5.06-5.1"/><path class="cls-4" d="M117.6 64.6l3.4 8.59S140.07 59 141.75 56.68s2.53-7.38 2.53-7.38m-30.45 11.95s-12.79 7.11-15 8.45S91.49 78 89 82.59 74 94.34 73.41 96.8m11.06 8.06c2.62-8.63 6.88-20.18 6.88-20.18M151.51 76s-10.83 13.8-12.85 16.49-3.93 8.91-5.61 10-4.21 17.45-4.91 19.33-1.55 4-1.55 4m-34.26 17.43H81.1l1.4-15.57 8.43-.94s27.23-.94 31.87-.94 7.44 1.34 8.14 1.88 5.48 4.83 6.6 6.84"/><path class="cls-4" d="M92.33 143.25s8.89 2.69 12.73 3.76 20.13 2.15 23.08 2.68 13.9.81 16.14-1.88 9.74-18 12.64-22c2-2.68 9.27-12.88 11-18.25s.28-25-1.68-30.2-12.08-14.58-16.57-17.29l-7.19-4.52m-65.69 48.24c.47-.09 3.75-1 4.31-.36s4.4 1.26 5.89 2.69a5 5 0 0 1 1.41 3.49 13.92 13.92 0 0 1 .84 2.41c.19 1-1.31 2.78-2.9 2.78s-4.57-3.58-2.76-4.39 3.5-.63 3.83 1.26M82 106.83c.28.36-1 3.63-2.06 5.86"/><path class="cls-4" d="M127.62 123.13c.1-.24 0-5.38 0-5.38l-46-1.07L54 49.75 1.25 58.07l26.68 58.79 1.31 6.8 13.2.45"/><path class="cls-4" d="M55.55 130.64s-7.68-.27-8.34-1-5.15-5-5.05-6.53-.1-6.36 1.4-6.26 2.16 4.65 2.16 4.65"/><path class="cls-4" d="M81.1 140.3s-8.33-4.3-10.21-5.1-9.54-2.33-10.39-2.51-10.67-3.84-12.07-4.56a4.74 4.74 0 0 1-2.62-4c.09-1.62.66-5.11.75-6.36s0-4.74.84-4.65 2.53 1.52 3 3.76a37.86 37.86 0 0 1 .1 7.25"/><path class="cls-4" d="M59.85 131s-9.27-3.49-9.17-4.83 1.12-6.26 1.21-7.87.47-4.66 2.06-4.3 2.53 5.28 2.43 6.53-.37 3.59-.37 3.59 5.05 2.14 6.83 1.69m19.31 2.27a14.17 14.17 0 0 0-3.77-2.28c-2-.71-4.68.36-6.36.45s-5.34-.89-7.27-1.52-1.81.27-1.91 2 9.27 4.92 9.27 4.92M30 117.21c.47.09 12.54 0 12.54 0m2.05 0h1.99m9.31.04h23.05m-13.38 7.28l51.48 1.39m-30.89-10.68s-1.78 1.5-1.68 1.5m-6.58 21.92a46 46 0 0 1-1.1 6.82c-.65 2 .65 10.93 2.12 13.61s-4 26.9-4.47 29 3.83 3.75 5.51 4l8-13.45 8 14.52 22.75-2.78c5-.27 27.18-7.37 31.89-8.3 6.73-1.32 6.06-9.1 6.06-9.1l-.28-5.37s-1.12-5.37-1.55-8.86 4.92-19.33 4.92-24.3 5.04-20.45 5.04-20.45"/><path class="cls-4" d="M75.2 190.6l3.6 66.64c.88 7 4.54 26.87 6.51 36s6.25 30.57 8.31 35.15 6 18.34 4 21.4 0 16.05 0 16.05 6.84 3.44 16.83 1.91c0 0 .39 6.5 9 6.88a78.41 78.41 0 0 0 18.3-1.91s7.23-21.21 9.76-29.9 5.28-45.76 3.3-53.78-4.23-28.67-4.23-28.67l7.42-44.09c3-9.79 0-25.68 0-25.68 0-1.78-1.4-17.55-1.4-17.55m-66.24-29.8s-4.49 18.79-3 29.8"/><path class="cls-4" d="M98.53 202.59l3.47 27.32c2.09 9.49 10.89 37.18 12.89 44s4.65 38.51 4.72 49.2-5.13 44.71-5.13 44.71M119 29.63s-2.83 6-4.75 6.37c0 0 1.43 1.93 2.28 2.22m-1.66 4.93s6.16.48 8.58 0c0 0-.81 7.19-4.44 7s-4.14-7-4.14-7z"/><ellipse class="cls-3" cx="113.09" cy="31.54" rx="1.37" ry="1.31"/><ellipse class="cls-3" cx="125.97" cy="31.97" rx="1.37" ry="1.31"/><path class="cls-4" d="M114.87 70.53s-8.49 16.91-8.11 19.06-7.87 25.65-7.87 25.65M120.7 92s9.37.73 15.67.87M119 96.23s-.72 6.81 0 8.63 7 6 7 6l3.13-1.28"/></g></g></svg>